<?xml version="1.0" encoding="utf-8"?>
<!-- Generator: Adobe Illustrator 16.0.0, SVG Export Plug-In . SVG Version: 6.00 Build 0)  -->
<!DOCTYPE svg PUBLIC "-//W3C//DTD SVG 1.1//EN" "http://www.w3.org/Graphics/SVG/1.1/DTD/svg11.dtd">
<svg version="1.1" id="Layer_1" xmlns="http://www.w3.org/2000/svg" xmlns:xlink="http://www.w3.org/1999/xlink" x="0px" y="0px"
	 width="512px" height="512px" viewBox="0 0 512 512" enable-background="new 0 0 512 512" xml:space="preserve">
<g id="Page_1">
	<g id="BackBone.JS">
		<path id="Path" fill="#002A41" stroke="#848484" d="M129,97.405v171.966l128,72.967v-49.599l-85.63-48.813v-76.671L257,216.069
			v-45.698L129,97.405z"/>
		<path id="Path_1_" fill="#0572B6" stroke="#848484" d="M385,97.405v171.966l-128,72.967V292.74l85.63-48.813v-76.671L257,216.069
			v-45.698L385,97.405z"/>
		<path id="Path_2_" fill="#0572B6" stroke="#848484" d="M129,415.379V243.413l128-72.965v49.598l-85.63,48.813v72.771L257,292.815
			v49.598L129,415.379z"/>
		<path id="Path_3_" fill="#002A41" stroke="#848484" d="M385,415.379V243.413l-128-72.965v49.598l85.63,48.813v72.771L257,292.815
			v49.598L385,415.379z"/>
	</g>
</g>
</svg>
