<?xml version="1.0" encoding="utf-8"?>
<!-- Generator: Adobe Illustrator 16.0.0, SVG Export Plug-In . SVG Version: 6.00 Build 0)  -->
<!DOCTYPE svg PUBLIC "-//W3C//DTD SVG 1.1//EN" "http://www.w3.org/Graphics/SVG/1.1/DTD/svg11.dtd">
<svg version="1.1" xmlns="http://www.w3.org/2000/svg" xmlns:xlink="http://www.w3.org/1999/xlink" x="0px" y="0px" width="512px"
	 height="512px" viewBox="0 0 512 512" enable-background="new 0 0 512 512" xml:space="preserve">
<g id="Layer_1">
</g>
<g id="Isolation_Mode">
	<path fill="#A4BECC" d="M416.502,364.161c0,9.45-7.68,17.13-17.131,17.13h-57.169c-9.449,0-17.129-7.68-17.129-17.13v-57.169
		c0-9.476,7.68-17.129,17.129-17.129h17.131v-34.287H267.93v34.287h17.156c9.45,0,17.13,7.653,17.13,17.129v57.169
		c0,9.45-7.68,17.13-17.13,17.13h-57.169c-9.45,0-17.129-7.68-17.129-17.13v-57.169c0-9.476,7.68-17.129,17.129-17.129h17.156
		v-34.287h-91.428v34.287H170.8c9.45,0,17.13,7.653,17.13,17.129v57.169c0,9.45-7.68,17.13-17.13,17.13h-57.168
		c-9.45,0-17.13-7.68-17.13-17.13v-57.169c0-9.476,7.68-17.129,17.13-17.129h17.156v-34.287c0-12.508,10.361-22.856,22.857-22.856
		h91.428v-34.272h-17.156c-9.45,0-17.129-7.68-17.129-17.143v-57.156c0-9.463,7.68-17.143,17.129-17.143h57.169
		c9.45,0,17.13,7.68,17.13,17.143v57.156c0,9.463-7.68,17.143-17.13,17.143H267.93v34.272h91.403
		c12.521,0,22.883,10.349,22.883,22.856v34.287h17.155c9.451,0,17.131,7.653,17.131,17.129V364.161z"/>
</g>
</svg>
