<?xml version="1.0" encoding="utf-8"?>
<!-- Generator: Adobe Illustrator 16.0.0, SVG Export Plug-In . SVG Version: 6.00 Build 0)  -->
<!DOCTYPE svg PUBLIC "-//W3C//DTD SVG 1.1//EN" "http://www.w3.org/Graphics/SVG/1.1/DTD/svg11.dtd">
<svg version="1.1" id="Layer_1" xmlns="http://www.w3.org/2000/svg" xmlns:xlink="http://www.w3.org/1999/xlink" x="0px" y="0px"
	 width="512px" height="512px" viewBox="0 0 512 512" enable-background="new 0 0 512 512" xml:space="preserve">
<g>
	<path fill="#47B64A" d="M371.991,180.411c-15.073,0-29.109,4.38-40.952,11.908l-74.601,54.79l-39.32-28.875
		c-2.372,3.846-4.758,7.668-7.04,11.625c-0.55,0.953-1.061,1.916-1.6,2.868l32.866,24.134l-68.968,50.645
		c-9.452,5.893-20.325,9.008-31.491,9.008c-32.889,0-59.65-26.757-59.65-59.652c0-32.891,26.757-59.65,59.65-59.65
		c11.167,0,22.044,3.111,31.491,9.006l6.856,5.032c2.832-4.896,5.768-9.68,8.731-14.427l-6.128-4.5
		c-11.838-7.532-25.879-11.908-40.951-11.908c-42.217,0-76.446,34.229-76.446,76.446c0,42.22,34.225,76.446,76.446,76.446
		c15.072,0,29.113-4.381,40.951-11.906l74.602-54.788l39.471,28.99c2.42-3.963,4.832-7.939,7.219-12.081
		c0.473-0.818,0.903-1.636,1.367-2.454l-32.961-24.207l68.966-50.644c9.451-5.892,20.326-9.006,31.491-9.006
		c32.893,0,59.649,26.759,59.649,59.65c0,32.896-26.757,59.648-59.649,59.648c-11.165,0-22.04-3.111-31.491-9.004l-6.759-4.961
		c-2.859,4.943-5.757,9.746-8.668,14.468l5.971,4.38c11.842,7.534,25.879,11.911,40.951,11.911
		c42.217,0,76.444-34.228,76.444-76.446C448.439,214.64,414.212,180.411,371.991,180.411z"/>
</g>
</svg>
