<?xml version="1.0" encoding="utf-8"?>
<!-- Generator: Adobe Illustrator 16.0.0, SVG Export Plug-In . SVG Version: 6.00 Build 0)  -->
<!DOCTYPE svg PUBLIC "-//W3C//DTD SVG 1.1//EN" "http://www.w3.org/Graphics/SVG/1.1/DTD/svg11.dtd">
<svg version="1.1" id="Layer_1" xmlns="http://www.w3.org/2000/svg" xmlns:xlink="http://www.w3.org/1999/xlink" x="0px" y="0px"
	 width="512px" height="512px" viewBox="0 0 512 512" enable-background="new 0 0 512 512" xml:space="preserve">
<path fill="#EF3F2F" d="M441.755,274.103L274.099,441.756c-9.651,9.659-25.311,9.659-34.975,0l-34.811-34.817l44.16-44.163
	c10.265,3.467,22.035,1.14,30.213-7.04c8.228-8.231,10.532-20.103,6.979-30.403l42.565-42.562c10.3,3.551,22.176,1.256,30.403-6.983
	c11.492-11.489,11.492-30.114,0-41.612c-11.5-11.499-30.121-11.499-41.626,0c-8.644,8.652-10.782,21.354-6.399,32.004l-39.7,39.698
	V201.413c2.799-1.388,5.443-3.236,7.778-5.563c11.492-11.492,11.492-30.114,0-41.623c-11.493-11.487-30.126-11.487-41.61,0
	c-11.492,11.509-11.492,30.131,0,41.623c2.84,2.837,6.13,4.983,9.639,6.419v105.43c-3.509,1.438-6.791,3.565-9.639,6.423
	c-8.704,8.7-10.798,21.479-6.333,32.169l-43.537,43.544L72.242,274.88c-9.656-9.666-9.656-25.326,0-34.983L239.908,72.242
	c9.652-9.656,25.307-9.656,34.974,0l166.873,166.877C451.415,248.778,451.415,264.447,441.755,274.103"/>
</svg>
