<?xml version="1.0" encoding="utf-8"?>
<!-- Generator: Adobe Illustrator 16.0.0, SVG Export Plug-In . SVG Version: 6.00 Build 0)  -->
<!DOCTYPE svg PUBLIC "-//W3C//DTD SVG 1.1//EN" "http://www.w3.org/Graphics/SVG/1.1/DTD/svg11.dtd">
<svg version="1.1" xmlns="http://www.w3.org/2000/svg" xmlns:xlink="http://www.w3.org/1999/xlink" x="0px" y="0px" width="512px"
	 height="512px" viewBox="0 0 512 512" enable-background="new 0 0 512 512" xml:space="preserve">
<g id="Layer_1">
</g>
<g id="Isolation_Mode">
	<g>
		<path fill-rule="evenodd" clip-rule="evenodd" fill="#EA4C4D" d="M242.092,448.723c-0.958-1.779-2.892-1.224-4.351-1.717
			c-4.046-1.37-8.27-2.237-12.27-3.718c-18.112-6.706-18.039-6.762-19.314-25.914c-0.887-13.31-1.987-26.604-2.888-39.913
			c-0.13-1.922-0.845-3.443-1.815-5.002c-2.61-4.19-5.14-8.432-7.701-12.652c0.292-0.241,0.584-0.48,0.876-0.72
			c39.861,11.757,79.659,11.233,120.096-0.173c-1.24,2.055-2.313,4.331-3.832,6.256c-4.853,6.149-6.083,13.162-6.324,20.823
			c-0.469,14.85-1.682,29.675-2.409,44.519c-0.147,3.001-1.351,4.777-3.845,6.279c-7.689,4.632-15.718,8.358-24.492,10.453
			c-1.302,0.311-3.096-0.244-3.915,1.479C260.635,448.723,251.364,448.723,242.092,448.723z"/>
		<path fill-rule="evenodd" clip-rule="evenodd" fill="#EA4C4D" d="M309.597,282.272c2.389-2.916,4.856-5.773,7.145-8.767
			c1.702-2.229,3.362-4.529,4.703-6.983c1.868-3.419,3.464-7.221,0.077-10.51c-3.385-3.289-7.509-2.817-11.561-1.036
			c-2.911,1.28-5.14,3.542-7.977,5.71c-0.438-2.376-0.347-5.099-3.313-5.337c-2.874-0.232-4.339,2.021-4.831,4.19
			c-2.054,9.059-8.157,14.846-15.355,19.799c-1.697,1.168-3.749,3.565-5.602,2.219c-1.97-1.431-0.033-3.949,0.712-5.799
			c5.685-14.093,11.5-28.134,17.232-42.207c1.26-3.09,4.046-6.945-0.675-8.919c-4.627-1.935-6.12,2.201-7.496,5.729
			c-6.001,15.392-12.063,30.759-18.101,46.136c-0.183,0.462-0.267,0.981-0.527,1.39c-1.9,2.97-5.074,5.525-8.035,4.478
			c-2.663-0.942-0.836-4.661-0.006-6.986c1.721-4.818,3.871-9.483,5.6-14.3c0.956-2.662,1.791-5.846-1.901-7.121
			c-3.425-1.183-4.729,1.669-5.615,4.172c-2.334,6.585-5.039,12.976-9.594,18.345c-2.317,2.73-5.425,6.843-8.801,4.855
			c-3.375-1.987-0.318-6.31,0.812-9.332c1.497-4.007,3.667-7.76,5.531-11.631c1.042-2.163,2.107-4.562-0.71-6.037
			c-2.702-1.414-5.405-0.692-6.782,2.094c-4.176,8.447-8.25,16.988-9.678,26.419c-0.895,5.91,2.27,9.129,8.217,8.917
			c5.874-0.208,10.092-3.599,14.584-8.132c0.414,3.232-0.129,6.459,2.964,7.701c3.273,1.315,6.199-0.165,8.91-1.761
			c2.294-1.351,3.751-2.233,5.955,0.699c1.913,2.547,5.486,1.931,8.331,0.693c2.835-1.232,5.521-2.804,8.915-4.56
			c-1.261,5.39-4.104,9.434-5.838,13.914c-1.251,3.232-2.671,6.409-3.727,9.704c-0.63,1.967-0.388,4.176,1.76,5.18
			c2.106,0.985,4.239,0.495,5.906-1.246c1.526-1.597,2.222-3.643,2.941-5.68c3.253-9.196,6.834-18.263,11.073-27.054
			c2.899-6.015,6.559-11.497,11.799-15.759c1.014-0.824,2.213-1.451,3.397-2.023c1.046-0.505,2.42-0.965,3.253-0.035
			c0.949,1.06-0.121,2.183-0.786,3.043c-2.934,3.794-6.096,7.42-8.883,11.316c-2.537,3.545-6.434,7.514-2.527,11.88
			c3.596,4.021,8.543,2.358,12.921,0.507c4.931-2.084,8.596-5.998,13.142-9.689c1.115,5.081-0.364,9.523-0.818,13.924
			c-1.797,17.434-3.954,34.828-5.9,52.246c-0.565,5.052-3.609,7.889-7.928,9.912c-9.739,4.564-20.212,6.273-30.707,7.39
			c-25.305,2.689-50.529,2.259-75.469-3.525c-1.124-0.261-2.217-0.656-3.344-0.897c-10.051-2.146-16.176-6.84-16.467-18.575
			c-0.373-15.006-2.603-29.968-4.015-44.948c-0.243-2.573-0.815-4.693,3.603-3.684c5.801,1.327,10.365-2.462,14.736-5.784
			c1.693-1.286,3.223-2.788,4.9-4.254c1.171,1.406,0.133,2.513-0.169,3.649c-0.979,3.673-2.169,7.303-2.893,11.025
			c-0.425,2.188-0.776,5.008,2.113,5.895c2.797,0.857,4.301-1.358,5.171-3.562c1.21-3.063,2.152-6.243,3.054-9.418
			c2.573-9.063,5.187-18.11,8.625-26.896c1.269-3.245,2.182-6.591,2.392-10.086c0.127-2.126-0.362-4.097-2.713-4.707
			c-2.4-0.623-4.292,0.414-5.27,2.639c-0.995,2.262-1.858,4.606-2.523,6.985c-2.836,10.149-9.795,17.099-18.023,22.91
			c-4.994,3.526-7.94,1.864-8.396-4.32c-0.282-3.828,0.206-7.604,1.319-11.274c3.888-12.821,9.517-24.656,19.404-34.066
			c5.313-5.057,11.084-6.227,15.008,1.989c1.103,2.31,2.73,5.166,6.051,3.338c3.239-1.782,2.88-5.104,1.87-7.95
			c-2.624-7.387-11.925-11.776-19.634-9.515c-5.923,1.737-10.539,5.468-14.603,9.903c-6.438,7.025-11.15,15.151-14.861,23.896
			c-0.604,1.424-0.649,3.193-2.769,4.591c-2.773-28.94-5.505-57.455-8.217-85.767c56.711,14.32,113.146,15.181,169.871-1.12
			c-1.047,9.558-2.092,19.552-3.246,29.533c-2.529,21.843-5.112,43.68-7.678,65.519c-0.115,0.983,0.092,2.346-0.47,2.879
			c-5.783,5.499-11.472,11.156-18.546,14.988C310.273,282.971,309.935,282.622,309.597,282.272z"/>
		<path fill-rule="evenodd" clip-rule="evenodd" fill="#EA4D4E" d="M253.227,179.583c-21.743-0.396-46.285-1.916-70.158-8.894
			c-2.679-0.783-5.267-1.91-7.836-3.02c-1.826-0.788-3.874-1.763-3.884-4.052c-0.013-2.712,2.526-3.224,4.466-3.952
			c7.804-2.928,16.013-4.006,24.221-4.956c20.233-2.343,40.552-3.206,60.906-2.764c3.762,0.081,5.093-1.247,5.908-4.663
			c2.53-10.598,5.409-21.113,8.04-31.688c0.624-2.508,1.797-4.561,3.549-6.396C291.915,95.083,305.425,81,318.781,66.773
			c2.218-2.361,3.605-2.825,6.388-0.646c8.059,6.309,8.258,6.229,1.483,13.833c-10.451,11.732-20.998,23.378-31.576,34.994
			c-1.826,2.005-3.116,4.11-3.834,6.765c-2.369,8.767-4.775,17.533-7.524,26.185c-1.184,3.721-0.569,4.736,3.456,4.856
			c14.38,0.428,28.694,1.736,42.781,4.863c1.771,0.393,3.595,0.73,5.25,1.435c2.338,0.994,5.801,1.249,6.033,4.364
			c0.239,3.215-3.156,3.935-5.447,4.979c-5.431,2.479-11.213,3.93-17.045,5.152C298.108,177.88,277.213,179.494,253.227,179.583z
			 M262.034,163.751c-0.179,1.748,0.891,2.004,1.771,2.218c4.854,1.172,9.753,0.946,14.624,0.167
			c0.949-0.151,2.816-0.374,2.27-1.893c-0.725-2.013-2.064-0.502-3.121,0.016c-2.574,1.261-5.3,1.832-8.114,1.326
			C266.985,165.14,264.562,164.389,262.034,163.751z"/>
		<path fill-rule="evenodd" clip-rule="evenodd" fill="#EA4C4D" d="M193.752,359.807c-0.054-0.37-0.107-0.738-0.16-1.108
			c0.345,0.13,0.69,0.259,1.037,0.389C194.337,359.326,194.044,359.565,193.752,359.807z"/>
		<path fill-rule="evenodd" clip-rule="evenodd" fill="#FFFFFF" d="M262.034,163.751c2.527,0.637,4.951,1.388,7.43,1.833
			c2.814,0.505,5.54-0.065,8.114-1.326c1.057-0.518,2.396-2.029,3.121-0.016c0.547,1.519-1.32,1.741-2.27,1.893
			c-4.871,0.779-9.77,1.005-14.624-0.167C262.925,165.755,261.855,165.5,262.034,163.751z"/>
	</g>
</g>
</svg>
