<?xml version="1.0" encoding="utf-8"?>
<!-- Generator: Adobe Illustrator 16.0.0, SVG Export Plug-In . SVG Version: 6.00 Build 0)  -->
<!DOCTYPE svg PUBLIC "-//W3C//DTD SVG 1.1//EN" "http://www.w3.org/Graphics/SVG/1.1/DTD/svg11.dtd">
<svg version="1.1" id="Layer_1" xmlns="http://www.w3.org/2000/svg" xmlns:xlink="http://www.w3.org/1999/xlink" x="0px" y="0px"
	 width="512px" height="512px" viewBox="0 0 512 512" enable-background="new 0 0 512 512" xml:space="preserve">
<g>
	<title>Layer 1</title>
	<path id="svg_2" fill="#010101" stroke="#020202" d="M400.231,215.083h-0.556v0.649h-0.556l0,0v0.649l0,0l0,0h-0.555l0,0v0.649
		h-0.556l0,0v0.649h-1.11h-0.556v-0.649l0.556-0.649v-0.649v-0.649h0.555l0,0v-0.649h0.556l0,0v-0.649l0,0l0,0l0.556-0.649
		l0.555-0.649l0,0l0,0v-0.649c0,0,0.556-0.433,1.667-1.299c0.741-1.299,2.592-2.814,5.555-4.547
		c2.962-1.731,6.109-2.598,9.442-2.598c3.703,0,6.665,0.649,8.887,1.949c2.593,1.298,5.37,3.248,8.332,5.845
		c2.592,2.598,5.185,5.845,7.776,9.742c2.592,3.896,4.444,8.01,5.555,12.34c1.11,4.763,1.666,9.526,1.666,14.289
		c0,5.195-0.556,9.958-1.666,14.288c-1.11,4.763-3.147,9.525-6.11,14.288c-2.222,4.763-4.813,8.66-7.775,11.69
		c-2.963,3.031-6.852,6.063-11.665,9.093c-4.813,3.464-10.368,6.063-16.663,7.794c-6.295,2.598-13.146,4.33-20.552,5.195
		c-7.036,0.866-15.183,0.866-24.439,0c-9.628,0-19.626-1.299-29.995-3.896c-10.368-2.598-19.996-5.629-28.883-9.093
		s-16.663-7.36-23.329-11.69c-6.295-4.33-11.108-8.227-14.441-11.69c-3.703-3.464-5.925-5.412-6.665-5.846
		c-0.741-0.433-1.852,0-3.333,1.299c-1.111,1.3-4.073,4.114-8.888,8.443c-4.813,4.33-10.554,8.227-17.219,11.691
		c-6.665,3.463-14.627,6.928-23.884,10.392c-8.888,3.464-18.886,6.277-29.994,8.442c-11.109,2.165-20.367,3.464-27.772,3.897
		c-7.036,0.433-12.22,0.216-15.553-0.65c-3.333,0-8.517-1.082-15.553-3.247c-7.406-2.165-13.701-4.546-18.885-7.144
		c-4.814-2.598-8.888-5.196-12.221-7.794c-3.332-3.464-6.295-7.145-8.887-11.041c-2.962-4.33-5.185-9.093-6.665-14.289
		c-1.481-5.195-2.407-10.607-2.777-16.236c-0.371-5.196-0.186-9.526,0.556-12.989c0.74-3.031,1.851-6.712,3.332-11.042
		c2.222-4.329,3.889-7.144,4.999-8.442c1.481-1.732,2.222-2.814,2.222-3.248c0-0.433,0.37-0.865,1.111-1.299
		c0.74-0.433,2.777-1.731,6.109-3.896c3.333-2.165,7.036-3.248,11.109-3.248c4.443,0,8.146,0.65,11.109,1.949l4.443,1.948v0.649l0,0
		h0.556v0.649l0,0h0.555l0,0l0,0l0.556,0.649l0.556,0.649l0,0l0,0h0.556l0,0v0.649h0.555v0.649v0.649h-1.11l-1.666-0.649h-0.556
		h-0.556v-0.649h-0.556l0,0v-0.649h-2.222c-1.11-0.866-3.147-1.082-6.109-0.649c-2.963,0.433-5.555,1.516-7.776,3.247
		c-1.852,2.165-3.519,4.763-4.999,7.794c-1.481,3.031-2.222,7.36-2.222,12.989c0,6.063,0.74,10.175,2.222,12.34
		c1.11,2.165,2.592,3.897,4.443,5.196s4.443,1.948,7.776,1.948c3.703,0,8.146-1.299,13.33-3.896
		c5.555-2.598,12.591-6.712,21.107-12.34c8.888-5.629,17.59-11.475,26.106-17.536c8.887-6.062,16.478-10.824,22.773-14.288
		c6.665-3.464,12.22-5.629,16.663-6.495c4.814-1.732,10.184-2.382,16.108-1.949s11.664,1.516,17.219,3.248
		c5.554,2.598,10.368,5.412,14.441,8.443c4.443,3.031,6.851,4.763,7.221,5.195c0.37,0.434,2.592-1.082,6.666-4.546
		c4.073-3.464,8.887-6.062,14.441-7.793c5.555-2.598,9.628-3.897,12.22-3.897c2.592-0.866,7.221-1.083,13.886-0.649
		c6.666,0.433,12.591,1.299,17.774,2.598c4.814,1.299,10.739,4.113,17.774,8.443c7.036,4.33,17.22,11.69,30.55,22.082
		c13.331,10.392,22.403,16.453,27.217,18.186c4.443,2.598,8.702,3.896,12.775,3.896s7.592-0.866,10.554-2.598
		c2.963-1.731,5.185-3.464,6.665-5.195c1.481-2.165,2.223-5.846,2.223-11.042c0-5.195-0.741-9.309-2.223-12.34
		c-1.48-3.031-3.146-5.629-4.998-7.794c-1.853-1.731-3.519-3.03-4.999-3.896c-1.853-0.866-4.074-1.299-6.666-1.299
		c-2.222,0-4.073,0.649-5.555,1.948C401.343,214.434,400.602,215.083,400.231,215.083z"/>
</g>
</svg>
