<?xml version="1.0" encoding="utf-8"?>
<!-- Generator: Adobe Illustrator 16.0.0, SVG Export Plug-In . SVG Version: 6.00 Build 0)  -->
<!DOCTYPE svg PUBLIC "-//W3C//DTD SVG 1.1//EN" "http://www.w3.org/Graphics/SVG/1.1/DTD/svg11.dtd">
<svg version="1.1" xmlns="http://www.w3.org/2000/svg" xmlns:xlink="http://www.w3.org/1999/xlink" x="0px" y="0px" width="512px"
	 height="512px" viewBox="0 0 512 512" enable-background="new 0 0 512 512" xml:space="preserve">
<g id="Layer_1">
</g>
<g id="Isolation_Mode">
	<g>
		<path fill-rule="evenodd" clip-rule="evenodd" fill="#F9B036" d="M256.364,382.229c-41.795,0-83.591-0.023-125.386,0.063
			c-2.185,0.003-2.616-0.431-2.613-2.614c0.072-82.103,0.072-164.205,0-246.307c-0.002-2.185,0.429-2.615,2.613-2.613
			c83.591,0.071,167.183,0.071,250.772,0c2.187-0.001,2.614,0.428,2.614,2.613c-0.072,82.102-0.072,164.205,0,246.307
			c0,2.184-0.428,2.617-2.614,2.614C339.954,382.206,298.16,382.229,256.364,382.229z M254.757,151.81
			c-0.632-0.061-1.266-0.175-1.898-0.175c-34.35-0.002-68.699,0.039-103.05-0.048c-2.821-0.007-3.013,1.256-3.008,3.462
			c0.047,20.737,0.008,41.474,0.029,62.213c0.008,8.077,0.103,16.155,0.158,24.233c-0.047,1.694-0.136,3.388-0.136,5.083
			c-0.021,37.032-0.034,74.064-0.04,111.097c0,1.166,0.075,2.329,0.115,3.494c-0.05,0.444,0.12,0.737,0.577,0.828
			c0.947,0.075,1.896,0.213,2.845,0.216c70.186,0.033,140.371,0.036,210.556,0.148c3.104,0.002,3.865-0.857,3.86-3.916
			c-0.104-67.633-0.127-135.267-0.036-202.901c0.005-3.305-0.909-4.014-4.068-4.002c-34.028,0.127-68.057,0.098-102.088,0.12
			C257.301,151.663,256.029,151.758,254.757,151.81z"/>
		<path fill-rule="evenodd" clip-rule="evenodd" fill="#443823" d="M146.927,361.169c-0.04-1.165-0.115-2.328-0.115-3.494
			c0.006-37.032,0.019-74.064,0.04-111.097c0-1.695,0.089-3.39,0.138-5.083c1.595,0.558,1.838,1.815,1.865,3.312
			c0.208,11.572-0.365,23.146,0.557,34.725c0.766,9.614,0.897,19.277,1.407,28.914c0.134,2.529,0.404,5.097,1.009,7.547
			c0.976,3.96,2.458,4.32,5.25,1.532c9.632-9.616,19.253-19.246,28.879-28.872c5.413-5.413,10.829-10.826,16.242-16.242
			c1.424-1.426,2.862-2.736,4.89-0.916c-4.081,12.552-8.163,25.103-12.35,37.977c6.389,0,12.23-0.091,18.065,0.05
			c1.992,0.047,2.756-0.686,3.288-2.516c2.429-8.362,5.048-16.673,7.49-25.033c0.565-1.929,1.453-2.682,3.549-2.655
			c9.244,0.106,18.493,0.152,27.735-0.05c2.69-0.057,3.661,0.942,4.377,3.334c2.44,8.123,5.089,16.187,7.692,24.259
			c0.363,1.129,0.363,2.596,2.223,2.583c6.35-0.042,12.697-0.016,19.422-0.016c-1.911-5.903-3.718-11.438-5.488-16.987
			c-4.564-14.31-9.652-28.451-13.708-42.923c1.487-0.31,1.565-1.886,2.459-2.749c9.239-8.916,17.628-18.709,27.649-26.821
			c4.608,2.25,9.225,2.625,13.599-0.421c4.061-2.83,4.943-7.659,2.802-13.809c0.005-2.394,1.129-4.188,2.809-5.831
			c4.863-4.749,9.632-9.59,14.438-14.396c7.885-7.886,15.795-15.742,23.636-23.672c2.812-2.843,2.448-4.11-1.324-5.164
			c-1.523-0.427-3.103-0.82-4.67-0.905c-9.198-0.495-18.415-1.015-27.608-1.169c-13.467-0.226-26.92-1.132-40.402-0.829
			c-8.477,0.191-16.966,0.218-25.43-0.589c-1.08-0.103-2.167-0.044-2.583-1.351c1.272-0.052,2.544-0.147,3.816-0.148
			c34.031-0.022,68.06,0.008,102.088-0.12c3.159-0.012,4.073,0.697,4.068,4.002c-0.091,67.634-0.067,135.268,0.036,202.901
			c0.005,3.059-0.756,3.918-3.86,3.916c-70.186-0.112-140.37-0.115-210.556-0.148c-0.949-0.003-1.898-0.141-2.845-0.216
			C147.312,361.723,147.12,361.444,146.927,361.169z M296.304,271.234c0.013,0,0.023,0,0.036,0c0,11.789,0.053,23.576-0.047,35.362
			c-0.018,2.204,0.577,2.96,2.844,2.882c4.771-0.161,9.557-0.132,14.331-0.013c1.937,0.049,2.547-0.524,2.541-2.505
			c-0.055-23.681-0.047-47.36,0.023-71.043c0.005-2.225-0.742-3.008-2.949-2.956c-4.671,0.11-9.349,0.145-14.015-0.027
			c-2.326-0.084-2.821,0.801-2.806,2.939C296.351,247.661,296.304,259.447,296.304,271.234z"/>
		<path fill-rule="evenodd" clip-rule="evenodd" fill="#544021" d="M254.757,151.81c0.416,1.307,1.503,1.249,2.583,1.351
			c8.464,0.808,16.953,0.78,25.43,0.589c13.482-0.304,26.936,0.603,40.402,0.829c9.193,0.154,18.41,0.675,27.608,1.169
			c1.567,0.084,3.146,0.478,4.67,0.905c3.772,1.054,4.136,2.321,1.324,5.164c-7.841,7.93-15.751,15.787-23.636,23.672
			c-4.806,4.806-9.574,9.647-14.438,14.396c-1.68,1.644-2.804,3.438-2.809,5.831c-0.416-0.478-0.813-0.971-1.244-1.432
			c-3.713-3.954-9.982-4.82-14.516-2.008c-4.28,2.654-5.893,8.096-4.055,13.182c0.688,1.903,2.248,3.017,3.414,4.488
			c-10.021,8.112-18.41,17.906-27.649,26.821c-0.894,0.863-0.972,2.439-2.459,2.749c-0.395-0.976-0.849-1.931-1.174-2.93
			c-4.416-13.596-8.865-27.185-13.167-40.817c-0.658-2.086-1.54-2.87-3.766-2.818c-6.371,0.147-12.752,0.17-19.122-0.021
			c-2.413-0.073-3.275,0.879-3.946,3.01c-4.069,12.93-8.269,25.82-12.433,38.721c-2.888,8.945-5.791,17.888-8.687,26.832
			c-2.028-1.82-3.466-0.51-4.89,0.916c-5.413,5.416-10.829,10.829-16.242,16.242c-9.625,9.626-19.247,19.256-28.879,28.872
			c-2.792,2.788-4.273,2.428-5.25-1.532c-0.605-2.45-0.875-5.018-1.009-7.547c-0.51-9.637-0.641-19.3-1.407-28.914
			c-0.922-11.579-0.35-23.153-0.557-34.725c-0.027-1.497-0.27-2.753-1.865-3.312c-0.057-8.078-0.152-16.156-0.16-24.233
			c-0.021-20.739,0.018-41.476-0.029-62.213c-0.005-2.206,0.187-3.469,3.008-3.462c34.351,0.087,68.7,0.045,103.05,0.048
			C253.491,151.635,254.125,151.749,254.757,151.81z"/>
		<path fill-rule="evenodd" clip-rule="evenodd" fill="#544021" d="M146.927,361.169c0.192,0.275,0.384,0.554,0.577,0.828
			C147.047,361.906,146.877,361.613,146.927,361.169z"/>
		<path fill-rule="evenodd" clip-rule="evenodd" fill="#F9B036" d="M207.088,271.494c2.896-8.944,5.799-17.887,8.687-26.832
			c4.164-12.901,8.364-25.791,12.433-38.721c0.671-2.131,1.533-3.083,3.946-3.01c6.37,0.19,12.751,0.167,19.122,0.021
			c2.227-0.052,3.108,0.732,3.766,2.818c4.302,13.633,8.751,27.221,13.167,40.817c0.325,0.999,0.779,1.954,1.174,2.93
			c4.056,14.472,9.144,28.613,13.708,42.923c1.771,5.549,3.577,11.084,5.488,16.987c-6.725,0-13.072-0.026-19.422,0.016
			c-1.859,0.013-1.859-1.454-2.223-2.583c-2.604-8.072-5.252-16.136-7.692-24.259c-0.717-2.392-1.688-3.391-4.377-3.334
			c-9.242,0.202-18.491,0.156-27.735,0.05c-2.096-0.026-2.984,0.727-3.549,2.655c-2.442,8.36-5.061,16.671-7.49,25.033
			c-0.532,1.83-1.296,2.563-3.288,2.516c-5.835-0.141-11.676-0.05-18.065-0.05C198.925,296.597,203.007,284.046,207.088,271.494z
			 M241.195,219.008c-0.497,1.053-0.807,1.483-0.91,1.958c-3.029,13.929-7.604,27.41-11.891,40.971
			c-0.63,1.993-0.282,2.671,1.861,2.653c7.329-0.063,14.661-0.073,21.99,0.036c2.311,0.036,2.43-0.852,1.778-2.677
			c-1.103-3.095-2.092-6.231-3.09-9.362C247.456,241.676,243.877,230.795,241.195,219.008z"/>
		<path fill-rule="evenodd" clip-rule="evenodd" fill="#F9B036" d="M296.304,271.234c0-11.787,0.047-23.574-0.041-35.36
			c-0.016-2.138,0.479-3.023,2.806-2.939c4.666,0.171,9.344,0.137,14.015,0.027c2.207-0.052,2.954,0.731,2.949,2.956
			c-0.07,23.683-0.078,47.362-0.023,71.043c0.006,1.98-0.604,2.554-2.541,2.505c-4.774-0.119-9.56-0.148-14.331,0.013
			c-2.267,0.078-2.861-0.678-2.844-2.882c0.1-11.786,0.047-23.573,0.047-35.362C296.327,271.234,296.316,271.234,296.304,271.234z"
			/>
		<path fill-rule="evenodd" clip-rule="evenodd" fill="#F9B036" d="M299.492,219.946c-1.166-1.471-2.727-2.585-3.414-4.488
			c-1.838-5.086-0.226-10.528,4.055-13.182c4.533-2.812,10.803-1.946,14.516,2.008c0.432,0.46,0.828,0.954,1.244,1.432
			c2.142,6.15,1.259,10.979-2.802,13.809C308.717,222.571,304.101,222.197,299.492,219.946z"/>
		<path fill-rule="evenodd" clip-rule="evenodd" fill="#544021" d="M241.195,219.008c2.682,11.788,6.261,22.668,9.739,33.58
			c0.998,3.131,1.987,6.268,3.09,9.362c0.652,1.825,0.532,2.713-1.778,2.677c-7.329-0.109-14.661-0.099-21.99-0.036
			c-2.143,0.018-2.491-0.66-1.861-2.653c4.286-13.562,8.862-27.042,11.891-40.971C240.388,220.491,240.698,220.061,241.195,219.008z
			"/>
	</g>
</g>
</svg>
