<?xml version="1.0" encoding="utf-8"?>
<!-- Generator: Adobe Illustrator 16.0.0, SVG Export Plug-In . SVG Version: 6.00 Build 0)  -->
<!DOCTYPE svg PUBLIC "-//W3C//DTD SVG 1.1//EN" "http://www.w3.org/Graphics/SVG/1.1/DTD/svg11.dtd">
<svg version="1.1" xmlns="http://www.w3.org/2000/svg" xmlns:xlink="http://www.w3.org/1999/xlink" x="0px" y="0px" width="512px"
	 height="512px" viewBox="0 0 512 512" enable-background="new 0 0 512 512" xml:space="preserve">
<g id="Layer_1">
</g>
<g id="Isolation_Mode">
	<g>
		<path fill-rule="evenodd" clip-rule="evenodd" fill="#63A944" d="M256.692,140.004c43.906,0,87.812,0.042,131.716-0.078
			c3.497-0.009,4.311,0.737,3.97,4.328c-2.846,30.071-5.446,60.164-8.149,90.249c-2.641,29.397-5.34,58.788-7.963,88.187
			c-2.609,29.258-5.186,58.519-7.703,87.785c-0.634,7.376-0.505,7.373-7.757,9.385c-33.58,9.319-67.163,18.629-100.726,28.01
			c-2.619,0.731-5.029,0.692-7.635-0.035c-34.626-9.671-69.265-19.302-103.933-28.833c-2.73-0.752-3.538-1.988-3.784-4.782
			c-4.481-51.111-9.131-102.204-13.687-153.308c-3.478-39.015-6.801-78.042-10.413-117.044c-0.353-3.807,1.032-3.91,3.934-3.906
			C168.607,140.023,212.65,140.004,256.692,140.004z M256.047,354.086c-11.562-3.113-23.102-6.313-34.702-9.272
			c-2.52-0.642-3.601-1.517-3.742-4.283c-0.343-6.739-1.186-13.451-1.677-20.185c-0.192-2.641-1-3.821-3.97-3.755
			c-8.963,0.202-17.937,0.17-26.903,0.018c-2.849-0.049-3.769,0.584-3.486,3.676c1.433,15.646,2.709,31.306,3.784,46.979
			c0.188,2.757,1.223,3.761,3.633,4.409c22.333,6.009,44.647,12.091,66.964,18.152c0.257,0.1,0.515,0.202,0.772,0.304
			c0,10.217,0.16,20.439-0.086,30.649c-0.089,3.713,1.184,4.002,4.244,3.149c27.799-7.738,55.619-15.411,83.451-23.036
			c1.509-0.414,2.638-0.887,2.67-2.572c0.182-9.627,2.104-19.111,2.449-28.704c0.418-11.545,2.22-22.952,2.807-34.491
			c0.704-13.816,2.804-27.557,3.816-41.365c0.804-10.953,1.843-21.897,2.846-32.816c1.541-16.793,2.748-33.623,4.652-50.387
			c1.673-14.718,1.908-29.573,4.138-44.242c0.438-2.879-0.338-4.171-3.682-4.16c-34.518,0.116-69.035,0.099-103.553,0.02
			c-2.839-0.007-3.854,0.779-3.813,3.729c0.149,10.076,0.045,20.157,0.039,30.235c-0.249,0.121-0.499,0.24-0.746,0.361
			c-27.61-0.055-55.218-0.11-82.828-0.165c-0.138,0-0.277,0.015-0.413,0.002c-1.629-0.144-2.21,0.607-2.087,2.207
			c0.754,9.759,1.501,19.52,2.165,29.288c0.129,1.927,0.854,2.52,2.797,2.511c26.78-0.11,53.562-0.142,80.342-0.194l-0.063,0.301
			c0.029,1.929,0.082,3.859,0.084,5.788c0.021,39.15,0.036,78.3,0.052,117.451L256.047,354.086z"/>
		<path fill-rule="evenodd" clip-rule="evenodd" fill="#050505" d="M287.304,83.408c6.768,5.351,12.58,10.078,18.558,14.588
			c1.757,1.327,2.478,2.691,2.284,4.83c-0.408,4.481,1.936,10.501-0.931,13.036c-2.504,2.215-8.391,0.659-12.784,0.673
			c-10.625,0.034-21.253-0.07-31.876,0.069c-2.559,0.034-3.396-0.679-3.241-3.249c0.212-3.575,0.203-7.181,0.001-10.757
			c-0.141-2.479,0.866-3.011,3.102-2.963c5.567,0.122,11.139,0.041,16.971-0.848c-5.823-4.505-11.587-9.086-17.503-13.466
			c-1.845-1.367-2.686-2.753-2.575-5.099c0.202-4.269,0.129-8.554,0.025-12.83c-0.048-1.936,0.17-2.985,2.59-2.967
			c14.627,0.108,29.256,0.081,43.882,0.018c1.767-0.007,2.406,0.426,2.355,2.291c-0.128,4.689-0.17,9.387,0.012,14.073
			c0.092,2.373-0.929,2.678-2.923,2.639C299.655,83.338,294.057,83.408,287.304,83.408z"/>
		<path fill-rule="evenodd" clip-rule="evenodd" fill="#070707" d="M251.652,90.386c0,7.728-0.084,15.457,0.05,23.182
			c0.041,2.359-0.681,3.045-3.033,3.029c-14.073-0.099-28.15-0.085-42.224-0.01c-2.045,0.011-2.998-0.371-2.91-2.688
			c0.167-4.409,0.17-8.834-0.002-13.243c-0.09-2.346,0.937-2.702,2.938-2.676c6.897,0.091,13.805-0.148,20.694,0.115
			c3.23,0.125,3.896-0.958,3.826-3.974c-0.2-8.827,0.024-17.663-0.132-26.491c-0.044-2.499,0.521-3.343,3.151-3.22
			c4.957,0.231,9.934,0.164,14.899,0.021c2.154-0.062,2.831,0.568,2.793,2.773C251.571,74.93,251.652,82.659,251.652,90.386z"/>
		<path fill-rule="evenodd" clip-rule="evenodd" fill="#8BC63F" d="M256.699,196.137c0.006-10.079,0.11-20.16-0.039-30.235
			c-0.042-2.95,0.974-3.735,3.813-3.729c34.518,0.079,69.035,0.096,103.553-0.02c3.344-0.011,4.12,1.28,3.682,4.16
			c-2.229,14.669-2.465,29.524-4.138,44.242c-1.904,16.764-3.111,33.594-4.652,50.387c-1.003,10.919-2.042,21.863-2.846,32.816
			c-1.013,13.809-3.112,27.549-3.816,41.365c-0.587,11.539-2.389,22.946-2.807,34.491c-0.345,9.593-2.268,19.077-2.449,28.704
			c-0.032,1.686-1.161,2.158-2.67,2.572c-27.832,7.625-55.652,15.298-83.451,23.036c-3.06,0.853-4.333,0.563-4.244-3.149
			c0.246-10.21,0.086-20.433,0.086-30.649c0.885-0.345,1.747-0.769,2.656-1.021c20.959-5.796,41.928-11.559,62.877-17.387
			c1.816-0.505,3.933-0.437,4.157-3.528c0.907-12.503,2.129-24.982,3.263-37.468c1.794-19.76,3.643-39.515,5.413-59.275
			c2.138-23.879,4.177-47.765,6.383-71.638c0.261-2.822-0.529-3.579-3.27-3.533c-8.549,0.142-17.104,0.071-25.654,0.048
			C293.93,196.276,275.315,196.202,256.699,196.137z"/>
		<path fill-rule="evenodd" clip-rule="evenodd" fill="#FDFEFF" d="M256.699,196.137c18.616,0.065,37.23,0.139,55.846,0.19
			c8.551,0.023,17.105,0.094,25.654-0.048c2.74-0.046,3.53,0.711,3.27,3.533c-2.206,23.873-4.245,47.759-6.383,71.638
			c-1.771,19.761-3.619,39.516-5.413,59.275c-1.134,12.485-2.355,24.965-3.263,37.468c-0.225,3.092-2.341,3.023-4.157,3.528
			c-20.949,5.828-41.918,11.591-62.877,17.387c-0.909,0.252-1.771,0.676-2.656,1.021c-0.257-0.102-0.515-0.204-0.77-0.304
			c0.032-11.914,0.064-23.826,0.097-35.739l-0.045-0.399c12.289-2.397,24.159-6.412,36.3-9.382c1.791-0.438,1.66-1.889,1.784-3.276
			c0.586-6.58,1.21-13.159,1.845-19.735c2.839-29.464,5.66-58.928,8.583-88.382c0.21-2.128-0.384-2.646-2.351-2.635
			c-15.431,0.092-30.863,0.123-46.297,0.172l0.063-0.301c0.008-11.216,0.016-22.433,0.024-33.649
			C256.201,196.377,256.45,196.258,256.699,196.137z"/>
		<path fill-rule="evenodd" clip-rule="evenodd" fill="#8BC63F" d="M255.866,230.448c15.434-0.049,30.866-0.08,46.297-0.172
			c1.967-0.012,2.561,0.507,2.351,2.635c-2.923,29.454-5.744,58.918-8.583,88.382c-0.635,6.576-1.259,13.155-1.845,19.735
			c-0.124,1.388,0.007,2.838-1.784,3.276c-12.141,2.97-24.011,6.984-36.3,9.382c-0.016-39.15-0.031-78.301-0.052-117.451
			C255.948,234.308,255.895,232.377,255.866,230.448z"/>
		<path fill-rule="evenodd" clip-rule="evenodd" fill="#E9E9E8" d="M256.047,354.086c-0.033,11.913-0.065,23.825-0.097,35.739
			c-22.319-6.062-44.633-12.144-66.966-18.152c-2.41-0.648-3.446-1.652-3.633-4.409c-1.074-15.674-2.351-31.334-3.784-46.979
			c-0.283-3.092,0.637-3.725,3.486-3.676c8.967,0.152,17.94,0.185,26.903-0.018c2.97-0.066,3.777,1.114,3.97,3.755
			c0.492,6.733,1.334,13.445,1.677,20.185c0.141,2.767,1.222,3.642,3.742,4.283C232.945,347.772,244.486,350.973,256.047,354.086z"
			/>
		<path fill-rule="evenodd" clip-rule="evenodd" fill="#E9E9E8" d="M255.953,196.498c-0.008,11.216-0.016,22.433-0.024,33.649
			c-26.78,0.052-53.562,0.084-80.342,0.194c-1.943,0.008-2.667-0.584-2.797-2.511c-0.663-9.768-1.411-19.528-2.165-29.288
			c-0.123-1.599,0.458-2.351,2.087-2.207c0.136,0.012,0.275-0.002,0.413-0.002C200.735,196.388,228.343,196.443,255.953,196.498z"/>
	</g>
</g>
</svg>
