<?xml version="1.0" encoding="utf-8"?>
<!-- Generator: Adobe Illustrator 16.0.0, SVG Export Plug-In . SVG Version: 6.00 Build 0)  -->
<!DOCTYPE svg PUBLIC "-//W3C//DTD SVG 1.1//EN" "http://www.w3.org/Graphics/SVG/1.1/DTD/svg11.dtd">
<svg version="1.1" id="Layer_1" xmlns="http://www.w3.org/2000/svg" xmlns:xlink="http://www.w3.org/1999/xlink" x="0px" y="0px"
	 width="512px" height="512px" viewBox="0 0 512 512" enable-background="new 0 0 512 512" xml:space="preserve">
<g>
	<path fill-rule="evenodd" clip-rule="evenodd" fill="#FDFEFF" d="M64.286,275.703c0-22.948,0.016-45.896-0.037-68.844
		c-0.003-1.438,0.325-1.762,1.763-1.761c117.297,0.039,234.595,0.036,351.892,0.036c-0.624,1.192-1.835,1.684-2.873,2.368
		c-4.17,2.747-8.355,5.471-12.535,8.204c-4.456,2.757-8.692,5.811-12.61,9.295c-4.788,3.612-8.949,7.792-11.881,13.088
		c-3.835,6.055-6.637,12.534-8.047,19.586c-2.254-1.125-4.065-2.989-6.472-3.856c-2.16-1.427-4.462-2.573-6.894-3.459
		c-3.155-1.47-6.31-2.94-9.573-4.46c-1.476,8.045-1.955,15.98-0.725,23.92c0.67,4.324,1.802,8.58,3.995,12.454
		c1.819,4.209,4.396,7.774,8.518,10.027c1.537,1.099,3.277,1.642,5.134,1.862c-3.41,2.391-7.323,3.817-10.971,5.749
		c-1.083,0.573-0.964-0.471-1.291-0.93c-1.786,2.474-2.99,3.285-5.904,4.039c-2.062,0.534-4.17,0.662-6.271,0.512
		c-10.141-0.733-19.684-4.115-29.402-6.72c-1.165-0.312-1.042-0.941-0.382-1.652c0.301-0.323,0.674-0.583,1.027-0.855
		c0.419-0.32,0.848-0.657,0.6-1.255c-0.246-0.593-0.845-0.57-1.327-0.498c-0.813,0.122-1.664,0.244-2.395,0.587
		c-1.663,0.781-3.381,1.029-5.198,1.018c-6.451-0.039-12.907-0.126-19.324,0.738c-3.24,0.435-6.493,0.521-9.749,0.264
		c-0.82-0.064-2.003,0.303-1.92-1.318c0.031-0.596-0.698-0.404-1.099-0.327c-2.995,0.586-6.15,0.411-8.924,2.076
		c-1.018,0.609-2.263,0.838-3.4,1.251c-5.148,1.864-10.466,3.259-15.424,5.656c-0.919,0.444-1.26,1.058-1.108,1.946
		c0.162,0.945,1.018,0.799,1.686,0.842c1.914,0.122,3.648-0.595,5.337-1.327c6.5-2.82,13.285-4.473,20.34-4.963
		c7.771-0.54,15.548-1.02,23.325-1.47c5.135-0.299,10.196,0.348,15.207,1.433c11.213,2.429,22.264,5.619,33.66,7.188
		c3.557,0.489,7.229,1.686,10.15-1.685c0.116-0.134,0.326-0.202,0.506-0.264c5.149-1.745,9.443-4.999,13.929-7.91
		c6.004-3.896,12.167-7.452,19.217-9.148c7.119,6.586,13.499,6.231,22.322,1.535c0.34-0.166,0.691-0.313,1.019-0.504
		c3.949-2.292,6.724-5.772,9.414-9.337c4.396,0.28,8.788,0.612,13.186-0.014c1.088-0.155,2.378,0.051,1.313-1.758
		c-0.353-0.596,0.397-0.983,0.838-1.328c3.371-2.629,6.756-5.242,10.118-7.882c0.903-0.709,1.967-0.813,3.029-0.936
		c0.412-0.048,0.941,0.831,1.229-0.025c0.212-0.633,0.375-1.5,0.101-2.021c-0.342-0.649-1.144-0.229-1.713,0.031
		c-0.516,0.235-1.02,0.516-1.488,0.836c-2.957,2.023-5.698,4.331-8.294,6.779c-4.964,4.683-10.544,6.786-17.305,4.691
		c0.672-1.646,1.343-3.293,2.014-4.939c0.482-0.463,0.626-1.09,0.832-1.69c3.266-9.496,4.609-19.241,4.234-29.292
		c-0.466-12.481-3.336-24.429-7.398-36.152c9.586,0,19.171,0.014,28.755-0.023c0.934-0.004,1.188,0.178,1.187,1.162
		c-0.03,33.228-0.042,66.456,0.021,99.684c0.004,1.692-0.937,1.188-1.724,1.188c-85.882,0.011-171.764,0.01-257.645,0.01
		c-40.96,0-81.919-0.01-122.879,0.038c-1.463,0.001-1.763-0.359-1.751-1.774c0.072-8.882,0.037-17.764,0.037-26.646
		c2.477,2.83,4.193,3.157,7.705,1.564c2.431-1.104,4.453-2.75,6.24-4.678c0.772-0.832,1.512-1.016,2.521-0.603
		c3.128,1.278,6.288,2.481,9.397,3.806c7.947,3.386,15.646,2.974,23.153-1.32c3.347-1.914,6.253-4.386,9.139-7.153
		c0.216,0.688,0.371,1.217,0.547,1.739c1.65,4.902,4.994,8.003,10.083,8.884c4.899,0.848,9.493-0.249,13.737-2.883
		c3.274-2.031,6.011-4.716,8.993-7.303c0.486,1.501,0.829,2.914,1.393,4.233c2.34,5.472,7.289,7.543,12.499,5.314
		c2.397-1.026,4.332-2.668,6.149-4.491c2.063-2.068,3.616-4.563,5.721-6.958c0.083,1.598,0.091,2.917,0.238,4.221
		c0.156,1.393,0.417,2.772,0.963,4.087c1.283,3.086,3.535,4.388,6.819,3.925c2.02-0.284,3.77-1.158,5.358-2.387
		c4.201-3.25,8.223-6.702,11.755-10.681c0.882-0.994,1.122-0.84,1.766,0.276c1.506,2.611,0.729,5.195,0.261,7.795
		c-1.54,8.544-2.806,17.13-4.019,25.725c-0.177,1.25,0.149,1.559,1.409,1.296c2.623-0.544,5.264-1.048,7.922-1.351
		c1.538-0.174,1.954-0.853,2.154-2.284c0.838-6.004,1.82-11.986,2.741-17.979c0.16-1.042,0.447-1.634,1.71-1.069
		c2.744,1.228,5.479,0.838,8.154-0.322c4.361-1.892,7.893-4.907,11.183-8.254c0.328-0.333,0.56-1.002,1.172-0.768
		c0.479,0.183,0.293,0.784,0.393,1.198c1.281,5.283,4.643,8.428,9.69,8.874c2.739,0.242,5.301-0.587,7.743-1.77
		c4.249-2.057,7.771-5.124,11.279-8.199c0.823-0.72,1.272-0.929,1.59,0.446c0.56,2.419,1.832,4.482,3.696,6.138
		c4.5,3.995,9.722,4.049,15.129,2.58c4.306-1.17,7.689-3.923,10.968-6.809c1.007-0.887,1.852-2.015,3.28-2.636
		c0.122,0.854,0.186,1.482,0.305,2.101c1.135,5.913,5.146,8.961,10.549,7.979c1.577-0.288,3.062-0.89,4.448-1.701
		c3.439-2.017,6.41-4.628,9.315-7.33c2.023-1.882,2.52-3.79,1.492-6.717c-1.038,1.08-1.973,2.124-2.984,3.088
		c-1.385,1.323-2.793,2.645-4.59,3.405c-1.729,0.732-3.547,1.417-5.263,0.113c-1.7-1.293-1.858-3.169-1.695-5.182
		c0.381-4.698,2.242-9.023,3.244-13.556c0.628-2.843,1.738-4.273,4.944-4.252c3.293,0.023,3.296-0.307,4.042-3.614
		c0.782-3.459,0.782-3.46-2.666-3.338c-0.511,0.018-1.029-0.003-1.531,0.075c-1.266,0.197-1.348-0.312-1.016-1.377
		c1.286-4.143,2.474-8.315,3.756-12.459c0.452-1.461,0.11-1.778-1.378-1.426c-2.854,0.676-5.736,1.25-8.627,1.746
		c-1.253,0.215-1.805,0.814-2.14,2.01c-1.05,3.746-2.237,7.452-3.333,11.186c-0.234,0.801-0.476,1.312-1.483,1.383
		c-3.271,0.234-3.269,0.285-3.927,3.477c-0.116,0.562-0.168,1.145-0.349,1.685c-0.553,1.657-0.134,2.402,1.707,1.96
		c1.044-0.25,1.375,0.009,1.036,1.168c-1.254,4.284-2.463,8.583-3.36,12.961c-0.106,0.519-0.354,0.938-0.737,1.309
		c-2.295,2.226-4.596,4.444-7.242,6.261c-5.093,3.497-11.679,1.991-14.236-3.249c-1.698-3.476-1.634-3.628,2.019-4.788
		c0.182-0.059,0.377-0.078,0.556-0.145c4.619-1.722,9.203-3.523,12.828-7.039c2.662-2.581,3.95-5.688,2.859-9.368
		c-1.016-3.424-3.771-4.876-7.06-5.321c-2.825-0.382-5.663-0.071-8.229,1.228c-8.407,4.253-13.236,11.151-14.768,20.404
		c-0.104,0.625,0.029,1.35-0.47,1.817c-3.297,3.096-6.346,6.556-10.706,8.229c-3.188,1.223-5.642-0.003-6.9-3.196
		c-0.719-1.825-0.659-3.739-0.789-5.654c-0.262-3.865,1.105-6.793,3.715-9.739c6.893-7.779,12.385-16.434,13.795-27.059
		c0.436-3.285,0.728-6.62-0.275-9.871c-0.727-2.354-1.719-2.806-4.042-1.963c-3.119,1.131-6.211,2.334-9.342,3.429
		c-0.924,0.323-1.465,0.848-1.894,1.708c-2.247,4.517-4.321,9.108-6.083,13.836c-3.573,9.593-6.629,19.314-7.298,29.623
		c-0.025,0.384-0.074,0.735-0.354,1.057c-2.66,3.043-5.393,5.999-9.259,7.557c-2.276,0.918-4.567,1.171-6.85,0.002
		c-2.56-1.311-3.64-3.442-3.093-6.206c0.93-4.693,1.97-9.367,2.794-14.078c0.33-1.884,1.161-3.261,2.545-4.519
		c1.795-1.63,3.481-3.39,5.115-5.184c3.376-3.707,6.386-7.679,7.818-12.582c1.18-4.04,1.604-8.135,0.168-12.226
		c-0.869-2.475-1.977-3.096-4.495-2.468c-2.351,0.585-4.669,1.31-7.03,1.848c-2.908,0.663-4.629,2.348-5.899,5.104
		c-4.76,10.341-7.708,21.202-9.833,32.325c-0.224,1.173-0.688,2.116-1.521,2.993c-3.877,4.078-7.851,8.056-11.98,11.876
		c-0.939,0.868-1.936,1.68-3.17,2.1c-1.885,0.641-3.323-0.176-3.727-2.1c-0.363-1.728-0.103-3.439,0.257-5.123
		c1.548-7.246,3.933-14.26,5.993-21.364c0.561-1.935,0.153-2.385-1.849-1.928c-0.484,0.111-0.939,0.385-1.383,0.627
		c-2.299,1.253-4.605,2.492-6.874,3.797c-0.764,0.439-1.235,0.441-1.666-0.404c-1.998-3.92-6.449-5.014-10.428-3.703
		c-10.491,3.458-17.174,10.632-20.016,21.331c-0.228,0.856-0.239,1.771-0.956,2.439c-2.288,2.137-4.506,4.362-7.137,6.087
		c-4.972,3.258-11.338,1.816-13.893-3.104c-1.867-3.594-1.74-3.868,1.975-5.113c4.807-1.61,9.489-3.51,13.222-7.087
		c2.645-2.534,4.055-5.59,2.958-9.332c-0.986-3.363-3.606-4.851-6.807-5.375c-2.279-0.374-4.616-0.274-6.806,0.575
		c-9.283,3.599-14.293,10.689-16.354,20.162c-0.238,1.094-0.083,2.265-0.978,3.212c-5.661,5.991-12.195,8.215-20.269,5.318
		c-4.183-1.501-8.284-3.404-12.805-3.811c-1.156-0.104-2.316-0.161-3.716-0.257c0.421-0.564,0.619-0.884,0.869-1.155
		c4.262-4.618,6.89-10.04,8.268-16.163c1.56-6.928,1.937-14.033,3.321-20.979c0.578-2.898,1.494-5.698,3.703-7.841
		c3.689-3.58,9.728-2.157,11.079,2.759c1.385,5.041,0.4,9.77-2.9,13.878c-1.767,2.199-3.939,2.611-6.448,1.403
		c-0.579-0.279-0.951-0.421-1.109,0.325c-0.692,3.27-0.25,7.098,4.3,7.985c2.555,0.499,5.013-0.096,7.125-1.523
		c5.836-3.942,8.312-9.697,8.264-16.556c-0.028-3.977-1.45-7.526-4.606-10.136c-5.209-4.307-11.062-4.489-16.905-1.835
		c-8.303,3.771-13.146,10.648-15.925,19.142c-2.034,6.212-2.092,12.692-2.671,19.104c-0.334,3.701-0.814,7.347-3,10.558
		c-0.741,1.088-1.515,1.659-2.826,1.936C70.66,269.15,66.49,271.017,64.286,275.703z"/>
	<path fill-rule="evenodd" clip-rule="evenodd" fill="#707170" d="M64.286,275.703c2.205-4.687,6.374-6.553,11.066-7.538
		c1.311-0.276,2.085-0.848,2.826-1.936c2.185-3.211,2.665-6.856,3-10.558c0.579-6.412,0.637-12.892,2.671-19.104
		c2.78-8.494,7.622-15.371,15.925-19.142c5.843-2.654,11.696-2.472,16.905,1.835c3.156,2.609,4.578,6.159,4.606,10.136
		c0.048,6.859-2.428,12.614-8.264,16.556c-2.112,1.427-4.57,2.021-7.125,1.523c-4.551-0.888-4.992-4.716-4.3-7.985
		c0.158-0.746,0.53-0.604,1.109-0.325c2.509,1.208,4.681,0.796,6.448-1.403c3.3-4.108,4.285-8.838,2.9-13.878
		c-1.351-4.917-7.39-6.339-11.079-2.759c-2.209,2.144-3.125,4.943-3.703,7.841c-1.384,6.946-1.761,14.05-3.321,20.979
		c-1.378,6.123-4.006,11.544-8.268,16.163c-0.25,0.271-0.447,0.591-0.869,1.155c1.4,0.096,2.56,0.152,3.716,0.257
		c4.521,0.406,8.623,2.31,12.805,3.811c8.073,2.896,14.607,0.673,20.269-5.318c0.895-0.947,0.74-2.118,0.978-3.212
		c2.061-9.473,7.071-16.563,16.354-20.162c2.19-0.849,4.527-0.948,6.806-0.575c3.201,0.524,5.821,2.013,6.807,5.375
		c1.097,3.741-0.314,6.797-2.958,9.332c-3.733,3.578-8.416,5.477-13.222,7.087c-3.715,1.245-3.842,1.52-1.975,5.113
		c2.555,4.92,8.921,6.361,13.893,3.104c2.631-1.725,4.849-3.95,7.137-6.087c0.717-0.668,0.728-1.583,0.956-2.439
		c2.842-10.699,9.525-17.873,20.016-21.331c3.979-1.312,8.43-0.217,10.428,3.703c0.431,0.845,0.902,0.843,1.666,0.404
		c2.269-1.305,4.575-2.544,6.874-3.797c0.444-0.242,0.899-0.516,1.383-0.627c2.001-0.458,2.41-0.007,1.849,1.928
		c-2.06,7.104-4.445,14.118-5.993,21.364c-0.36,1.684-0.62,3.396-0.257,5.123c0.404,1.924,1.842,2.74,3.727,2.1
		c1.234-0.42,2.231-1.231,3.17-2.1c4.13-3.82,8.103-7.798,11.98-11.876c0.834-0.877,1.297-1.82,1.521-2.993
		c2.125-11.123,5.073-21.983,9.833-32.325c1.27-2.757,2.991-4.442,5.899-5.104c2.361-0.538,4.679-1.262,7.03-1.848
		c2.518-0.627,3.626-0.007,4.495,2.468c1.436,4.091,1.012,8.187-0.168,12.226c-1.432,4.902-4.441,8.875-7.818,12.582
		c-1.634,1.793-3.32,3.554-5.115,5.184c-1.384,1.257-2.215,2.635-2.545,4.519c-0.824,4.711-1.864,9.385-2.794,14.078
		c-0.547,2.764,0.533,4.896,3.093,6.206c2.283,1.169,4.574,0.916,6.85-0.002c3.867-1.558,6.599-4.514,9.259-7.557
		c0.28-0.321,0.329-0.673,0.354-1.057c0.669-10.309,3.725-20.03,7.298-29.623c1.762-4.729,3.836-9.319,6.083-13.836
		c0.428-0.86,0.969-1.385,1.894-1.708c3.131-1.095,6.223-2.298,9.342-3.429c2.323-0.843,3.315-0.392,4.042,1.963
		c1.003,3.251,0.711,6.586,0.275,9.871c-1.41,10.625-6.902,19.28-13.795,27.059c-2.61,2.946-3.978,5.874-3.715,9.739
		c0.129,1.915,0.069,3.829,0.789,5.654c1.258,3.193,3.712,4.419,6.9,3.196c4.36-1.673,7.409-5.133,10.706-8.229
		c0.499-0.468,0.366-1.192,0.47-1.817c1.531-9.253,6.36-16.151,14.768-20.404c2.566-1.299,5.404-1.61,8.229-1.228
		c3.288,0.445,6.044,1.897,7.06,5.321c1.091,3.68-0.197,6.787-2.859,9.368c-3.625,3.516-8.209,5.317-12.828,7.039
		c-0.179,0.066-0.374,0.086-0.556,0.145c-3.652,1.16-3.717,1.313-2.019,4.788c2.558,5.24,9.144,6.746,14.236,3.249
		c2.646-1.816,4.947-4.035,7.242-6.261c0.383-0.371,0.631-0.79,0.737-1.309c0.897-4.378,2.106-8.677,3.36-12.961
		c0.339-1.159,0.008-1.418-1.036-1.168c-1.841,0.442-2.26-0.303-1.707-1.96c0.181-0.541,0.232-1.123,0.349-1.685
		c0.658-3.192,0.655-3.243,3.927-3.477c1.008-0.072,1.249-0.582,1.483-1.383c1.096-3.734,2.283-7.44,3.333-11.186
		c0.335-1.196,0.887-1.795,2.14-2.01c2.891-0.497,5.773-1.07,8.627-1.746c1.488-0.352,1.83-0.035,1.378,1.426
		c-1.282,4.144-2.47,8.316-3.756,12.459c-0.332,1.065-0.25,1.575,1.016,1.377c0.502-0.078,1.021-0.057,1.531-0.075
		c3.448-0.122,3.448-0.122,2.666,3.338c-0.746,3.307-0.749,3.638-4.042,3.614c-3.206-0.021-4.316,1.409-4.944,4.252
		c-1.002,4.533-2.863,8.858-3.244,13.556c-0.163,2.013-0.005,3.889,1.695,5.182c1.716,1.304,3.534,0.619,5.263-0.113
		c1.797-0.761,3.205-2.082,4.59-3.405c1.012-0.964,1.946-2.008,2.984-3.088c1.027,2.927,0.531,4.835-1.492,6.717
		c-2.905,2.702-5.876,5.313-9.315,7.33c-1.387,0.812-2.871,1.413-4.448,1.701c-5.402,0.982-9.414-2.065-10.549-7.979
		c-0.119-0.618-0.183-1.246-0.305-2.101c-1.429,0.621-2.273,1.749-3.28,2.636c-3.278,2.886-6.662,5.639-10.968,6.809
		c-5.407,1.469-10.629,1.415-15.129-2.58c-1.864-1.655-3.137-3.719-3.696-6.138c-0.317-1.375-0.767-1.166-1.59-0.446
		c-3.509,3.075-7.03,6.143-11.279,8.199c-2.442,1.183-5.003,2.012-7.743,1.77c-5.047-0.446-8.409-3.591-9.69-8.874
		c-0.1-0.414,0.086-1.016-0.393-1.198c-0.612-0.234-0.844,0.435-1.172,0.768c-3.29,3.347-6.822,6.362-11.183,8.254
		c-2.674,1.16-5.41,1.55-8.154,0.322c-1.263-0.564-1.55,0.027-1.71,1.069c-0.92,5.992-1.903,11.975-2.741,17.979
		c-0.2,1.432-0.617,2.11-2.154,2.284c-2.658,0.303-5.299,0.807-7.922,1.351c-1.26,0.263-1.586-0.046-1.409-1.296
		c1.213-8.595,2.479-17.181,4.019-25.725c0.469-2.6,1.245-5.184-0.261-7.795c-0.644-1.116-0.883-1.271-1.766-0.276
		c-3.533,3.979-7.555,7.431-11.755,10.681c-1.588,1.229-3.339,2.103-5.358,2.387c-3.284,0.463-5.536-0.839-6.819-3.925
		c-0.546-1.314-0.807-2.694-0.963-4.087c-0.147-1.304-0.155-2.623-0.238-4.221c-2.105,2.395-3.659,4.89-5.721,6.958
		c-1.817,1.823-3.751,3.465-6.149,4.491c-5.209,2.229-10.159,0.157-12.499-5.314c-0.564-1.319-0.907-2.732-1.393-4.233
		c-2.982,2.587-5.719,5.271-8.993,7.303c-4.244,2.634-8.837,3.73-13.737,2.883c-5.088-0.881-8.432-3.981-10.083-8.884
		c-0.176-0.522-0.332-1.052-0.547-1.739c-2.885,2.768-5.792,5.239-9.139,7.153c-7.506,4.294-15.206,4.706-23.153,1.32
		c-3.109-1.324-6.269-2.527-9.397-3.806c-1.009-0.413-1.749-0.229-2.521,0.603c-1.788,1.928-3.81,3.574-6.24,4.678
		c-3.512,1.593-5.228,1.266-7.705-1.564C64.286,277.748,64.286,276.726,64.286,275.703z M184.115,251.952
		c-0.058-0.964-0.067-1.732-0.155-2.49c-0.388-3.326-3.011-4.883-6.085-3.599c-1.009,0.421-1.868,1.079-2.644,1.865
		c-1.359,1.379-2.455,2.944-3.371,4.633c-2.645,4.877-4.718,9.939-4.394,15.637c0.243,4.261,3.74,6.013,7.317,3.71
		c0.688-0.443,1.33-1.014,1.855-1.642C181.072,264.765,183.462,258.624,184.115,251.952z M254.298,251.466
		c0.667,0.117,0.888-0.221,1.13-0.513c5.568-6.752,9.569-14.289,11.254-22.93c0.35-1.79,0.555-3.673,0.025-5.503
		c-0.2-0.692-0.554-1.368-1.308-1.531c-0.74-0.16-1.12,0.476-1.498,0.987c-1.109,1.5-1.841,3.198-2.562,4.902
		C258.007,234.766,256.202,243.09,254.298,251.466z M226.666,243.777c4.792-4.01,8.475-8.772,10.266-14.82
		c0.677-2.285,1.13-4.619,0.106-6.931c-0.816-1.844-2.198-2.066-3.576-0.612c-0.755,0.796-1.251,1.761-1.693,2.757
		C229.005,230.4,228.064,237.114,226.666,243.777z M132.651,261.799c2.961-0.75,5.559-1.874,7.793-3.767
		c2.606-2.209,3.842-5.025,3.713-8.432c-0.056-1.489-0.156-3.032-1.762-3.741c-1.655-0.73-3.113-0.074-4.414,0.971
		c-0.493,0.396-0.936,0.875-1.326,1.375C133.563,252.173,132.759,256.808,132.651,261.799z M281.755,258.647
		c-0.108,3.299-0.091,3.328,2.256,2.437c1.487-0.565,2.921-1.255,4.241-2.161c3.727-2.559,5.631-6.852,4.732-10.695
		c-0.545-2.333-2.221-3.247-4.45-2.379c-0.771,0.3-1.436,0.795-2.027,1.396C283.186,250.62,282.094,254.863,281.755,258.647z"/>
	<path fill-rule="evenodd" clip-rule="evenodd" fill="#BED971" d="M402.495,215.704c4.18-2.732,8.365-5.456,12.535-8.203
		c1.038-0.684,2.249-1.176,2.873-2.368c0.128,0,0.256,0,0.383,0c4.063,11.723,6.933,23.67,7.398,36.152
		c0.375,10.051-0.969,19.796-4.234,29.292c-0.206,0.601-0.35,1.228-0.832,1.69c-0.218-0.305-0.526-0.579-0.642-0.918
		c-1.709-5.052-3.484-10.084-5.063-15.177c-2.424-7.827-5.633-15.405-7.417-23.433c0.079-0.95,0.435-1.816,0.813-2.674
		c1.332-2.061,1.983-4.408,2.841-6.684c-1.566,1.421-1.889,3.598-3.219,5.147c-1.163-0.097-1.275-1.067-1.579-1.887
		C405.015,223.014,404.111,219.234,402.495,215.704z M411.775,221.634c0.483-0.306,0.971-0.61,0.525-1.329
		c-0.586,0.301-0.525,0.824-0.542,1.315c-0.094,0.137-0.189,0.274-0.276,0.417c-0.002,0.002,0.09,0.062,0.139,0.095
		C411.672,221.966,411.724,221.8,411.775,221.634z M413.063,218.66c0.164,0.015,0.199-0.057,0.093-0.206
		c-0.011-0.014-0.093,0.023-0.142,0.038C413.03,218.548,413.046,218.604,413.063,218.66z"/>
	<path fill-rule="evenodd" clip-rule="evenodd" fill="#B8D769" d="M407.497,232.74c1.784,8.028,4.993,15.606,7.417,23.433
		c1.578,5.093,3.354,10.125,5.063,15.177c0.115,0.339,0.424,0.613,0.642,0.918c-0.671,1.646-1.342,3.293-2.013,4.94
		c-0.548,0.41-0.993,0.886-1.014,1.625c-2.69,3.564-5.465,7.045-9.414,9.337c-0.327,0.19-0.679,0.338-1.019,0.505
		c0.127-0.983-0.185-1.891-0.488-2.8c-2.992-8.94-5.986-17.88-8.971-26.823c-0.183-0.547-0.266-1.134-0.898-1.375
		c1.947-4.675,3.862-9.363,5.855-14.019C404.225,240,405.545,236.229,407.497,232.74z"/>
	<path fill-rule="evenodd" clip-rule="evenodd" fill="#B0D35D" d="M369.957,257.675c1.41-7.052,4.212-13.531,8.047-19.586
		c0.654,0.874,1.091,1.847,1.433,2.883c2.47,7.484,4.949,14.965,7.453,22.438c0.622,1.859,1.148,3.767,2.262,5.425
		c-0.332,1.899-1.283,3.56-2.101,5.263c-1.672,3.483-3.399,6.94-4.831,10.533c-0.607-0.26-1.208-0.54-1.897-0.461
		c-0.006-0.728-0.64-0.854-1.093-1.174c-1.081-0.764-2.27-1.333-3.297-2.22c-3.003-2.595-4.663-5.908-5.587-9.675
		C369.473,266.646,369.24,262.175,369.957,257.675z"/>
	<path fill-rule="evenodd" clip-rule="evenodd" fill="#434342" d="M380.322,284.169c0.689-0.079,1.29,0.201,1.897,0.461
		c0.657,0.747,1.315,1.492,2.248,1.918c0.122,0.196,0.246,0.395,0.369,0.591c-7.05,1.696-13.213,5.252-19.217,9.148
		c-4.485,2.911-8.779,6.165-13.929,7.91c-0.18,0.062-0.39,0.13-0.506,0.264c-2.921,3.37-6.594,2.174-10.15,1.685
		c-11.396-1.568-22.447-4.759-33.66-7.188c-5.011-1.085-10.072-1.731-15.207-1.433c-7.777,0.45-15.554,0.93-23.325,1.47
		c-7.056,0.49-13.84,2.143-20.34,4.963c-1.689,0.732-3.423,1.449-5.337,1.327c-0.668-0.043-1.524,0.104-1.686-0.842
		c-0.152-0.889,0.189-1.502,1.108-1.946c4.958-2.397,10.275-3.792,15.424-5.656c1.138-0.413,2.383-0.642,3.4-1.251
		c2.773-1.665,5.929-1.49,8.924-2.076c0.4-0.077,1.13-0.269,1.099,0.327c-0.083,1.621,1.1,1.254,1.92,1.318
		c3.256,0.258,6.509,0.171,9.749-0.264c6.417-0.864,12.873-0.777,19.324-0.738c1.817,0.012,3.535-0.236,5.198-1.018
		c0.73-0.343,1.582-0.465,2.395-0.587c0.482-0.072,1.081-0.095,1.327,0.498c0.248,0.598-0.181,0.935-0.6,1.255
		c-0.354,0.272-0.727,0.532-1.027,0.855c-0.66,0.711-0.783,1.341,0.382,1.652c9.719,2.604,19.262,5.986,29.402,6.72
		c2.101,0.15,4.209,0.022,6.271-0.512c2.914-0.754,4.118-1.565,5.904-4.039c0.327,0.459,0.208,1.503,1.291,0.93
		c3.647-1.932,7.561-3.358,10.971-5.75c3.343-1.483,6.57-3.176,9.501-5.391c0.598-0.071,1.108-0.323,1.534-0.748
		C376.852,286.868,378.97,286.05,380.322,284.169z"/>
	<path fill-rule="evenodd" clip-rule="evenodd" fill="#B5D564" d="M389.151,268.834c-1.113-1.658-1.64-3.565-2.262-5.425
		c-2.504-7.472-4.983-14.954-7.453-22.438c-0.342-1.036-0.778-2.009-1.433-2.883c2.932-5.296,7.093-9.477,11.881-13.088
		c0.392,0.993,0.83,1.969,1.17,2.979c2.045,6.07,4.071,12.147,6.092,18.225c0.329,0.989,0.587,2.013,1.969,1.884
		c-2.153,4.679-4.263,9.377-6.477,14.028C391.555,264.393,390.573,266.73,389.151,268.834z"/>
	<path fill-rule="evenodd" clip-rule="evenodd" fill="#B3D562" d="M384.837,287.139c-0.123-0.196-0.247-0.395-0.368-0.592
		c3.992-9.675,7.889-19.39,12.332-28.87c0.634,0.241,0.717,0.828,0.899,1.375c2.984,8.943,5.979,17.883,8.971,26.823
		c0.304,0.909,0.615,1.816,0.488,2.8C398.336,293.37,391.956,293.725,384.837,287.139z"/>
	<path fill-rule="evenodd" clip-rule="evenodd" fill="#B8D769" d="M399.115,248.089c-1.382,0.129-1.64-0.896-1.969-1.884
		c-2.021-6.078-4.047-12.155-6.092-18.225c-0.34-1.01-0.778-1.987-1.17-2.979c3.918-3.485,8.154-6.539,12.61-9.295
		c1.616,3.529,2.52,7.309,3.857,10.937c0.304,0.82,0.416,1.791,1.579,1.887c-0.123,0.521-0.244,1.042-0.366,1.563
		C404.748,236.091,401.932,242.091,399.115,248.089z"/>
	<path fill-rule="evenodd" clip-rule="evenodd" fill="#81BF43" d="M358.807,292.301c-4.121-2.253-6.698-5.818-8.518-10.027
		c0.542-0.322,0.757-0.849,0.853-1.427c0.913-5.562,1.692-11.15,2.816-16.668c0.282-1.382-0.589-3.352,1.419-4.206
		c0.13,0.132,0.259,0.265,0.389,0.396c0.127,0.128,0.253,0.256,0.38,0.383c0.052,0.165,0.104,0.329,0.155,0.494
		c0.047-0.033,0.138-0.093,0.137-0.095c-0.088-0.142-0.183-0.277-0.276-0.415c-0.128-0.126-0.256-0.253-0.383-0.381
		c-0.014-0.311-0.077-0.595-0.389-0.752l-0.01-0.014c-0.124-0.124-0.247-0.247-0.371-0.371l-0.012-0.013
		c0-0.316-0.069-0.599-0.38-0.761c-0.472-0.395-0.569-1.002-0.147-1.312c1.269-0.932,0.974-2.362,1.274-3.583
		c0.263-1.07,0.244-2.21,0.848-3.191c2.432,0.886,4.733,2.032,6.894,3.459c-0.608,0.458-0.712,1.118-0.831,1.822
		c-0.471,2.778-1.062,5.537-1.48,8.322c-0.159,1.055-0.619,1.438-1.595,1.395c-0.92-0.827-1.229-2.199-2.784-3.175
		c2.021,3.403,3.771,6.35,5.521,9.297c-0.464,2.455-0.976,4.9-1.383,7.364C360.191,283.323,359.512,287.813,358.807,292.301z"/>
	<path fill-rule="evenodd" clip-rule="evenodd" fill="#86C243" d="M355.377,259.973c-2.008,0.854-1.137,2.824-1.419,4.206
		c-1.124,5.518-1.903,11.106-2.816,16.668c-0.096,0.578-0.311,1.104-0.853,1.427c-2.193-3.874-3.325-8.13-3.995-12.454
		c-1.23-7.939-0.751-15.875,0.725-23.92c3.264,1.52,6.418,2.99,9.573,4.46c-0.604,0.98-0.585,2.121-0.848,3.191
		c-0.301,1.221-0.006,2.651-1.274,3.583c-0.422,0.31-0.324,0.917,0.147,1.312c0.01,0.313,0.07,0.598,0.38,0.761l0.012,0.013
		c0.124,0.124,0.247,0.247,0.371,0.371c0,0,0.01,0.014,0.01,0.013C355.386,259.727,355.382,259.85,355.377,259.973z"/>
	<path fill-rule="evenodd" clip-rule="evenodd" fill="#7DBC42" d="M358.807,292.301c0.705-4.487,1.385-8.978,2.127-13.457
		c0.407-2.464,0.919-4.909,1.383-7.364c1.714,2.678,3.404,5.37,5.145,8.028c2.013,3.075,3.551,6.458,5.98,9.264
		c-2.931,2.215-6.158,3.907-9.501,5.391C362.084,293.942,360.344,293.399,358.807,292.301z"/>
	<path fill-rule="evenodd" clip-rule="evenodd" fill="#7FBD42" d="M359.579,265.357c0.976,0.043,1.436-0.34,1.595-1.395
		c0.419-2.785,1.01-5.544,1.48-8.322c0.119-0.705,0.223-1.364,0.831-1.822c2.406,0.868,4.218,2.731,6.472,3.856
		c-0.717,4.5-0.484,8.972,0.389,13.426c-2.187,0.313-1.522,2.222-1.881,3.499c-0.26,0.926-0.214,1.914-1.552,1.869
		C364.468,272.765,362.023,269.062,359.579,265.357z"/>
	<path fill-rule="evenodd" clip-rule="evenodd" fill="#434342" d="M417.592,278.833c0.021-0.739,0.466-1.215,1.014-1.625
		c6.76,2.094,12.34-0.01,17.304-4.692c2.596-2.448,5.337-4.756,8.294-6.779c0.469-0.32,0.973-0.601,1.488-0.836
		c0.569-0.261,1.371-0.681,1.713-0.031c0.274,0.521,0.111,1.389-0.101,2.021c-0.287,0.856-0.816-0.022-1.229,0.025
		c-1.063,0.123-2.126,0.227-3.029,0.936c-3.362,2.64-6.747,5.253-10.118,7.882c-0.44,0.345-1.19,0.732-0.838,1.328
		c1.065,1.809-0.225,1.603-1.313,1.758C426.38,279.445,421.987,279.113,417.592,278.833z"/>
	<path fill-rule="evenodd" clip-rule="evenodd" fill="#FFFFFF" d="M184.115,251.952c-0.653,6.672-3.043,12.813-7.477,18.115
		c-0.525,0.628-1.167,1.198-1.855,1.642c-3.577,2.303-7.074,0.551-7.317-3.71c-0.324-5.698,1.749-10.76,4.394-15.637
		c0.916-1.689,2.012-3.254,3.371-4.633c0.775-0.786,1.634-1.444,2.644-1.865c3.074-1.284,5.698,0.273,6.085,3.599
		C184.048,250.22,184.057,250.988,184.115,251.952z"/>
	<path fill-rule="evenodd" clip-rule="evenodd" fill="#FBFCFC" d="M254.298,251.466c1.904-8.375,3.708-16.7,7.042-24.588
		c0.721-1.705,1.452-3.403,2.562-4.902c0.378-0.511,0.758-1.147,1.498-0.987c0.754,0.163,1.107,0.839,1.308,1.531
		c0.529,1.831,0.324,3.714-0.025,5.503c-1.686,8.641-5.687,16.178-11.254,22.93C255.187,251.245,254.965,251.583,254.298,251.466z"
		/>
	<path fill-rule="evenodd" clip-rule="evenodd" fill="#FBFCFC" d="M226.666,243.777c1.398-6.663,2.339-13.376,5.103-19.606
		c0.442-0.996,0.938-1.961,1.693-2.757c1.378-1.454,2.76-1.232,3.576,0.612c1.024,2.312,0.571,4.646-0.106,6.931
		C235.141,235.004,231.458,239.767,226.666,243.777z"/>
	<path fill-rule="evenodd" clip-rule="evenodd" fill="#FBFCFC" d="M132.651,261.799c0.108-4.991,0.911-9.625,4.004-13.594
		c0.39-0.5,0.833-0.979,1.326-1.375c1.3-1.044,2.758-1.701,4.414-0.971c1.606,0.709,1.706,2.252,1.762,3.741
		c0.129,3.407-1.107,6.223-3.713,8.432C138.21,259.925,135.613,261.049,132.651,261.799z"/>
	<path fill-rule="evenodd" clip-rule="evenodd" fill="#FBFCFC" d="M281.755,258.647c0.339-3.784,1.431-8.027,4.752-11.402
		c0.592-0.601,1.256-1.096,2.027-1.396c2.229-0.868,3.905,0.046,4.45,2.379c0.898,3.843-1.006,8.136-4.732,10.695
		c-1.32,0.906-2.754,1.596-4.241,2.161C281.664,261.976,281.646,261.946,281.755,258.647z"/>
	<path fill-rule="evenodd" clip-rule="evenodd" fill="#90C848" d="M399.115,248.089c2.816-5.999,5.633-11.998,8.45-17.998
		c0.247-0.009,0.496-0.019,0.744-0.026c-0.378,0.858-0.733,1.724-0.813,2.674c-1.952,3.489-3.272,7.26-4.84,10.918
		c-1.993,4.655-3.908,9.344-5.855,14.019c-4.444,9.48-8.341,19.195-12.333,28.87c-0.934-0.425-1.592-1.17-2.249-1.917
		c1.432-3.593,3.159-7.05,4.831-10.533c0.817-1.703,1.769-3.363,2.101-5.263c1.422-2.104,2.403-4.441,3.487-6.717
		C394.853,257.467,396.962,252.769,399.115,248.089z"/>
	<path fill-rule="evenodd" clip-rule="evenodd" fill="#B0D35D" d="M408.31,230.065c-0.248,0.008-0.497,0.017-0.744,0.026
		c0.122-0.521,0.243-1.042,0.366-1.563c1.33-1.549,1.652-3.726,3.219-5.147C410.293,225.657,409.642,228.004,408.31,230.065z"/>
	<path fill-rule="evenodd" clip-rule="evenodd" fill="#B0D35D" d="M411.759,221.62c0.017-0.491-0.044-1.014,0.542-1.315
		c0.445,0.719-0.042,1.023-0.525,1.329L411.759,221.62z"/>
	<path fill-rule="evenodd" clip-rule="evenodd" fill="#B0D35D" d="M413.063,218.66c-0.017-0.056-0.032-0.112-0.049-0.168
		c0.049-0.014,0.131-0.052,0.142-0.038C413.262,218.603,413.227,218.675,413.063,218.66z"/>
	<path fill-rule="evenodd" clip-rule="evenodd" fill="#B0D35D" d="M411.775,221.634c-0.052,0.166-0.104,0.332-0.154,0.498
		c-0.049-0.033-0.141-0.093-0.139-0.095c0.087-0.142,0.183-0.279,0.276-0.417L411.775,221.634z"/>
	<path fill-rule="evenodd" clip-rule="evenodd" fill="#7DBC42" d="M366.913,276.469c1.338,0.045,1.292-0.943,1.552-1.869
		c0.358-1.277-0.306-3.187,1.881-3.499c0.924,3.767,2.584,7.08,5.587,9.675c1.027,0.887,2.216,1.456,3.297,2.22
		c0.453,0.32,1.087,0.446,1.093,1.174c-1.353,1.881-3.471,2.699-5.347,3.854C372.011,284.365,369.491,280.396,366.913,276.469z"/>
	<path fill-rule="evenodd" clip-rule="evenodd" fill="#519C44" d="M366.913,276.469c2.578,3.928,5.098,7.896,8.063,11.554
		c-0.426,0.426-0.937,0.678-1.534,0.749c-2.43-2.806-3.968-6.188-5.98-9.264c-1.74-2.658-3.431-5.351-5.145-8.028
		c-1.75-2.947-3.5-5.894-5.521-9.297c1.556,0.976,1.864,2.348,2.784,3.175C362.023,269.062,364.468,272.765,366.913,276.469z"/>
	<path fill-rule="evenodd" clip-rule="evenodd" fill="#7FBD42" d="M354.997,259.206c-0.31-0.163-0.37-0.448-0.38-0.761
		C354.928,258.607,354.997,258.89,354.997,259.206z"/>
	<path fill-rule="evenodd" clip-rule="evenodd" fill="#7FBD42" d="M355.377,259.973c0.005-0.123,0.009-0.246,0.013-0.37
		c0.312,0.158,0.375,0.442,0.388,0.753l-0.012,0.014C355.636,260.237,355.507,260.104,355.377,259.973z"/>
	<path fill-rule="evenodd" clip-rule="evenodd" fill="#7FBD42" d="M356.161,260.736c0.094,0.138,0.188,0.273,0.276,0.415
		c0.001,0.002-0.09,0.062-0.137,0.095c-0.052-0.165-0.104-0.329-0.155-0.494L356.161,260.736z"/>
	<path fill-rule="evenodd" clip-rule="evenodd" fill="#7FBD42" d="M355.38,259.59c-0.124-0.124-0.247-0.247-0.371-0.371
		C355.133,259.343,355.256,259.466,355.38,259.59z"/>
	<path fill-rule="evenodd" clip-rule="evenodd" fill="#7FBD42" d="M356.146,260.752c-0.127-0.127-0.253-0.255-0.38-0.383
		l0.012-0.014c0.128,0.128,0.256,0.255,0.384,0.381L356.146,260.752z"/>
</g>
</svg>
