<?xml version="1.0" encoding="utf-8"?>
<!-- Generator: Adobe Illustrator 16.0.0, SVG Export Plug-In . SVG Version: 6.00 Build 0)  -->
<!DOCTYPE svg PUBLIC "-//W3C//DTD SVG 1.1//EN" "http://www.w3.org/Graphics/SVG/1.1/DTD/svg11.dtd">
<svg version="1.1" id="Layer_1" xmlns="http://www.w3.org/2000/svg" xmlns:xlink="http://www.w3.org/1999/xlink" x="0px" y="0px"
	 width="512px" height="512px" viewBox="0 0 512 512" enable-background="new 0 0 512 512" xml:space="preserve">
<g>
	<g>
		<g id="Group" transform="translate(13) translate(.344)">
			<path id="Shape" fill="#939598" d="M270.744,223.903l36.014-85.185c0.429-1.023,1.62-1.508,2.653-1.08
				c1.028,0.427,1.521,1.604,1.087,2.63l-31.738,75.061L270.744,223.903L270.744,223.903z"/>
			<path id="Shape_1_" fill="#931A2C" d="M301.812,180.551c0,0-17.235,22.588-29.4,35.638
				c-12.175,13.054-29.917,33.635-29.917,33.635v46.015c0.128-0.008,0.246-0.032,0.374-0.032c2.943,0,5.325,2.354,5.325,5.267
				c0,2.913-2.386,5.272-5.325,5.272c-0.128,0-0.246-0.029-0.374-0.041v46.424c0,0,22.341-15.18,38.527-29.868
				c18.248-16.563,38.528-42.421,38.528-42.421l-17.738-99.885V180.551z"/>
			<path id="Shape_2_" fill="#A8AAAD" d="M229.844,96.352l-0.166,17.939l-65.106,26.078l1.146-15.939l64.129-28.082L229.844,96.352z
				"/>
			<path id="Shape_3_" fill="#BDBEC0" d="M320.293,123.804l1.27,15.933l-65.434-25.554l-0.311-17.932L320.293,123.804
				L320.293,123.804z M242.804,90.682l0.069,18.322l-95.24-37.199l1.976-20.964L242.804,90.682z M149.61,50.841l-1.976,20.964
				l-12.629,7.453l2.183-20.469L149.61,50.841z"/>
			<path id="Shape_4_" fill="#A8AAAD" d="M335.576,50.06l2.132,20.952l-94.834,37.991l-0.071-18.326L335.576,50.06L335.576,50.06z"
				/>
			<path id="Shape_5_" fill="#BDBEC0" d="M348.093,57.908l2.344,20.455l-12.727-7.35l-2.132-20.95L348.093,57.908L348.093,57.908z"
				/>
			<path id="Shape_6_" fill="#818285" d="M177.535,144.035l-12.965-3.663l65.108-26.078L135.004,79.26l12.629-7.455l95.24,37.199
				l94.836-37.991l12.727,7.35l-94.307,35.822l65.433,25.552l-12.935,3.771l-65.695-24.31l-65.397,24.833V144.035L177.535,144.035z"
				/>
			<path id="Shape_7_" fill="#939598" d="M136.031,196.65c-0.068,0-0.136,0-0.203-0.01c-1.113-0.112-1.927-1.088-1.817-2.197
				l11.607-115.806c0.111-1.097,1.08-1.909,2.217-1.797c1.113,0.106,1.928,1.091,1.817,2.191l-11.604,115.806
				c-0.106,1.036-0.981,1.813-2.013,1.813H136.031z M344.719,196.65c-1.06,0-1.956-0.824-2.02-1.888l-7.016-116.6
				c-0.068-1.109,0.782-2.063,1.9-2.128c1.146-0.075,2.083,0.776,2.149,1.885l7.009,116.595c0.071,1.109-0.778,2.06-1.896,2.128
				C344.802,196.648,344.76,196.648,344.719,196.65L344.719,196.65z M209.242,219.954l-33.574-79.151
				c-0.433-1.023,0.053-2.205,1.081-2.634c1.037-0.426,2.224,0.056,2.657,1.078l37.265,87.851L209.242,219.954L209.242,219.954z"/>
			<path id="Shape_8_" fill="#A91E2D" d="M237.551,301.076c0-2.784,2.184-5.041,4.947-5.234v-46.016
				c0,0-17.747-20.584-29.916-33.637c-12.167-13.05-29.405-35.638-29.405-35.638l-17.74,99.896c0,0,20.278,25.857,38.526,42.42
				c16.184,14.688,38.53,29.865,38.53,29.865v-46.428C239.736,306.113,237.551,303.854,237.551,301.076L237.551,301.076z"/>
			<path id="Shape_9_" fill="#939598" d="M242.869,304.085c-0.49,0-0.99-0.175-1.377-0.532l-69.876-64.242l-0.021-5.496
				l71.261,65.503l70.357-66.284l0.283,5.271l-69.231,65.222c-0.393,0.375-0.896,0.558-1.399,0.558H242.869L242.869,304.085z"/>
			<path id="Shape_10_" fill="#CF2329" d="M389.018,194.605l-87.204-14.053c0,0,8.11,46.18,8.11,123.482
				c0,77.313-10.646,130.017-10.646,130.017l88.221-9.539c0,0,11.148-42.178,11.148-114.961
				c-0.004-72.782-9.633-114.948-9.633-114.948L389.018,194.605z M348.709,398.411c-2.38,0-4.311-1.905-4.311-4.265
				c0-2.351,1.929-4.266,4.311-4.266s4.308,1.915,4.308,4.266C353.015,396.501,351.091,398.411,348.709,398.411z M175.065,304.033
				c0-77.303,8.111-123.482,8.111-123.482l-87.203,14.053c0,0-9.632,42.168-9.632,114.953c0,72.791,11.152,114.961,11.152,114.961
				l88.218,9.544C185.712,434.052,175.065,381.348,175.065,304.033L175.065,304.033z M134.662,398.132
				c-2.217,0-4.02-1.784-4.02-3.98c0-2.199,1.798-3.981,4.018-3.981c2.218,0,4.017,1.782,4.017,3.979
				c0,2.191-1.797,3.979-4.017,3.979L134.662,398.132z"/>
			<ellipse id="Oval" fill="#A51E26" cx="348.709" cy="219.956" rx="3.985" ry="3.945"/>
			<path id="Shape_11_" fill="#939598" d="M348.713,396.155c-0.155,0-0.315-0.022-0.475-0.061c-1.089-0.255-1.762-1.329-1.503-2.418
				c0.06-0.248,6.026-25.905,6.026-85.327c0-59.539-5.979-87.698-6.035-87.972c-0.233-1.088,0.462-2.154,1.554-2.388
				c1.087-0.234,2.178,0.457,2.409,1.542c0.061,0.277,6.128,28.86,6.128,88.817c0,59.989-5.89,85.209-6.137,86.255
				c-0.224,0.935-1.057,1.553-1.973,1.553v-0.002H348.713z"/>
			<ellipse fill="#A51E26" cx="134.662" cy="219.956" rx="4.674" ry="4.627"/>
			<path id="Shape_12_" fill="#939598" d="M134.658,396.155c-0.987,0-1.851-0.718-2.004-1.714
				c-0.049-0.333-5.092-34.143-5.092-87.139c0-52.998,5.043-87.298,5.092-87.64c0.166-1.098,1.194-1.855,2.302-1.69
				c1.109,0.159,1.877,1.184,1.712,2.277c-0.053,0.341-5.049,34.373-5.049,87.057c0,52.703,5,86.219,5.047,86.541
				c0.171,1.088-0.597,2.122-1.706,2.284C134.858,396.143,134.756,396.155,134.658,396.155z"/>
		</g>
	</g>
</g>
</svg>
