<?xml version="1.0" encoding="utf-8"?>
<!-- Generator: Adobe Illustrator 16.0.0, SVG Export Plug-In . SVG Version: 6.00 Build 0)  -->
<!DOCTYPE svg PUBLIC "-//W3C//DTD SVG 1.1//EN" "http://www.w3.org/Graphics/SVG/1.1/DTD/svg11.dtd">
<svg version="1.1" xmlns="http://www.w3.org/2000/svg" xmlns:xlink="http://www.w3.org/1999/xlink" x="0px" y="0px" width="512px"
	 height="512px" viewBox="0 0 512 512" enable-background="new 0 0 512 512" xml:space="preserve">
<g id="Layer_1">
</g>
<g id="Isolation_Mode">
	<g>
		<path fill-rule="evenodd" clip-rule="evenodd" fill="#70798D" d="M75.723,224.752c11.088-10.527,21.341-9.925,31.649,1.688
			c5.397-6.981,12.505-10.094,21.258-8.858c9.619,1.357,15.502,8.131,16.049,19.016c0.407,8.092,0.167,16.22,0.124,24.332
			c-0.018,3.356-1.531,5.749-5.189,5.704c-3.638-0.045-5.109-2.489-5.147-5.809c-0.081-6.976,0.044-13.955-0.051-20.93
			c-0.115-8.405-4.048-12.981-11.107-13.152c-7.297-0.176-12.85,4.856-13.252,12.657c-0.359,6.958-0.15,13.949-0.101,20.925
			c0.025,3.519-0.959,6.259-4.985,6.314c-4.018,0.055-5.208-2.747-5.248-6.185c-0.076-6.651,0.023-13.304-0.063-19.955
			c-0.114-8.896-4.202-13.669-11.637-13.764c-7.734-0.098-12.539,5.183-12.632,14.01c-0.067,6.328,0.001,12.655-0.021,18.983
			c-0.013,3.518-0.756,6.816-5.068,6.877c-4.616,0.065-5.308-3.284-5.29-7.062c0.053-11.033,0.006-22.066,0.026-33.099
			c0.006-3.523-0.728-7.614,4.303-8.418C74.162,217.256,75.157,220.892,75.723,224.752z"/>
		<path fill-rule="evenodd" clip-rule="evenodd" fill="#6F788C" d="M232.257,260.25c-0.623,6.796-0.297,13.601-0.239,20.405
			c0.029,3.428-1.121,6.295-5.101,6.331c-3.237,0.029-5.089-1.933-5.094-5.256c-0.026-19.463-0.016-38.926-0.017-58.39
			c0-3.004,1.278-5.087,4.426-5.344c3.378-0.277,5.063,1.634,5.407,4.874c0.08,0.745,0.126,1.494,0.204,2.424
			c10.55-9.086,19.186-10.329,28.745-4.309c9.771,6.152,13.625,20.168,8.821,32.074c-4.12,10.209-14.678,15.858-25.163,13.623
			c-4.685-0.999-8.024-3.997-11.42-6.997c-0.203-0.168-0.404-0.335-0.605-0.504C232.233,259.537,232.245,259.894,232.257,260.25z
			 M261.069,242.673c0.124-9.934-5.647-16.752-14.239-16.821c-8.075-0.065-14.685,7.022-14.959,16.041
			c-0.275,9.017,6.4,16.659,14.689,16.818C255.023,258.873,260.948,252.323,261.069,242.673z"/>
		<path fill-rule="evenodd" clip-rule="evenodd" fill="#717A8D" d="M412.914,246.003c-4.543,0.007-9.093,0.156-13.628-0.04
			c-3.569-0.155-3.655,1.564-2.813,4.198c2.627,8.222,14.259,11.525,22.603,6.355c1.233-0.765,2.375-1.703,3.471-2.663
			c2.237-1.958,4.585-2.721,6.805-0.222c2.105,2.37,0.861,4.565-0.985,6.418c-10.768,10.803-35.783,10.686-42.076-8.958
			c-5.784-18.052,7.286-35.512,25.263-33.709c11.571,1.16,20.922,12.197,20.488,24.032c-0.125,3.398-2.018,4.545-5.008,4.571
			C422.326,246.025,417.621,245.997,412.914,246.003z M408.939,237.558c3.394,0,6.792-0.12,10.178,0.035
			c3.036,0.139,3.143-1.3,2.354-3.579c-1.729-4.999-6.813-8.445-12.437-8.364c-5.55,0.079-10.77,3.749-12.396,8.547
			c-0.882,2.602-0.092,3.519,2.605,3.397C402.471,237.449,405.707,237.56,408.939,237.558z"/>
		<path fill-rule="evenodd" clip-rule="evenodd" fill="#6F778C" d="M314.614,260.805c-12.624,9.479-27.545,7.834-35.124-3.608
			c-8.133-12.278-4.333-29.618,8.021-36.593c17.296-9.767,37.213,1.307,37.722,21.017c0.142,5.511,0.07,11.028,0.051,16.541
			c-0.012,3.36,0.691,7.264-3.832,8.366C317.076,267.592,315.563,264.344,314.614,260.805z M314.881,242.32
			c0.074-9.58-5.595-16.054-14.241-16.259c-8.347-0.199-15.095,7.001-15.189,16.213c-0.099,9.556,5.848,16.044,14.882,16.235
			C308.293,258.678,314.811,251.426,314.881,242.32z"/>
		<path fill-rule="evenodd" clip-rule="evenodd" fill="#727A8E" d="M378.843,249.685c0,3.573,0.012,7.147-0.003,10.72
			c-0.014,3.491-1.172,6.275-5.169,6.222c-3.925-0.054-5.189-2.866-5.229-6.306c-0.085-7.471,0.138-14.95-0.15-22.411
			c-0.249-6.476-5.813-11.182-12.472-11.089c-6.473,0.089-11.633,4.726-12.144,11.004c-0.144,1.776-0.049,3.572-0.05,5.358
			c-0.004,5.685-0.014,11.37,0.003,17.056c0.01,3.524-1.272,6.294-5.11,6.374c-3.817,0.08-5.34-2.533-5.338-6.126
			c0.005-7.146-0.19-14.301,0.081-21.438c0.476-12.527,10.454-21.832,22.957-21.729c12.558,0.103,22.133,9.459,22.565,22.132
			c0.116,3.407,0.018,6.821,0.018,10.233C378.816,249.685,378.83,249.685,378.843,249.685z"/>
		<path fill-rule="evenodd" clip-rule="evenodd" fill="#70798D" d="M192.963,249.042c-4.069,5.041-7.954,9.786-11.76,14.592
			c-2.154,2.721-4.646,4.497-7.766,1.812c-2.947-2.536-1.522-5.128,0.613-7.571c3.626-4.151,6.965-8.566,10.767-12.543
			c2.357-2.466,2.037-4.09-0.083-6.421c-3.815-4.193-7.314-8.673-10.972-13.01c-1.906-2.26-2.675-4.738-0.186-6.841
			c2.566-2.168,5.116-1.361,7.161,1.163c3.367,4.157,6.83,8.241,10.061,12.502c1.634,2.154,2.733,2.171,4.355,0.039
			c3.139-4.128,6.483-8.099,9.682-12.182c2.102-2.684,4.663-3.812,7.51-1.566c2.909,2.294,1.609,4.83-0.352,7.151
			c-3.557,4.211-6.893,8.631-10.691,12.609c-2.514,2.633-2.185,4.394,0.104,6.872c3.845,4.164,7.338,8.652,11.037,12.954
			c1.962,2.283,2.608,4.66,0.147,6.816c-2.579,2.262-5.063,1.55-7.134-0.999C201.384,259.405,197.313,254.395,192.963,249.042z"/>
		<path fill-rule="evenodd" clip-rule="evenodd" fill="#6E778B" d="M99.234,301.849c-0.071,9.296-7.611,16.652-16.896,16.487
			c-9.033-0.161-16.338-7.552-16.377-16.567c-0.039-9.286,7.359-16.67,16.706-16.673C91.991,285.093,99.305,292.489,99.234,301.849z
			"/>
		<path fill-rule="evenodd" clip-rule="evenodd" fill="#747B90" d="M438.605,229.167c0.001-9.719,0.042-19.438-0.021-29.157
			c-0.023-3.764,0.704-7.176,5.181-7.244c4.526-0.067,5.252,3.299,5.24,7.103c-0.057,19.924-0.04,39.848-0.014,59.771
			c0.005,3.509-0.458,6.818-4.82,6.983c-4.537,0.171-5.577-3.01-5.571-6.842C438.615,249.576,438.605,239.372,438.605,229.167z"/>
		<path fill-rule="evenodd" clip-rule="evenodd" fill="#737C8F" d="M153.876,242.181c0.001-6,0.007-12-0.001-18
			c-0.006-3.562,1.36-6.209,5.237-6.185c3.851,0.023,5.215,2.65,5.209,6.224c-0.018,11.999-0.015,23.998,0,35.997
			c0.004,3.476-1.068,6.285-5.006,6.412c-4.246,0.137-5.448-2.749-5.442-6.45C153.881,254.179,153.875,248.18,153.876,242.181z"/>
		<path fill-rule="evenodd" clip-rule="evenodd" fill="#6F788C" d="M142.796,313.599c-6.583,0.001-11.642-5.043-11.679-11.644
			c-0.036-6.529,5.033-11.739,11.523-11.844c6.617-0.107,12.068,5.323,11.982,11.936
			C154.538,308.561,149.38,313.598,142.796,313.599z"/>
		<path fill-rule="evenodd" clip-rule="evenodd" fill="#727B8F" d="M159.102,210.388c-3.644-0.317-5.862-2.398-5.946-5.862
			c-0.085-3.518,2.137-5.69,5.728-5.974c3.269-0.258,6.589,2.877,6.237,6.022C164.734,208.024,162.676,210.082,159.102,210.388z"/>
		<path fill-rule="evenodd" clip-rule="evenodd" fill="#727B8F" d="M197.869,301.571c-0.334,3.482-2.17,5.568-5.25,5.647
			c-3.37,0.086-5.544-2.089-5.477-5.508c0.062-3.199,2.176-5.059,5.388-5.063C195.827,296.644,197.372,298.767,197.869,301.571z"/>
		<path fill-rule="evenodd" clip-rule="evenodd" fill="#FBFCFE" d="M261.069,242.673c-0.121,9.65-6.046,16.2-14.509,16.038
			c-8.289-0.159-14.964-7.801-14.689-16.818c0.274-9.018,6.884-16.105,14.959-16.041
			C255.422,225.92,261.193,232.739,261.069,242.673z"/>
		<path fill-rule="evenodd" clip-rule="evenodd" fill="#FFFFFF" d="M232.257,260.25c-0.012-0.356-0.024-0.713-0.037-1.069
			c0.201,0.169,0.403,0.336,0.605,0.504C232.641,259.877,232.451,260.065,232.257,260.25z"/>
		<path fill-rule="evenodd" clip-rule="evenodd" fill="#FBFCFE" d="M408.939,237.559c-3.232,0.001-6.469-0.11-9.694,0.035
			c-2.697,0.122-3.487-0.795-2.605-3.397c1.626-4.798,6.846-8.468,12.396-8.547c5.624-0.081,10.707,3.365,12.437,8.364
			c0.788,2.278,0.682,3.718-2.354,3.579C415.731,237.438,412.333,237.558,408.939,237.559z"/>
		<path fill-rule="evenodd" clip-rule="evenodd" fill="#FBFCFE" d="M314.881,242.32c-0.07,9.106-6.588,16.358-14.549,16.189
			c-9.034-0.191-14.98-6.68-14.882-16.235c0.095-9.211,6.843-16.412,15.189-16.213C309.286,226.266,314.955,232.74,314.881,242.32z"
			/>
	</g>
</g>
</svg>
