<?xml version="1.0" encoding="utf-8"?>
<!-- Generator: Adobe Illustrator 16.0.0, SVG Export Plug-In . SVG Version: 6.00 Build 0)  -->
<!DOCTYPE svg PUBLIC "-//W3C//DTD SVG 1.1//EN" "http://www.w3.org/Graphics/SVG/1.1/DTD/svg11.dtd">
<svg version="1.1" xmlns="http://www.w3.org/2000/svg" xmlns:xlink="http://www.w3.org/1999/xlink" x="0px" y="0px" width="512px"
	 height="512px" viewBox="0 0 512 512" enable-background="new 0 0 512 512" xml:space="preserve">
<g id="Layer_1">
</g>
<g id="Isolation_Mode">
	<g>
		<path fill-rule="evenodd" clip-rule="evenodd" fill="#8EC74F" d="M81.673,256.302c0-26.573,0.039-53.146-0.017-79.72
			c-0.026-12.451,5.431-21.6,16.194-27.678c46.471-26.243,93.01-52.368,139.378-78.791c12.701-7.238,24.67-7.33,37.406-0.071
			c46.483,26.498,93.147,52.679,139.727,79.012c10.611,5.999,15.987,15.099,15.981,27.376c-0.024,53.146-0.063,106.293,0.027,159.44
			c0.023,12.805-5.464,22.12-16.513,28.35c-37.144,20.942-74.281,41.895-111.422,62.841c-9.823,5.541-19.702,10.988-29.464,16.638
			c-11.393,6.593-22.625,6.605-34.001-0.056c-14.956-8.759-29.999-17.368-45.003-26.045c-0.952-0.551-1.912-1.094-2.826-1.704
			c-1.13-0.754-2.672-1.43-2.501-2.992c0.174-1.585,1.846-1.861,3.12-2.288c6.666-2.225,13.225-4.725,19.21-8.445
			c2.706-1.682,4.938-1.491,7.615,0.098c10.88,6.461,21.916,12.66,32.776,19.153c3.228,1.93,5.879,1.916,9.164,0.056
			c46.318-26.234,92.676-52.399,139.1-78.446c3.602-2.02,5.018-4.378,5.009-8.485c-0.106-52.045-0.103-104.09-0.005-156.135
			c0.008-4.074-1.337-6.482-4.97-8.519c-46.185-25.911-92.304-51.938-138.365-78.067c-3.834-2.175-6.87-2.104-10.67,0.051
			c-46.183,26.195-92.426,52.282-138.715,78.289c-3.348,1.88-4.528,4.213-4.522,7.939c0.081,52.183,0.087,104.366-0.01,156.549
			c-0.007,3.926,1.247,6.305,4.761,8.212c12.088,6.56,23.974,13.491,36.014,20.143c6.907,3.815,14.212,5.955,22.183,3.822
			c7.284-1.948,12.292-7.745,13.129-15.255c0.259-2.318,0.395-4.663,0.396-6.997c0.021-50.806,0.015-101.612,0.019-152.418
			c0-6.587,0.525-7.114,7.01-7.122c4.819-0.007,9.638,0.021,14.457-0.007c3.396-0.019,5.088,1.652,5.162,5.016
			c0.009,0.413,0.004,0.826,0.004,1.24c-0.008,53.009-0.015,106.018-0.03,159.027c-0.001,4.976-0.642,9.89-1.941,14.683
			c-4.589,16.93-17.714,27.032-35.431,28.356c-14.442,1.079-27.521-2.669-39.93-9.481c-11.936-6.551-23.772-13.287-35.612-20.014
			c-10.613-6.028-15.924-15.156-15.906-27.42C81.701,309.725,81.673,283.013,81.673,256.302z"/>
		<path fill-rule="evenodd" clip-rule="evenodd" fill="#8EC74F" d="M294.195,180.786c15.669-0.015,29.418,1.302,42.553,6.564
			c18.753,7.514,27.712,22.033,29.828,41.488c0.396,3.64-1.409,5.552-4.904,5.633c-5.778,0.136-11.562,0.07-17.343,0.011
			c-2.263-0.023-4.231-1.021-4.672-3.327c-3.441-17.995-16.128-24.092-32.512-25.184c-10.85-0.722-21.765-1.071-32.446,1.522
			c-7.572,1.838-14.455,4.839-16.519,13.575c-1.886,7.989,0.518,12.742,8.241,15.52c10.029,3.605,20.582,4.773,31.048,6.266
			c14.278,2.037,28.655,3.523,42.585,7.498c9.074,2.589,17.842,5.943,24.229,13.323c11.78,13.611,10.655,38.863-2.144,52.935
			c-9.446,10.384-21.761,15.282-35.086,17.699c-21.64,3.926-43.292,3.588-64.583-2.296c-14.083-3.892-26.061-11.039-33.187-24.544
			c-3.616-6.853-4.87-14.271-5.131-21.888c-0.105-3.075,1.499-4.893,4.798-4.88c5.781,0.022,11.563,0.03,17.343-0.008
			c2.719-0.019,4.564,1.03,4.916,3.876c2.212,17.928,14.111,24.601,30.384,26.219c15.385,1.528,30.765,2.148,45.886-1.883
			c10.985-2.928,16.104-9.496,16.186-19.52c0.042-5.1-2.074-8.694-6.512-11.037c-7.426-3.92-15.576-5.231-23.717-6.569
			c-16.801-2.761-33.972-2.996-50.533-7.406c-5.33-1.42-10.5-3.244-15.376-5.853c-14.149-7.569-19.541-19.96-18.278-35.039
			c1.703-20.332,13.843-33.233,35.604-39.145C275.012,181.577,285.375,180.491,294.195,180.786z"/>
	</g>
</g>
</svg>
