<?xml version="1.0" encoding="utf-8"?>
<!-- Generator: Adobe Illustrator 16.0.0, SVG Export Plug-In . SVG Version: 6.00 Build 0)  -->
<!DOCTYPE svg PUBLIC "-//W3C//DTD SVG 1.1//EN" "http://www.w3.org/Graphics/SVG/1.1/DTD/svg11.dtd">
<svg version="1.1" id="Layer_1" xmlns="http://www.w3.org/2000/svg" xmlns:xlink="http://www.w3.org/1999/xlink" x="0px" y="0px"
	 width="512px" height="512px" viewBox="0 0 512 512" enable-background="new 0 0 512 512" xml:space="preserve">
<g enable-background="new    ">
	<path fill="#2BB673" d="M59.083,224.435c5.88-0.96,14.64-1.68,24.359-1.68c12,0,20.399,1.8,26.159,6.359
		c4.8,3.84,7.44,9.479,7.44,16.92c0,10.319-7.32,17.398-14.279,19.919v0.36c5.64,2.279,8.759,7.68,10.799,15.119
		c2.52,9.119,5.04,19.679,6.6,22.799h-18.719c-1.32-2.28-3.24-8.88-5.64-18.839c-2.16-10.08-5.64-12.84-13.08-12.96h-5.52v31.799
		h-18.12V224.435z M77.203,259.233h7.2c9.12,0,14.52-4.56,14.52-11.64c0-7.439-5.04-11.159-13.439-11.279
		c-4.44,0-6.96,0.359-8.28,0.6V259.233z"/>
	<path fill="#2BB673" d="M178.36,270.033h-29.759v19.199h33.239v14.999h-51.598v-80.877h49.918v15h-31.559v16.799h29.759V270.033z"
		/>
	<path fill="#2BB673" d="M194.921,285.393c4.92,2.52,12.479,5.039,20.279,5.039c8.399,0,12.839-3.479,12.839-8.759
		c0-5.04-3.84-7.92-13.559-11.4c-13.439-4.68-22.199-12.119-22.199-23.879c0-13.799,11.52-24.358,30.599-24.358
		c9.12,0,15.839,1.92,20.639,4.079l-4.08,14.76c-3.24-1.56-9-3.84-16.919-3.84c-7.92,0-11.76,3.6-11.76,7.8
		c0,5.159,4.56,7.439,15,11.399c14.279,5.279,20.999,12.72,20.999,24.119c0,13.56-10.439,25.079-32.639,25.079
		c-9.239,0-18.359-2.4-22.919-4.92L194.921,285.393z"/>
	<path fill="#2BB673" d="M274.72,238.714H253v-15.359h62.158v15.359h-22.079v65.518H274.72V238.714z"/>
	<path fill="#2BB673" d="M326.319,304.231v-45.238h-7.68v-13.439h7.68v-2.279c0-7.08,2.159-14.88,7.439-19.68
		c4.56-4.32,10.919-5.88,16.199-5.88c4.08,0,7.2,0.48,9.72,1.2l-0.72,14.039c-1.56-0.479-3.479-0.84-5.88-0.84
		c-6,0-8.52,4.68-8.52,10.439v3h11.76v13.439h-11.641v45.238H326.319z"/>
	<path fill="#2BB673" d="M420.516,285.393c0,7.68,0.24,13.919,0.479,18.839h-15.839l-0.84-8.279h-0.36c-2.28,3.6-7.8,9.6-18.359,9.6
		c-11.88,0-20.64-7.44-20.64-25.56v-34.438h18.359v31.559c0,8.52,2.76,13.68,9.12,13.68c5.04,0,7.92-3.479,9.12-6.359
		c0.479-1.08,0.6-2.521,0.6-3.96v-34.919h18.359V285.393z"/>
	<path fill="#2BB673" d="M435.156,219.035h18.24v85.196h-18.24V219.035z"/>
</g>
</svg>
