<?xml version="1.0" encoding="utf-8"?>
<!-- Generator: Adobe Illustrator 16.0.0, SVG Export Plug-In . SVG Version: 6.00 Build 0)  -->
<!DOCTYPE svg PUBLIC "-//W3C//DTD SVG 1.1//EN" "http://www.w3.org/Graphics/SVG/1.1/DTD/svg11.dtd">
<svg version="1.1" xmlns="http://www.w3.org/2000/svg" xmlns:xlink="http://www.w3.org/1999/xlink" x="0px" y="0px" width="512px"
	 height="512px" viewBox="0 0 512 512" enable-background="new 0 0 512 512" xml:space="preserve">
<g id="Layer_1">
</g>
<g id="Isolation_Mode">
	<g>
		<path fill="#A4BECC" d="M415.931,325.604c0,14.676-12.003,26.68-26.679,26.68h-90.654c0,14.165,10.666,26.169,10.666,32.024
			c0,5.807-4.834,10.642-10.666,10.642h-85.333c-5.832,0-10.667-4.835-10.667-10.642c0-6.196,10.667-17.52,10.667-32.024h-90.655
			c-14.675,0-26.679-12.004-26.679-26.68V144.296c0-14.676,12.003-26.678,26.679-26.678h266.643
			c14.676,0,26.679,12.002,26.679,26.678V325.604z M394.598,144.296c0-2.842-2.502-5.345-5.346-5.345H122.609
			c-2.842,0-5.345,2.503-5.345,5.345v138.643c0,2.867,2.503,5.345,5.345,5.345h266.643c2.844,0,5.346-2.478,5.346-5.345V144.296z"/>
		<path fill="#A4BECC" d="M320.268,186.951c0,2.499-2.072,4.57-4.572,4.57H196.844c-2.509,0-4.576-2.071-4.576-4.57v-18.286
			c0-2.499,2.067-4.571,4.576-4.571h118.852c2.5,0,4.572,2.072,4.572,4.571V186.951z M320.268,223.522
			c0,2.499-2.072,4.57-4.572,4.57H196.844c-2.509,0-4.576-2.071-4.576-4.57v-18.286c0-2.499,2.067-4.571,4.576-4.571h118.852
			c2.5,0,4.572,2.072,4.572,4.571V223.522z M320.268,260.094c0,2.499-2.072,4.571-4.572,4.571H196.844
			c-2.509,0-4.576-2.072-4.576-4.571v-18.286c0-2.5,2.067-4.571,4.576-4.571h118.852c2.5,0,4.572,2.071,4.572,4.571V260.094z
			 M311.113,209.809h-73.132v9.132h73.132V209.809z M311.113,246.38h-45.715v9.132h45.715V246.38z M311.113,173.237h-27.417v9.142
			h27.417V173.237z"/>
	</g>
</g>
</svg>
