<?xml version="1.0" encoding="utf-8"?>
<!-- Generator: Adobe Illustrator 16.0.0, SVG Export Plug-In . SVG Version: 6.00 Build 0)  -->
<!DOCTYPE svg PUBLIC "-//W3C//DTD SVG 1.1//EN" "http://www.w3.org/Graphics/SVG/1.1/DTD/svg11.dtd">
<svg version="1.1" xmlns="http://www.w3.org/2000/svg" xmlns:xlink="http://www.w3.org/1999/xlink" x="0px" y="0px" width="512px"
	 height="512px" viewBox="0 0 512 512" enable-background="new 0 0 512 512" xml:space="preserve">
<g id="Layer_1">
</g>
<g id="Isolation_Mode">
	<path fill="#A4BECC" d="M229.382,336.854l-45.546,45.566c-1,0.854-2.145,1.291-3.291,1.291c-1.145,0-2.291-0.437-3.29-1.291
		l-45.713-45.691c-1.291-1.457-1.708-3.312-1-5.019c0.729-1.708,2.437-2.854,4.29-2.854h27.428V132.304
		c0-2.582,1.999-4.592,4.561-4.592h27.448c2.562,0,4.561,2.01,4.561,4.592v196.553h27.427c2.562,0,4.582,1.999,4.582,4.561
		C230.84,334.729,230.257,335.854,229.382,336.854 M299.398,159.721c0,2.583-1.999,4.571-4.581,4.571h-36.569
		c-2.563,0-4.562-1.989-4.562-4.571v-27.417c0-2.582,2-4.592,4.562-4.592h36.569c2.582,0,4.581,2.01,4.581,4.592V159.721z
		 M326.826,232.872c0,2.562-2,4.561-4.562,4.561h-64.017c-2.563,0-4.562-1.999-4.562-4.561v-27.448c0-2.562,2-4.561,4.562-4.561
		h64.017c2.562,0,4.562,1.999,4.562,4.561V232.872z M354.253,305.991c0,2.582-1.998,4.582-4.581,4.582h-91.424
		c-2.563,0-4.562-2-4.562-4.582v-27.418c0-2.562,2-4.57,4.562-4.57h91.424c2.583,0,4.581,2.009,4.581,4.57V305.991z
		 M381.682,379.131c0,2.583-2,4.581-4.562,4.581H258.248c-2.563,0-4.562-1.998-4.562-4.581v-27.407c0-2.582,2-4.581,4.562-4.581
		H377.12c2.562,0,4.562,1.999,4.562,4.581V379.131z"/>
</g>
</svg>
