<?xml version="1.0" encoding="utf-8"?>
<!-- Generator: Adobe Illustrator 16.0.0, SVG Export Plug-In . SVG Version: 6.00 Build 0)  -->
<!DOCTYPE svg PUBLIC "-//W3C//DTD SVG 1.1//EN" "http://www.w3.org/Graphics/SVG/1.1/DTD/svg11.dtd">
<svg version="1.1" id="Layer_1" xmlns="http://www.w3.org/2000/svg" xmlns:xlink="http://www.w3.org/1999/xlink" x="0px" y="0px"
	 width="512px" height="512px" viewBox="0 0 512 512" enable-background="new 0 0 512 512" xml:space="preserve">
<g>
	<g>
		<path fill-rule="evenodd" clip-rule="evenodd" fill="#E25327" d="M258.664,432.618c-1.071,0-2.142,0-3.213,0
			c-0.572-0.307-1.111-0.73-1.721-0.902c-22.517-6.392-45.038-12.768-67.563-19.13c-13.129-3.708-26.238-7.495-39.42-11.008
			c-3.382-0.901-4.871-2.508-5.004-5.984c-0.169-4.403-0.763-8.789-1.16-13.184c-2.095-23.178-4.212-46.353-6.269-69.532
			c-1.524-17.179-2.92-34.369-4.454-51.546c-1.915-21.444-3.938-42.876-5.865-64.318c-1.64-18.25-3.202-36.506-4.815-54.758
			c-0.856-9.691-1.747-19.379-2.667-29.573c1.893,0,3.331,0,4.769,0c60.655,0,121.309,0,181.964,0
			c30.127,0,60.253,0.051,90.379-0.065c3.697-0.014,4.778,0.876,4.368,4.784c-1.73,16.489-3.133,33.015-4.579,49.534
			c-1.948,22.248-3.769,44.507-5.75,66.753c-2.611,29.298-5.329,58.587-7.995,87.882c-2.266,24.906-4.6,49.809-6.685,74.731
			c-0.271,3.237-1.736,4.344-4.425,5.094c-28.462,7.941-56.921,15.897-85.359,23.92
			C274.987,427.632,266.842,430.178,258.664,432.618z M305.655,241.96c0-2.006-0.123-3.57,0.019-5.11
			c1.857-20.246,3.779-40.485,5.619-60.733c0.519-5.707,0.421-5.729-5.443-5.723c-43.098,0.053-86.195,0.075-129.292,0.201
			c-8.674,0.025-8.714-1.973-7.76,8.838c3.013,34.12,6.231,68.222,9.256,102.34c1.949,21.989,3.758,43.992,5.465,66.003
			c0.252,3.246,1.544,4.574,4.613,5.404c22.34,6.036,44.625,12.28,66.956,18.354c1.568,0.426,3.461,0.366,5.041-0.064
			c22.064-6.012,44.082-12.191,66.161-18.146c3.091-0.833,4.438-2.2,4.673-5.394c0.754-10.271,1.762-20.524,2.642-30.786
			c1.921-22.395,3.626-44.809,5.825-67.175c0.939-9.552,0.769-7.92-7.139-7.993C323.49,241.896,314.688,241.96,305.655,241.96z"/>
		<path fill-rule="evenodd" clip-rule="evenodd" fill="#E25327" d="M299.997,278.925c-0.5,6.017-0.896,11.313-1.392,16.602
			c-0.771,8.258-1.707,16.501-2.356,24.768c-0.194,2.473-1.278,3.452-3.511,4.034c-11.127,2.903-22.208,5.979-33.346,8.836
			c-1.717,0.441-3.742,0.441-5.459,0c-10.884-2.79-21.707-5.817-32.584-8.635c-2.433-0.631-3.396-1.736-3.584-4.351
			c-0.907-12.543-2.052-25.07-3.145-37.601c-0.182-2.078-0.133-3.685,2.697-3.681C244.613,278.942,271.91,278.925,299.997,278.925z"
			/>
		<path fill-rule="evenodd" clip-rule="evenodd" fill="#E25327" d="M271.729,207.085c-0.796,8.832-1.41,17.197-2.342,25.526
			c-1.031,9.226-1.157,9.276-10.572,9.338c-14.704,0.097-29.408,0.072-44.112,0.167c-2.112,0.014-3.636-0.227-3.835-2.812
			c-0.791-10.259-1.67-20.512-2.494-30.769c-0.03-0.367,0.169-0.753,0.342-1.45C229.47,207.085,250.247,207.085,271.729,207.085z"/>
	</g>
	<path fill-rule="evenodd" clip-rule="evenodd" fill="#ED662A" d="M257.293,400.618c0.365,0,0.73,0,1.097,0
		c6.542-1.952,13.059-3.989,19.628-5.842c22.751-6.419,45.518-12.783,68.287-19.136c2.152-0.602,3.324-1.486,3.54-4.076
		c1.669-19.938,3.535-39.859,5.348-59.784c2.133-23.437,4.308-46.867,6.396-70.306c1.587-17.797,3.043-35.604,4.602-53.402
		c1.157-13.215,2.278-26.436,3.662-39.627c0.329-3.125-0.535-3.838-3.494-3.827c-24.101,0.092-48.201,0.052-72.303,0.052
		c-12.253,0-24.508,0-36.762,0 M257.293,170.449c16.186-0.019,32.371-0.034,48.557-0.055c5.864-0.007,5.962,0.016,5.443,5.723
		c-1.84,20.248-3.762,40.487-5.619,60.733c-0.142,1.54-0.019,3.104-0.019,5.11c9.033,0,17.835-0.063,26.635,0.019
		c7.907,0.073,8.078-1.559,7.139,7.993c-2.199,22.366-3.904,44.78-5.825,67.175c-0.88,10.262-1.888,20.515-2.642,30.786
		c-0.234,3.193-1.582,4.561-4.673,5.394c-22.079,5.954-44.097,12.134-66.161,18.146l-2.835,0.089"/>
	<path fill-rule="evenodd" clip-rule="evenodd" fill="#ED662A" d="M256.254,278.915c14.439,0.001,28.981-0.004,43.743-0.004
		c-0.5,6.017-0.896,11.314-1.392,16.603c-0.771,8.258-1.707,16.501-2.356,24.768c-0.194,2.471-1.278,3.452-3.511,4.033
		c-11.127,2.904-22.208,5.979-33.346,8.836c-0.984,0.253-2.068,0.36-3.139,0.324"/>
	<path fill-rule="evenodd" clip-rule="evenodd" fill="#ED662A" d="M256.254,207.161c5.123,0,10.279,0,15.475,0
		c-0.796,8.833-1.41,17.197-2.341,25.526c-1.032,9.226-1.158,9.276-10.573,9.338c-0.854,0.006-1.707,0.011-2.561,0.016"/>
</g>
</svg>
