<?xml version="1.0" encoding="utf-8"?>
<!-- Generator: Adobe Illustrator 16.0.0, SVG Export Plug-In . SVG Version: 6.00 Build 0)  -->
<!DOCTYPE svg PUBLIC "-//W3C//DTD SVG 1.1//EN" "http://www.w3.org/Graphics/SVG/1.1/DTD/svg11.dtd">
<svg version="1.1" id="Layer_1" xmlns="http://www.w3.org/2000/svg" xmlns:xlink="http://www.w3.org/1999/xlink" x="0px" y="0px"
	 width="512px" height="512px" viewBox="0 0 512 512" enable-background="new 0 0 512 512" xml:space="preserve">
<g>
	<g id="leaf">
		<path fill="#00ACEE" d="M398.9,101.997c-54.258,0-94.721,57.344-76.015,98.534C399.676,200.531,368.414,129.646,398.9,101.997z"/>
	</g>
	<path id="body" fill="#FFCC2F" d="M416.428,256.793c0-18.231-86.902-27.303-135.313-30.13
		c-48.408-2.827-225.273,30.711-204.335,75.051c20.938,44.341,74.065,91.485,133.851,91.485c30.973,0,66.868-21.826,68.842-61.903
		C315.297,319.33,416.428,318.697,416.428,256.793z"/>
	<path id="wing_tip" fill="#2BAF2B" d="M371.984,268.914c5.616,5.684-12.178,21.035-27.685,13.809
		c6.985,15.752-23.741,28.852-38.669,17.623c1.599,12.691-28.897,19.996-38.628,5.832c2.509,6.754,4.605,11.919,6.583,16.168
		c-0.023-0.072-0.036-0.119-0.036-0.119c5.06,6.623,11.942,11.951,41.915,11.951c46.182,0,120.775-35.08,120.775-60.831
		c0-21.315-7.994-23.313-21.756-21.759c-13.767,1.554-85.736,9.032-101.045,6.027C321.745,259.383,363.632,267.406,371.984,268.914z
		"/>
	<path id="head" fill="#EF5734" d="M210.008,90.256c-88.306,0-176.943,87.777-134.761,208.845
		c28.654,17.224,66.861,10.396,75.422,1.226c12.942,4.137,24.49,5.877,34.811,5.877c53.638,0,99.471-56.987,99.471-128.205
		C284.951,104.957,236.744,90.256,210.008,90.256z"/>
	<path id="eye_rim" fill="#FFCC2F" d="M173.846,168.417c0,19.706,15.975,35.683,35.683,35.683c19.706,0,35.683-15.977,35.683-35.683
		c0-19.706-15.977-35.683-35.683-35.683C189.821,132.736,173.846,148.712,173.846,168.417z"/>
	<path id="eye" fill="#543729" d="M188.166,168.417c0,11.798,9.565,21.363,21.363,21.363s21.362-9.565,21.362-21.363
		c0-11.798-9.564-21.363-21.362-21.363C197.73,147.055,188.166,156.619,188.166,168.417z"/>
	<ellipse id="pupil_highlight" fill="#FFFFFF" cx="209.528" cy="158.939" rx="12.448" ry="7.74"/>
	<path id="beak" fill="#CECECE" d="M282.721,150.14c-16.221,9.446-15.684,40.024-8.476,54.945
		c13.956-5.172,33.401-15.433,36.421-17.268c3.02-1.834-1.67-8.791,10.047-8.791c16.252,0,30.947,5.078,35.165,6.907
		C353.209,180.438,319.807,150.14,282.721,150.14z"/>
	<path id="outline" fill="#543729" d="M452.971,251.837c-21.068-20.244-126.413-32.88-159.654-36.558
		c1.611-3.803,2.98-7.735,4.113-11.785c4.533-1.985,9.422-3.832,14.48-5.373c0.617,1.817,3.519,8.784,5.172,12.09
		c66.844,1.844,70.276-49.672,72.992-63.786c2.659-13.8,2.523-27.134,25.451-51.511c-34.158-9.954-83.277,15.427-99.732,53.205
		c-6.182-2.316-12.379-4.027-18.508-5.085c-4.391-17.717-27.262-67.076-87.278-67.076c-38.868,0-78.064,16.05-107.537,44.036
		c-15.882,15.08-28.356,32.987-37.075,53.224C55.976,195.081,51.2,219.152,51.2,244.766c0,89.203,60.901,167.378,95.312,167.378
		c15.027,0,27.954-11.253,30.989-21.34c2.545,6.917,10.35,28.418,12.914,33.892c3.79,8.094,21.313,15.098,28.983,6.698
		c9.86,5.479,27.954,8.778,37.816-5.831c18.99,4.018,35.782-7.309,36.146-20.821c9.319-0.497,13.891-13.582,11.855-24.001
		c-1.5-7.672-17.523-35.199-23.775-44.701c12.375,10.064,43.716,12.914,47.521,0.006c19.948,15.657,51.037,7.441,53.503-5.295
		c24.241,6.3,52.043-7.533,47.478-24.287C468.881,303.769,463.897,262.336,452.971,251.837z M351.564,183.167
		c-10.257-4.027-23.268-6.574-32.386-6.574c-12.931,0-20.808,7.328-32.974,7.328c-2.555,0-8.65,0.013-13.541-1.729
		c3.217,3.374,7.221,5.204,14.979,5.204c4.634,0,13.812-2.366,21.243-4.602c0.104,1.565,0.268,3.119,0.487,4.661
		c-13.921,3.329-28.53,12.185-32.759,14.484c-9.404-20.766-1.32-40.404,6.157-49.469
		C316.265,152.549,343.314,175.546,351.564,183.167z M366.045,181.601l-5.124-4.783c-5.261-4.927-10.745-9.385-16.376-13.342
		c8.387-16.641,18.927-34.811,32.239-46.052c-14.651,5.905-29.118,23.556-37.672,42.424c-4.358-2.771-8.784-5.243-13.249-7.404
		c11.932-25.467,39.655-46.736,70.21-48.398C375.607,122.605,383.291,159.65,366.045,181.601z M324.004,198.96
		c-2.256-4.891-4.541-13.016-4.262-17.792c3.803-0.089,11.094,1.336,12.268,1.613c-0.445,2.242-0.684,7.155-0.691,7.791
		c0.721-1.245,2.727-5.538,3.543-7.223c7.302,1.395,16.9,3.727,22.529,6.35C350.781,193.979,339.551,198.634,324.004,198.96z
		 M278.377,141.529c-26.705,27.065-16.16,61.304-6.438,76.781c-13.832,23.009-41.023,38.749-72.611,45.911
		c35.462,0,56.317-9.127,68.449-18.069c7.742-5.705,11.943-11.336,14.088-14.47c52.575,3.401,135.826,20.338,143.947,25.824
		c3.26,2.203,6.623,7.074,7.116,11.734c-39.509-5.531-110.726-11.35-129.375-12.339c13.239,1.878,109.792,20.161,126.53,24.442
		c-5.094,8.307-16.697,14.172-34.187,10.096c9.449,12.875-8.899,28.32-34.457,19.813c5.626,12.64-17.13,24.017-42.993,10.844
		c0.329,12.644-32.084,14.101-44.897,0.13c0.245,1.666,1.766,4.854,2.422,6.246c-4.13,36.921-34.369,59.827-65.341,59.827
		c-75.835,0-141.9-61.591-141.9-143.534c0-86.633,64.024-151.277,141.278-151.277C254.273,93.489,274.269,128.33,278.377,141.529z"
		/>
</g>
</svg>
