<?xml version="1.0" encoding="utf-8"?>
<!-- Generator: Adobe Illustrator 16.0.0, SVG Export Plug-In . SVG Version: 6.00 Build 0)  -->
<!DOCTYPE svg PUBLIC "-//W3C//DTD SVG 1.1//EN" "http://www.w3.org/Graphics/SVG/1.1/DTD/svg11.dtd">
<svg version="1.1" id="Layer_1" xmlns="http://www.w3.org/2000/svg" xmlns:xlink="http://www.w3.org/1999/xlink" x="0px" y="0px"
	 width="512px" height="512px" viewBox="0 0 512 512" enable-background="new 0 0 512 512" xml:space="preserve">
<g>
	<g id="leaf">
		<path fill="#00ACEE" d="M389.97,111.622c-50.868,0-88.802,53.76-71.266,92.376C390.696,203.998,361.389,137.543,389.97,111.622z"
			/>
	</g>
	<path id="body" fill="#FFCC2F" d="M406.4,256.743c0-17.091-81.469-25.596-126.854-28.247
		c-45.383-2.65-211.194,28.792-191.565,70.361c19.629,41.568,69.437,85.767,125.485,85.767c29.038,0,62.689-20.462,64.539-58.034
		C311.591,315.372,406.4,314.778,406.4,256.743z"/>
	<path id="wing_tip" fill="#2BAF2B" d="M364.735,268.107c5.265,5.327-11.417,19.72-25.955,12.944
		c6.549,14.769-22.257,27.05-36.252,16.522c1.498,11.898-27.092,18.746-36.214,5.468c2.353,6.332,4.317,11.175,6.171,15.157
		c-0.021-0.068-0.033-0.111-0.033-0.111c4.744,6.209,11.195,11.203,39.296,11.203c43.296,0,113.227-32.888,113.227-57.028
		c0-19.982-7.494-21.855-20.396-20.399c-12.907,1.457-80.378,8.468-94.73,5.651C317.637,259.172,356.905,266.693,364.735,268.107z"
		/>
	<path id="head" fill="#EF5734" d="M212.882,100.615c-82.787,0-165.884,82.291-126.338,195.793
		c26.863,16.146,62.682,9.745,70.708,1.148c12.133,3.879,22.959,5.51,32.636,5.51c50.286,0,93.254-53.425,93.254-120.192
		C283.142,114.397,237.948,100.615,212.882,100.615z"/>
	<path id="eye_rim" fill="#FFCC2F" d="M178.98,173.891c0,18.474,14.977,33.453,33.453,33.453c18.475,0,33.453-14.979,33.453-33.453
		c0-18.475-14.979-33.453-33.453-33.453C193.957,140.44,178.98,155.417,178.98,173.891z"/>
	<path id="eye" fill="#543729" d="M192.406,173.891c0,11.06,8.967,20.027,20.027,20.027c11.061,0,20.027-8.967,20.027-20.027
		c0-11.061-8.966-20.028-20.027-20.028C201.372,153.864,192.406,162.831,192.406,173.891z"/>
	<ellipse id="pupil_highlight" fill="#FFFFFF" cx="212.432" cy="165.005" rx="11.67" ry="7.256"/>
	<path id="beak" fill="#CECECE" d="M281.051,156.756c-15.207,8.855-14.703,37.522-7.945,51.511
		c13.083-4.849,31.313-14.469,34.144-16.188c2.831-1.72-1.564-8.242,9.42-8.242c15.236,0,29.013,4.761,32.967,6.475
		C347.134,185.161,315.819,156.756,281.051,156.756z"/>
	<path id="outline" fill="#543729" d="M440.66,252.097c-19.751-18.979-118.512-30.825-149.677-34.273
		c1.512-3.565,2.795-7.251,3.856-11.048c4.251-1.861,8.834-3.593,13.575-5.038c0.58,1.704,3.299,8.235,4.85,11.334
		c62.666,1.729,65.885-46.567,68.43-59.8c2.493-12.937,2.364-25.438,23.861-48.291c-32.024-9.332-78.073,14.462-93.5,49.88
		c-5.795-2.171-11.604-3.776-17.352-4.768c-4.115-16.61-25.558-62.884-81.823-62.884c-36.438,0-73.185,15.047-100.815,41.284
		c-14.89,14.138-26.584,30.925-34.758,49.897C68.478,198.888,64,221.455,64,245.468c0,83.627,57.095,156.917,89.355,156.917
		c14.088,0,26.207-10.55,29.052-20.005c2.386,6.483,9.703,26.641,12.106,31.772c3.554,7.588,19.981,14.155,27.172,6.279
		c9.244,5.137,26.207,8.229,35.453-5.466c17.803,3.767,33.546-6.853,33.886-19.52c8.737-0.466,13.023-12.733,11.115-22.502
		c-1.406-7.192-16.43-32.999-22.29-41.907c11.602,9.435,40.984,12.107,44.551,0.006c18.702,14.679,47.848,6.976,50.16-4.964
		c22.726,5.906,48.79-7.063,44.511-22.769C455.576,300.784,450.904,261.939,440.66,252.097z M345.592,187.719
		c-9.616-3.775-21.813-6.164-30.362-6.164c-12.123,0-19.507,6.87-30.913,6.87c-2.396,0-8.109,0.012-12.694-1.621
		c3.016,3.163,6.77,4.878,14.043,4.878c4.343,0,12.948-2.218,19.914-4.314c0.099,1.467,0.252,2.924,0.457,4.37
		c-13.051,3.121-26.747,11.424-30.711,13.579c-8.816-19.468-1.238-37.879,5.771-46.377
		C312.498,159.015,337.857,180.574,345.592,187.719z M359.167,186.251l-4.803-4.484c-4.933-4.619-10.074-8.798-15.354-12.508
		c7.863-15.601,17.744-32.636,30.225-43.174c-13.735,5.536-27.299,22.084-35.317,39.773c-4.087-2.598-8.235-4.916-12.421-6.942
		c11.186-23.875,37.176-43.815,65.821-45.373C368.133,130.942,375.335,165.671,359.167,186.251z M319.753,202.525
		c-2.114-4.585-4.256-12.203-3.995-16.68c3.565-0.083,10.4,1.253,11.501,1.513c-0.416,2.102-0.641,6.708-0.646,7.304
		c0.676-1.167,2.557-5.192,3.321-6.771c6.846,1.308,15.843,3.494,21.12,5.953C344.857,197.855,334.329,202.219,319.753,202.525z
		 M276.979,148.683c-25.036,25.374-15.15,57.473-6.035,71.982c-12.968,21.571-38.459,36.328-68.073,43.042
		c33.246,0,52.797-8.556,64.172-16.94c7.258-5.348,11.196-10.627,13.207-13.565c49.289,3.188,127.337,19.067,134.95,24.21
		c3.056,2.065,6.209,6.632,6.67,11.001c-37.039-5.186-103.804-10.641-121.288-11.569c12.411,1.762,102.93,18.902,118.622,22.915
		c-4.775,7.788-15.654,13.287-32.051,9.466c8.858,12.07-8.343,26.549-32.303,18.574c5.274,11.851-16.06,22.517-40.306,10.166
		c0.309,11.854-30.079,13.22-42.092,0.123c0.229,1.562,1.655,4.55,2.271,5.855c-3.872,34.612-32.221,56.087-61.257,56.087
		c-71.096,0-133.031-57.741-133.031-134.563c0-81.219,60.022-141.822,132.448-141.822
		C254.381,103.646,273.128,136.31,276.979,148.683z"/>
</g>
</svg>
