<?xml version="1.0" encoding="utf-8"?>
<!-- Generator: Adobe Illustrator 16.0.0, SVG Export Plug-In . SVG Version: 6.00 Build 0)  -->
<!DOCTYPE svg PUBLIC "-//W3C//DTD SVG 1.1//EN" "http://www.w3.org/Graphics/SVG/1.1/DTD/svg11.dtd">
<svg version="1.1" id="Layer_1" xmlns="http://www.w3.org/2000/svg" xmlns:xlink="http://www.w3.org/1999/xlink" x="0px" y="0px"
	 width="512px" height="512px" viewBox="0 0 512 512" enable-background="new 0 0 512 512" xml:space="preserve">
<g id="Page_1">
	<g id="Layer_1_1_">
		<path id="Shape" fill="#151515" d="M333.955,79.291h-22.578l23.48,25.479v12.127h-48.364v-14.199h23.477l-23.477-25.479V65.073
			h47.462V79.291L333.955,79.291z M276.907,79.291h-22.579l23.48,25.479v12.127h-48.364v-14.199h23.479l-23.479-25.479V65.073
			h47.463V79.291L276.907,79.291z M220.417,79.868h-24.364v22.236h24.364v14.793h-41.68V65.073h41.68V79.868L220.417,79.868z"/>
		<path id="Shape_1_" fill="#1673B6" d="M145.537,418.233l-24.758-277.678h272.035l-24.781,277.633l-111.403,30.884L145.537,418.233
			z"/>
		<path id="Shape_2_" fill="#35A9DB" d="M256.798,425.467l90.017-24.957l21.179-237.249H256.798V425.467z"/>
		<g id="Group" transform="translate(55.000000, 142.000000)">
			<path id="Shape_3_" fill="#FFFFFF" d="M201.797,121.861h45.065l3.111-34.873h-48.177V52.931h0.118h85.279l-0.816,9.138
				l-8.37,93.848h-76.21V121.861z"/>
			<path id="Shape_4_" fill="#EBEBEB" d="M202,210.307l-0.148,0.042l-37.928-10.242l-2.425-27.16h-18.429h-15.756l4.77,53.472
				l69.761,19.366L202,245.74V210.307z"/>
			<path id="Shape_5_" fill="#FFFFFF" d="M243.967,154.475l-4.101,45.608l-37.983,10.253v35.432l69.816-19.35l0.512-5.754
				l5.925-66.189H243.967z"/>
			<path id="Shape_6_" fill="#EBEBEB" d="M201.915,52.931v21.152v12.821v0.084h-82.152h-0.109l-0.683-7.655l-1.552-17.265
				l-0.814-9.138H201.915z"/>
			<path id="Shape_7_" fill="#EBEBEB" d="M201.797,121.865v21.152v12.82v0.084h-37.339h-0.109l-0.682-7.654l-1.553-17.265
				l-0.813-9.138H201.797z"/>
		</g>
	</g>
</g>
</svg>
