<?xml version="1.0" encoding="utf-8"?>
<!-- Generator: Adobe Illustrator 16.0.0, SVG Export Plug-In . SVG Version: 6.00 Build 0)  -->
<!DOCTYPE svg PUBLIC "-//W3C//DTD SVG 1.1//EN" "http://www.w3.org/Graphics/SVG/1.1/DTD/svg11.dtd">
<svg version="1.1" xmlns="http://www.w3.org/2000/svg" xmlns:xlink="http://www.w3.org/1999/xlink" x="0px" y="0px" width="512px"
	 height="512px" viewBox="0 0 512 512" enable-background="new 0 0 512 512" xml:space="preserve">
<g id="Layer_1">
</g>
<g id="Isolation_Mode">
	<path fill="#A4BECC" d="M416.486,355.692c0,18.343-15.031,33.344-33.344,33.344H129.815c-18.312,0-33.329-15.001-33.329-33.344
		v-66.642c0-5.634,1.685-10.416,3.356-15.609l41.011-126.253c4.829-14.576,18.752-24.78,34.179-24.78h162.893
		c15.396,0,29.365,10.204,34.164,24.78l41.026,126.253c1.67,5.193,3.37,9.976,3.37,15.609V355.692z M389.794,289.051
		c0-3.538-3.128-6.65-6.651-6.65H129.815c-3.507,0-6.65,3.112-6.65,6.65v66.642c0,3.522,3.143,6.681,6.65,6.681h253.327
		c3.523,0,6.651-3.158,6.651-6.681V289.051z M379.378,255.723l-32.737-100.396c-1.002-3.538-4.98-6.24-8.715-6.24H175.033
		c-3.735,0-7.713,2.702-8.73,6.24l-32.721,100.396H379.378z M296.474,339.051c-9.171,0-16.672-7.5-16.672-16.671
		c0-9.172,7.501-16.673,16.672-16.673s16.642,7.501,16.642,16.673C313.115,331.551,305.645,339.051,296.474,339.051
		 M349.799,339.051c-9.17,0-16.672-7.5-16.672-16.671c0-9.172,7.502-16.673,16.672-16.673c9.171,0,16.673,7.501,16.673,16.673
		C366.472,331.551,358.97,339.051,349.799,339.051"/>
</g>
</svg>
