<?xml version="1.0" encoding="utf-8"?>
<!-- Generator: Adobe Illustrator 16.0.0, SVG Export Plug-In . SVG Version: 6.00 Build 0)  -->
<!DOCTYPE svg PUBLIC "-//W3C//DTD SVG 1.1//EN" "http://www.w3.org/Graphics/SVG/1.1/DTD/svg11.dtd">
<svg version="1.1" id="Layer_1" xmlns="http://www.w3.org/2000/svg" xmlns:xlink="http://www.w3.org/1999/xlink" x="0px" y="0px"
	 width="512px" height="512px" viewBox="0 0 512 512" enable-background="new 0 0 512 512" xml:space="preserve">
<g id="Layer_1_1_">
</g>
<g id="Isolation_Mode">
	<g>
		<rect fill="#F2662C" width="512" height="512"/>
		<g>
			<path fill="#FFFFFF" d="M189.982,251h-48.765v38.014h54.522v19.391h-78.137V179.005h75.259v19.391H141.22v33.405h48.765V251
				H189.982z"/>
			<path fill="#FFFFFF" d="M215.904,282.678c7.682,4.418,19.202,8.258,31.294,8.258c15.165,0,23.616-7.105,23.616-17.664
				c0-9.791-6.529-15.549-23.04-21.5c-21.309-7.68-34.942-19.008-34.942-37.63c0-21.12,17.66-37.245,45.691-37.245
				c14.016,0,24.383,3.071,31.105,6.529l-5.762,19.006c-4.609-2.496-13.631-6.146-25.727-6.146c-14.971,0-21.501,8.063-21.501,15.55
				c0,9.984,7.488,14.59,24.769,21.311c22.459,8.449,33.406,19.773,33.406,38.397c0,20.734-15.746,38.785-49.152,38.785
				c-13.628,0-27.836-3.842-34.94-8.066L215.904,282.678z"/>
			<path fill="#FFFFFF" d="M386.779,200.316c-3.457,0-7.291,0-12.094,0.575c-26.113,3.072-38.781,19.2-41.855,36.477h0.578
				c6.139-7.103,15.549-12.094,28.031-12.094c21.5,0,38.205,15.359,38.205,40.705c0,23.803-17.469,44.541-43.965,44.541
				c-30.332,0-47.035-23.041-47.035-53.758c0-23.999,8.641-43.583,21.695-56.06c11.52-10.748,26.496-16.892,44.348-18.428
				c5.188-0.576,9.025-0.576,11.904-0.385L386.779,200.316z M375.645,267.32c0-14.401-7.875-24.767-21.695-24.767
				c-8.832,0-16.703,5.376-20.352,12.864c-0.957,1.92-1.535,4.223-1.535,7.489c0.383,16.514,8.254,29.953,23.422,29.953
				C367.771,292.854,375.645,282.293,375.645,267.32z"/>
		</g>
	</g>
</g>
</svg>
