<?xml version="1.0" encoding="utf-8"?>
<!-- Generator: Adobe Illustrator 16.0.0, SVG Export Plug-In . SVG Version: 6.00 Build 0)  -->
<!DOCTYPE svg PUBLIC "-//W3C//DTD SVG 1.1//EN" "http://www.w3.org/Graphics/SVG/1.1/DTD/svg11.dtd">
<svg version="1.1" id="Layer_1" xmlns="http://www.w3.org/2000/svg" xmlns:xlink="http://www.w3.org/1999/xlink" x="0px" y="0px"
	 width="512px" height="512px" viewBox="0 0 512 512" enable-background="new 0 0 512 512" xml:space="preserve">
<g>
	<path fill-rule="evenodd" clip-rule="evenodd" fill="#5B5858" d="M371.154,361.61c-0.023,0.144-0.04,0.289-0.049,0.436
		c-0.955,0.054-1.187,1.077-1.92,1.43c-0.882,0.217-1.579,0.559-1.127,1.674c-0.494,0.492-0.989,0.984-1.484,1.475
		c-1.113-0.441-1.455,0.25-1.667,1.133c-0.457,0.354-0.913,0.709-1.37,1.063c-0.915-0.058-1.349,0.463-1.533,1.28
		c-0.138,0.025-0.264,0.077-0.38,0.156c-0.915-0.084-1.331,0.464-1.565,1.238c-0.134,0.02-0.255,0.069-0.364,0.148
		c-1.491,0.143-2.634,1.019-3.789,1.845c-0.521,0.372-1.126,0.942-0.729,1.585c1.573,2.547-0.496,2.523-1.967,2.837
		c-5.829,1.242-11.775,1.578-17.69,1.787c-12.295,0.434-24.606,0.34-36.905,0.42c-29.617,0.193-59.24,0.572-88.858-0.225
		c-12.218-0.329-24.447,0.241-36.667-0.488c-4.591-0.273-9.133-0.806-13.655-1.554c-1.216-0.2-2.479-0.71-1.321-2.382
		c0.625-0.903,0.103-1.523-0.574-2.003c-1.152-0.816-2.282-1.721-3.796-1.776l-0.035-0.034c-0.379-0.908-1.142-1.473-1.836-2.116
		c-4.987-4.62-10.207-9.074-13.097-15.442c-1.422-3.135-3.355-6.147-3.164-9.817c0.971,0.376,1.043,1.327,1.299,2.12
		c1.516,4.703,3.744,9.035,6.856,12.869c2.127,2.621,4.16,5.368,7.151,7.137c7.35,5.79,15.511,9.385,25.047,9.259
		c1.737,0.058,3.475,0.166,5.211,0.165c21.88-0.015,43.76-0.045,65.64-0.071c6.962-0.003,13.924-0.006,20.885-0.009
		c23.432,0.019,46.863,0.038,70.294,0.052c0.945,0.001,1.914,0.076,2.831-0.098c10.084-1.906,19.222-5.481,26.26-13.523
		c3.914-4.471,7.192-9.163,9.101-14.787c0.239-0.667,0.505-1.327,0.715-2.004c2.451-7.937,1.874-16.091,1.737-24.213
		c0.034-0.314,0.1-0.629,0.1-0.944c-0.008-28.146-0.021-56.294-0.034-84.441c-0.014-13.052-0.027-26.105-0.042-39.157
		c-0.004-7.305-0.009-14.609-0.013-21.914c0.163-1.571,0.123-3.137-0.13-4.697c0.289-0.241,0.579-0.481,0.869-0.722
		c0.058,0.521,0.114,1.042,0.172,1.563c-0.302,0.703-0.527,1.394,0.284,1.932c-0.018,0.634-0.053,1.268-0.053,1.902
		c0.002,53.199,0.011,106.398,0,159.597c-0.001,2.452-0.063,4.903-0.423,7.35c-0.709,4.831-2.593,9.255-4.51,13.678
		c-1.127,0.417-1.305,1.392-1.411,2.407c-0.639,0.949-1.277,1.898-1.917,2.847C371.036,360.785,370.246,360.888,371.154,361.61z"/>
	<path fill-rule="evenodd" clip-rule="evenodd" fill="#BBB9B9" d="M374.858,355.32c1.918-4.422,3.802-8.846,4.511-13.677
		c0.359-2.446,0.422-4.897,0.423-7.35c0.011-53.199,0.002-106.398,0-159.597c0-0.634,0.035-1.268,0.053-1.902
		c0.572-0.742,0.61-1.405-0.284-1.933c-0.058-0.521-0.114-1.042-0.173-1.561c0.232-0.423,0.377-0.848,0.266-1.359
		c-1.083-4.988-2.81-9.78-5.296-14.198c-1.172-2.082-1.99-4.722-4.662-5.681l0.016,0.01c-0.154-0.169-0.31-0.338-0.464-0.507
		l0.002,0.002c0.069-1.051-0.209-1.837-1.444-1.893v-0.005c-0.158-0.158-0.315-0.317-0.475-0.475l-0.001-0.002
		c-0.158-0.158-0.316-0.317-0.475-0.476l-0.002-0.001c-0.158-0.159-0.317-0.317-0.476-0.476v0c-0.16-0.159-0.319-0.318-0.479-0.477
		l0.002,0.001c-0.16-0.16-0.321-0.319-0.481-0.478l0.004,0.004c-0.161-0.16-0.321-0.32-0.482-0.479l0.005,0.004
		c-0.162-0.159-0.323-0.318-0.484-0.477l0.004,0.003c-0.162-0.158-0.323-0.317-0.484-0.476l0.005,0.008
		c-0.182-0.415-0.535-0.514-0.943-0.508l0.013,0.01c-0.165-0.16-0.331-0.319-0.496-0.479l0.012,0.01
		c-0.19-0.154-0.382-0.307-0.572-0.461c-1.716-1.101-3.432-2.203-5.148-3.304c-0.177-0.439-0.551-0.521-0.964-0.534l0.012,0.008
		c-0.204-0.409-0.58-0.471-0.979-0.485c-0.726-0.119-1.375-0.393-1.899-0.924c-0.203-0.438-0.585-0.49-1.003-0.464
		c-4.532-1.212-9-2.732-13.751-2.912c-0.726-0.727-1.65-0.435-2.488-0.436c-52.531-0.015-105.062-0.015-157.593-0.001
		c-0.839,0-1.763-0.291-2.493,0.426c-0.69,0.469-1.469,0.478-2.271,0.505c-10.799,0.376-19.452,5.256-26.81,12.831
		c-1.008,1.182-2.626,1.451-3.73,2.488c-0.073-0.069-0.146-0.139-0.218-0.208c0.116-0.725,0.357-1.383,0.961-1.855
		c3.107-2.425,5.384-5.858,8.849-7.788c4.203-2.342,8.452-4.673,13.175-5.903c5.339-1.391,10.779-1.523,16.259-1.519
		c51.641,0.038,103.282,0.061,154.924,0.006c13.356-0.014,24.475,5.038,33.322,14.765c7.65,8.41,11.87,18.479,11.879,29.998
		c0.041,53.469,0.006,106.938,0.033,160.405c0.004,6.72-1.844,12.97-4.493,19.026c-0.541,1.237-1.311,2.553-2.886,2.912
		c-0.079-0.06-0.155-0.12-0.229-0.183C374.59,356.641,374.725,355.98,374.858,355.32z"/>
	<path fill-rule="evenodd" clip-rule="evenodd" fill="#A99884" d="M153.708,371.655c-2.466-0.4-3.83-2.456-5.457-3.937
		c-10.149-9.242-15.093-20.739-15.067-34.559c0.095-52.151,0.049-104.305,0.028-156.457c-0.003-8.417,1.776-16.317,6.268-23.521
		c0.499-0.8,0.998-1.634,1.002-2.638c0.149-0.187,0.298-0.373,0.447-0.56c0.143-0.02,0.285-0.034,0.429-0.044
		c0.166,1.143-0.211,2.072-0.759,3.113c-2.651,5.037-5.154,10.153-5.303,16.03c-0.677,0.653-0.453,1.553-0.643,2.339
		c-0.733,1.442-0.946,2.878,0.043,4.303c0.037,0.314,0.106,0.629,0.106,0.943c-0.003,28.833-0.012,57.666-0.02,86.499
		c-0.955,0.581-0.663,1.54-0.664,2.366c-0.015,21.638-0.015,43.275,0.004,64.913c0,0.731-0.35,1.623,0.58,2.128
		c0,0.295,0,0.589,0,0.884c-1.014,2.111-0.805,4.737,0.46,5.774c0.02,0.277,0.039,0.555,0.058,0.833
		c-0.981,1.083-1.013,2.021,0.415,2.739c-0.008,0.491-0.017,0.983-0.025,1.476c-0.191,3.671,1.742,6.684,3.164,9.818
		c2.89,6.368,8.109,10.822,13.097,15.442C152.567,370.183,153.33,370.747,153.708,371.655z"/>
	<path fill-rule="evenodd" clip-rule="evenodd" fill="#BBB9B9" d="M371.531,360.575c0.64-0.948,1.278-1.897,1.918-2.846
		c0.336-0.143,0.671-0.286,1.006-0.43c0.074,0.063,0.15,0.123,0.229,0.183c-0.956,1.435-1.023,3.496-2.978,4.228
		C371.648,361.331,371.59,360.953,371.531,360.575z"/>
	<path fill-rule="evenodd" clip-rule="evenodd" fill="#BBB9B9" d="M363.537,368.82c0.457-0.354,0.913-0.709,1.37-1.063
		c0.369,0.048,0.738,0.096,1.107,0.145c-0.291,1.271-1.101,1.899-2.394,1.93C363.593,369.494,363.565,369.157,363.537,368.82z"/>
	<path fill-rule="evenodd" clip-rule="evenodd" fill="#BBB9B9" d="M369.186,363.476c0.733-0.353,0.965-1.376,1.92-1.43
		c0.311,1.475-0.505,2.165-1.772,2.539C369.283,364.215,369.234,363.845,369.186,363.476z"/>
	<path fill-rule="evenodd" clip-rule="evenodd" fill="#BBB9B9" d="M141.358,149.939c-0.144,0.01-0.286,0.025-0.429,0.044
		c-0.14-1.034,0.244-1.746,1.271-2.06c0.07,0.067,0.142,0.133,0.213,0.198C142.426,148.939,141.654,149.301,141.358,149.939z"/>
	<path fill-rule="evenodd" clip-rule="evenodd" fill="#A99884" d="M366.015,367.902c-0.369-0.049-0.738-0.097-1.107-0.145
		c0.212-0.884,0.554-1.575,1.667-1.134C366.389,367.051,366.201,367.477,366.015,367.902z"/>
	<path fill-rule="evenodd" clip-rule="evenodd" fill="#A99884" d="M363.537,368.82c0.028,0.337,0.056,0.674,0.084,1.012
		c-0.157,0.148-0.315,0.297-0.473,0.444c-0.381-0.057-0.762-0.115-1.144-0.175C362.188,369.283,362.622,368.763,363.537,368.82z"/>
	<path fill-rule="evenodd" clip-rule="evenodd" fill="#A99884" d="M369.186,363.476c0.049,0.369,0.098,0.739,0.147,1.109
		c-0.425,0.188-0.851,0.376-1.275,0.564C367.606,364.034,368.304,363.692,369.186,363.476z"/>
	<path fill-rule="evenodd" clip-rule="evenodd" fill="#A99884" d="M371.531,360.575c0.059,0.378,0.117,0.756,0.176,1.135
		c-0.184-0.033-0.368-0.066-0.553-0.1C370.246,360.888,371.036,360.785,371.531,360.575z"/>
	<path fill-rule="evenodd" clip-rule="evenodd" fill="#BBB9B9" d="M142.201,147.924c0.154-0.162,0.308-0.325,0.461-0.488
		c0.072,0.069,0.145,0.138,0.217,0.208c-0.155,0.159-0.31,0.319-0.464,0.479C142.343,148.057,142.271,147.991,142.201,147.924z"/>
	<path fill-rule="evenodd" clip-rule="evenodd" fill="#FCFDFC" d="M135.222,340.063c-0.02-0.277-0.039-0.555-0.058-0.832
		c-0.153-1.926-0.307-3.85-0.46-5.774c0-0.295,0-0.589,0-0.884c0.037-3.043,0.074-6.085,0.111-9.128
		c5.855-2.448,11.976-4.157,18.132-5.477c5.557-1.191,11.232-1.986,16.895-2.763c6.383-0.875,12.773-1.223,19.168-1.726
		c0.602-0.048,1.422,0.33,1.756-0.279c0.428-0.779-0.45-1.26-0.853-1.783c-2.033-2.643-4.08-5.278-5.64-8.235
		c-4.637-8.791-5.555-17.732-0.963-26.868c0.642-1.276,1.046-2.431-1.246-1.969c-1.159,0.234-2.367,0.221-3.553,0.323
		c-7.704,0.662-15.376,0.19-22.849-1.648c-7.504-1.847-14.437-5.185-20.749-9.716l-0.129-0.139
		c0.008-28.833,0.017-57.666,0.02-86.499c0-0.314-0.069-0.628-0.106-0.943c-0.014-1.435-0.029-2.869-0.043-4.303
		c0.189-0.786-0.035-1.686,0.642-2.338c4.759-3.754,9.646-7.311,15.158-9.922c2.329-1.104,4.613-2.301,6.917-3.456
		c1.379,0.381,2.396-0.624,3.539-1.02c11.43-3.968,23.292-5.203,35.271-5.753c0.871,0.025,1.742,0.071,2.613,0.071
		c24.344,0,48.688-0.011,73.032,0.006c0.998,0,2.067-0.327,2.996,0.357c-4.886,3.124-9.625,6.494-14.047,10.208
		c-4.678,3.93-9.595,5.984-15.805,5.225c-3.7-0.453-7.501-0.083-11.538-0.083c1.157,1.676,2.457,2.57,3.694,3.53
		c10.432,10.738,16.65,23.432,17.845,38.457c-0.001,0.871-0.026,1.742,0.001,2.611c0.327,10.089-1.481,19.688-6.425,28.6
		c-2.673,4.818-6.285,8.911-9.859,13.039c-2.847,2.498-5.624,5.08-8.556,7.471c-3.993,3.256-8.093,6.405-11.171,10.587
		c-1.58,2.146-3.454,4.24-4.049,6.905c-1.784,7.982,1.007,14.266,7.473,19.063c0.44,0.447,0.838,0.949,1.328,1.335
		c6.071,4.789,12.154,9.562,18.235,14.337c5.762,4.585,11.081,9.659,16.331,14.809c0.12,0.124,0.239,0.248,0.358,0.371
		c0.478,0.773,1.006,1.498,1.831,1.943c0.185,0.22,0.37,0.438,0.555,0.658c0.021,0.625,0.388,0.998,0.913,1.257
		c0.647,0.958,1.296,1.916,1.944,2.874c0.132,0.153,0.264,0.306,0.395,0.458c0.188,0.313,0.374,0.628,0.561,0.941l0.008,0.012
		c0.36,0.726,0.467,1.637,1.413,1.934l-0.018-0.033c-0.068,0.445-0.01,0.827,0.494,0.984l-0.029-0.03
		c0.96,3.481,2.665,6.713,3.415,10.266c2.069,9.796,1.184,19.338-2.417,28.654c-6.962,0.003-13.924,0.006-20.886,0.009
		c1.197-10.084-2.258-18.486-9.204-25.662c-5.869-6.064-12.554-11.119-19.436-15.938c-4.617-3.295-9.231-6.596-13.856-9.882
		c-0.717-0.51-1.526-0.801-2.425-0.801c-2.836-0.001-5.672-0.008-8.508-0.013c-7.918,0.034-15.75,1.018-23.508,2.462
		c-12.708,2.365-24.768,6.251-34.104,15.908C135.591,341.242,135.406,340.652,135.222,340.063z M164.218,250.069
		c0.167,0.247,0.333,0.495,0.5,0.742c0.09,0.376,0.328,0.607,0.698,0.708c0.398,0.385,0.795,0.77,1.193,1.154
		c0.262,0.29,0.5,0.607,0.792,0.864c9.416,8.346,25.06,12.337,38.763,4.536c5.448-3.101,9.867-6.973,12.512-12.715l-0.041-0.007
		c0.509-0.16,0.483-0.589,0.501-0.995l-0.021,0.043c0.519-0.156,0.487-0.588,0.5-0.998l-0.024,0.044
		c0.51-0.143,0.45-0.615,0.568-0.985c2.805-5.146,3.708-10.736,3.493-16.484c-0.352-9.391-1.974-18.584-5.036-27.488
		c-3.112-9.047-7.025-17.667-13.686-24.76c-0.214-0.474-0.534-0.824-1.075-0.913l-0.016-0.014c-0.479-0.782-1.108-1.411-1.89-1.89
		l-0.013-0.017c-0.114-0.514-0.354-0.904-0.94-0.949l0.034-0.063c-3.559-3.798-8.128-5.937-12.934-7.513
		c-13.926-4.567-33.478,2.489-39.663,20.373c-2.8,8.096-3.138,16.444-2.209,24.889c0.146,1.005,0.291,2.011,0.438,3.017
		c1.339,9.165,3.922,17.946,8.126,26.22c0.332,0.652,0.433,1.538,1.329,1.797l-0.012-0.027c0.126,1.414,0.84,2.491,1.921,3.358
		l-0.013-0.022c0.05,1.064,0.74,1.744,1.449,2.412l-0.039-0.012c0.157,0.601,0.516,1.062,0.997,1.438l-0.02-0.019
		c0.205,0.44,0.389,0.9,0.948,1.004l0.002-0.063c-0.081,0.452,0.205,0.701,0.519,0.936c0.346,0.828,0.939,1.443,1.67,1.939
		c0.236,0.164,0.473,0.328,0.709,0.492L164.218,250.069z"/>
	<path fill-rule="evenodd" clip-rule="evenodd" fill="#F0EB91" d="M241.948,310.652c-6.08-4.776-12.164-9.549-18.234-14.338
		c-0.489-0.386-0.887-0.888-1.328-1.335c4.613-5.448,9.909-10.248,14.858-15.369c5.207-5.387,10.778-10.431,15.783-16.035
		c1.199-1.342,2.349-2.817,4.133-3.504c2.249,0.772,4.709,0.186,6.856,0.788c1.482,0.417,3.594-1.518,4.481,1.053
		c0.346-0.175,0.709-0.322,1.033-0.531c0.43-0.277,1.019-0.514,1.303-0.127c1.255,1.708,3.03,1.569,4.817,1.582
		c1.339,0.01,2.641,0.125,3.519,1.457c0.323,0.491,1.122,0.728,1.743,0.48c2.062-0.823,3.827-0.357,5.427,1.063
		c-3.457,3.5-6.894,7.021-10.385,10.486c-1.003,0.995-1.39,1.601,0.298,2.299c14.949,6.183,29.887,12.394,44.806,18.648
		c5.479,2.298,10.794,5.027,16.371,7.041c7.574,2.736,14.8,6.27,22.291,9.182c6.343,2.466,12.614,5.115,18.918,7.684
		c0.137,8.122,0.714,16.276-1.737,24.213c-0.21,0.677-0.476,1.337-0.716,2.004c-2.948-1.182-5.896-2.365-8.845-3.548
		c-0.63-0.313-1.244-0.667-1.895-0.934c-11.171-4.586-22.353-9.146-33.518-13.745c-7.583-3.124-15.139-6.311-22.716-9.449
		c-17.631-7.305-35.271-14.586-52.89-21.921c-0.986-0.41-1.555-0.284-2.23,0.478C250.255,302.604,246.099,306.627,241.948,310.652z"
		/>
	<path fill-rule="evenodd" clip-rule="evenodd" fill="#C7B29A" d="M378.639,321.176c-6.304-2.568-12.575-5.218-18.918-7.684
		c-7.491-2.912-14.717-6.445-22.291-9.182c-5.577-2.014-10.892-4.743-16.371-7.041c-14.919-6.255-29.856-12.466-44.806-18.648
		c-1.688-0.698-1.301-1.304-0.298-2.299c3.491-3.465,6.928-6.986,10.385-10.486c1.088-1.028,2.192-2.039,3.262-3.086
		c4.96-4.859,9.91-9.727,14.865-14.592c0.123,0.197,0.297,0.379,0.363,0.594c3.079,9.948,5.868,19.961,6.817,30.389
		c0.082,0.897-0.058,2.014,1.16,2.314c1.076,0.266,1.852-0.147,2.12-1.296c4.398-3.986,8.26-8.538,12.896-12.273
		c4.726-3.808,9.357-7.741,14.477-11.033c9.301-5.983,18.81-11.623,28.471-16.999c2.588-1.44,4.802-3.67,7.934-4.063
		c0.014,28.147,0.026,56.295,0.034,84.441C378.738,320.547,378.673,320.861,378.639,321.176z"/>
	<path fill-rule="evenodd" clip-rule="evenodd" fill="#5E83C3" d="M367.341,343.845c2.948,1.183,5.896,2.366,8.845,3.548
		c-1.907,5.624-5.186,10.316-9.1,14.787c-7.038,8.042-16.176,11.617-26.26,13.523c-0.917,0.174-1.886,0.099-2.831,0.098
		c-23.431-0.014-46.862-0.033-70.294-0.052c3.602-9.316,4.487-18.858,2.418-28.654c-0.75-3.553-2.455-6.784-3.415-10.266
		c1.147,1.759,2.272,3.503,3.172,5.439c0.617,1.327,0.781,3.585,3.813,2.976c1.308-0.263,3.55,0.302,5.284,0.817
		c1.753,0.521,3.32,1.668,5.308,0.402c0.65-0.413,2.086-0.322,2.746,0.137c2.264,1.576,4.848-1.737,6.953,0.601
		c0.031,0.036,0.269-0.162,0.416-0.174c2.292-0.184,4.647-0.748,6.854-0.393c1.526,0.246,2.601-1.199,3.821-0.562
		c1.528,0.797,2.871,0.403,4.317-0.009c0.516-0.147,1.372-0.331,1.596-0.077c1.867,2.118,4.354,0.648,6.414,0.853
		c1.671,0.166,4.299,0.675,5.844-1.526c0.566-0.808,0.999-0.054,1.272,0.598c0.361,0.86,1.142,1.746,1.979,1.314
		c2.594-1.337,5.445,0.05,8-0.97c1.385-0.552,2.608-0.44,3.957,0.725c-0.118-2.201,0.617-2.657,1.875-1.126
		c1.324,1.613,2.737,0.637,4.135,0.377c0.435-0.081,0.694-0.826,1.206-0.613c2.325,0.968,4.813,0.094,7.166,0.705
		c3.296,0.855,6.836-1.19,10.06,0.813c0.158,0.099,0.635-0.111,0.829-0.309c0.967-0.984,1.948-1.321,3.118-0.318
		c0.332,0.286,0.731,0.247,1.06-0.093c0.33-0.343,0.317-0.718,0.044-1.064C367.589,344.904,367.313,344.439,367.341,343.845z"/>
	<path fill-rule="evenodd" clip-rule="evenodd" fill="#A99884" d="M378.704,235.79c-3.132,0.393-5.346,2.623-7.934,4.063
		c-9.661,5.376-19.17,11.016-28.471,16.999c-5.119,3.292-9.751,7.226-14.477,11.033c-4.636,3.735-8.497,8.287-12.896,12.272
		c-0.166-2.847,0.151-5.777,0.783-8.418c1.313-5.49,2.192-11.08,3.915-16.497c2.493-7.838,5.095-15.575,8.784-22.977
		c4.586-9.197,11.414-16.794,17.1-25.199c0.311-0.11,0.621-0.221,0.932-0.331c1.157,0.094,1.871-0.783,2.74-1.288
		c2.052-1.189,3.979-2.619,6.105-3.647c7.368-3.567,15.112-5.579,23.375-5.17C378.677,209.685,378.69,222.738,378.704,235.79z"/>
	<path fill-rule="evenodd" clip-rule="evenodd" fill="#E8E165" d="M175.965,375.664c-9.536,0.126-17.697-3.469-25.047-9.259
		c0.513-0.596,0.991-1.226,1.544-1.781c5.973-5.999,11.959-11.986,17.94-17.979c6.558-6.571,13.111-13.149,19.678-19.713
		c0.659-0.658,1.188-1.527,2.256-1.635c1.968-0.021,3.926-0.093,5.895-0.248c2.02-0.159,4.395-0.258,6.129,1.165
		c3.959,3.248,8.594,5.563,12.355,9.066c-0.58,0.635-1.138,1.291-1.744,1.899c-3.537,3.547-7.085,7.082-10.629,10.621
		c-0.5,0.338-1.012,0.664-1.113,1.334l-0.062-0.047c-0.426,0.34-0.888,0.645-1.274,1.024
		C193.246,358.625,184.606,367.146,175.965,375.664z"/>
	<path fill-rule="evenodd" clip-rule="evenodd" fill="#5E83C3" d="M175.965,375.664c8.641-8.519,17.28-17.039,25.928-25.551
		c0.386-0.38,0.848-0.685,1.274-1.023c1.05,1.408,2.554,1.881,4.208,2.021c2.828,0.24,5.64-2.171,8.509-0.056
		c0.16,0.118,0.719-0.218,1.039-0.425c0.432-0.281,0.869-0.504,1.282-0.094c1.914,1.905,4.331,0.448,6.393,0.597
		c1.945,0.141,4.155-0.403,6.281-0.126c0.419,0.055,0.971,0.007,0.841-0.478c-0.393-1.468,0.692-3.148-1.161-4.461
		c-2.484-1.762-4.837-3.8-6.902-6.037c-1.912-2.07-4.479-3.035-6.597-4.707c0.372-0.39,0.744-0.779,1.115-1.169
		c6.883,4.821,13.568,9.876,19.437,15.94c6.946,7.176,10.401,15.578,9.204,25.662c-21.88,0.026-43.76,0.057-65.64,0.071
		C179.44,375.83,177.703,375.722,175.965,375.664z"/>
	<path fill-rule="evenodd" clip-rule="evenodd" fill="#8ABF46" d="M192.336,325.298c-1.067,0.107-1.597,0.977-2.256,1.635
		c-6.566,6.563-13.12,13.142-19.678,19.713c-5.981,5.992-11.967,11.979-17.94,17.979c-0.553,0.556-1.032,1.186-1.544,1.781
		c-2.991-1.769-5.024-4.516-7.151-7.137c-3.112-3.834-5.34-8.166-6.856-12.869c-0.255-0.793-0.328-1.744-1.299-2.12
		c0.008-0.493,0.017-0.985,0.025-1.478c0.047-0.323,0.093-0.646,0.14-0.97c9.335-9.657,21.395-13.543,34.104-15.908
		c7.757-1.444,15.59-2.428,23.507-2.462C193.426,324.297,191.771,324.162,192.336,325.298z"/>
	<path fill-rule="evenodd" clip-rule="evenodd" fill="#F6F3B9" d="M346.441,206.738c-0.311,0.11-0.621,0.22-0.932,0.331
		c-0.114-0.564,0.021-1.014,0.35-1.533c3.71-5.869,5.583-12.304,5.891-19.23c0.268-6.056-1.487-11.659-3.681-17.177
		c3.251-3.295,6.478-6.614,9.76-9.878c3.784-3.764,7.616-7.479,11.428-11.216c0.149,0.031,0.302,0.044,0.454,0.039l-0.016-0.01
		c4.632,6.641,7.831,13.856,8.824,21.959c0.253,1.56,0.293,3.125,0.13,4.697c-0.353,0.314-0.719,0.614-1.056,0.944
		c-6.593,6.458-13.23,12.871-19.755,19.397C353.993,198.905,349.901,202.515,346.441,206.738z"/>
	<path fill-rule="evenodd" clip-rule="evenodd" fill="#C7B29A" d="M346.441,206.738c3.46-4.223,7.552-7.833,11.397-11.678
		c6.524-6.526,13.162-12.939,19.755-19.397c0.337-0.33,0.703-0.63,1.056-0.944c0.004,7.305,0.009,14.609,0.013,21.914
		c-8.263-0.409-16.007,1.603-23.375,5.17c-2.126,1.029-4.054,2.458-6.105,3.647C348.313,205.955,347.599,206.832,346.441,206.738z"
		/>
	<path fill-rule="evenodd" clip-rule="evenodd" fill="#A99884" d="M378.52,170.022c-0.993-8.103-4.192-15.318-8.824-21.959
		c2.672,0.959,3.49,3.599,4.662,5.681c2.486,4.418,4.213,9.21,5.296,14.198c0.111,0.511-0.033,0.936-0.266,1.359
		C379.099,169.541,378.809,169.781,378.52,170.022z"/>
	<path fill-rule="evenodd" clip-rule="evenodd" fill="#A99884" d="M374.455,357.3c-0.335,0.144-0.67,0.287-1.006,0.43
		c0.105-1.017,0.283-1.991,1.41-2.408C374.725,355.98,374.59,356.641,374.455,357.3z"/>
	<path fill-rule="evenodd" clip-rule="evenodd" fill="#A99884" d="M379.561,170.862c0.895,0.527,0.856,1.191,0.284,1.933
		C379.033,172.256,379.259,171.565,379.561,170.862z"/>
	<path fill-rule="evenodd" clip-rule="evenodd" fill="#A99884" d="M361.624,370.257c-0.111,0.931-0.567,1.426-1.564,1.239
		C360.293,370.721,360.709,370.173,361.624,370.257z"/>
	<path fill-rule="evenodd" clip-rule="evenodd" fill="#B5D993" d="M369.257,148.034c-3.812,3.736-7.644,7.452-11.428,11.216
		c-3.282,3.264-6.509,6.583-9.759,9.879c-0.349-0.496-0.698-0.993-1.048-1.489c-3.48-7.192-9.216-12.192-16.1-15.821
		c-18.667-9.84-42.63-2.531-52.208,16.754c-5.578,11.231-5.737,22.659-0.255,34.022c3.396,7.041,8.086,13.238,12.935,19.319
		c0.482,0.791,0.964,1.582,1.445,2.373c-2.66,2.868-5.986,5.047-8.426,8.143c-1.67,0.035-3.332-0.468-4.992,0.441
		c-2.761,1.514-5.205,0.557-7.431-1.323c-0.161-0.137-0.387-0.198-0.582-0.294c-1.035,2.281-2.763,0.579-3.377,0.078
		c-1.431-1.167-4.175-1.165-3.925-4.123c-1.207,0.448-2.376,2.251-3.344,0.675c-1.376-2.241-5.171-3.217-3.717-7.063
		c0.548-1.451-1.147-2.997-0.672-4.433c0.98-2.965-0.448-5.791-0.139-8.685c0.091-0.85-0.554-1.028-1.264-1.001
		c-1.194-15.025-7.413-27.718-17.845-38.457c1.289-2.483,3.66-1.565,5.531-1.493c3.615,0.138,7.199-0.271,10.8-0.254
		c0.732,0.003,1.624-0.294,2.174-0.765c5.681-4.857,11.971-8.912,17.804-13.568c0.964-0.77,1.498-1.581,1.386-2.8
		c-0.929-0.684-1.998-0.357-2.996-0.357c-24.344-0.017-48.688-0.006-73.032-0.006c-0.871,0-1.742-0.046-2.613-0.071
		c-0.087-1.162-0.88-1.417-1.838-1.365c-3.299,0.182-5.699-2.326-8.789-2.896c-1.984-0.365-3.887-0.511-5.859-0.272
		c-0.686,0.083-1.615,1.445-2.019-0.102c-0.415-1.592,0.894-1.489,1.945-1.504c0.542-0.008,1.521-0.199,1.141-0.724
		c-1.032-1.424,0.232-1.826,0.801-2.602c0.332-0.452,0.294-1.507-0.229-1.172c-1.759,1.123-2.811-0.226-4.183-0.665
		c-1.017-0.325-2.235,0.05-2.42-1.596c-0.181-1.61,0.872-2.071,1.948-2.848c2.077-1.5,4.548-0.256,6.633-1.266
		c1.189-0.024,2.378-0.069,3.567-0.069c50.462-0.01,100.924-0.017,151.386-0.023c4.751,0.181,9.219,1.701,13.752,2.912
		c0.334,0.155,0.668,0.31,1.002,0.465c0.524,0.531,1.174,0.806,1.899,0.924c0.327,0.162,0.653,0.323,0.979,0.485l-0.012-0.008
		c0.322,0.178,0.644,0.356,0.964,0.534c1.717,1.101,3.433,2.203,5.149,3.304c0.19,0.154,0.381,0.308,0.571,0.461l-0.012-0.01
		c0.165,0.16,0.331,0.319,0.496,0.479l-0.013-0.01c0.198,0.386,0.527,0.528,0.943,0.508l-0.005-0.008
		c0.161,0.159,0.322,0.317,0.484,0.476l-0.004-0.003c0.161,0.159,0.322,0.317,0.484,0.477l-0.005-0.004
		c0.161,0.16,0.321,0.319,0.482,0.479l-0.004-0.004c0.16,0.16,0.321,0.318,0.481,0.478l-0.002-0.001
		c0.159,0.159,0.318,0.317,0.479,0.477v0c0.158,0.158,0.317,0.317,0.476,0.476l0.002,0.001c0.158,0.159,0.316,0.317,0.475,0.476
		l0.001,0.002c0.159,0.158,0.316,0.317,0.475,0.475v0.005c0.087,0.932,0.704,1.46,1.444,1.893l-0.002-0.002
		C369.24,147.722,369.243,147.878,369.257,148.034z"/>
	<path fill-rule="evenodd" clip-rule="evenodd" fill="#ADD585" d="M183.312,131.921c-2.085,1.009-4.556-0.234-6.633,1.266
		c-1.076,0.776-2.129,1.238-1.948,2.848c0.186,1.646,1.403,1.271,2.42,1.596c1.372,0.439,2.424,1.788,4.183,0.665
		c0.524-0.334,0.561,0.72,0.229,1.172c-0.569,0.775-1.833,1.177-0.801,2.602c0.38,0.524-0.599,0.716-1.141,0.724
		c-1.051,0.015-2.36-0.088-1.945,1.504c0.403,1.547,1.333,0.186,2.019,0.102c1.973-0.239,3.875-0.093,5.859,0.272
		c3.09,0.569,5.49,3.078,8.789,2.896c0.958-0.053,1.751,0.203,1.838,1.365c-11.979,0.55-23.842,1.785-35.271,5.753
		c-1.144,0.396-2.16,1.401-3.539,1.02c-1.683-0.093-3.161-0.298-4.825-1.202c-2.071-1.125-2.232-2.413-2.171-4.23
		c0.006-0.203-0.133-0.529-0.293-0.601c-1.97-0.891-2.177-3.121-3.472-4.516c7.358-7.575,16.01-12.455,26.81-12.831
		c0.802-0.028,1.581-0.037,2.271-0.505C178.231,131.853,180.771,131.887,183.312,131.921z"/>
	<path fill-rule="evenodd" clip-rule="evenodd" fill="#A0CE70" d="M146.61,145.155c1.295,1.395,1.502,3.625,3.472,4.516
		c0.16,0.072,0.299,0.398,0.293,0.601c-0.062,1.817,0.1,3.106,2.171,4.23c1.664,0.903,3.142,1.108,4.825,1.202
		c-2.304,1.155-4.588,2.353-6.917,3.456c-5.512,2.612-10.399,6.168-15.158,9.922c0.149-5.877,2.652-10.994,5.303-16.03
		c0.548-1.041,0.925-1.97,0.759-3.113c0.296-0.639,1.067-1,1.056-1.817c0.155-0.16,0.31-0.319,0.464-0.479
		C143.984,146.606,145.602,146.337,146.61,145.155z"/>
	<path fill-rule="evenodd" clip-rule="evenodd" fill="#A99884" d="M183.312,131.921c-2.541-0.034-5.081-0.068-7.621-0.102
		c0.73-0.717,1.654-0.426,2.493-0.426c52.531-0.014,105.062-0.014,157.593,0.001c0.838,0,1.763-0.291,2.488,0.436
		c-50.462,0.006-100.924,0.012-151.386,0.022C185.69,131.852,184.501,131.897,183.312,131.921z"/>
	<path fill-rule="evenodd" clip-rule="evenodd" fill="#A99884" d="M369.249,147.568c-0.74-0.433-1.357-0.961-1.444-1.893
		C369.04,145.73,369.318,146.517,369.249,147.568z"/>
	<path fill-rule="evenodd" clip-rule="evenodd" fill="#A99884" d="M353.019,135.206c-0.334-0.155-0.668-0.31-1.002-0.465
		C352.434,134.716,352.815,134.767,353.019,135.206z"/>
	<path fill-rule="evenodd" clip-rule="evenodd" fill="#A99884" d="M355.897,136.615c-0.326-0.162-0.652-0.324-0.979-0.485
		C355.317,136.144,355.693,136.206,355.897,136.615z"/>
	<path fill-rule="evenodd" clip-rule="evenodd" fill="#A99884" d="M356.85,137.142c-0.32-0.178-0.642-0.356-0.964-0.534
		C356.299,136.621,356.673,136.703,356.85,137.142z"/>
	<path fill-rule="evenodd" clip-rule="evenodd" fill="#A99884" d="M363.985,141.874c-0.416,0.02-0.745-0.122-0.943-0.508
		C363.45,141.36,363.804,141.459,363.985,141.874z"/>
	<path fill-rule="evenodd" clip-rule="evenodd" fill="#A99884" d="M362.57,140.907c-0.19-0.154-0.381-0.308-0.571-0.461
		C362.188,140.6,362.38,140.753,362.57,140.907z"/>
	<path fill-rule="evenodd" clip-rule="evenodd" fill="#A99884" d="M367.329,145.192c-0.158-0.158-0.316-0.317-0.475-0.476
		C367.013,144.875,367.171,145.034,367.329,145.192z"/>
	<path fill-rule="evenodd" clip-rule="evenodd" fill="#A99884" d="M366.853,144.716c-0.158-0.159-0.317-0.317-0.476-0.476
		C366.535,144.398,366.694,144.557,366.853,144.716z"/>
	<path fill-rule="evenodd" clip-rule="evenodd" fill="#A99884" d="M364.945,142.815c-0.162-0.159-0.323-0.318-0.484-0.477
		C364.622,142.498,364.783,142.656,364.945,142.815z"/>
	<path fill-rule="evenodd" clip-rule="evenodd" fill="#A99884" d="M366.377,144.24c-0.16-0.159-0.319-0.318-0.479-0.477
		C366.058,143.922,366.217,144.081,366.377,144.24z"/>
	<path fill-rule="evenodd" clip-rule="evenodd" fill="#A99884" d="M369.257,148.034c-0.014-0.156-0.017-0.313-0.01-0.469
		c0.154,0.169,0.31,0.338,0.464,0.507C369.559,148.078,369.406,148.065,369.257,148.034z"/>
	<path fill-rule="evenodd" clip-rule="evenodd" fill="#A99884" d="M367.805,145.669c-0.158-0.158-0.315-0.317-0.475-0.475
		C367.489,145.353,367.646,145.511,367.805,145.669z"/>
	<path fill-rule="evenodd" clip-rule="evenodd" fill="#A99884" d="M365.9,143.765c-0.16-0.16-0.321-0.318-0.481-0.478
		C365.579,143.446,365.74,143.605,365.9,143.765z"/>
	<path fill-rule="evenodd" clip-rule="evenodd" fill="#A99884" d="M365.423,143.291c-0.161-0.16-0.321-0.32-0.482-0.479
		C365.102,142.971,365.262,143.13,365.423,143.291z"/>
	<path fill-rule="evenodd" clip-rule="evenodd" fill="#A99884" d="M364.465,142.342c-0.162-0.158-0.323-0.317-0.484-0.476
		C364.142,142.025,364.303,142.184,364.465,142.342z"/>
	<path fill-rule="evenodd" clip-rule="evenodd" fill="#A99884" d="M363.055,141.375c-0.165-0.16-0.331-0.319-0.496-0.479
		C362.724,141.056,362.89,141.216,363.055,141.375z"/>
	<path fill-rule="evenodd" clip-rule="evenodd" fill="#5B5858" d="M134.815,323.444c-0.037,3.043-0.074,6.085-0.111,9.128
		c-0.93-0.505-0.579-1.396-0.58-2.128c-0.019-21.638-0.019-43.275-0.004-64.913c0-0.826-0.291-1.785,0.664-2.366l0.129,0.139
		c-0.444,5.461-0.183,10.932-0.189,16.396C134.708,294.281,134.779,308.863,134.815,323.444z"/>
	<path fill-rule="evenodd" clip-rule="evenodd" fill="#5B5858" d="M134.704,333.456c0.153,1.925,0.307,3.849,0.46,5.774
		C133.898,338.193,133.689,335.567,134.704,333.456z"/>
	<path fill-rule="evenodd" clip-rule="evenodd" fill="#5B5858" d="M134.654,171.421c0.015,1.434,0.029,2.868,0.043,4.303
		C133.708,174.299,133.921,172.863,134.654,171.421z"/>
	<path fill-rule="evenodd" clip-rule="evenodd" fill="#5B5858" d="M135.776,341.832c-0.046,0.323-0.093,0.646-0.14,0.97
		c-1.428-0.717-1.396-1.655-0.415-2.738C135.406,340.652,135.591,341.242,135.776,341.832z"/>
	<path fill-rule="evenodd" clip-rule="evenodd" fill="#A0CE70" d="M163.54,249.609c-0.731-0.497-1.324-1.112-1.67-1.939
		c-0.052-0.379-0.079-0.771-0.519-0.936l-0.002,0.063c0.068-0.698-0.255-1.025-0.948-1.004l0.02,0.019
		c0.04-0.737,0.096-1.486-0.997-1.438l0.039,0.012c0.153-1.187-0.367-1.968-1.449-2.412l0.013,0.022
		c0.071-1.526-0.781-2.525-1.921-3.358c0,0,0.012,0.027,0.012,0.028c-0.189-0.595-0.314-1.22-0.578-1.781
		c-2.685-5.713-4.875-11.581-6.328-17.752c-0.888-3.773-1.498-7.573-2.069-11.391c-0.207-1.383-0.601-0.196-0.918-0.11
		c-0.929-8.444-0.591-16.792,2.209-24.889c6.185-17.884,25.736-24.94,39.663-20.373c4.806,1.576,9.375,3.715,12.934,7.513
		c-1.139,0.253-1.99-0.336-2.815-0.974c-3.016-2.331-6.555-3.857-9.998-5.166c-8.026-3.051-15.893-1.474-23.217,2.638
		c-1.441,0.809-3.593,1.772-3.469,3.877c0.15,2.552,1.405,4.892,2.748,7.046c0.681,1.094,1.413,2.027,1.438,3.4
		c0.022,1.205,0.421,2.834,1.563,2.923c3.224,0.251,2.154,2.961,2.824,4.539c0.831,1.957,1.156,4.233,2.733,5.702
		c0.935,0.87,1.311,1.861,1.905,2.849c1.16,1.928,2.031,4.006,4.014,5.477c1.478,1.096,2.993,2.842,3.376,4.549
		c0.599,2.66,1.57,5.017,3.057,7.213c0.36,0.532,1.022,1.314,1.5-0.016c0.203-0.564,0.501-1.077,1.188-0.828
		c0.6,0.218,0.579,0.844,0.707,1.395c0.548,2.365,0.81,4.812,2.426,6.832c2.361,2.95,4.486,6.01,7.281,8.691
		c2.657,2.548,4.441,5.994,8.181,7.373c0.198,0.073,0.468,0.318,0.474,0.491c0.097,2.967,2.645,2.872,4.501,3.656
		c0.912,0.385,2.159,0.355,2.474,1.59c0.692,2.714,2.503,2.913,4.756,2.217c-2.645,5.742-7.064,9.614-12.512,12.715
		c-13.704,7.802-29.348,3.811-38.763-4.536c-0.291-0.257-0.529-0.575-0.792-0.865c0.043-0.841-0.372-1.207-1.193-1.154
		c-0.37-0.1-0.608-0.331-0.699-0.708c-0.167-0.248-0.333-0.495-0.499-0.742l0.031,0.032
		C164.013,249.937,163.776,249.773,163.54,249.609z"/>
	<path fill-rule="evenodd" clip-rule="evenodd" fill="#8EA7D5" d="M367.341,343.845c-0.028,0.595,0.248,1.06,0.603,1.508
		c0.273,0.347,0.286,0.722-0.044,1.064c-0.328,0.34-0.728,0.379-1.06,0.093c-1.17-1.003-2.151-0.666-3.118,0.318
		c-0.194,0.197-0.671,0.407-0.829,0.309c-3.224-2.004-6.764,0.042-10.06-0.813c-2.354-0.611-4.841,0.263-7.166-0.705
		c-0.512-0.213-0.771,0.532-1.206,0.613c-1.397,0.26-2.811,1.236-4.135-0.377c-1.258-1.531-1.993-1.075-1.875,1.126
		c-1.349-1.165-2.572-1.276-3.957-0.725c-2.555,1.02-5.406-0.367-8,0.97c-0.837,0.432-1.617-0.454-1.979-1.314
		c-0.273-0.651-0.706-1.405-1.272-0.598c-1.545,2.201-4.173,1.692-5.844,1.526c-2.061-0.204-4.547,1.266-6.414-0.853
		c-0.224-0.254-1.08-0.07-1.596,0.077c-1.446,0.412-2.789,0.806-4.317,0.009c-1.221-0.638-2.295,0.808-3.821,0.562
		c-2.207-0.355-4.563,0.209-6.854,0.393c-0.147,0.012-0.385,0.21-0.416,0.174c-2.105-2.338-4.689,0.976-6.953-0.601
		c-0.66-0.459-2.096-0.55-2.746-0.137c-1.987,1.266-3.555,0.119-5.308-0.402c-1.734-0.516-3.977-1.08-5.284-0.817
		c-3.032,0.609-3.196-1.648-3.813-2.976c-0.899-1.937-2.024-3.681-3.172-5.439l0.029,0.03c0-0.411-0.079-0.783-0.494-0.984
		l0.018,0.033c-0.144-0.884-0.277-1.774-1.413-1.934l-0.008-0.012c-0.055-0.393-0.117-0.78-0.561-0.941
		c-0.131-0.152-0.263-0.305-0.395-0.458c-0.116-1.317-0.28-2.604-1.944-2.874c-0.525-0.259-0.893-0.632-0.913-1.259
		c-0.185-0.22-0.37-0.438-0.555-0.656c-0.825-0.445-1.354-1.17-1.831-1.942c-0.119-0.124-0.238-0.248-0.358-0.372
		c-5.25-5.149-10.569-10.224-16.331-14.809c4.151-4.024,8.307-8.047,12.145-12.378c0.675-0.762,1.244-0.888,2.23-0.478
		c17.619,7.335,35.259,14.616,52.89,21.921c7.577,3.139,15.133,6.325,22.716,9.449c11.165,4.6,22.347,9.159,33.518,13.745
		C366.097,343.178,366.711,343.531,367.341,343.845z"/>
	<path fill-rule="evenodd" clip-rule="evenodd" fill="#ADD585" d="M218.676,245.357c-2.253,0.696-4.064,0.497-4.756-2.217
		c-0.315-1.235-1.562-1.205-2.474-1.59c-1.856-0.784-4.404-0.688-4.501-3.656c-0.006-0.173-0.276-0.418-0.474-0.491
		c-3.74-1.379-5.524-4.825-8.181-7.373c-2.795-2.681-4.92-5.741-7.281-8.691c-1.617-2.02-1.878-4.467-2.426-6.832
		c-0.128-0.551-0.107-1.177-0.707-1.395c-0.687-0.25-0.985,0.263-1.188,0.828c-0.478,1.33-1.141,0.547-1.5,0.016
		c-1.487-2.196-2.458-4.553-3.057-7.213c-0.384-1.707-1.899-3.453-3.376-4.549c-1.982-1.471-2.854-3.548-4.014-5.477
		c-0.595-0.988-0.97-1.979-1.905-2.849c-1.578-1.469-1.903-3.745-2.733-5.702c-0.67-1.578,0.4-4.288-2.824-4.539
		c-1.142-0.089-1.541-1.718-1.563-2.923c-0.025-1.373-0.757-2.306-1.438-3.4c-1.342-2.154-2.597-4.494-2.748-7.046
		c-0.124-2.105,2.028-3.068,3.469-3.877c7.324-4.112,15.191-5.689,23.217-2.638c3.442,1.308,6.982,2.834,9.998,5.166
		c0.825,0.637,1.677,1.227,2.815,0.974c0,0-0.034,0.063-0.034,0.063c-0.026,0.652,0.284,0.972,0.94,0.949l0.013,0.017
		c-0.141,1.4,0.482,2.038,1.89,1.89l0.016,0.014c-0.004,0.73,0.396,0.986,1.075,0.913c6.66,7.093,10.574,15.713,13.686,24.76
		c3.062,8.903,4.684,18.097,5.036,27.488c0.216,5.748-0.688,11.338-3.493,16.484c-0.506,0.146-0.594,0.532-0.568,0.985
		c0,0,0.024-0.044,0.024-0.043c-0.463,0.184-0.535,0.563-0.499,0.997l0.021-0.043c-0.464,0.182-0.529,0.565-0.501,0.995
		L218.676,245.357z"/>
	<path fill-rule="evenodd" clip-rule="evenodd" fill="#8ABF46" d="M134.815,323.444c-0.036-14.581-0.107-29.163-0.091-43.744
		c0.006-5.465-0.255-10.936,0.189-16.396c6.312,4.531,13.245,7.869,20.749,9.716c7.473,1.839,15.145,2.311,22.849,1.648
		c1.186-0.103,2.394-0.089,3.553-0.323c2.292-0.462,1.888,0.692,1.246,1.969c-4.591,9.136-3.673,18.077,0.963,26.868
		c1.56,2.957,3.607,5.593,5.64,8.235c0.402,0.523,1.28,1.004,0.853,1.783c-0.334,0.609-1.154,0.231-1.756,0.279
		c-6.395,0.503-12.785,0.851-19.168,1.726c-5.662,0.776-11.338,1.571-16.895,2.763C146.792,319.287,140.67,320.996,134.815,323.444z
		"/>
	<path fill-rule="evenodd" clip-rule="evenodd" fill="#ADD585" d="M254.972,206.702c0.71-0.027,1.355,0.151,1.264,1.001
		c-0.309,2.895,1.12,5.72,0.139,8.685c-0.475,1.436,1.22,2.981,0.672,4.433c-1.454,3.846,2.341,4.821,3.717,7.063
		c0.968,1.576,2.137-0.227,3.344-0.675c-0.25,2.958,2.494,2.956,3.925,4.123c0.614,0.5,2.342,2.203,3.377-0.078
		c0.195,0.096,0.421,0.157,0.582,0.294c2.226,1.88,4.67,2.837,7.431,1.323c1.66-0.909,3.322-0.406,4.992-0.441
		c-0.69,0.758-1.341,1.559-2.077,2.269c-5.068,4.883-9.963,9.941-15.022,14.834c-3.392,3.281-6.552,6.831-10.004,10.077
		c-0.849,0.061-1.84-0.314-2.506,0.359c-1.779,1.797-2.556,0.409-3.261-0.987c-0.383-0.757-0.634-1.65-1.63-0.834
		c-1.937,1.584-3.276,0.069-4.542-0.937c-0.746-0.593-0.984-1.016-1.789-0.107c-0.57,0.643-3.778-0.114-3.905-0.857
		c-0.302-1.771-1.184-3.434-0.988-5.293c3.574-4.128,7.186-8.221,9.859-13.039c4.944-8.912,6.752-18.511,6.425-28.6
		C254.945,208.444,254.971,207.573,254.972,206.702z M259.168,229.761c1.784,2.094,2.54,2.073,3.646-0.193
		C261.566,230.202,260.45,229.926,259.168,229.761z"/>
	<path fill-rule="evenodd" clip-rule="evenodd" fill="#A0CE70" d="M238.689,250.953c-0.195,1.859,0.686,3.523,0.988,5.293
		c0.127,0.743,3.335,1.5,3.905,0.857c0.805-0.908,1.043-0.486,1.789,0.107c1.266,1.006,2.605,2.521,4.542,0.937
		c0.996-0.816,1.247,0.077,1.63,0.834c0.705,1.396,1.482,2.784,3.261,0.987c0.666-0.674,1.657-0.299,2.505-0.359
		c-0.05,0.153-0.1,0.308-0.149,0.462c-1.784,0.687-2.934,2.162-4.133,3.504c-5.005,5.604-10.576,10.648-15.783,16.035
		c-4.949,5.121-10.245,9.921-14.858,15.369c-6.465-4.798-9.257-11.081-7.473-19.063c0.596-2.665,2.47-4.759,4.049-6.905
		c3.079-4.182,7.179-7.331,11.171-10.587C233.066,256.032,235.843,253.45,238.689,250.953z"/>
	<path fill-rule="evenodd" clip-rule="evenodd" fill="#ADD585" d="M274.822,149.365c0.112,1.219-0.422,2.03-1.386,2.8
		c-5.833,4.656-12.123,8.71-17.804,13.568c-0.551,0.471-1.442,0.769-2.174,0.765c-3.601-0.017-7.185,0.392-10.8,0.254
		c-1.872-0.072-4.242-0.99-5.531,1.493c-1.238-0.959-2.538-1.854-3.694-3.529c4.036,0,7.837-0.37,11.538,0.083
		c6.21,0.759,11.127-1.295,15.805-5.225C265.197,155.859,269.937,152.489,274.822,149.365z"/>
	<path fill-rule="evenodd" clip-rule="evenodd" fill="#A0CE70" d="M192.336,325.298c-0.565-1.136,1.089-1.001,1.051-1.836
		c2.836,0.005,5.672,0.012,8.508,0.013c0.899,0,1.708,0.291,2.425,0.801c4.625,3.286,9.239,6.587,13.856,9.882
		c-0.372,0.388-0.744,0.777-1.116,1.167c-0.116-0.01-0.23-0.023-0.345-0.043c-3.762-3.504-8.396-5.818-12.355-9.066
		c-1.734-1.423-4.109-1.324-6.129-1.165C196.262,325.205,194.305,325.277,192.336,325.298z"/>
	<path fill-rule="evenodd" clip-rule="evenodd" fill="#8ABF46" d="M146.225,207.632c0.317-0.086,0.711-1.273,0.918,0.11
		c0.571,3.817,1.181,7.618,2.069,11.391c1.453,6.171,3.644,12.039,6.328,17.752c0.263,0.561,0.388,1.186,0.578,1.781
		c-0.896-0.259-0.998-1.145-1.329-1.797c-4.204-8.273-6.787-17.055-8.126-26.22C146.515,209.643,146.371,208.637,146.225,207.632z"
		/>
	<path fill-rule="evenodd" clip-rule="evenodd" fill="#8ABF46" d="M156.105,238.638c1.14,0.833,1.993,1.832,1.921,3.358
		C156.946,241.129,156.232,240.051,156.105,238.638z"/>
	<path fill-rule="evenodd" clip-rule="evenodd" fill="#5E83C3" d="M261.937,329.689c1.664,0.271,1.828,1.557,1.944,2.874
		C263.232,331.605,262.584,330.647,261.937,329.689z"/>
	<path fill-rule="evenodd" clip-rule="evenodd" fill="#8ABF46" d="M158.014,241.974c1.083,0.443,1.603,1.225,1.449,2.412
		C158.753,243.718,158.063,243.038,158.014,241.974z"/>
	<path fill-rule="evenodd" clip-rule="evenodd" fill="#A0CE70" d="M203.839,172.801c-1.408,0.148-2.03-0.49-1.89-1.89
		C202.731,171.39,203.361,172.019,203.839,172.801z"/>
	<path fill-rule="evenodd" clip-rule="evenodd" fill="#5E83C3" d="M264.844,333.975c1.136,0.159,1.27,1.05,1.413,1.934
		C265.311,335.611,265.204,334.7,264.844,333.975z"/>
	<path fill-rule="evenodd" clip-rule="evenodd" fill="#8ABF46" d="M159.424,244.374c1.093-0.048,1.036,0.7,0.997,1.438
		C159.94,245.435,159.582,244.974,159.424,244.374z"/>
	<path fill-rule="evenodd" clip-rule="evenodd" fill="#A0CE70" d="M204.93,173.728c-0.679,0.073-1.079-0.183-1.075-0.913
		C204.396,172.904,204.716,173.253,204.93,173.728z"/>
	<path fill-rule="evenodd" clip-rule="evenodd" fill="#8ABF46" d="M160.401,245.792c0.693-0.021,1.016,0.307,0.948,1.004
		C160.79,246.692,160.606,246.232,160.401,245.792z"/>
	<path fill-rule="evenodd" clip-rule="evenodd" fill="#A0CE70" d="M201.937,170.895c-0.656,0.022-0.966-0.297-0.94-0.949
		C201.583,169.991,201.822,170.38,201.937,170.895z"/>
	<path fill-rule="evenodd" clip-rule="evenodd" fill="#8ABF46" d="M165.416,251.518c0.821-0.053,1.236,0.313,1.193,1.154
		C166.211,252.288,165.813,251.903,165.416,251.518z"/>
	<path fill-rule="evenodd" clip-rule="evenodd" fill="#A0CE70" d="M219.591,243.445c-0.026-0.453,0.062-0.839,0.568-0.985
		C220.041,242.83,220.101,243.302,219.591,243.445z"/>
	<path fill-rule="evenodd" clip-rule="evenodd" fill="#A0CE70" d="M218.635,245.35c-0.028-0.43,0.038-0.813,0.501-0.995
		C219.118,244.761,219.144,245.19,218.635,245.35z"/>
	<path fill-rule="evenodd" clip-rule="evenodd" fill="#8ABF46" d="M161.352,246.734c0.439,0.164,0.467,0.557,0.519,0.936
		C161.557,247.436,161.271,247.187,161.352,246.734z"/>
	<path fill-rule="evenodd" clip-rule="evenodd" fill="#5E83C3" d="M266.239,335.875c0.415,0.201,0.494,0.573,0.494,0.984
		C266.229,336.702,266.171,336.32,266.239,335.875z"/>
	<path fill-rule="evenodd" clip-rule="evenodd" fill="#5E83C3" d="M264.275,333.021c0.443,0.161,0.506,0.549,0.561,0.941
		C264.649,333.649,264.463,333.335,264.275,333.021z"/>
	<path fill-rule="evenodd" clip-rule="evenodd" fill="#A0CE70" d="M219.116,244.398c-0.036-0.434,0.036-0.813,0.499-0.997
		C219.603,243.811,219.635,244.242,219.116,244.398z"/>
	<path fill-rule="evenodd" clip-rule="evenodd" fill="#8ABF46" d="M163.54,249.609c0.236,0.164,0.473,0.328,0.709,0.492
		C164.013,249.937,163.776,249.773,163.54,249.609z"/>
	<path fill-rule="evenodd" clip-rule="evenodd" fill="#8ABF46" d="M164.218,250.069c0.167,0.247,0.333,0.494,0.499,0.742
		C164.551,250.563,164.384,250.316,164.218,250.069z"/>
	<path fill-rule="evenodd" clip-rule="evenodd" fill="#5E83C3" d="M260.469,327.774c0.185,0.219,0.37,0.437,0.555,0.656
		C260.839,328.213,260.653,327.994,260.469,327.774z"/>
	<path fill-rule="evenodd" clip-rule="evenodd" fill="#5E83C3" d="M258.279,325.46c0.12,0.124,0.239,0.248,0.358,0.372
		C258.519,325.708,258.399,325.584,258.279,325.46z"/>
	<path fill-rule="evenodd" clip-rule="evenodd" fill="#F6F3B9" d="M257.16,260.071c0.05-0.154,0.1-0.309,0.149-0.462
		c3.453-3.246,6.613-6.796,10.005-10.077c5.06-4.894,9.954-9.952,15.022-14.834c0.736-0.71,1.387-1.51,2.077-2.269
		c2.439-3.096,5.766-5.275,8.427-8.142c5.419,7.205,9.013,15.299,11.626,23.871c-4.955,4.865-9.905,9.733-14.865,14.592
		c-1.069,1.047-2.174,2.058-3.262,3.086c-1.6-1.42-3.365-1.886-5.427-1.063c-0.621,0.247-1.42,0.011-1.743-0.48
		c-0.878-1.332-2.18-1.447-3.519-1.457c-1.787-0.013-3.563,0.126-4.817-1.582c-0.284-0.387-0.873-0.15-1.303,0.127
		c-0.324,0.209-0.688,0.356-1.033,0.531c-0.888-2.57-2.999-0.636-4.481-1.053C261.869,260.257,259.409,260.844,257.16,260.071z"/>
	<path fill-rule="evenodd" clip-rule="evenodd" fill="#E66659" d="M304.467,248.158c-2.613-8.572-6.207-16.666-11.626-23.871
		c-0.482-0.792-0.964-1.582-1.445-2.373c1.304,0.183,2.578,0.477,3.762-0.545c0.692-0.598,1.875-0.718,2.481-0.24
		c1.477,1.163,2.151-0.055,3.242-0.587c1.931-0.943,2.101-3.377,3.789-4.273c3.222-1.71,5.46-4.51,8.199-6.741
		c1.616-1.315,2.153-3.565,4.2-4.401c3.835-1.567,5.682-5.217,8.315-8.031c1.834-1.959,2.969-4.545,4.69-6.5
		c3.227-3.667,6.335-7.415,9.115-11.401c2.66-3.813,5.602-7.448,7.832-11.555c0.35,0.497,0.699,0.993,1.048,1.489
		c2.192,5.518,3.947,11.121,3.68,17.177c-0.308,6.926-2.181,13.361-5.891,19.23c-0.328,0.52-0.464,0.969-0.35,1.533
		c-5.686,8.404-12.514,16.001-17.1,25.198c-3.689,7.401-6.291,15.139-8.784,22.977c-1.723,5.417-2.602,11.006-3.915,16.497
		c-0.632,2.641-0.949,5.571-0.783,8.418c-0.269,1.149-1.044,1.563-2.12,1.297c-1.218-0.301-1.078-1.417-1.16-2.314
		c-0.949-10.428-3.738-20.441-6.817-30.389C304.764,248.537,304.59,248.355,304.467,248.158z"/>
	<path fill-rule="evenodd" clip-rule="evenodd" fill="#8EA7D5" d="M216.715,335.281c0.115,0.02,0.229,0.033,0.345,0.043
		c2.119,1.672,4.686,2.637,6.597,4.707c2.065,2.237,4.417,4.275,6.902,6.037c1.853,1.313,0.768,2.993,1.161,4.461
		c0.129,0.484-0.422,0.532-0.841,0.478c-2.126-0.277-4.336,0.267-6.281,0.126c-2.063-0.148-4.479,1.309-6.393-0.597
		c-0.413-0.41-0.85-0.188-1.282,0.094c-0.319,0.207-0.878,0.543-1.039,0.425c-2.87-2.115-5.682,0.296-8.509,0.056
		c-1.654-0.14-3.158-0.612-4.208-2.021c0-0.001,0.062,0.046,0.063,0.047c0.828-0.064,1.845,0.028,1.112-1.335
		c3.544-3.539,7.093-7.074,10.629-10.621C215.578,336.572,216.135,335.916,216.715,335.281z"/>
	<path fill-rule="evenodd" clip-rule="evenodd" fill="#5E83C3" d="M204.342,347.802c0.733,1.363-0.284,1.271-1.112,1.335
		C203.33,348.466,203.842,348.14,204.342,347.802z"/>
	<path fill-rule="evenodd" clip-rule="evenodd" fill="#EB7D72" d="M347.022,167.64c-2.23,4.107-5.172,7.742-7.832,11.555
		c-2.78,3.986-5.889,7.734-9.115,11.401c-1.722,1.955-2.856,4.541-4.69,6.5c-2.634,2.813-4.48,6.463-8.315,8.031
		c-2.047,0.836-2.584,3.086-4.2,4.401c-2.739,2.231-4.978,5.031-8.199,6.741c-1.688,0.896-1.858,3.33-3.789,4.273
		c-1.091,0.532-1.766,1.75-3.242,0.587c-0.606-0.478-1.789-0.357-2.481,0.24c-1.184,1.021-2.458,0.728-3.762,0.545
		c-4.85-6.081-9.539-12.278-12.936-19.319c-5.482-11.364-5.323-22.792,0.255-34.022c9.578-19.285,33.541-26.595,52.208-16.754
		C337.807,155.447,343.542,160.448,347.022,167.64z M313.059,199.114c7.052,0.028,12.99-5.389,12.614-12.281
		c-0.365-6.718-4.634-12.382-12.226-12.507c-7.627-0.125-12.786,4.954-12.772,12.435
		C300.687,193.656,306.131,199.086,313.059,199.114z"/>
	<path fill-rule="evenodd" clip-rule="evenodd" fill="#B5D993" d="M259.168,229.761c1.282,0.165,2.398,0.441,3.646-0.193
		C261.708,231.834,260.952,231.855,259.168,229.761z"/>
	<path fill-rule="evenodd" clip-rule="evenodd" fill="#5B5858" d="M313.059,199.114c-6.928-0.028-12.372-5.458-12.384-12.353
		c-0.014-7.481,5.146-12.561,12.772-12.435c7.592,0.125,11.86,5.789,12.226,12.507C326.049,193.726,320.11,199.143,313.059,199.114z
		"/>
</g>
</svg>
