<?xml version="1.0" encoding="utf-8"?>
<!-- Generator: Adobe Illustrator 16.0.0, SVG Export Plug-In . SVG Version: 6.00 Build 0)  -->
<!DOCTYPE svg PUBLIC "-//W3C//DTD SVG 1.1//EN" "http://www.w3.org/Graphics/SVG/1.1/DTD/svg11.dtd">
<svg version="1.1" id="Layer_1" xmlns="http://www.w3.org/2000/svg" xmlns:xlink="http://www.w3.org/1999/xlink" x="0px" y="0px"
	 width="512px" height="512px" viewBox="0 0 512 512" enable-background="new 0 0 512 512" xml:space="preserve">
<g>
	<polygon fill="#E45126" points="145.771,418.22 121.013,140.526 393.063,140.526 368.279,418.175 256.872,449.061 	"/>
	<polygon fill="#F1682B" points="257.038,425.453 347.061,400.495 368.241,163.231 257.038,163.231 	"/>
	<polygon fill="#EBEBEB" points="257.038,266.225 211.971,266.225 208.857,231.349 257.038,231.349 257.038,197.29 256.92,197.29 
		171.636,197.29 172.452,206.427 180.823,300.281 257.038,300.281 	"/>
	<polygon fill="#EBEBEB" points="257.038,354.675 256.889,354.717 218.958,344.474 216.533,317.313 198.103,317.313 
		182.345,317.313 187.116,370.786 256.881,390.154 257.038,390.11 	"/>
	<path fill="#020202" d="M146.324,65.061h17.309v17.1h15.833v-17.1h17.309v51.784h-17.308V99.505h-15.832v17.339h-17.311V65.061
		L146.324,65.061z"/>
	<path fill="#020202" d="M219.534,82.233h-15.237V65.061h47.79v17.172h-15.244v34.611h-17.308L219.534,82.233L219.534,82.233z"/>
	<path fill="#020202" d="M259.671,65.061h18.049l11.101,18.195l11.091-18.195h18.053v51.784h-17.236V91.177l-11.908,18.411h-0.298
		l-11.915-18.411v25.667H259.67L259.671,65.061L259.671,65.061z"/>
	<path fill="#020202" d="M326.578,65.061h17.313v34.667h24.34v17.116h-41.652V65.061L326.578,65.061z"/>
	<polygon fill="#FFFFFF" points="256.92,266.225 256.92,300.281 298.859,300.281 294.906,344.45 256.92,354.704 256.92,390.138 
		326.741,370.786 327.253,365.033 335.256,275.37 336.087,266.225 326.91,266.225 	"/>
	<polygon fill="#FFFFFF" points="256.92,197.29 256.92,218.442 256.92,231.264 256.92,231.349 339.077,231.349 339.077,231.349 
		339.186,231.349 339.87,223.693 341.421,206.427 342.235,197.29 	"/>
</g>
</svg>
