<?xml version="1.0" encoding="utf-8"?>
<!-- Generator: Adobe Illustrator 16.0.0, SVG Export Plug-In . SVG Version: 6.00 Build 0)  -->
<!DOCTYPE svg PUBLIC "-//W3C//DTD SVG 1.1//EN" "http://www.w3.org/Graphics/SVG/1.1/DTD/svg11.dtd">
<svg version="1.1"
	 id="svg2" xmlns:dc="http://purl.org/dc/elements/1.1/" xmlns:cc="http://creativecommons.org/ns#" xmlns:rdf="http://www.w3.org/1999/02/22-rdf-syntax-ns#" xmlns:svg="http://www.w3.org/2000/svg" xmlns:inkscape="http://www.inkscape.org/namespaces/inkscape"
	 xmlns="http://www.w3.org/2000/svg" xmlns:xlink="http://www.w3.org/1999/xlink" x="0px" y="0px" width="512px" height="512px"
	 viewBox="-121 -121 512 512" enable-background="new -121 -121 512 512" xml:space="preserve">
<g id="g12" transform="scale(0.1,0.1)">
	<path id="path28" inkscape:connector-curvature="0" fill="#8A4182" d="M1203.662,1019.985h297.441l73.887-101.719V121.474h-445.166
		v796.875L1203.662,1019.985"/>
	<path id="path30" inkscape:connector-curvature="0" fill="#8A4182" d="M1011.958,1375.371l91.88-282.837l-73.896-101.704
		L272.134,744.614L134.59,1167.959l757.886,246.26L1011.958,1375.371"/>
	<path id="path32" inkscape:connector-curvature="0" fill="#8A4182" d="M1290.703,1667.539l-240.596-174.844l-119.585,38.887
		l-468.325,644.609l360.127,261.65l468.379-644.648V1667.539"/>
	<path id="path34" inkscape:connector-curvature="0" fill="#8A4182" d="M1654.707,1492.676L1414.062,1667.5l0.049,125.713
		l468.33,644.629l360.166-261.65l-468.438-644.668L1654.707,1492.676"/>
	<path id="path36" inkscape:connector-curvature="0" fill="#8A4182" d="M1600.859,1092.47l91.953,282.881l119.561,38.799
		l757.813-246.191l-137.578-423.364l-757.852,246.26L1600.859,1092.47"/>
	<path id="path38" inkscape:connector-curvature="0" fill="#8A4182" d="M1352.48-570.088
		c-1058.735,0-1920.097,861.201-1920.097,1919.785c0,1058.945,861.362,1920.41,1920.097,1920.41
		c1058.613,0,1919.902-861.465,1919.902-1920.41C3272.382,291.113,2411.094-570.088,1352.48-570.088L1352.48-570.088z
		 M1352.48-181.387c845.479,0,1531.113,685.4,1531.113,1531.084c0,845.947-685.634,1531.64-1531.113,1531.64
		c-845.771,0-1531.318-685.693-1531.318-1531.64C-178.838,504.013,506.709-181.387,1352.48-181.387"/>
	<path id="path40" inkscape:connector-curvature="0" fill="#8A4182" d="M2515.381,1776.416l-576.055-187.207l38.076-117.324
		l576.055,187.207L2515.381,1776.416"/>
	<path id="path42" inkscape:connector-curvature="0" fill="#8A4182" d="M1780.683,851.587l-99.824-72.48l356.006-490.044
		l99.795,72.505L1780.683,851.587"/>
	<path id="path44" inkscape:connector-curvature="0" fill="#8A4182" d="M930.264,847.148L574.312,357.085l99.834-72.505
		l355.952,490.044L930.264,847.148"/>
	<path id="path46" inkscape:connector-curvature="0" fill="#8A4182" d="M187.041,1769.092l-38.11-117.344l576.001-187.1
		l38.11,117.354L187.041,1769.092"/>
	<path id="path48" inkscape:connector-curvature="0" fill="#8A4182" d="M1286.914,2573.779h123.369v-605.722h-123.369V2573.779z"/>
</g>
</svg>
