<?xml version="1.0" encoding="utf-8"?>
<!-- Generator: Adobe Illustrator 16.0.0, SVG Export Plug-In . SVG Version: 6.00 Build 0)  -->
<!DOCTYPE svg PUBLIC "-//W3C//DTD SVG 1.1//EN" "http://www.w3.org/Graphics/SVG/1.1/DTD/svg11.dtd">
<svg version="1.1" id="Layer_1" xmlns="http://www.w3.org/2000/svg" xmlns:xlink="http://www.w3.org/1999/xlink" x="0px" y="0px"
	 width="512px" height="512px" viewBox="0 0 512 512" enable-background="new 0 0 512 512" xml:space="preserve">
<g>
	<g>
		<path fill="#0A69AD" d="M91.297,155.863c-34.548,48.484-31.028,112.141-5.645,164.353c0.62,1.244,1.242,2.488,1.864,3.728
			c0.415,0.779,0.776,1.609,1.191,2.388c0.207,0.466,0.465,0.88,0.776,1.346c0.362,0.829,0.83,1.604,1.295,2.433
			c0.776,1.452,1.606,2.898,2.436,4.3c0.412,0.774,0.88,1.553,1.346,2.332c0.933,1.502,1.864,3.005,2.797,4.502
			c0.415,0.678,0.83,1.295,1.245,1.922c1.295,2.019,2.64,4.037,4.089,6.061c0,0.05,0.104,0.101,0.104,0.151
			c0.208,0.313,0.468,0.622,0.675,0.931c1.242,1.71,2.486,3.419,3.728,5.079c0.518,0.622,0.933,1.193,1.398,1.811
			c1.141,1.457,2.279,2.903,3.47,4.355c0.415,0.516,0.883,1.087,1.348,1.604c1.553,1.917,3.159,3.783,4.869,5.645
			c0,0.051,0.05,0.051,0.05,0.106c0.053,0.101,0.157,0.157,0.157,0.207c1.606,1.761,3.263,3.521,4.919,5.281
			c0.518,0.516,1.09,1.087,1.606,1.608c1.295,1.346,2.59,2.641,3.938,3.936c0.569,0.516,1.087,1.031,1.606,1.553
			c1.76,1.71,3.521,3.369,5.387,5.023c0.051,0.05,0.051,0.05,0.104,0.105c0.309,0.258,0.62,0.517,0.88,0.774
			c1.606,1.451,3.262,2.853,4.919,4.249c0.622,0.571,1.295,1.087,2.021,1.659c1.348,1.087,2.693,2.175,4.092,3.263
			c0.672,0.571,1.398,1.138,2.124,1.709c1.502,1.139,3.106,2.226,4.608,3.364c0.571,0.415,1.087,0.829,1.606,1.244
			c0.157,0.102,0.311,0.207,0.468,0.313c1.449,1.032,2.952,2.019,4.454,3.005c0.672,0.415,1.295,0.88,1.917,1.295
			c2.279,1.497,4.608,2.949,6.991,4.4c0.622,0.364,1.244,0.729,1.917,1.139c1.71,1.037,3.47,2.019,5.233,3.005
			c0.984,0.521,1.967,1.036,2.848,1.553c1.295,0.678,2.486,1.346,3.781,2.023c0.26,0.151,0.569,0.258,0.88,0.414
			c0.468,0.258,0.984,0.517,1.502,0.774c1.968,0.986,3.938,1.917,5.906,2.848c0.415,0.212,0.83,0.415,1.295,0.571
			c2.279,1.037,4.611,2.019,6.94,3.005c0.571,0.258,1.141,0.466,1.71,0.673c2.175,0.88,4.403,1.71,6.527,2.539
			c0.309,0.102,0.569,0.207,0.827,0.313c2.436,0.881,4.869,1.705,7.304,2.483c0.569,0.157,1.138,0.359,1.76,0.517
			c2.486,0.778,4.922,1.71,7.512,2.23c164.143,31.908,213.4-96.396,213.4-96.396c-40.709,51.798-112.082,64.797-179.368,48.687
			c-2.539-0.617-5.028-1.446-7.512-2.226c-0.622-0.207-1.244-0.415-1.866-0.566c-2.383-0.779-4.815-1.608-7.198-2.438
			c-0.311-0.101-0.675-0.202-0.986-0.364c-2.122-0.773-4.246-1.604-6.371-2.428c-0.619-0.263-1.138-0.471-1.76-0.729
			c-2.33-0.931-4.611-1.917-6.836-2.954c-0.519-0.202-0.934-0.415-1.399-0.617c-1.968-0.936-3.885-1.815-5.802-2.802
			c-0.569-0.259-1.141-0.517-1.71-0.83c-1.502-0.773-3.004-1.604-4.507-2.377c-0.984-0.572-1.968-1.037-2.951-1.608
			c-1.813-0.981-3.574-2.019-5.387-3.056c-0.569-0.364-1.191-0.673-1.76-1.037c-2.383-1.396-4.714-2.898-7.044-4.35
			c-0.622-0.415-1.244-0.881-1.866-1.295c-1.657-1.088-3.313-2.226-4.973-3.364c-0.569-0.364-1.087-0.779-1.553-1.143
			c-1.606-1.139-3.159-2.327-4.714-3.471c-0.726-0.516-1.399-1.031-2.071-1.608c-1.452-1.133-2.848-2.276-4.196-3.414
			c-0.623-0.521-1.295-1.037-1.917-1.554c-1.76-1.507-3.521-3.004-5.283-4.563c-0.154-0.151-0.362-0.309-0.569-0.516
			c-1.864-1.71-3.677-3.419-5.542-5.129c-0.518-0.516-1.037-1.032-1.555-1.553c-1.345-1.295-2.693-2.641-3.935-3.991
			c-0.569-0.517-1.088-1.032-1.606-1.604c-1.606-1.705-3.263-3.47-4.869-5.23c-0.104-0.106-0.157-0.157-0.208-0.258
			c-1.709-1.866-3.315-3.784-4.921-5.751c-0.465-0.517-0.88-1.037-1.346-1.554c-1.141-1.502-2.332-3.004-3.523-4.507
			c-0.465-0.521-0.88-1.087-1.295-1.654c-1.449-1.866-2.797-3.682-4.092-5.594c-36.88-51.544-49.519-122.194-18.956-179.687"/>
		<path fill="#0A69AD" d="M197.377,115.877c-25.019,35.118-24.242,82.514-5.491,120.168c3.159,6.32,6.682,12.433,10.67,18.286
			c3.626,5.331,7.613,11.654,12.535,15.954c1.76,1.968,3.523,3.885,5.387,5.802c0.519,0.466,0.934,0.931,1.449,1.452
			c1.813,1.811,3.68,3.57,5.595,5.331c0.104,0.051,0.157,0.157,0.208,0.207c0.053,0,0.053,0.056,0.053,0.056
			c2.071,1.912,4.299,3.724,6.475,5.539c0.516,0.364,1.034,0.774,1.502,1.188c2.226,1.71,4.504,3.471,6.836,5.079
			c0.051,0.051,0.154,0.101,0.208,0.156c1.034,0.724,2.071,1.452,3.108,2.12c0.516,0.313,0.983,0.678,1.502,0.986
			c1.657,1.087,3.367,2.18,5.076,3.161c0.258,0.152,0.463,0.313,0.726,0.415c1.497,0.88,3.004,1.71,4.452,2.59
			c0.516,0.309,1.092,0.566,1.608,0.829c1.031,0.566,2.073,1.139,3.105,1.659c0.157,0.102,0.313,0.152,0.466,0.202
			c2.175,1.093,4.35,2.176,6.524,3.162c0.466,0.207,0.986,0.414,1.457,0.622c1.761,0.778,3.571,1.502,5.382,2.226
			c0.779,0.313,1.559,0.622,2.281,0.88c1.604,0.622,3.263,1.194,4.973,1.761c0.724,0.263,1.447,0.521,2.226,0.729
			c2.332,0.778,4.664,1.709,7.152,2.175c126.741,22.479,157.152-74.952,157.152-74.952c-26.885,37.763-78.217,55.32-132.71,40.504
			c-2.378-0.673-4.766-1.396-7.143-2.175c-0.729-0.208-1.457-0.466-2.175-0.724c-1.659-0.571-3.369-1.193-4.978-1.766
			c-0.779-0.309-1.497-0.566-2.226-0.88c-1.812-0.668-3.627-1.446-5.388-2.226c-0.465-0.207-0.986-0.415-1.451-0.617
			c-2.226-0.986-4.451-2.074-6.576-3.167c-1.143-0.516-2.226-1.133-3.369-1.704c-0.617-0.309-1.244-0.673-1.861-1.037
			c-1.451-0.778-2.802-1.608-4.198-2.382c-0.313-0.208-0.673-0.415-0.981-0.572c-1.709-1.031-3.419-2.074-5.078-3.156
			c-0.466-0.313-0.981-0.678-1.503-1.037c-1.138-0.723-2.226-1.502-3.263-2.23c-2.331-1.604-4.612-3.363-6.788-5.074
			c-0.516-0.415-1.031-0.83-1.548-1.244c-23.675-19.164-42.32-45.166-51.023-74.484c-9.118-30.456-6.682-64.436,10.048-91.887"/>
		<path fill="#0A69AD" d="M284.446,85.833c-14.502,21.341-15.903,47.811-5.848,71.378c10.612,25.018,32.317,44.65,57.695,53.972
			c1.042,0.362,2.074,0.726,3.167,1.087c0.465,0.157,0.931,0.311,1.345,0.465c1.498,0.468,3.005,1.037,4.553,1.295
			c70.139,13.572,89.147-35.997,94.171-43.249c-16.627,23.981-44.649,29.73-78.99,21.392c-2.696-0.672-5.701-1.606-8.291-2.539
			c-3.313-1.191-6.627-2.537-9.895-4.092c-6.11-2.898-11.907-6.475-17.299-10.567c-30.765-23.309-49.824-67.802-29.783-104.06"/>
	</g>
</g>
</svg>
