<?xml version="1.0" encoding="utf-8"?>
<!-- Generator: Adobe Illustrator 16.0.0, SVG Export Plug-In . SVG Version: 6.00 Build 0)  -->
<!DOCTYPE svg PUBLIC "-//W3C//DTD SVG 1.1//EN" "http://www.w3.org/Graphics/SVG/1.1/DTD/svg11.dtd">
<svg version="1.1" xmlns="http://www.w3.org/2000/svg" xmlns:xlink="http://www.w3.org/1999/xlink" x="0px" y="0px" width="512px"
	 height="512px" viewBox="0 0 512 512" enable-background="new 0 0 512 512" xml:space="preserve">
<g id="Layer_1">
</g>
<g id="Isolation_Mode">
	<g>
		<path fill-rule="evenodd" clip-rule="evenodd" fill="#42BEAD" d="M297.288,319.808c-5.637,3.26-9.025,8.183-9.086,14.632
			c-0.201,21.548-0.189,43.1,0.016,64.647c0.043,4.347-0.893,6.119-5.597,5.773c-5.88-0.433-11.881-0.649-17.71,0.046
			c-6.256,0.745-7.708-3.119-8.652-7.54c-2.367-11.08-6.09-21.799-8.696-32.773c-2.365-9.958-5.551-19.678-7.754-29.683
			c-2.183-9.918-6.071-19.466-8.157-29.397c-1.463-6.968-3.929-13.595-5.512-20.506c-2.271-9.911-5.437-19.616-8.154-29.427
			c-1.835-6.625-3.566-13.28-5.324-19.926c-1.941-7.34-4.239-14.627-5.969-21.967c-2.084-8.839-5.534-17.399-5.409-26.843
			c0.329-24.787,0.186-49.583,0.034-74.374c-0.023-3.858,0.884-5.347,5.031-5.321c25.745,0.163,51.491,0.17,77.235-0.011
			c4.015-0.028,4.622,1.498,4.604,4.985c-0.124,23.646-0.064,47.295-0.064,70.942c0,2.022,0,4.044,0,7.52
			c6.037-6.231,9.286-12.618,13.373-18.322c7.963-11.112,15.432-22.58,23.04-33.944c5.547-8.284,11.021-16.617,16.468-24.967
			c2.556-3.918,5.346-6.345,10.752-6.277c26.695,0.338,53.397,0.141,80.096,0.181c2.204,0.003,4.506-0.503,6.953,0.788
			c-10.151,15.054-20.237,29.977-30.289,44.924c-13.6,20.223-27.146,40.48-40.771,60.688c-6.92,10.268-13.768,20.596-21.08,30.58
			c-1.805,2.464-2.188,4.542-1.795,7.187c-6.998-0.466-7.571,6.409-10.12,10.016c-9.978,14.113-18.821,29-29.262,42.857
			C302.083,308.816,297.294,313.229,297.288,319.808z"/>
		<path fill-rule="evenodd" clip-rule="evenodd" fill="#379C8B" d="M297.288,319.808c0.006-6.578,4.795-10.991,8.201-15.513
			c10.44-13.857,19.284-28.744,29.262-42.857c2.549-3.606,3.122-10.481,10.12-10.016c34.252,50.717,68.505,101.436,102.833,152.268
			c-1.331,1.741-3.378,1.026-5.125,1.03c-27.837,0.053-55.675-0.016-83.511,0.105c-3.428,0.017-5.405-1.211-7.264-4.02
			c-9.622-14.538-19.459-28.935-29.205-43.39C314.15,344.887,305.725,332.345,297.288,319.808z"/>
		<path fill-rule="evenodd" clip-rule="evenodd" fill="#379C8B" d="M171.279,244.337c0.075-2.517,2.292-2.39,3.688-3.241
			c14.376,53.284,28.708,106.407,43.041,159.529c-0.624,0.255-1.248,0.51-1.872,0.765c-4.687-5.318-9.465-10.559-14.043-15.969
			c-16.481-19.474-32.914-38.989-49.314-58.532c-2.74-3.265-4.879-2.761-7.78,0.04c-10.136,9.786-19.868,20.009-30.75,29.002
			c-0.995,0.822-2.21,1.379-3.324,2.058c-1.062-0.752-1.724-1.916-0.757-2.87c6.956-6.865,9.704-16.334,14.381-24.48
			c8.957-15.601,17.055-31.739,26.229-47.262c3.686-6.235,6.498-12.897,10.46-19.069c3.357-5.229,7.508-10.759,7.71-17.646
			c0,0-0.058,0.061-0.056,0.061C170.662,246.898,171.352,245.999,171.279,244.337z"/>
		<path fill-rule="evenodd" clip-rule="evenodd" fill="#42BEAD" d="M168.951,246.66c-0.202,6.887-4.353,12.417-7.71,17.646
			c-3.962,6.172-6.774,12.834-10.46,19.069c-9.175,15.522-17.273,31.661-26.229,47.262c-4.677,8.146-7.426,17.615-14.381,24.48
			c-0.967,0.954-0.305,2.118,0.757,2.87c-0.906,2.371-2.797,3.743-5.143,5.396c-14.35-53.372-28.958-106.204-42.079-159.501
			c7.995,4.876,12.581,12.373,18.096,18.899c14.967,17.713,30.546,34.922,44.653,53.354c2.856,3.732,5.199,4.909,9.255,0.611
			c8.669-9.184,17.983-17.763,27.156-26.46C164.551,248.688,165.968,246.246,168.951,246.66z"/>
		<path fill-rule="evenodd" clip-rule="evenodd" fill="#42BEAD" d="M171.279,244.337c0.073,1.662-0.618,2.562-2.385,2.384
			C168.729,244.965,169.62,244.267,171.279,244.337z"/>
	</g>
</g>
</svg>
