<?xml version="1.0" encoding="utf-8"?>
<!-- Generator: Adobe Illustrator 16.0.0, SVG Export Plug-In . SVG Version: 6.00 Build 0)  -->
<!DOCTYPE svg PUBLIC "-//W3C//DTD SVG 1.1//EN" "http://www.w3.org/Graphics/SVG/1.1/DTD/svg11.dtd">
<svg version="1.1" xmlns="http://www.w3.org/2000/svg" xmlns:xlink="http://www.w3.org/1999/xlink" x="0px" y="0px" width="512px"
	 height="512px" viewBox="0 0 512 512" enable-background="new 0 0 512 512" xml:space="preserve">
<g id="Layer_1">
</g>
<g id="Isolation_Mode">
	<g>
		<path fill-rule="evenodd" clip-rule="evenodd" fill="#D82076" d="M276.158,131.374c3.396,1.124,6.97,0.98,10.452,1.435
			c42.89,5.597,79.492,23.817,109.647,54.784c24.771,25.436,40.67,55.682,48.034,90.409c2.468,11.627,3.67,23.394,3.91,35.272
			c0.037,1.81-0.268,2.46-2.3,2.457c-59.894-0.063-119.784-0.064-179.676,0.005c-2.225,0.003-2.387-0.84-2.387-2.64
			c0.04-60.576,0.032-121.149,0.032-181.723C267.967,131.374,272.063,131.374,276.158,131.374z"/>
		<path fill-rule="evenodd" clip-rule="evenodd" fill="#D82076" d="M248.513,131.374c0,60.398-0.019,120.8,0.063,181.198
			c0.004,2.574-0.597,3.177-3.172,3.172c-60.4-0.082-120.8-0.063-181.198-0.063c0-20.479,0-40.957,0-61.436
			c19.606,0,39.214-0.035,58.82,0.05c2.1,0.01,2.68-0.468,2.67-2.627c-0.094-18.754-0.016-37.509-0.106-56.263
			c-0.01-2.129,0.519-2.658,2.649-2.648c18.753,0.09,37.509,0.013,56.262,0.106c2.16,0.01,2.638-0.569,2.627-2.67
			c-0.085-19.606-0.05-39.214-0.05-58.82C207.556,131.374,228.034,131.374,248.513,131.374z"/>
	</g>
</g>
</svg>
