<?xml version="1.0" encoding="utf-8"?>
<!-- Generator: Adobe Illustrator 16.0.0, SVG Export Plug-In . SVG Version: 6.00 Build 0)  -->
<!DOCTYPE svg PUBLIC "-//W3C//DTD SVG 1.1//EN" "http://www.w3.org/Graphics/SVG/1.1/DTD/svg11.dtd">
<svg version="1.1" id="Layer_1" xmlns="http://www.w3.org/2000/svg" xmlns:xlink="http://www.w3.org/1999/xlink" x="0px" y="0px"
	 width="512px" height="512px" viewBox="0 0 512 512" enable-background="new 0 0 512 512" xml:space="preserve">
<g>
	<path fill-rule="evenodd" clip-rule="evenodd" fill="#07638B" d="M162.625,355.855c0.396-2.286,0.167-4.592,0.135-6.883
		c-0.019-1.298,0.397-1.543,1.61-1.538c12.49,0.046,24.979,0.022,37.47,0.033c1.933,0.001,3.788-0.312,5.531-1.166
		c1.735-0.85,2.687-2.189,2.615-4.182c-0.035-1.001-0.099-2.013-0.008-3.008c0.1-1.107-0.361-1.305-1.369-1.303
		c-9.079,0.027-18.159,0.096-27.236-0.047c-4.968-0.078-9.742-1.216-13.952-4.045c-3.245-2.181-4.996-5.067-4.909-9.193
		c0.181-8.574,0.114-17.153,0.061-25.73c-0.008-1.217,0.383-1.372,1.428-1.353c3.209,0.063,6.421,0.08,9.629-0.006
		c1.218-0.032,1.605,0.252,1.596,1.541c-0.061,8.527-0.032,17.056-0.032,25.582c0,3.042,1.101,4.476,4.058,5.248
		c1.365,0.357,2.762,0.456,4.172,0.454c8.377-0.011,16.754-0.031,25.13,0.023c1.229,0.008,1.588-0.284,1.581-1.555
		c-0.056-9.831,0.014-19.663-0.074-29.494c-0.015-1.64,0.494-1.965,1.995-1.912c3.156,0.11,6.319,0.07,9.479,0.012
		c0.991-0.019,1.271,0.271,1.269,1.264c-0.034,14.597-0.002,29.193-0.047,43.79c-0.017,5.501-3.187,8.861-7.917,11.011
		c-2.426,1.104-4.978,1.817-7.622,2.183c-0.238,0.033-0.509-0.009-0.642,0.273C191.925,355.855,177.275,355.855,162.625,355.855z"/>
	<path fill-rule="evenodd" clip-rule="evenodd" fill="#07638B" d="M107.886,328.929c2.805-6.305,5.463-12.288,8.128-18.267
		c3.485-7.817,7.148-15.558,10.413-23.465c3.129-7.58,9.109-9.65,16.285-8.265c1.128,0.218,2.252,0.498,3.344,0.856
		c4.164,1.367,5.8,3.561,5.957,7.978c0.057,1.604,0.02,3.21,0.02,4.815c0.001,14.698-0.018,29.396,0.033,44.094
		c0.004,1.33-0.319,1.703-1.655,1.658c-3.157-0.105-6.321-0.095-9.479-0.004c-1.255,0.037-1.582-0.324-1.579-1.571
		c0.042-15.45,0.027-30.901,0.027-46.353c0-0.484,0-0.969,0-1.662c-0.606,0.404-0.686,0.906-0.874,1.323
		c-6.104,13.606-12.204,27.216-18.308,40.822c-0.369,0.821-0.749,1.639-1.16,2.439c-1.599,3.111-4.074,4.983-7.593,5.46
		c-2.46,0.333-4.908,0.339-7.333-0.143c-3.669-0.727-5.928-3.128-7.401-6.423c-3.206-7.173-6.426-14.339-9.639-21.51
		c-3.048-6.805-6.093-13.61-9.143-20.414c-0.193-0.432-0.423-0.849-0.969-1.21c0,0.566,0,1.133,0,1.701
		c0,15.3-0.02,30.601,0.033,45.9c0.005,1.354-0.364,1.681-1.673,1.641c-3.258-0.097-6.521-0.066-9.78-0.011
		c-0.997,0.018-1.271-0.3-1.27-1.282c0.028-16.304-0.005-32.606,0.041-48.909c0.014-4.887,1.758-7.045,6.466-8.492
		c2.021-0.622,4.086-1.028,6.196-1.112c5.947-0.235,10.105,2.353,12.466,7.792c4.044,9.319,8.051,18.653,12.074,27.981
		c1.863,4.318,3.728,8.638,5.596,12.955C107.302,327.701,107.518,328.139,107.886,328.929z"/>
	<path fill-rule="evenodd" clip-rule="evenodd" fill="#E18F26" d="M352.228,335.785c4.067,3.69,8.061,7.313,12.399,11.251
		c-1.241,0-2.063,0-2.886,0c-3.408,0-6.818-0.034-10.228,0.02c-1.065,0.017-1.877-0.236-2.679-0.993
		c-2.664-2.51-5.425-4.914-8.11-7.4c-0.64-0.593-1.25-0.799-2.137-0.721c-8.153,0.707-16.326,0.783-24.494,0.433
		c-3.94-0.168-7.698-1.274-11.141-3.267c-3.85-2.229-6.055-5.572-6.096-10.042c-0.094-10.529-0.08-21.059-0.045-31.588
		c0.018-5.353,2.816-8.932,7.542-11.121c3.928-1.818,8.111-2.552,12.407-2.58c7.621-0.05,15.243-0.05,22.864,0.002
		c4.346,0.028,8.581,0.765,12.549,2.625c4.482,2.1,7.324,5.507,7.41,10.589c0.181,10.877,0.231,21.758-0.032,32.635
		c-0.111,4.603-2.415,7.837-6.603,9.735C352.731,335.463,352.532,335.606,352.228,335.785z M320.593,320.424
		c4.94,0,9.444,0.012,13.947-0.013c0.684-0.004,1.11,0.341,1.562,0.754c2.183,1.997,4.381,3.979,6.565,5.975
		c2.045,1.868,3.073,1.688,4.439-0.823c0.461-0.848,0.703-1.756,0.702-2.736c-0.009-9.684-0.002-19.366-0.009-29.049
		c-0.001-1.956-0.89-3.467-2.479-4.559c-1.483-1.02-3.161-1.544-4.946-1.572c-4.163-0.068-8.326-0.085-12.489-0.085
		c-3.36,0-6.729-0.072-10.08,0.119c-5.108,0.293-7.376,2.809-7.376,7.856c0,8.629-0.003,17.259,0,25.888
		c0.001,4.289,1.948,6.818,6.219,7.507c4.622,0.744,9.309,0.215,13.966,0.269c0.052,0,0.104-0.141,0.179-0.25
		C327.499,326.708,324.204,323.711,320.593,320.424z"/>
	<path fill-rule="evenodd" clip-rule="evenodd" fill="#07638B" d="M367.053,270.043c-0.873,0.188-1.423-0.457-1.891-0.938
		c-3.79-3.879-8.237-7.022-12.046-10.889c-3.473-3.523-5.969-7.636-7.99-12.093c-0.348-0.766-0.748-1.508-1.458-2.258
		c-0.344,1.987-0.69,3.972-1.029,5.959c-0.251,1.481-0.366,2.998-0.761,4.439c-1.211,4.428-5.683,5.914-9.327,3.097
		c-2.813-2.177-4.597-5.151-5.903-8.39c-3.573-8.861-3.894-17.961-1.552-27.14c0.764-2.99,1.056-6.131,2.502-8.941
		c0.349-0.676-0.034-1.322-0.481-1.777c-4.42-4.5-6.535-10.234-8.617-15.988c-1.022-2.823-2.061-5.638-2.798-8.558
		c-0.537-2.126-1.808-3.902-3.082-5.638c-1.842-2.503-3.751-4.956-5.624-7.436c-0.908-1.202-1.701-2.473-2.339-3.843
		c-1.556-3.34-1.649-6.592,0.642-9.649c2.263-3.017,5.489-3.355,8.825-2.743c5.819,1.066,11.016,3.614,15.62,7.304
		c1.489,1.195,2.911,2.039,4.949,2.07c6.08,0.093,11.977,1.326,17.328,4.275c5.975,3.294,11.574,7.189,16.825,11.569
		c8.647,7.214,15.608,15.842,21.245,25.543c2.469,4.251,3.814,9.026,5.837,13.495c2.827,6.25,5.995,12.334,8.878,18.556
		c0.998,2.156,2.517,3.497,4.833,4.32c9.153,3.253,16.876,8.874,24.304,14.983c2.632,2.165,4.775,4.701,6.84,7.354
		c0.683,0.875,0.587,1.345-0.556,1.676c-2.842,0.823-5.686,1.64-8.652,1.82c-3.831,0.231-7.389,1.688-11.186,2.321
		c0.655,1.875,2.069,3.001,3.519,4.07c2.904,2.144,6.222,3.651,9.066,5.894c3.047,2.4,5.84,5.049,8.251,8.094
		c0.559,0.703,1.157,1.404,1.85,1.969c1.46,1.188,2.188,2.782,2.811,4.515c-0.588,0.135-0.865-0.292-1.158-0.563
		c-4.866-4.522-10.544-7.713-16.528-10.52c-5.388-2.527-10.248-5.877-13.788-10.849c-0.913-1.284-1.465-2.732-2.135-4.123
		c-0.523-1.089,0.409-1.58,1.192-1.866c4.426-1.612,8.88-3.108,13.654-3.358c2.495-0.131,4.99-0.236,7.637-0.185
		c-0.396-1.33-1.322-2.044-2.24-2.673c-4.631-3.168-9.203-6.438-13.985-9.364c-3.375-2.065-7.247-3.183-11.059-4.185
		c-3.783-0.993-6.374-3.087-8.036-6.578c-4.235-8.899-8.612-17.732-12.323-26.873c-3.263-8.04-8.19-15.032-13.913-21.465
		c-7.586-8.526-16.463-15.378-26.939-20.038c-2.985-1.328-6.06-2.336-9.399-2.387c-2.148-0.033-4.293-0.319-6.439-0.471
		c-1.13-0.081-1.963-0.739-2.744-1.434c-3.931-3.502-8.656-5.54-13.489-7.383c-0.847-0.323-1.727-0.514-2.631-0.59
		c-2.611-0.219-4.065,1.558-3.335,4.102c0.49,1.708,1.381,3.216,2.429,4.632c0.687,0.927,1.38,1.854,2.14,2.718
		c5.299,6.029,8.031,13.293,10.235,20.854c1.525,5.233,3.729,10.14,7.795,14.01c1.521,1.448,1.755,3.335,1.141,5.295
		c-0.642,2.052-1.394,4.071-2.036,6.123c-3.209,10.235-2.711,20.246,1.906,29.98c0.63,1.327,1.517,2.48,2.878,3.177
		c1.029,0.527,1.507,0.333,1.631-0.933c0.354-3.589,0.733-7.175,1.525-10.709c0.804-3.577,3.071-6.254,5.28-8.976
		c0.676-0.833,0.918,0.039,1.084,0.457c0.514,1.298,0.85,2.657,1.394,3.957c3.961,9.476,9.021,18.32,15.14,26.562
		c1.824,2.455,4.063,4.523,6.252,6.636L367.053,270.043z"/>
	<path fill-rule="evenodd" clip-rule="evenodd" fill="#E18F26" d="M268.804,279.692c6.269,0,12.538,0.052,18.808-0.04
		c1.4-0.02,1.678,0.419,1.604,1.681c-0.104,1.801-0.096,3.613-0.001,5.414c0.059,1.125-0.273,1.423-1.411,1.416
		c-8.425-0.052-16.852-0.063-25.276-0.012c-3.958,0.023-7.924-0.28-11.871,0.246c-0.645,0.086-1.292,0.179-1.923,0.33
		c-2.274,0.543-3.329,1.774-3.409,4.132c-0.069,2.004-0.061,4.014-0.007,6.019c0.089,3.3,1.891,5.313,5.18,5.78
		c1.237,0.177,2.495,0.264,3.745,0.271c5.215,0.034,10.432-0.029,15.647,0.043c4.943,0.068,9.626,1.209,13.875,3.836
		c3.31,2.046,5.25,4.827,4.984,8.925c-0.146,2.247-0.095,4.516-0.012,6.769c0.162,4.412-1.856,7.576-5.472,9.86
		c-4.225,2.669-8.902,3.889-13.848,3.918c-11.886,0.069-23.772,0.009-35.658,0.05c-1.117,0.004-1.328-0.401-1.293-1.393
		c0.067-1.903,0.105-3.816-0.011-5.715c-0.077-1.256,0.401-1.469,1.53-1.466c10.833,0.038,21.666,0.027,32.499,0.019
		c1.554-0.002,3.105-0.018,4.632-0.4c3.318-0.833,4.775-2.664,4.777-6.056c0-1.605,0.002-3.211-0.002-4.815
		c-0.006-2.613-1.252-4.307-3.778-5.063c-1.934-0.581-3.931-0.753-5.941-0.776c-5.215-0.059-10.435,0.188-15.643-0.157
		c-4.604-0.306-9.004-1.411-12.943-3.928c-3.319-2.121-5.202-5.038-4.996-9.136c0.118-2.352,0.017-4.714,0.09-7.068
		c0.149-4.741,2.605-7.943,6.746-10.04c3.616-1.83,7.473-2.513,11.473-2.605c0.952-0.021,1.905-0.033,2.858-0.034
		C258.773,279.691,263.788,279.693,268.804,279.692z"/>
	<path fill-rule="evenodd" clip-rule="evenodd" fill="#E18F26" d="M367.614,302.774c0-7.171,0.045-14.341-0.04-21.51
		c-0.017-1.392,0.409-1.638,1.671-1.602c3.157,0.09,6.319,0.091,9.476-0.001c1.234-0.036,1.579,0.27,1.574,1.544
		c-0.052,13.688,0.056,27.378-0.075,41.065c-0.052,5.284,2.199,6.765,6.72,7.354c1.236,0.161,2.502,0.147,3.754,0.148
		c10.43,0.012,20.859,0.038,31.288-0.029c1.43-0.01,1.776,0.42,1.7,1.758c-0.11,1.898-0.067,3.811-0.012,5.714
		c0.025,0.863-0.271,1.113-1.115,1.104c-11.931-0.144-23.867,0.305-35.791-0.254c-4.733-0.223-9.35-1.179-13.451-3.766
		c-3.777-2.384-5.645-5.888-5.675-10.316c-0.05-7.069-0.013-14.141-0.013-21.21C367.621,302.774,367.616,302.774,367.614,302.774z"
		/>
	<path fill-rule="evenodd" clip-rule="evenodd" fill="#E18F26" d="M429.629,329.441c0.041-5.197,4.097-9.215,9.29-9.201
		c5.33,0.016,9.421,4.162,9.35,9.477c-0.07,5.217-4.293,9.335-9.477,9.242C433.546,338.864,429.588,334.754,429.629,329.441z
		 M438.976,336.956c4.082-0.022,7.24-3.299,7.196-7.465c-0.044-4.146-3.302-7.385-7.371-7.326c-4.027,0.06-7.077,3.259-7.074,7.423
		C431.73,333.825,434.833,336.979,438.976,336.956z"/>
	<path fill-rule="evenodd" clip-rule="evenodd" fill="#07638B" d="M332.046,181.672c2.487-0.927,4.524-0.645,6.174,1.218
		c1.344,1.517,1.901,3.242,1.089,5.227c-0.132,0.321-0.262,0.659-0.472,0.928c-0.353,0.455-0.654,1.163-1.273,1.105
		c-0.474-0.043-0.579-0.762-0.73-1.21C335.891,186.13,333.783,184.076,332.046,181.672z"/>
	<path fill-rule="evenodd" clip-rule="evenodd" fill="#07638B" d="M367.018,270.068c0.067,0.044,0.136,0.088,0.202,0.133
		c-0.06,0.016-0.121,0.031-0.181,0.048c0.005-0.068,0.01-0.138,0.014-0.206L367.018,270.068z"/>
	<path fill-rule="evenodd" clip-rule="evenodd" fill="#FFFFFF" d="M320.593,320.424c3.611,3.287,6.906,6.284,10.199,9.28
		c-0.075,0.109-0.127,0.25-0.179,0.25c-4.657-0.054-9.344,0.476-13.966-0.269c-4.271-0.688-6.218-3.218-6.219-7.507
		c-0.003-8.629,0-17.259,0-25.888c0-5.048,2.268-7.563,7.376-7.856c3.352-0.191,6.72-0.119,10.08-0.119
		c4.163,0,8.326,0.017,12.489,0.085c1.785,0.028,3.463,0.553,4.946,1.572c1.59,1.092,2.479,2.603,2.479,4.559
		c0.007,9.683,0,19.365,0.009,29.049c0.001,0.98-0.241,1.889-0.702,2.736c-1.366,2.511-2.395,2.691-4.439,0.823
		c-2.185-1.996-4.383-3.978-6.565-5.975c-0.451-0.413-0.878-0.758-1.562-0.754C330.037,320.436,325.533,320.424,320.593,320.424z"/>
	<path fill-rule="evenodd" clip-rule="evenodd" fill="#FFFFFF" d="M438.976,336.956c-4.143,0.023-7.245-3.131-7.249-7.368
		c-0.003-4.164,3.047-7.363,7.074-7.423c4.069-0.059,7.327,3.18,7.371,7.326C446.216,333.657,443.058,336.934,438.976,336.956z
		 M443.354,334.693c-0.808-1.261-1.538-2.438-2.312-3.585c-0.338-0.5-0.452-0.766,0.256-1.078c1.834-0.814,2.274-1.645,1.971-3.356
		c-0.26-1.464-1.195-2.266-3.006-2.389c-1.396-0.093-2.804-0.018-4.205-0.06c-0.64-0.019-0.89,0.204-0.886,0.858
		c0.021,2.955,0.023,5.91,0,8.864c-0.008,0.729,0.291,0.945,0.983,0.941c0.703-0.002,0.833-0.354,0.817-0.939
		c-0.022-0.801-0.041-1.605,0.011-2.402c0.028-0.438-0.298-1.1,0.449-1.237c0.643-0.118,1.257-0.113,1.644,0.654
		c0.471,0.935,1.143,1.771,1.596,2.713C441.199,334.768,441.95,335.13,443.354,334.693z"/>
	<path fill-rule="evenodd" clip-rule="evenodd" fill="#E18F26" d="M443.354,334.693c-1.404,0.437-2.155,0.074-2.682-1.016
		c-0.453-0.942-1.125-1.778-1.596-2.713c-0.387-0.768-1.001-0.772-1.644-0.654c-0.747,0.138-0.421,0.799-0.449,1.237
		c-0.052,0.797-0.033,1.602-0.011,2.402c0.016,0.585-0.114,0.938-0.817,0.939c-0.692,0.004-0.991-0.213-0.983-0.941
		c0.023-2.954,0.021-5.909,0-8.864c-0.004-0.654,0.246-0.877,0.886-0.858c1.401,0.042,2.809-0.033,4.205,0.06
		c1.811,0.123,2.746,0.925,3.006,2.389c0.304,1.712-0.137,2.542-1.971,3.356c-0.708,0.313-0.594,0.578-0.256,1.078
		C441.816,332.256,442.547,333.433,443.354,334.693z M438.676,328.766c0.347,0,0.697,0.021,1.043-0.004
		c0.94-0.069,1.647-0.43,1.661-1.51c0.013-1.032-0.72-1.356-1.555-1.46c-0.687-0.085-1.389-0.042-2.085-0.045
		c-0.291-0.001-0.572-0.012-0.739,0.34C436.346,327.47,437.156,328.789,438.676,328.766z"/>
	<path fill-rule="evenodd" clip-rule="evenodd" fill="#FFFFFF" d="M438.676,328.766c-1.52,0.023-2.33-1.296-1.675-2.679
		c0.167-0.352,0.448-0.341,0.739-0.34c0.696,0.003,1.398-0.04,2.085,0.045c0.835,0.104,1.567,0.428,1.555,1.46
		c-0.014,1.08-0.721,1.44-1.661,1.51C439.373,328.787,439.022,328.766,438.676,328.766z"/>
</g>
</svg>
