<?xml version="1.0" encoding="utf-8"?>
<!-- Generator: Adobe Illustrator 16.0.0, SVG Export Plug-In . SVG Version: 6.00 Build 0)  -->
<!DOCTYPE svg PUBLIC "-//W3C//DTD SVG 1.1//EN" "http://www.w3.org/Graphics/SVG/1.1/DTD/svg11.dtd">
<svg version="1.1" xmlns="http://www.w3.org/2000/svg" xmlns:xlink="http://www.w3.org/1999/xlink" x="0px" y="0px" width="512px"
	 height="512px" viewBox="0 0 512 512" enable-background="new 0 0 512 512" xml:space="preserve">
<g id="Layer_1">
</g>
<g id="Isolation_Mode">
	<g>
		<path fill-rule="evenodd" clip-rule="evenodd" fill="#8FBAE3" d="M256.434,382.709c-41.127,0-82.253-0.052-123.379,0.096
			c-3.377,0.012-4.06-0.682-4.055-4.058c0.12-81.498,0.12-162.997,0-244.495c-0.005-3.376,0.679-4.06,4.055-4.055
			c82.63,0.118,165.261,0.118,247.891,0c3.376-0.005,4.06,0.679,4.055,4.055c-0.119,81.498-0.119,162.997,0,244.495
			c0.005,3.376-0.678,4.069-4.055,4.058C339.442,382.658,297.937,382.709,256.434,382.709z M149.651,309.127
			c-0.077,16.017,0.026,32.037-0.343,48.047c-0.105,4.58,1.344,5.516,5.658,5.498c38.637-0.16,77.274-0.088,115.912-0.086
			c29.591,0.003,59.182-0.002,88.771,0.006c2.625,0.002,5.038,0.562,5.013-3.764c-0.229-38.443-0.237-76.888-0.309-115.332
			c0.053-29.792,0.046-59.586,0.236-89.377c0.024-3.827-2.002-3.616-4.604-3.615c-68.65,0.026-137.301,0.052-205.951-0.071
			c-3.869-0.007-4.617,1.28-4.597,4.813c0.137,23.009,0.047,46.019,0.069,69.027C149.536,252.558,149.601,280.843,149.651,309.127z"
			/>
		<path fill-rule="evenodd" clip-rule="evenodd" fill="#17124A" d="M149.651,309.127c-0.05-28.284-0.115-56.569-0.144-84.854
			c-0.022-23.008,0.067-46.019-0.069-69.027c-0.021-3.532,0.728-4.819,4.597-4.813c68.649,0.123,137.3,0.097,205.951,0.071
			c2.603-0.001,4.629-0.212,4.604,3.615c-0.19,29.791-0.184,59.585-0.236,89.377c-9.958,4.467-20.589,6.821-31.015,9.799
			c-7.28,2.079-14.154,6.535-22.32,4.102c-0.557-0.166-1.489,0.935-2.246,1.446c-4.212-1.629-8.473-3.14-12.617-4.925
			c-3.36-1.448-6.832-3.279-5.637-7.836c1.137-4.33,4.971-4.832,8.641-4.646c2.973,0.149,5.981,0.709,8.85,1.526
			c3.772,1.072,7.424,2.572,11.125,3.889c1.914-5.642,2.201-11.267-0.191-16.859c-14.744-7.663-36.373-8.431-48.015,6.79
			c-0.946,0.517-1.304,1.377-1.399,2.392c-0.301,0.64-0.602,1.28-0.902,1.92c-0.459,0.487-0.92,0.974-1.38,1.461l0.071-0.043
			c-4.389,1.001-6.479-0.281-5.881-5.215c0.295-2.434,0.814-5.188-1.134-7.406c-0.364-0.527-0.528-1.048,0.04-1.55
			c-0.203-0.583-0.406-1.164-0.61-1.747c-3.406-12.71-11.308-20.854-24.21-24.027c-4.604-1.133-9.269-1.557-13.975-1.551
			c-7.896,0.008-15.819,0.553-23.68,0.065c-5.72-0.355-7.136,1.33-7.088,7.048c0.259,30.273,0.034,60.549-0.024,90.826
			c-3.687-0.28-4.971,3.69-8.208,4.512c-6.369,1.614-12.705,3.475-18.869,5.736C158.859,310.974,154.317,311.758,149.651,309.127z"
			/>
		<path fill-rule="evenodd" clip-rule="evenodd" fill="#121036" d="M149.651,309.127c4.667,2.631,9.208,1.847,14.027,0.077
			c6.165-2.262,12.5-4.122,18.869-5.736c3.238-0.821,4.522-4.792,8.208-4.512c-0.482,4.665,1.126,6.878,6.264,6.172
			c3.506-0.48,7.155-0.344,10.699-0.026c4.123,0.369,5.057-1.396,4.942-5.182c-0.243-8.077,0.047-16.169-0.125-24.25
			c-0.068-3.203,0.835-4.682,4.148-3.756c4.299,1.202,9.146,0.219,12.589-0.871c18.883-5.985,31.897-14.695,31.031-41.152
			c1.948,2.217,1.429,4.972,1.134,7.406c-0.599,4.935,1.492,6.217,5.881,5.215c-0.74,9.465,0.244,18.235,9.932,23.185
			c3.506,1.791,7.135,3.354,10.768,4.881c3.297,1.387,6.741,2.499,9.339,5.101c2.103,2.104,3.272,4.678,2.536,7.69
			c-0.785,3.217-3.395,4.252-6.327,4.775c-5.804,1.035-11.171-0.705-16.513-2.58c-8.624-3.028-8.619-3.041-8.617,6.466
			c0.001,7.08,1.896,9.871,7.822,11.395c9.365,2.409,18.707,3.119,28.227,0.493c8.246-2.275,14.139-7.121,16.901-15.096
			c3.705-10.699,2.186-21.684-12.612-29.979c0.757-0.512,1.689-1.612,2.246-1.446c8.166,2.433,15.04-2.023,22.32-4.102
			c10.426-2.978,21.057-5.333,31.015-9.799c0.071,38.444,0.079,76.889,0.309,115.332c0.025,4.325-2.388,3.766-5.013,3.764
			c-29.59-0.008-59.181-0.003-88.771-0.006c-38.638-0.002-77.275-0.074-115.912,0.086c-4.314,0.018-5.763-0.918-5.658-5.498
			C149.677,341.164,149.574,325.144,149.651,309.127z"/>
		<path fill-rule="evenodd" clip-rule="evenodd" fill="#8FBAE3" d="M260.303,229.891c0.866,26.457-12.148,35.167-31.031,41.152
			c-3.443,1.09-8.29,2.073-12.589,0.871c-3.313-0.926-4.216,0.553-4.148,3.756c0.172,8.081-0.119,16.173,0.125,24.25
			c0.115,3.785-0.819,5.551-4.942,5.182c-3.544-0.317-7.192-0.454-10.699,0.026c-5.138,0.706-6.746-1.507-6.264-6.172
			c0.058-30.276,0.283-60.553,0.024-90.826c-0.048-5.719,1.368-7.403,7.088-7.048c7.861,0.488,15.784-0.057,23.68-0.065
			c4.706-0.006,9.37,0.417,13.975,1.551c12.903,3.173,20.805,11.317,24.21,24.027c0.204,0.583,0.407,1.164,0.61,1.747
			C259.774,228.843,259.938,229.364,260.303,229.891z M218.415,217.5c-1.143,1.628-5.636-2.634-5.708,2.761
			c-0.136,10.131-0.102,20.265-0.117,30.397c-0.002,1.123,0.141,2.113,1.476,2.664c5.701,2.354,18.176-2.192,21.429-7.889
			C243.465,231.473,235.444,217.792,218.415,217.5z"/>
		<path fill-rule="evenodd" clip-rule="evenodd" fill="#8FBAE3" d="M308.772,258.844c14.798,8.295,16.317,19.279,12.612,29.979
			c-2.763,7.975-8.655,12.82-16.901,15.096c-9.52,2.626-18.861,1.916-28.227-0.493c-5.926-1.523-7.821-4.314-7.822-11.395
			c-0.002-9.507-0.007-9.494,8.617-6.466c5.342,1.875,10.709,3.615,16.513,2.58c2.933-0.523,5.542-1.559,6.327-4.775
			c0.736-3.013-0.434-5.586-2.536-7.69c-2.598-2.602-6.042-3.714-9.339-5.101c-3.633-1.527-7.262-3.09-10.768-4.881
			c-9.688-4.95-10.672-13.72-9.932-23.185c0,0-0.071,0.043-0.07,0.042c0.745-0.217,1.354-0.565,1.379-1.46
			c0.301-0.64,0.602-1.28,0.902-1.92c0.995-0.49,1.174-1.454,1.399-2.392c11.642-15.221,33.271-14.453,48.015-6.79
			c0.063,5.62,0.128,11.239,0.191,16.859c-3.701-1.317-7.353-2.817-11.125-3.889c-2.868-0.816-5.877-1.376-8.85-1.526
			c-3.67-0.186-7.504,0.316-8.641,4.646c-1.195,4.557,2.276,6.388,5.637,7.836C300.3,255.704,304.561,257.215,308.772,258.844z"/>
		<path fill-rule="evenodd" clip-rule="evenodd" fill="#121036" d="M319.134,246.851c-0.063-5.62-0.128-11.24-0.191-16.859
			C321.335,235.584,321.048,241.209,319.134,246.851z"/>
		<path fill-rule="evenodd" clip-rule="evenodd" fill="#121036" d="M270.928,236.782c-0.226,0.938-0.404,1.902-1.399,2.392
			C269.624,238.159,269.981,237.298,270.928,236.782z"/>
		<path fill-rule="evenodd" clip-rule="evenodd" fill="#121036" d="M260.343,228.341c-0.203-0.583-0.406-1.164-0.61-1.747
			C259.937,227.177,260.14,227.758,260.343,228.341z"/>
		<path fill-rule="evenodd" clip-rule="evenodd" fill="#121036" d="M268.626,241.094c-0.025,0.895-0.634,1.243-1.379,1.46
			C267.706,242.068,268.167,241.582,268.626,241.094z"/>
		<path fill-rule="evenodd" clip-rule="evenodd" fill="#17124A" d="M218.415,217.5c17.029,0.291,25.051,13.972,17.08,27.934
			c-3.252,5.697-15.728,10.242-21.429,7.889c-1.335-0.551-1.478-1.541-1.476-2.664c0.016-10.132-0.019-20.266,0.117-30.397
			C212.779,214.866,217.272,219.128,218.415,217.5z"/>
	</g>
</g>
</svg>
