<?xml version="1.0" encoding="utf-8"?>
<!-- Generator: Adobe Illustrator 16.0.0, SVG Export Plug-In . SVG Version: 6.00 Build 0)  -->
<!DOCTYPE svg PUBLIC "-//W3C//DTD SVG 1.1//EN" "http://www.w3.org/Graphics/SVG/1.1/DTD/svg11.dtd">
<svg version="1.1" id="Layer_1" xmlns="http://www.w3.org/2000/svg" xmlns:xlink="http://www.w3.org/1999/xlink" x="0px" y="0px"
	 width="512px" height="512px" viewBox="0 0 512 512" enable-background="new 0 0 512 512" xml:space="preserve">
<g>
	<path fill-rule="evenodd" clip-rule="evenodd" fill="#FEFEFE" d="M243.073,112.141c68.058,0,136.114,0.001,204.175-0.018
		c0.717,0,0.88,0.161,0.88,0.881c-0.018,95.416-0.018,190.832,0,286.248c0,0.718-0.161,0.881-0.88,0.881
		c-116.375-0.018-232.749-0.018-349.122-0.018c0.007-0.163,0.013-0.324,0.02-0.485c6.769,0.708,13.468,0.354,20.067-1.372
		c11.987-3.137,22.085-9.401,30.505-18.449c10.907-11.717,16.014-25.771,16.752-41.58c0.178-3.807-0.032-7.607-0.54-11.385
		c-0.667-4.967-1.822-9.801-4.081-14.307c-0.313-0.623-0.162-0.84,0.363-1.146c6.619-3.877,13.224-7.783,19.979-11.423
		c0.228-0.122,0.452-0.375,0.833-0.169c-0.106,0.33-0.206,0.658-0.317,0.983c-2.92,8.569-4.18,17.438-4.613,26.432
		c-0.238,4.938,0.501,9.815,1.674,14.618c1.441,5.904,3.5,11.556,6.927,16.633c2.368,3.507,5.328,6.056,9.8,6.443
		c4.337,0.373,8.186-0.488,11.332-3.693c2.616-2.664,4.394-5.879,6.095-9.141c3.654-7.006,6.844-14.226,9.848-21.527
		c0.114-0.275,0.11-0.678,0.628-0.852c-0.233,1.838-0.569,3.57-0.65,5.312c-0.18,3.829-0.341,7.665,0.166,11.489
		c0.378,2.866,0.976,5.67,2.363,8.239c1.735,3.218,4.417,5.032,8.102,5.032c2.021-0.004,3.841-0.884,5.465-2.079
		c4.226-3.104,7.349-7.142,9.914-11.672c4.066-7.178,7.964-14.444,11.773-21.761c7.046-13.533,13.239-27.458,19.026-41.566
		c0.866-2.113,1.725-4.227,2.59-6.346c0.324,0.137,0.245,0.362,0.279,0.535c1.281,6.489,2.725,12.939,5.211,19.098
		c1.75,4.326,3.995,8.432,5.98,12.654c0.207,0.445,0.393,0.794,0.007,1.297c-1.28,1.677-2.472,3.417-3.738,5.104
		c-5.098,6.779-10.822,13.039-16.171,19.613c-2.361,2.9-4.858,5.707-6.791,8.926c-1.009,1.674-1.744,3.518-1.258,5.543
		c0.635,2.64,2.471,4.122,5.018,4.725c2.959,0.699,5.963,0.561,8.951,0.206c8.511-1.007,16.316-3.987,23.313-8.878
		c9.971-6.967,13.846-16.609,11.959-28.592c-0.65-4.127-2.012-8.045-3.633-11.878c-0.254-0.604-0.221-1.032,0.158-1.575
		c8.324-11.925,15.531-24.511,22.059-37.496c0.13-0.26,0.152-0.626,0.535-0.717c0.084,0.424,0.158,0.832,0.24,1.238
		c1.18,5.891,2.547,11.737,4.641,17.379c1.451,3.9,3.422,7.57,5.284,11.281c0.264,0.523,0.243,0.824-0.235,1.201
		c-1.558,1.227-3.027,2.56-4.452,3.939c-5.733,5.563-10.737,11.691-14.157,18.963c-2.182,4.641-3.573,9.492-3.188,14.72
		c0.385,5.226,5.178,9.022,10.365,8.235c2.746-0.416,5.275-1.463,7.864-2.376c8.181-2.88,15.112-7.589,20.736-14.169
		c4.03-4.715,6.317-10.123,5.942-16.44c-0.258-4.306-1.285-8.456-2.822-12.475c-0.324-0.845-0.215-1.187,0.664-1.53
		c8.273-3.229,16.885-4.528,25.711-4.496c4.914,0.02,9.815,0.428,14.672,1.271c6.598,1.146,12.928,3.061,18.727,6.49
		c6.699,3.967,11.825,9.32,14.509,16.76c2.243,6.227,1.853,12.182-1.981,17.73c-2.051,2.968-4.736,5.265-7.773,7.178
		c-0.729,0.46-1.475,0.898-2.08,1.532c-0.487,0.515-0.481,1.081-0.229,1.688c0.237,0.563,0.674,0.831,1.277,0.839
		c0.608,0.006,1.212,0.018,1.813-0.113c1.836-0.404,3.492-1.229,5.086-2.185c6.4-3.825,10.924-9.116,12.59-16.519
		c1.396-6.21,0.625-12.289-1.678-18.148c-3.863-9.84-10.852-16.91-19.971-21.976c-9.237-5.132-19.275-7.107-29.74-7.283
		c-1.727-0.03-3.45,0.05-5.176,0.134c-4.673,0.223-9.278,0.879-13.838,1.905c-5.631,1.271-11.038,3.192-16.259,5.648
		c-0.423,0.2-0.769,0.413-1.077-0.206c-2.064-4.113-4.242-8.166-6.036-12.414c-1.239-2.931-1.563-6.042-2.021-9.133
		c-0.695-4.695-0.625-9.36,0.421-14.002c0.943-4.186,2.386-8.216,3.749-12.272c0.396-1.187,0.137-2.114-0.729-2.955
		c-1.386-1.347-3.148-1.777-4.969-2.019c-3.197-0.426-6.387-0.163-9.56,0.232c-2.343,0.293-4.681,0.689-6.81,1.829
		c-0.777,0.416-1.289,0.988-1.57,1.832c-0.709,2.122-1.353,4.261-1.959,6.414c-0.75,2.671-1.128,5.437-2.182,8.033
		c-2.25,5.548-4.994,10.856-7.803,16.132c-4.461,8.386-9.207,16.606-14.121,24.734c-0.303,0.502-0.443,0.602-0.788,0.008
		c-3.486-6.051-5.508-12.561-5.95-19.52c-0.238-3.736-0.026-7.473,0.832-11.15c0.964-4.113,2.305-8.109,3.701-12.084
		c0.492-1.403,0.102-2.426-0.93-3.326c-0.836-0.73-1.834-1.156-2.898-1.428c-3.25-0.83-6.539-0.582-9.82-0.303
		c-2.261,0.192-4.487,0.598-6.672,1.258c-2.016,0.611-3.24,1.757-3.668,3.921c-1.314,6.618-3.833,12.829-6.578,18.966
		c-5.416,12.107-10.732,24.254-16.143,36.36c-3.9,8.724-7.756,17.47-12.189,25.944c-1.08,2.063-2.045,4.199-3.491,6.055
		c-0.192,0.246-0.387,0.591-0.748,0.51c-0.384-0.086-0.337-0.49-0.386-0.795c-0.475-2.967-0.33-5.93,0.132-8.874
		c0.878-5.622,2.239-11.142,3.653-16.644c1.938-7.544,3.966-15.066,5.918-22.607c0.736-2.842-0.003-4.779-2.323-6.189
		c-1.604-0.978-3.351-1.553-5.267-1.539c-1.231,0.01-2.326,0.381-3.325,1.064c-0.601,0.41-1.173,0.863-1.853,1.367
		c0.281-1.955,0.486-3.811,0.644-5.679c0.256-3.023,0.209-5.997-0.451-8.946c-0.958-4.273-2.969-7.759-7.379-9.307
		c-2.494-0.878-5.075-0.75-7.623-0.42c-2.517,0.326-4.893,1.225-7.171,2.332c-9.407,4.57-16.948,11.354-23.203,19.646
		c-0.352,0.469-0.717,0.861-1.246,1.152c-11.979,6.54-23.95,13.1-35.924,19.647c-1.563,0.853-1.573,0.839-2.813-0.457
		c-4.763-4.985-10.043-9.386-15.427-13.67c-7.932-6.311-16.183-12.222-23.768-18.964c-4.673-4.156-9.068-8.563-12.68-13.701
		c-5.089-7.239-7.811-15.159-7.134-24.117c0.457-6.038,2.024-11.754,4.667-17.185c3.378-6.942,8.014-12.991,13.312-18.554
		c7.961-8.361,17.05-15.349,26.641-21.714c7.597-5.041,15.485-9.592,23.534-13.869c9.463-5.028,19.155-9.548,29.233-13.214
		c11.286-4.107,22.819-7.225,34.735-8.87c4.874-0.673,9.766-1.107,14.681-1.231c3.863-0.098,7.713,0.093,11.571,0.478
		c2.834,0.283,5.642,0.645,8.424,1.217c5.513,1.135,10.79,2.899,15.587,5.931c4.523,2.86,7.76,6.68,9.141,11.961
		c0.937,3.579,1.035,7.197,0.603,10.826c-0.539,4.51-1.934,8.79-3.864,12.888c-5.111,10.838-12.847,19.563-22.005,27.11
		c-7.269,5.989-15.242,10.867-23.791,14.805c-9.359,4.311-19.108,7.374-29.243,9.246c-3.8,0.702-7.62,1.299-11.458,1.626
		c-2.981,0.254-5.991,0.316-9.006,0.126c-4.195-0.264-8.326-0.836-12.358-2.005c-5.146-1.491-9.943-3.688-13.998-7.289
		c-1.292-1.148-2.293-2.586-3.684-3.635c-1.002-0.756-2.093-0.579-2.778,0.469c-0.408,0.621-0.57,1.326-0.387,2.011
		c0.629,2.353,1.457,4.626,2.906,6.628c4.191,5.794,9.843,9.698,16.292,12.549c5.929,2.621,12.243,3.565,18.636,4.013
		c6.668,0.467,13.333,0.275,19.978-0.506c4.728-0.555,9.422-1.288,14.076-2.302c9.955-2.172,19.66-5.135,28.881-9.492
		c11.974-5.658,22.331-13.532,31.219-23.344c6.866-7.576,12.457-15.97,16.4-25.427c2.823-6.772,4.588-13.801,4.958-21.143
		c0.181-3.575-0.014-7.145-0.568-10.688c-1.18-7.567-4.287-14.202-9.541-19.814c-5.096-5.446-11.256-9.312-18.058-12.219
		c-11.039-4.717-22.668-6.614-34.58-7.117C243.07,112.258,243.066,112.2,243.073,112.141z"/>
	<path fill-rule="evenodd" clip-rule="evenodd" fill="#CC6799" d="M243.087,112.315c11.912,0.503,23.541,2.4,34.58,7.117
		c6.802,2.908,12.962,6.773,18.058,12.219c5.254,5.612,8.361,12.248,9.541,19.814c0.555,3.544,0.749,7.113,0.568,10.688
		c-0.37,7.342-2.135,14.37-4.958,21.143c-3.943,9.457-9.534,17.851-16.4,25.427c-8.888,9.813-19.245,17.687-31.219,23.344
		c-9.221,4.356-18.926,7.32-28.881,9.492c-4.653,1.014-9.348,1.747-14.076,2.302c-6.645,0.781-13.309,0.973-19.978,0.506
		c-6.393-0.447-12.708-1.392-18.636-4.013c-6.448-2.852-12.101-6.755-16.292-12.549c-1.449-2.002-2.276-4.276-2.906-6.628
		c-0.184-0.686-0.021-1.391,0.387-2.011c0.686-1.047,1.776-1.225,2.778-0.469c1.39,1.049,2.392,2.487,3.684,3.635
		c4.055,3.601,8.852,5.798,13.998,7.289c4.032,1.169,8.163,1.741,12.358,2.005c3.015,0.189,6.025,0.128,9.006-0.126
		c3.838-0.328,7.659-0.924,11.458-1.626c10.135-1.872,19.884-4.935,29.243-9.246c8.549-3.938,16.522-8.816,23.791-14.805
		c9.158-7.547,16.894-16.271,22.005-27.11c1.931-4.098,3.325-8.378,3.864-12.888c0.433-3.629,0.334-7.248-0.603-10.826
		c-1.381-5.281-4.617-9.101-9.141-11.961c-4.797-3.032-10.074-4.796-15.587-5.931c-2.782-0.573-5.59-0.935-8.424-1.217
		c-3.858-0.384-7.708-0.576-11.571-0.478c-4.915,0.124-9.807,0.558-14.681,1.231c-11.916,1.646-23.449,4.763-34.735,8.87
		c-10.078,3.666-19.77,8.186-29.233,13.214c-8.049,4.277-15.937,8.828-23.534,13.869c-9.591,6.365-18.68,13.353-26.641,21.714
		c-5.298,5.563-9.934,11.612-13.312,18.554c-2.643,5.431-4.209,11.146-4.667,17.185c-0.677,8.958,2.044,16.878,7.134,24.117
		c3.612,5.138,8.007,9.545,12.68,13.701c7.585,6.742,15.836,12.653,23.768,18.964c5.384,4.284,10.664,8.685,15.427,13.67
		c1.241,1.296,1.251,1.31,2.813,0.457c11.974-6.548,23.945-13.107,35.924-19.647c0.528-0.291,0.894-0.684,1.246-1.152
		c6.255-8.293,13.796-15.076,23.203-19.646c2.278-1.107,4.654-2.006,7.171-2.332c2.548-0.33,5.129-0.458,7.623,0.42
		c4.41,1.548,6.421,5.033,7.379,9.307c0.66,2.949,0.707,5.923,0.451,8.946c-0.157,1.868-0.362,3.724-0.644,5.679
		c0.68-0.504,1.252-0.957,1.853-1.367c0.999-0.684,2.093-1.055,3.325-1.064c1.916-0.014,3.662,0.562,5.267,1.539
		c2.32,1.41,3.06,3.348,2.323,6.189c-1.952,7.541-3.979,15.063-5.918,22.607c-1.414,5.502-2.775,11.021-3.653,16.644
		c-0.461,2.944-0.606,5.907-0.132,8.874c0.048,0.305,0.002,0.709,0.386,0.795c0.361,0.081,0.556-0.264,0.748-0.51
		c1.446-1.855,2.411-3.991,3.491-6.055c4.433-8.475,8.289-17.221,12.189-25.944c5.41-12.106,10.727-24.253,16.143-36.36
		c2.745-6.137,5.264-12.348,6.578-18.966c0.428-2.164,1.652-3.31,3.668-3.921c2.185-0.661,4.411-1.066,6.672-1.258
		c3.281-0.279,6.57-0.527,9.82,0.303c1.064,0.271,2.063,0.697,2.898,1.428c1.031,0.899,1.422,1.923,0.93,3.326
		c-1.396,3.976-2.737,7.971-3.701,12.084c-0.858,3.678-1.07,7.414-0.832,11.15c0.442,6.959,2.464,13.469,5.95,19.52
		c0.345,0.594,0.485,0.494,0.788-0.008c4.914-8.128,9.66-16.349,14.121-24.734c2.809-5.275,5.553-10.584,7.803-16.132
		c1.054-2.597,1.432-5.362,2.182-8.033c0.606-2.153,1.25-4.292,1.959-6.414c0.281-0.844,0.793-1.417,1.57-1.832
		c2.129-1.14,4.467-1.536,6.81-1.829c3.173-0.396,6.362-0.658,9.56-0.232c1.82,0.242,3.583,0.672,4.969,2.019
		c0.865,0.841,1.125,1.768,0.729,2.955c-1.363,4.056-2.806,8.086-3.749,12.272c-1.046,4.642-1.116,9.307-0.421,14.002
		c0.457,3.091,0.781,6.202,2.021,9.133c1.794,4.248,3.972,8.301,6.036,12.414c0.309,0.619,0.654,0.406,1.077,0.206
		c5.221-2.456,10.628-4.378,16.259-5.648c4.56-1.026,9.165-1.683,13.838-1.905c1.726-0.084,3.449-0.164,5.176-0.134
		c10.465,0.176,20.503,2.151,29.74,7.283c9.119,5.065,16.107,12.136,19.971,21.976c2.303,5.859,3.074,11.938,1.678,18.148
		c-1.666,7.402-6.189,12.693-12.59,16.519c-1.594,0.955-3.25,1.78-5.086,2.185c-0.602,0.131-1.205,0.119-1.813,0.113
		c-0.604-0.008-1.04-0.276-1.277-0.839c-0.252-0.606-0.258-1.173,0.229-1.688c0.605-0.634,1.352-1.072,2.08-1.532
		c3.037-1.913,5.723-4.21,7.773-7.178c3.834-5.549,4.225-11.504,1.981-17.73c-2.684-7.439-7.81-12.793-14.509-16.76
		c-5.799-3.43-12.129-5.345-18.727-6.49c-4.856-0.844-9.758-1.252-14.672-1.271c-8.826-0.032-17.438,1.268-25.711,4.496
		c-0.879,0.344-0.988,0.686-0.664,1.53c1.537,4.019,2.564,8.169,2.822,12.475c0.375,6.317-1.912,11.726-5.942,16.44
		c-5.624,6.58-12.556,11.289-20.736,14.169c-2.589,0.913-5.118,1.96-7.864,2.376c-5.188,0.787-9.98-3.01-10.365-8.235
		c-0.386-5.228,1.006-10.079,3.188-14.72c3.42-7.271,8.424-13.399,14.157-18.963c1.425-1.38,2.895-2.713,4.452-3.939
		c0.479-0.377,0.499-0.678,0.235-1.201c-1.862-3.711-3.833-7.381-5.284-11.281c-2.094-5.642-3.461-11.488-4.641-17.379
		c-0.082-0.406-0.156-0.814-0.24-1.238c-0.383,0.091-0.405,0.457-0.535,0.717c-6.527,12.985-13.734,25.571-22.059,37.496
		c-0.379,0.543-0.412,0.971-0.158,1.575c1.621,3.833,2.982,7.751,3.633,11.878c1.887,11.982-1.988,21.625-11.959,28.592
		c-6.996,4.891-14.802,7.871-23.313,8.878c-2.988,0.354-5.992,0.493-8.951-0.206c-2.547-0.603-4.383-2.085-5.018-4.725
		c-0.486-2.025,0.249-3.869,1.258-5.543c1.933-3.219,4.43-6.025,6.791-8.926c5.349-6.574,11.073-12.834,16.171-19.613
		c1.267-1.687,2.458-3.427,3.738-5.104c0.386-0.503,0.2-0.852-0.007-1.297c-1.985-4.223-4.23-8.328-5.98-12.654
		c-2.486-6.158-3.93-12.608-5.211-19.098c-0.034-0.173,0.045-0.398-0.279-0.535c-0.865,2.119-1.724,4.232-2.59,6.346
		c-5.787,14.108-11.98,28.033-19.026,41.566c-3.809,7.316-7.707,14.583-11.773,21.761c-2.565,4.53-5.688,8.567-9.914,11.672
		c-1.624,1.195-3.443,2.075-5.465,2.079c-3.685,0-6.366-1.814-8.102-5.032c-1.387-2.569-1.984-5.373-2.363-8.239
		c-0.506-3.824-0.345-7.66-0.166-11.489c0.081-1.741,0.417-3.474,0.65-5.312c-0.519,0.174-0.515,0.576-0.628,0.852
		c-3.004,7.302-6.194,14.521-9.848,21.527c-1.701,3.262-3.479,6.477-6.095,9.141c-3.146,3.205-6.995,4.066-11.332,3.693
		c-4.472-0.388-7.432-2.937-9.8-6.443c-3.427-5.077-5.485-10.729-6.927-16.633c-1.173-4.803-1.912-9.68-1.674-14.618
		c0.434-8.993,1.693-17.862,4.613-26.432c0.111-0.325,0.211-0.653,0.317-0.983c-0.381-0.206-0.605,0.047-0.833,0.169
		c-6.755,3.64-13.359,7.546-19.979,11.423c-0.524,0.307-0.676,0.523-0.363,1.146c2.258,4.506,3.414,9.34,4.081,14.307
		c0.508,3.777,0.718,7.578,0.54,11.385c-0.738,15.809-5.845,29.863-16.752,41.58c-8.42,9.048-18.519,15.313-30.505,18.449
		c-6.599,1.727-13.299,2.08-20.067,1.375c-1.321-0.227-2.639-0.454-3.96-0.677c-3.563-0.606-6.824-1.787-9.459-4.437
		c-5.02-5.05-7.352-11.302-8.055-18.201c-0.336-3.301-0.02-6.641,0.614-9.926c1.692-8.758,5.764-16.252,11.908-22.68
		c4.569-4.777,9.592-9.025,14.911-12.934c10.104-7.424,20.89-13.713,32.059-19.369c1.09-0.555,2.15-1.168,3.315-1.803
		c-0.485-0.418-0.84-0.736-1.208-1.041c-5.328-4.409-11.031-8.309-16.717-12.229c-9.897-6.828-19.829-13.611-29.01-21.406
		c-6.601-5.605-12.765-11.635-17.908-18.64c-4.002-5.451-7.191-11.32-9.129-17.833c-0.58-1.955-0.911-3.962-1.362-5.945
		c0-1.791,0-3.584,0-5.375c0.228-1.408,0.42-2.821,0.688-4.221c1.589-8.303,5.008-15.871,9.376-23.037
		c7.21-11.833,16.518-21.857,26.932-30.89c12.639-10.962,26.559-20.062,41.254-27.992c11.596-6.257,23.561-11.717,35.843-16.491
		c10.732-4.169,21.652-7.667,33.003-9.753c7.227-1.33,14.505-2.1,21.836-2.436C236.414,112.317,239.751,112.317,243.087,112.315z
		 M150.557,331.469c0.027-4.05-0.529-8.027-1.438-11.961c-0.142-0.619-0.174-1.54-0.567-1.758c-0.552-0.307-1.123,0.473-1.674,0.793
		c-10.974,6.359-21.517,13.329-31.11,21.673c-4.478,3.892-8.396,8.241-11.231,13.485c-2.68,4.957-4.595,10.157-4.268,15.896
		c0.306,5.402,2.806,8.67,8.916,8.867c4.456,0.145,8.595-1.066,12.593-2.854c6.683-2.992,12.29-7.418,16.991-13.002
		C146.342,353.613,150.523,343.322,150.557,331.469z M196.607,325.348c-0.027,3.173,0.187,6.33,0.797,9.442
		c0.407,2.067,0.894,4.132,2.199,5.87c0.988,1.318,2.097,1.442,3.363,0.398c0.594-0.491,1.106-1.061,1.569-1.678
		c1.8-2.393,3.085-5.077,4.343-7.77c2.842-6.079,5.121-12.393,7.583-18.63c3.823-9.687,7.36-19.47,9.989-29.56
		c0.7-2.685,1.42-5.377,1.304-8.197c-0.059-1.422-0.794-2.141-2.219-2.236c-1.277-0.085-2.471,0.215-3.629,0.718
		c-3.667,1.588-6.595,4.146-9.123,7.157c-2.847,3.391-5.03,7.233-7.166,11.098C199.875,302.353,196.782,313.455,196.607,325.348z
		 M351.164,308.99c0.111-1.83-0.371-3.746-0.889-5.664c-0.182-0.678-0.426-0.581-0.813-0.211c-0.183,0.178-0.375,0.348-0.563,0.521
		c-6.031,5.553-10.272,12.262-12.897,20.009c-0.472,1.39-0.978,2.776-0.995,4.271c-0.02,1.715,0.321,1.959,1.852,1.325
		c0.148-0.06,0.297-0.12,0.444-0.182C346.301,325.352,351.096,318.473,351.164,308.99z M299.199,319.859
		c-5.619,7.598-11.934,14.559-18.328,21.449c-0.25,0.268-0.649,0.568-0.443,0.973c0.207,0.404,0.69,0.268,1.054,0.22
		c0.405-0.056,0.804-0.193,1.195-0.328c1.189-0.41,2.226-1.11,3.257-1.811c4.238-2.889,8.063-6.199,10.727-10.664
		C298.462,326.682,299.434,323.432,299.199,319.859z M223.398,329.406c0.019-0.06,0.042-0.111,0.049-0.164
		c0.004-0.02-0.025-0.043-0.04-0.068c-0.026,0.033-0.073,0.067-0.073,0.102C223.334,329.316,223.372,329.357,223.398,329.406z"/>
	<path fill-rule="evenodd" clip-rule="evenodd" fill="#FEFEFE" d="M233.078,112.318c-7.331,0.336-14.609,1.106-21.836,2.436
		c-11.351,2.086-22.271,5.584-33.003,9.753c-12.283,4.774-24.248,10.234-35.843,16.491c-14.696,7.931-28.616,17.03-41.254,27.992
		c-10.414,9.032-19.722,19.057-26.932,30.89c-4.368,7.166-7.787,14.734-9.376,23.037c-0.268,1.399-0.461,2.813-0.688,4.221
		c0-38.045,0.002-76.089-0.018-114.134c-0.001-0.718,0.163-0.882,0.881-0.881c56.027,0.02,112.054,0.018,168.082,0.018
		C233.102,112.201,233.098,112.26,233.078,112.318z"/>
	<path fill-rule="evenodd" clip-rule="evenodd" fill="#FEFEFE" d="M64.146,232.514c0.451,1.983,0.782,3.99,1.362,5.945
		c1.938,6.513,5.127,12.382,9.129,17.833c5.143,7.005,11.307,13.034,17.908,18.64c9.181,7.795,19.113,14.578,29.01,21.406
		c5.686,3.92,11.389,7.819,16.717,12.229c0.368,0.305,0.723,0.623,1.208,1.041c-1.165,0.635-2.225,1.248-3.315,1.803
		c-11.169,5.656-21.956,11.945-32.059,19.369c-5.319,3.908-10.342,8.156-14.911,12.934c-6.145,6.428-10.216,13.922-11.908,22.68
		c-0.634,3.285-0.95,6.625-0.614,9.926c0.703,6.899,3.035,13.151,8.055,18.201c2.635,2.649,5.896,3.83,9.459,4.437
		c1.321,0.223,2.639,0.45,3.96,0.677c-0.007,0.158-0.013,0.319-0.02,0.482c-11.039,0-22.077-0.009-33.117,0.018
		c-0.72,0.003-0.882-0.161-0.881-0.881C64.147,343.673,64.146,288.094,64.146,232.514z"/>
	<path fill-rule="evenodd" clip-rule="evenodd" fill="#E5B3CC" d="M233.078,112.318c0.02-0.058,0.023-0.117,0.012-0.177
		c3.328,0,6.656,0,9.983,0c-0.007,0.059-0.003,0.117,0.014,0.174C239.751,112.317,236.414,112.317,233.078,112.318z"/>
	<path fill-rule="evenodd" clip-rule="evenodd" fill="#FEFEFE" d="M150.557,331.469c-0.034,11.854-4.215,22.145-11.79,31.141
		c-4.701,5.584-10.309,10.01-16.991,13.002c-3.998,1.787-8.137,2.998-12.593,2.854c-6.109-0.197-8.609-3.465-8.916-8.867
		c-0.327-5.739,1.588-10.939,4.268-15.896c2.836-5.244,6.753-9.594,11.231-13.485c9.593-8.344,20.137-15.313,31.11-21.673
		c0.552-0.32,1.122-1.1,1.674-0.793c0.393,0.218,0.425,1.139,0.567,1.758C150.028,323.441,150.584,327.419,150.557,331.469z"/>
	<path fill-rule="evenodd" clip-rule="evenodd" fill="#FEFDFE" d="M196.607,325.348c0.175-11.893,3.268-22.995,9.011-33.387
		c2.136-3.864,4.319-7.707,7.166-11.098c2.528-3.012,5.456-5.569,9.123-7.157c1.158-0.503,2.352-0.803,3.629-0.718
		c1.425,0.096,2.16,0.814,2.219,2.236c0.116,2.82-0.604,5.513-1.304,8.197c-2.629,10.09-6.167,19.873-9.989,29.56
		c-2.462,6.237-4.741,12.551-7.583,18.63c-1.258,2.692-2.542,5.377-4.343,7.77c-0.463,0.617-0.976,1.187-1.569,1.678
		c-1.267,1.044-2.375,0.92-3.363-0.398c-1.306-1.738-1.792-3.803-2.199-5.87C196.794,331.678,196.581,328.521,196.607,325.348z"/>
	<path fill-rule="evenodd" clip-rule="evenodd" fill="#FEFDFD" d="M351.164,308.99c-0.068,9.482-4.863,16.361-13.86,20.069
		c-0.147,0.062-0.296,0.122-0.444,0.182c-1.53,0.634-1.871,0.39-1.852-1.325c0.018-1.494,0.523-2.881,0.995-4.271
		c2.625-7.747,6.866-14.456,12.897-20.009c0.188-0.174,0.38-0.344,0.563-0.521c0.387-0.37,0.631-0.467,0.813,0.211
		C350.793,305.244,351.275,307.16,351.164,308.99z"/>
	<path fill-rule="evenodd" clip-rule="evenodd" fill="#FDFCFD" d="M299.199,319.859c0.234,3.572-0.737,6.822-2.539,9.839
		c-2.664,4.465-6.488,7.775-10.727,10.664c-1.031,0.7-2.067,1.4-3.257,1.811c-0.392,0.135-0.79,0.272-1.195,0.328
		c-0.363,0.048-0.847,0.185-1.054-0.22c-0.206-0.404,0.193-0.705,0.443-0.973C287.266,334.418,293.58,327.457,299.199,319.859z"/>
	<path fill-rule="evenodd" clip-rule="evenodd" fill="#FEFEFE" d="M223.398,329.406c-0.026-0.049-0.064-0.09-0.064-0.131
		c0-0.034,0.047-0.068,0.073-0.102c0.015,0.025,0.044,0.049,0.04,0.068C223.44,329.295,223.417,329.347,223.398,329.406z"/>
</g>
</svg>
