<?xml version="1.0" encoding="utf-8"?>
<!-- Generator: Adobe Illustrator 16.0.0, SVG Export Plug-In . SVG Version: 6.00 Build 0)  -->
<!DOCTYPE svg PUBLIC "-//W3C//DTD SVG 1.1//EN" "http://www.w3.org/Graphics/SVG/1.1/DTD/svg11.dtd">
<svg version="1.1" id="Layer_1" xmlns="http://www.w3.org/2000/svg" xmlns:xlink="http://www.w3.org/1999/xlink" x="0px" y="0px"
	 width="512px" height="512px" viewBox="0 0 512 512" enable-background="new 0 0 512 512" xml:space="preserve">
<g>
	<path fill-rule="evenodd" clip-rule="evenodd" fill="#343434" d="M357.055,209.96c0.198,26.868,0.396,53.735,0.594,80.603
		c-0.017,2.051-0.031,4.1-0.048,6.15c0.179,4.522-2.442,10.602,4.876,11.69c14.196,2.109,15.329,12.299,10.143,23.58
		c-12.576,27.353-34.967,39.537-63.7,39.366c-44.387-0.263-88.761-2.263-133.147-3.271c-19.208-0.433-36.941-3.908-49.597-20.174
		c-1.558-2.588-3.115-5.176-4.672-7.764c-3.817-7.868-3.149-16.315-3.152-24.66c-0.017-46.531,0.799-93.08-0.299-139.584
		c-0.702-29.708,19.611-48.324,48.528-47.561c40.824,1.078,81.651,2.278,122.441,4.175c8.389,0.391,16.748,1.076,25.183,1.073
		c7.178-0.003,13.811,2.721,19.961,6.439c-1.792,0.958-2.593,3.407-5.056,3.355c-10.456-2.847-21.088-4.519-31.938-4.496
		c-44.437,0.097-88.743-4.12-133.21-3.718c-22.132,0.202-38.75,14.457-39.435,36.702c-0.39,12.65,0.021,25.326,0.071,37.989
		c0.08,17.516,0.16,35.03,0.24,52.545c-0.076,8.959-0.55,17.941-0.063,26.87c0.256,4.685-0.514,11.871,3.03,13.496
		c5,2.295,6.955,6.313,10.171,9.638c3.986,13.097,12.624,21.728,25.36,26.427c1.023,1.477,2.043,1.573,3.06-0.004
		c2.03,0.372,4.06,0.743,6.089,1.112c1.35,2.253,2.941,2.375,4.755,0.541c2.612-0.02,5.225-0.04,7.838-0.06
		c2.919,1.887,5.682,2.639,7.83-1.078c23.167-5.378,32.763-21.42,26.38-44.089c0.493-0.55,0.985-1.1,1.477-1.65
		c3.121,0.349,0.747,7.698,6.302,4.945c2.937,1.801-0.196,6.121,3.208,7.729c1.458,6.688,1.973,13.62,5.14,19.867
		c-3.518,0.565-4.199-2.3-5.357-4.503c-2.84-5.396-2.885-11.349-3.292-17.221c-0.496-0.475-1.154-1.442-1.461-1.34
		c-1.205,0.394-0.604,1.06,0.035,1.601c0.568,11.144-2.559,20.702-11.308,28.231c-1.688,1.451-5.194,3.427-3.644,6.179
		c3.976,7.063,3.054,15.623,7.459,22.403c0.362,0.56,1.957,0.492,2.962,0.434c8.792-0.521,17.456,1.261,26.181,1.478
		c16.527,0.407,33.069,0.234,49.606,0.302c5.549,1.402,11.211,1.442,16.868,1.221c20.818-0.82,36.401-14.095,37.134-34.729
		c1.06-29.816,0.076-59.702-0.037-89.56c0.243-9.708,0.484-19.415,0.727-29.123C353.21,210.998,355.131,210.479,357.055,209.96z"/>
	<path fill-rule="evenodd" clip-rule="evenodd" fill="#E0E1E0" d="M357.601,296.713c0.017-2.051,0.031-4.1,0.048-6.15
		c10.865-0.046,21.667,1.107,31.14,6.624c8.543,4.976,11.852,13.082,8.355,21.747c-7.519,18.624-15.282,37.244-32.791,49.465
		c-11.048,7.712-23.227,12.031-36.395,13.779c-19.502,2.59-39.21,2.57-58.689,1.283c-24.772-1.64-49.598,0.466-74.207-1.64
		c-17.207-1.474-34.433,0.06-51.606-2.517c-24.142-3.621-34.142-14.402-21.953-39.164c1.557,2.588,3.114,5.176,4.672,7.764
		c-1.878,16.018,2.729,20.22,17.656,23.248c8.271,1.679,16.746,2.811,25.171,3.158c21.882,0.897,43.779,0.261,65.704,1.336
		c27.828,1.368,55.772,0.6,83.663,0.345c38.315-0.348,56.243-18.342,69.127-52.946c4.33-11.63-0.07-18.193-11.819-22.628
		C369.765,298.185,363.381,299.075,357.601,296.713z"/>
	<path fill-rule="evenodd" clip-rule="evenodd" fill="#343434" d="M344.935,147.734c5.589-4.461,11.271-8.811,16.722-13.436
		c2.323-1.97,3.596-2.139,5.045,0.82c4.166,8.512,8.337,17.031,12.877,25.343c1.655,3.032,0.794,4.546-1.51,6.387
		c-5.611,4.488-11.123,9.104-16.612,13.745c-1.904,1.609-4.418,2.825-4.557,5.845c-2.619,0.027-4.517,1.246-5.774,3.511
		c-2.478,0.905-4.436,2.5-6.044,4.557c-15.502,12.912-31.007,25.823-46.509,38.734c-6.764,5.457-13.81,10.609-20.206,16.468
		c-5.085,4.66-7.883,4.582-11.54-1.733c-3.51-6.059-7.7-11.968-13.497-16.334c-7.878-10.452-15.654-20.981-23.688-31.312
		c-2.723-3.501-3.845-5.729,0.29-9.488c4.628-4.207,8.188-9.684,11.778-14.907c2.656-3.866,4.379-3.844,7.358-0.246
		c7.571,9.145,15.564,17.936,23.254,26.982c2.207,2.596,3.67,4.092,7.109,1.113c17.549-15.194,35.34-30.103,53.048-45.114
		c2.638-2.304,6.521-3.463,7.058-7.695C342.135,151.229,343.819,149.955,344.935,147.734z M276.821,211.443
		c-1.085-0.001-2.171-0.001-3.255-0.003c-5.646-9.486-13.484-17.205-20.625-25.475c-7.245-8.389-7.341-8.305-13.837,0.507
		c-7.253,7.023-7.41,7.491-0.553,13.841c8.699,8.058,18.133,15.376,26.348,23.887c5.791,6.002,10.79,8.708,17.707,2.481
		c3.784,5.103,7.662,7.753,13.776,2.61c21.669-18.221,43.804-35.894,65.285-54.328c15.838-13.593,15.436-13.934,4.278-31.778
		c-2.036-3.257-3.695-3.757-6.61-1.221c-8.325,7.243-16.764,14.358-25.157,21.524c-6.38,4.965-13.352,9.201-18.799,15.309
		C301.926,188.971,289.357,200.188,276.821,211.443z"/>
	<path fill-rule="evenodd" clip-rule="evenodd" fill="#525252" d="M344.935,147.734c-1.115,2.22-2.8,3.494-5.398,3.241
		c-2.935-3.276-8.074-3.524-10.427-7.597c2.463,0.052,3.264-2.398,5.056-3.355C337.909,142.375,342.204,143.961,344.935,147.734z"/>
	<path fill-rule="evenodd" clip-rule="evenodd" fill="#525252" d="M357.055,209.96c-1.924,0.519-3.845,1.038-5.769,1.558
		c0.01-4.633,0.019-9.263,0.028-13.896c1.932-0.536,3.862-1.074,5.795-1.613C357.091,200.661,357.072,205.31,357.055,209.96z"/>
	<path fill-rule="evenodd" clip-rule="evenodd" fill="#7A7A7A" d="M357.109,196.01c-1.933,0.539-3.863,1.077-5.795,1.613
		c-0.064-2.558-0.128-5.115-0.189-7.673c1.258-2.265,3.155-3.484,5.774-3.511C357.694,189.614,357.552,192.809,357.109,196.01z"/>
	<path fill-rule="evenodd" clip-rule="evenodd" fill="#ABABAB" d="M351.125,189.95c0.062,2.558,0.125,5.115,0.189,7.673
		c-0.01,4.632-0.019,9.263-0.028,13.896c-0.242,9.708-0.483,19.414-0.724,29.124c-4.25-0.165-6.097,1.775-5.601,6.083
		c0.58,5.071,1.085,10.157,1.431,15.25c0.412,6.045-2.081,9.457-8.596,8.472c-11.465-1.735-22.907-1.797-34.365,0.006
		c-2.568,0.404-6.023-1.124-6.631,3.242c-1.807-0.798-3.259-0.663-3.938,1.497c-1.279-1.009-2.558-2.016-3.838-3.027
		c0.031-0.371,0.038-0.745,0.023-1.119c1.275-0.354,2.006-1.086,1.736-2.513c-4.453-4.139-9.572-6.864-15.723-7.397
		c-10.336-2.116-20.209-0.656-29.69,3.832c-0.745-3.735-3.925-4.31-6.819-5.272c-5.17-1.72-10.555-1.628-15.896-1.914
		c-2.173-5.167-4.607-10.074-8.177-14.577c-12.576-15.854-44.094-16.056-58.399-8.314c-8.819,4.773-14.921,12.449-16.199,23.02
		c-10.53,0.271-10.532,0.271-10.647-9.891c-0.098-8.692-0.029-17.39-0.349-26.073c-0.161-4.372,0.297-9.19-4.288-12.09
		c-0.05-12.664-0.461-25.339-0.071-37.989c0.685-22.245,17.303-36.5,39.435-36.702c44.468-0.401,88.774,3.815,133.21,3.718
		c10.85-0.023,21.481,1.649,31.938,4.496c2.353,4.073,7.492,4.321,10.427,7.597c-0.537,4.232-4.42,5.391-7.058,7.695
		c-7.494-8.468-17.497-12.468-28.196-12.188c-35.403,0.929-70.577-3.803-105.936-3.532c-8.741,0.066-17.5-0.223-26.276-0.876
		c-6.861-0.511-14.282,0.407-20.885,4.213c-18.774,10.819-28.041,33.711-21.819,54.45c0.659,2.197,1.904,2.772,3.881,2.909
		c7.178,0.493,14.352,1.489,21.527,1.474c11.838-0.021,23.691-0.979,35.475-1.761c17.139-1.14,30.827,4.287,43.604,15.268
		c5.797,4.98,10.528,12.434,19.477,13.014c5.797,4.366,9.987,10.275,13.497,16.334c3.657,6.315,6.455,6.394,11.54,1.733
		c6.396-5.859,13.442-11.011,20.206-16.468c2.896,2.26,5.313,0.36,7.779-0.922c8.898-4.632,17.675-9.521,26.706-13.879
		c12.216-5.893,14.707-10.494,12.023-23.933C346.689,192.45,348.647,190.855,351.125,189.95z"/>
	<path fill-rule="evenodd" clip-rule="evenodd" fill="#E0E1E0" d="M219.287,295.254c6.383,22.669-3.213,38.711-26.38,44.089
		c-2.673-0.103-5.325-0.044-7.83,1.078c-2.613,0.02-5.226,0.04-7.838,0.06c-1.484-1.072-3.068-1.26-4.755-0.541
		c-2.029-0.369-4.059-0.74-6.089-1.112c-1.021-1.297-2.042-1.173-3.06,0.004c-12.736-4.699-21.374-13.33-25.36-26.427
		c3.81-1.146,7.618-2.292,11.428-3.438c3.405,1.038,7.379-3.384,10.547,2.52c5.527,10.297,19.057,14.407,30.059,10.375
		c8.237-3.02,10.225-11.103,4.462-18.134c-0.467-1.102-1.332-1.058-2.275-0.785c-0.484-0.733-0.969-1.468-1.453-2.202
		c-10.235-4.518-21.312-6.516-31.603-11.042c-22.418-9.862-19.002-36.767-6.464-47.988c15.924-14.254,48.871-10.483,61.162,7.023
		c5.157,7.346,4.87,7.738-3.596,10.626c-5.947,2.029-11.054,3.31-14.788-3.739c-1.626-3.072-4.94-4.48-8.712-3.402
		c-1.014-0.207-2.029-0.415-3.044-0.623c-1.455-2.316-3.777-1.261-5.627-1.169c-5.56,0.278-11.624,0.237-13.178,7.456
		c-1.565,7.268,2.601,11.235,8.793,13.359c5.345,1.83,10.84,3.277,16.344,4.574C202.221,278.688,212.795,283.868,219.287,295.254z"
		/>
	<path fill-rule="evenodd" clip-rule="evenodd" fill="#7A7A7A" d="M296.801,273.694c0.607-4.366,4.063-2.838,6.631-3.242
		c11.458-1.803,22.9-1.741,34.365-0.006c6.515,0.985,9.008-2.427,8.596-8.472c-0.346-5.092-0.851-10.178-1.431-15.25
		c-0.496-4.308,1.351-6.248,5.601-6.083c0.11,29.856,1.094,59.742,0.034,89.558c-0.732,20.635-16.315,33.909-37.134,34.729
		c-5.657,0.222-11.319,0.182-16.866-1.223c0.034-1.28,0.395-2.657,0.051-3.825c-3.289-11.167-4.008-21.779,5.052-31.019
		c1.703-1.737,2.386-4.504,3.453-6.834c2.162-4.715-0.466-5.353-4.274-4.93c-3.449-0.078-6.898-0.156-10.348-0.236
		c-0.537-2.133-1.073-4.268-1.61-6.401c21.237,0.691,17.009,1.313,16.985-11.858C306.888,288.832,300.399,281.792,296.801,273.694z"
		/>
	<path fill-rule="evenodd" clip-rule="evenodd" fill="#E0E1E0" d="M290.53,316.863c3.449,0.08,6.898,0.158,10.348,0.236
		c0.295,10.172-6.997,15.696-13.348,21.797c-1.728,0.716-3.455,1.432-5.183,2.147c-0.555-0.13-0.908,0.08-1.059,0.628
		c-14.669,3.257-28.02,0.175-40.235-8.372c-0.302-0.301-0.604-0.604-0.907-0.905c-0.615-2.213-2.048-3.841-3.759-5.272
		c-0.325-0.326-0.649-0.651-0.975-0.977c-3.167-6.247-3.681-13.179-5.14-19.867c0.566-10.066,1.256-20.072,7.549-28.661
		c9.429-12.867,22.593-15.135,37.24-13.346c4.627,2.681,9.942,4.143,13.962,7.893c1.28,1.012,2.559,2.019,3.838,3.027
		c7.097,8.483,8.565,18.967,10.404,29.313c-1.55,3.093-4.407,1.978-6.805,1.987c-7.676,0.038-15.353-0.082-23.029-0.139
		c-3.686-1.615-7.62-0.973-11.438-1.149c-10.527-0.491-12.735,2.829-8.881,13.004c4.016,10.6,20.307,15.807,25.646,7.529
		C281.978,320.749,285.625,318.517,290.53,316.863z M282.168,290.184c-1.424-8.043-7.521-14.025-14.744-14.472
		c-6.841-0.422-12.588,4.927-14.844,13.04c-1.546,5.563,0.216,7.152,5.508,5.848c6.845,0.21,13.699,0.267,20.53,0.686
		C283.016,295.555,283.178,293.405,282.168,290.184z"/>
	<path fill-rule="evenodd" clip-rule="evenodd" fill="#ABABAB" d="M357.601,296.713c5.78,2.362,12.164,1.472,18.076,3.704
		c11.749,4.435,16.149,10.998,11.819,22.628c-12.884,34.604-30.812,52.599-69.127,52.946c-27.891,0.255-55.835,1.023-83.663-0.345
		c-21.925-1.075-43.822-0.438-65.704-1.336c-8.425-0.348-16.901-1.479-25.171-3.158c-14.927-3.028-19.534-7.23-17.656-23.248
		c12.655,16.266,30.388,19.741,49.597,20.174c44.386,1.009,88.761,3.009,133.147,3.271c28.733,0.171,51.124-12.014,63.7-39.366
		c5.187-11.281,4.054-21.471-10.143-23.58C355.158,307.314,357.779,301.235,357.601,296.713z"/>
	<path fill-rule="evenodd" clip-rule="evenodd" fill="#525252" d="M235.414,326.146c0.325,0.325,0.649,0.65,0.975,0.977
		c-0.261,2.838-0.283,5.504,3.759,5.272c0.302,0.301,0.605,0.604,0.908,0.907c-0.463,3.356,1.533,5.473,4.129,6.653
		c4.851,2.202,9.775,4.942,14.914,5.642c7.559,1.027,15.634,3.253,22.713-2.219c2.621-0.391,6.743,0.8,4.719-4.481
		c6.351-6.101,13.643-11.625,13.348-21.797c3.809-0.423,6.437,0.215,4.274,4.93c-1.067,2.33-1.75,5.097-3.453,6.834
		c-9.06,9.239-8.341,19.852-5.052,31.019c0.344,1.168-0.017,2.545-0.051,3.825c-16.539-0.065-33.081,0.107-49.608-0.3
		c-8.725-0.217-17.389-1.998-26.181-1.478c-1.006,0.059-2.6,0.126-2.962-0.434c-4.405-6.78-3.483-15.34-7.459-22.403
		c-1.55-2.752,1.957-4.728,3.644-6.179c8.749-7.529,11.875-17.088,11.308-28.233c0.477-0.08,0.952-0.165,1.426-0.259
		c0.407,5.872,0.453,11.824,3.292,17.221C231.215,323.846,231.896,326.711,235.414,326.146z"/>
	<path fill-rule="evenodd" clip-rule="evenodd" fill="#525252" d="M186.744,252.218c3.772-1.078,7.085,0.33,8.712,3.402
		c3.733,7.049,8.84,5.769,14.788,3.739c8.465-2.889,8.753-3.28,3.596-10.626c-12.291-17.506-45.238-21.277-61.162-7.023
		c-12.538,11.221-15.954,38.125,6.464,47.988c10.291,4.526,21.368,6.524,31.599,11.044c-0.41,0.52-0.819,1.037-1.227,1.552
		c0.895,0.217,1.79,0.432,2.684,0.648c0.943-0.272,1.808-0.316,2.275,0.786c0.004,5.061,2.759,10.777-4.385,13.818
		c-10.562,4.495-23.245,0.159-28.038-10.27c-1.153-2.51-2.056-3.983-5.012-3.011c-2.939,0.967-7.986-1.597-7.634,4.7
		c-3.81,1.146-7.618,2.293-11.428,3.438c-3.217-3.325-5.171-7.343-10.171-9.638c-3.543-1.625-2.774-8.812-3.03-13.496
		c-0.487-8.929-0.013-17.911,0.06-26.868c2.677,0.153,4.004,1.24,4.297,4.242c0.668,6.848,4.145,12.604,7.991,18.143
		c10.551,15.196,32.242,21.23,47.162,16.51c-10.225-1.559-20.139-4.428-29.135-9.419c-8.77-4.868-15.353-11.237-14.24-23.152
		c0.273-2.921,1.354-7.459-1.029-10.816c1.278-10.57,7.38-18.246,16.199-23.02c14.305-7.742,45.823-7.541,58.399,8.314
		c3.57,4.502,6.004,9.41,8.176,14.578c-6.707,5.21-15.224,5.465-22.772,8.358c-1.431,0.548-2.934,0.404-3.14-0.962
		C195.804,258.926,189.424,257.019,186.744,252.218z"/>
	<path fill-rule="evenodd" clip-rule="evenodd" fill="#7A7A7A" d="M186.744,252.218c2.681,4.801,9.061,6.708,10,12.96
		c0.206,1.366,1.709,1.51,3.14,0.962c7.549-2.894,16.066-3.148,22.772-8.358c5.342,0.285,10.727,0.193,15.897,1.913
		c2.895,0.963,6.075,1.537,6.823,5.266c-11.767,8.102-17.884,19.293-18.31,33.589c-5.556,2.753-3.182-4.597-6.302-4.945
		c0.302-2.833-1.334-4.693-2.945-6.81c-6.881-9.036-16.833-12.153-27.169-14.773c-5.711-1.446-11.459-2.934-16.928-5.075
		c-3.3-1.294-6.499-3.745-5.325-8.243c1.057-4.049,3.875-5.685,8.104-5.506c2.44,0.104,5.238,0.845,7.199-1.601
		C184.715,251.803,185.729,252.011,186.744,252.218z"/>
	<path fill-rule="evenodd" clip-rule="evenodd" fill="#7A7A7A" d="M139.881,257.909c2.383,3.357,1.302,7.896,1.029,10.816
		c-1.113,11.915,5.47,18.284,14.24,23.152c8.996,4.991,18.91,7.86,29.135,9.419c-14.92,4.721-36.61-1.313-47.162-16.51
		c-3.846-5.538-7.322-11.295-7.991-18.143c-0.293-3.002-1.621-4.089-4.297-4.242c-0.077-17.518-0.157-35.031-0.237-52.547
		c4.585,2.899,4.127,7.718,4.288,12.09c0.32,8.684,0.251,17.381,0.349,26.073C129.349,258.181,129.351,258.181,139.881,257.909z"/>
	<path fill-rule="evenodd" clip-rule="evenodd" fill="#525252" d="M183.7,251.595c-1.961,2.446-4.758,1.705-7.199,1.601
		c-4.229-0.178-7.048,1.458-8.104,5.506c-1.174,4.498,2.025,6.949,5.325,8.243c5.468,2.142,11.217,3.629,16.928,5.075
		c10.336,2.62,20.288,5.737,27.169,14.773c1.611,2.116,3.248,3.977,2.945,6.81c-0.492,0.551-0.984,1.101-1.477,1.65
		c-6.492-11.386-17.065-16.565-29.254-19.438c-5.504-1.297-11-2.744-16.344-4.574c-6.193-2.124-10.358-6.092-8.793-13.359
		c1.554-7.219,7.619-7.178,13.178-7.456C179.922,250.334,182.245,249.279,183.7,251.595z"/>
	<path fill-rule="evenodd" clip-rule="evenodd" fill="#525252" d="M227.066,298.549c0.426-14.296,6.543-25.487,18.31-33.589
		c9.478-4.481,19.351-5.941,29.687-3.825c0,1.045,0,2.093,0.001,3.137c-14.647-1.789-27.811,0.479-37.24,13.346
		c-6.293,8.589-6.983,18.595-7.549,28.661C226.87,304.67,230.003,300.35,227.066,298.549z"/>
	<path fill-rule="evenodd" clip-rule="evenodd" fill="#525252" d="M185.077,340.421c2.504-1.122,5.156-1.181,7.83-1.078
		C190.759,343.06,187.996,342.308,185.077,340.421z"/>
	<path fill-rule="evenodd" clip-rule="evenodd" fill="#525252" d="M172.484,339.939c1.687-0.719,3.271-0.531,4.755,0.541
		C175.426,342.314,173.834,342.192,172.484,339.939z"/>
	<path fill-rule="evenodd" clip-rule="evenodd" fill="#525252" d="M163.336,338.831c1.018-1.177,2.039-1.301,3.06-0.004
		C165.379,340.404,164.359,340.308,163.336,338.831z"/>
	<path fill-rule="evenodd" clip-rule="evenodd" fill="#7A7A7A" d="M226.764,304.422c-0.474,0.094-0.949,0.179-1.426,0.259
		c-0.639-0.539-1.24-1.205-0.035-1.599C225.61,302.979,226.268,303.947,226.764,304.422z"/>
	<path fill-rule="evenodd" clip-rule="evenodd" fill="#E0E1E0" d="M253.329,231.642c-8.949-0.58-13.679-8.033-19.477-13.014
		c-12.777-10.981-26.465-16.408-43.604-15.268c-11.783,0.782-23.637,1.74-35.475,1.761c-7.175,0.015-14.349-0.981-21.527-1.474
		c-1.977-0.136-3.222-0.711-3.881-2.909c-6.222-20.738,3.045-43.63,21.819-54.45c6.603-3.807,14.023-4.724,20.885-4.213
		c8.776,0.653,17.535,0.942,26.276,0.876c35.358-0.271,70.532,4.46,105.936,3.532c10.699-0.281,20.702,3.72,28.196,12.188
		c-17.708,15.011-35.499,29.919-53.048,45.114c-3.439,2.979-4.902,1.482-7.109-1.113c-7.689-9.046-15.683-17.837-23.254-26.982
		c-2.979-3.598-4.702-3.62-7.358,0.246c-3.591,5.223-7.15,10.7-11.778,14.907c-4.135,3.759-3.013,5.987-0.29,9.488
		C237.675,210.66,245.451,221.189,253.329,231.642z"/>
	<path fill-rule="evenodd" clip-rule="evenodd" fill="#525252" d="M334.178,163.49c8.394-7.166,16.832-14.282,25.157-21.524
		c2.915-2.536,4.574-2.036,6.61,1.221c11.157,17.844,11.56,18.185-4.278,31.778c-21.481,18.434-43.616,36.107-65.285,54.328
		c-6.114,5.143-9.992,2.492-13.776-2.608c16.404-12.711,32.755-25.49,49.23-38.107C339.968,182.349,341.04,172.212,334.178,163.49z"
		/>
	<path fill-rule="evenodd" clip-rule="evenodd" fill="#7A7A7A" d="M334.178,163.49c6.862,8.722,5.79,18.858-2.342,25.086
		c-16.476,12.618-32.826,25.396-49.23,38.107c-6.917,6.225-11.916,3.52-17.707-2.483c-8.214-8.511-17.648-15.829-26.348-23.887
		c-6.857-6.351-6.701-6.818,0.555-13.841c5.343,6.843,9.497,14.912,17.356,19.286c5.238,2.915,10.061,7.904,17.104,5.682
		c1.084,0.002,2.17,0.002,3.253,0.003c2.179,1.225,3.859,3.35,6.862,2.96c9.159-1.186,17.512-4.231,23.684-11.311
		c5.986-6.867,12.545-13.833,8.014-24.293C320.826,172.691,327.798,168.456,334.178,163.49z"/>
	<path fill-rule="evenodd" clip-rule="evenodd" fill="#ABABAB" d="M315.379,178.799c4.531,10.461-2.027,17.427-8.014,24.293
		c-6.172,7.079-14.524,10.125-23.684,11.311c-3.003,0.39-4.684-1.735-6.862-2.96C289.357,200.188,301.926,188.971,315.379,178.799z"
		/>
	<path fill-rule="evenodd" clip-rule="evenodd" fill="#E0E1E0" d="M345.081,194.507c2.684,13.438,0.192,18.04-12.023,23.933
		c-9.031,4.358-17.808,9.247-26.706,13.879c-2.467,1.282-4.883,3.183-7.779,0.922C314.074,220.33,329.579,207.419,345.081,194.507z"
		/>
	<path fill-rule="evenodd" clip-rule="evenodd" fill="#ABABAB" d="M273.566,211.44c-7.044,2.222-11.866-2.767-17.104-5.682
		c-7.86-4.374-12.014-12.442-17.356-19.286c6.495-8.812,6.591-8.896,13.835-0.507C260.082,194.235,267.921,201.955,273.566,211.44z"
		/>
	<path fill-rule="evenodd" clip-rule="evenodd" fill="#525252" d="M303.268,304.504c-1.839-10.346-3.308-20.829-10.404-29.313
		c0.679-2.16,2.131-2.295,3.938-1.497c3.599,8.098,10.087,15.138,9.106,24.907C305.028,300.568,304.147,302.537,303.268,304.504z"/>
	<path fill-rule="evenodd" clip-rule="evenodd" fill="#7A7A7A" d="M275.063,264.271c-0.001-1.044-0.001-2.092-0.001-3.137
		c6.15,0.533,11.27,3.259,15.723,7.401c-0.58,0.836-1.159,1.674-1.736,2.509c0.015,0.374,0.008,0.748-0.023,1.119
		C285.006,268.414,279.69,266.952,275.063,264.271z"/>
	<path fill-rule="evenodd" clip-rule="evenodd" fill="#525252" d="M289.049,271.045c0.577-0.835,1.156-1.673,1.736-2.509
		C291.055,269.959,290.324,270.69,289.049,271.045z"/>
	<path fill-rule="evenodd" clip-rule="evenodd" fill="#343434" d="M149.404,308.966c-0.353-6.297,4.695-3.733,7.634-4.7
		c2.957-0.973,3.859,0.501,5.012,3.011c4.792,10.429,17.476,14.765,28.038,10.27c7.144-3.041,4.39-8.758,4.385-13.818
		c5.763,7.03,3.775,15.113-4.462,18.133c-11.002,4.032-24.532-0.078-30.059-10.375C156.783,305.582,152.809,310.004,149.404,308.966
		z"/>
	<path fill-rule="evenodd" clip-rule="evenodd" fill="#343434" d="M192.197,302.941c-0.894-0.217-1.789-0.432-2.684-0.648
		c0.407-0.515,0.816-1.032,1.227-1.552C191.229,301.474,191.713,302.208,192.197,302.941z"/>
	<path fill-rule="evenodd" clip-rule="evenodd" fill="#525252" d="M290.53,316.863c-4.905,1.653-8.553,3.886-11.77,8.873
		c-5.34,8.277-21.631,3.07-25.646-7.529c-3.854-10.175-1.646-13.495,8.881-13.004c3.818,0.177,7.753-0.466,11.438,1.149
		c-2.51,2.863-6.465-0.038-9.445,2.369c8.443,1.736,16.905-1.209,24.932,1.74C289.457,312.596,289.993,314.73,290.53,316.863z"/>
	<path fill-rule="evenodd" clip-rule="evenodd" fill="#343434" d="M288.92,310.462c-8.026-2.949-16.488-0.004-24.932-1.74
		c2.98-2.407,6.936,0.494,9.445-2.369c7.677,0.057,15.354,0.177,23.029,0.139c2.397-0.01,5.255,1.105,6.805-1.987
		c0.88-1.967,1.761-3.936,2.64-5.902C305.929,311.774,310.157,311.153,288.92,310.462z"/>
	<path fill-rule="evenodd" clip-rule="evenodd" fill="#525252" d="M258.088,294.6c-5.292,1.305-7.055-0.284-5.508-5.848
		c2.256-8.113,8.003-13.462,14.844-13.04c7.223,0.446,13.32,6.429,14.743,14.472c-0.87,0.139-1.737,0.276-2.604,0.415
		c-0.963-2.023-1.772-4.142-2.92-6.054c-3.161-5.271-8.501-6.301-13.196-3.978c-4.066,2.015-9.139,5.419-5.354,11.837
		C258.092,293.136,258.09,293.868,258.088,294.6z"/>
	<path fill-rule="evenodd" clip-rule="evenodd" fill="#343434" d="M282.812,343.378c-7.079,5.472-15.154,3.246-22.713,2.219
		c-5.139-0.699-10.063-3.439-14.914-5.642c-2.596-1.181-4.592-3.297-4.129-6.653c12.214,8.545,25.565,11.627,40.234,8.37
		c0.52,0.581,1.036,1.16,1.554,1.741L282.812,343.378z"/>
	<path fill-rule="evenodd" clip-rule="evenodd" fill="#343434" d="M279.563,290.599c0.867-0.139,1.734-0.276,2.604-0.415
		c1.011,3.222,0.849,5.371-3.549,5.102c-6.831-0.419-13.686-0.476-20.53-0.686c0.002-0.731,0.004-1.464,0.004-2.195
		C265.206,291.3,272.631,293.877,279.563,290.599z"/>
	<path fill-rule="evenodd" clip-rule="evenodd" fill="#343434" d="M287.53,338.896c2.024,5.281-2.098,4.091-4.719,4.481l0.031,0.035
		c-0.166-0.788-0.33-1.579-0.495-2.369C284.075,340.328,285.803,339.612,287.53,338.896z"/>
	<path fill-rule="evenodd" clip-rule="evenodd" fill="#343434" d="M240.147,332.395c-4.042,0.231-4.02-2.435-3.759-5.272
		C238.099,328.554,239.532,330.182,240.147,332.395z"/>
	<path fill-rule="evenodd" clip-rule="evenodd" fill="#525252" d="M282.348,341.044c0.165,0.79,0.329,1.581,0.495,2.369
		c-0.518-0.581-1.034-1.16-1.554-1.741C281.439,341.124,281.793,340.914,282.348,341.044z"/>
	<path fill-rule="evenodd" clip-rule="evenodd" fill="#7A7A7A" d="M279.563,290.599c-6.932,3.278-14.356,0.701-21.471,1.806
		c-3.785-6.418,1.288-9.822,5.354-11.837c4.695-2.323,10.035-1.293,13.196,3.978C277.79,286.457,278.6,288.575,279.563,290.599z"/>
</g>
</svg>
