<?xml version="1.0" encoding="utf-8"?>
<!-- Generator: Adobe Illustrator 16.0.0, SVG Export Plug-In . SVG Version: 6.00 Build 0)  -->
<!DOCTYPE svg PUBLIC "-//W3C//DTD SVG 1.1//EN" "http://www.w3.org/Graphics/SVG/1.1/DTD/svg11.dtd">
<svg version="1.1" id="Layer_1" xmlns="http://www.w3.org/2000/svg" xmlns:xlink="http://www.w3.org/1999/xlink" x="0px" y="0px"
	 width="512px" height="512px" viewBox="0 0 512 512" enable-background="new 0 0 512 512" xml:space="preserve">
<g id="Layer_1_1_">
</g>
<g id="Isolation_Mode">
	<path fill="#A4BFCC" d="M360.078,185.19c-0.729,90.26-64.729,110.25-107.226,123.753c-39.763,12.502-52.774,18.479-52.774,42.752
		v6.523c14.251,8.2,24.019,23.727,24.019,41.439c0,26.533-21.504,48.037-48,48.037c-26.497,0-48-21.504-48-48.037
		c0-17.713,9.731-33.239,24.018-41.439V153.172c-14.286-8.2-24.018-23.727-24.018-41.458c0-26.496,21.503-48,48-48
		c26.496,0,48,21.504,48,48c0,17.731-9.768,33.258-24.019,41.458v124.282c12.757-6.231,26.278-10.533,38.524-14.25
		c46.505-14.743,73.001-25.768,73.512-78.014c-14.25-8.237-24.019-23.727-24.019-41.494c0-26.497,21.503-48,48-48
		c26.496,0,48,21.503,48,48C384.097,161.464,374.292,176.953,360.078,185.19 M176.097,87.714c-13.267,0-23.982,10.752-23.982,24
		s10.716,24,23.982,24c13.266,0,23.981-10.752,23.981-24S189.363,87.714,176.097,87.714 M176.097,375.678
		c-13.267,0-23.982,10.752-23.982,23.981c0,13.267,10.716,24.055,23.982,24.055c13.266,0,23.981-10.788,23.981-24.055
		C200.078,386.43,189.363,375.678,176.097,375.678 M336.097,119.696c-13.267,0-23.981,10.751-23.981,24
		c0,13.248,10.716,24,23.981,24c13.267,0,23.981-10.752,23.981-24C360.078,130.447,349.363,119.696,336.097,119.696"/>
</g>
</svg>
