<?xml version="1.0" encoding="utf-8"?>
<!-- Generator: Adobe Illustrator 16.0.0, SVG Export Plug-In . SVG Version: 6.00 Build 0)  -->
<!DOCTYPE svg PUBLIC "-//W3C//DTD SVG 1.1//EN" "http://www.w3.org/Graphics/SVG/1.1/DTD/svg11.dtd">
<svg version="1.1" id="Layer_1" xmlns="http://www.w3.org/2000/svg" xmlns:xlink="http://www.w3.org/1999/xlink" x="0px" y="0px"
	 width="512px" height="512px" viewBox="0 0 512 512" enable-background="new 0 0 512 512" xml:space="preserve">
<g id="Layer_1_1_">
</g>
<g id="Isolation_Mode">
	<g>
		<path id="Shape" fill="#E6D1BF" d="M179.627,383.052c-15.08,0-27.824-11.613-29.935-26.392
			c-0.227-2.108-21.114-191.075-21.114-193.186c-0.227-0.528-0.528-1.057-0.528-1.584l0.051-6.333
			c0-5.278,2.063-10.557,6.284-13.724c3.518-4.75,11.613-11.085,121.931-11.085c110.064,0,118.234,6.335,121.931,11.085
			c3.716,3.693,5.804,8.446,5.804,14.25l-0.077,5.278c0,1.057,0.077,1.585-0.449,2.639l-22.423,192.66
			c0,0.531-0.272,1.057-0.272,1.583c-2.743,14.252-15.31,24.809-29.563,24.809H179.627L179.627,383.052z"/>
		<g id="Group" transform="translate(1.428571, 1.440000)">
			<g>
				<path id="Shape_1_" fill="#FFFAED" d="M374.756,154.329c0-3.695-1.48-6.863-3.594-8.974
					c-5.453-6.334-55.423-8.445-116.652-8.445c-60.979,0-110.845,1.584-116.653,7.917c-2.136,2.639-3.695,5.278-3.695,8.974
					l0.052,5.807c0,0.526-0.052,1.054,0.477,1.583c-0.227,0.528,21.113,192.66,21.113,192.66
					c1.533,11.088,11.085,19.531,22.17,19.531h151.539c11.563,0,21.063-8.443,22.119-19.531h0.252l22.619-192.66v-1.583v-5.278
					L374.756,154.329L374.756,154.329z"/>
				<path id="Oval" fill="#E6D1BF" d="M253.982,146.937c58.593,0,106.098,2.6,106.098,5.807c0,3.206-47.506,5.807-106.098,5.807
					c-58.595,0-106.095-2.601-106.095-5.807C147.887,149.538,195.387,146.937,253.982,146.937z"/>
			</g>
			
				<linearGradient id="Shape_3_" gradientUnits="userSpaceOnUse" x1="7.5739" y1="28.9936" x2="9.9965" y2="36.3766" gradientTransform="matrix(35.8018 0 0 17.3 -44.3091 -247.2623)">
				<stop  offset="0" style="stop-color:#F89934"/>
				<stop  offset="0.635" style="stop-color:#F05036"/>
				<stop  offset="1" style="stop-color:#E3322E"/>
			</linearGradient>
			<path id="Shape_2_" fill="url(#Shape_3_)" d="M341.075,335.374c-0.253,6.86-5.278,12.14-12.14,12.14H178.954
				c-6.536,0-11.536-5.279-12.064-12.14c-1.005-17.942-7.389-71.788-7.389-71.788c-0.152-4.747,2.111-7.387,7.389-7.387h174.185
				c4.778,0,7.387,2.64,7.387,7.387C348.616,263.586,341.606,317.432,341.075,335.374L341.075,335.374z"/>
		</g>
		<path id="Shape_10_" opacity="0.65" fill="#FFFAED" enable-background="new    " d="M225.375,267.46
			c-3.018,3.689-2.315,9.5,1.909,12.664l32.775,25.866c4.021,2.64,9.98,2.108,12.619-2.113l25.588-33.253
			c3.016-3.696,2.387-9.5-1.835-12.67l-32.851-25.861c-4.022-2.639-9.904-2.113-13.071,2.111L225.375,267.46L225.375,267.46z"/>
		<path id="Shape_11_" opacity="0.65" fill="#FFFAED" enable-background="new    " d="M193.955,243.175
			c-5.026,0.528-8.369,5.278-7.843,10.031l5.33,41.695c0.752,5.279,5.227,8.449,10.505,7.918l41.021-5.278
			c5.028-1.052,8.598-5.278,7.541-10.558l-5.025-41.695c-0.756-4.752-5.531-8.445-10.281-7.391L193.955,243.175L193.955,243.175z"/>
	</g>
</g>
</svg>
