<?xml version="1.0" encoding="utf-8"?>
<!-- Generator: Adobe Illustrator 16.0.0, SVG Export Plug-In . SVG Version: 6.00 Build 0)  -->
<!DOCTYPE svg PUBLIC "-//W3C//DTD SVG 1.1//EN" "http://www.w3.org/Graphics/SVG/1.1/DTD/svg11.dtd">
<svg version="1.1" id="Layer_1" xmlns="http://www.w3.org/2000/svg" xmlns:xlink="http://www.w3.org/1999/xlink" x="0px" y="0px"
	 width="512px" height="512px" viewBox="0 0 512 512" enable-background="new 0 0 512 512" xml:space="preserve">
<g>
	<path fill="#3E6A92" d="M192.424,164.384c15.399,29.227-2.059,63.762-13.346,91.976c-4.206,10.514-8.548,25.792-19.285,31.43
		c-27.058,14.209-77.846,12.053-93.553,44.314c-10.582,21.732,31.929,34.839,46.832,34.29c7.706-0.286,14.206-8.116,19.838-12.647
		l41.479-30.66c-14.219-8.198-21.334-17.296-9.017-30.658c0.586,24.248,27.522,27.313,46.889,30.514
		c38.244,6.319,121.933,5.324,133.455-43.138c12.519,13.591-10.451,32.927-21.642,39.667
		c-27.756,16.715-80.786,18.392-111.813,12.633c6.679,20.774-1.803,45.279-1.803,66.727c39.829,3.145,73.203-3.738,111.813-10.232
		c27.087-4.558,50.746-5.632,77.548-14.61c17.438-5.84,56.682-23.568,47.328-49.069c-3.271-8.919-12.843-11.19-20.276-15.403
		c-16.802-9.521-31.941-17.595-50.497-23.385c-8.039-2.51-23.804-3.482-27.773-12.142l-8.372-50.091
		c-4.414-17.79-14.978-29.396-22.612-45.086c-14.82-30.453-16.934-57.488-51.252-74.648c-21.229-10.615-64.905-14.004-84.593,1.606
		c-17.294,13.712-26.019,37.795-29.788,58.614c-1.592,8.792-9.232,25.197-5.334,33.692c3.047,6.64,13.659,3.801,18.723,1.741
		C181.676,193.181,187.298,180.11,192.424,164.384z"/>
	<path fill="#AB996D" d="M226.087,197.448l1.203,0.601L226.087,197.448z"/>
	<path fill="#637B87" d="M217.672,202.257l7.214-1.804C221.195,199.099,220.204,199.271,217.672,202.257z"/>
	<path fill="#E7B45B" d="M219.475,200.453v7.214l9.017,3.607l3.607-5.411v-3.606l-3.607-3.607L219.475,200.453z"/>
	<path fill="#7B857F" d="M232.701,203.458l0.601,1.203L232.701,203.458z"/>
	<path fill="#C1A367" d="M217.672,205.863l7.214,3.607L217.672,205.863z"/>
	<path fill="#E7B45B" d="M246.527,205.863c-1.683,5.757-3.783,7.91-9.017,10.821c5.057,4.063,8.893,6.194,10.82,12.624
		c6.862-4.94,11.28-7.112,19.838-7.214l-7.214-5.41l1.804-7.214L246.527,205.863z"/>
	<path fill="#908E78" d="M224.886,209.47l1.803,1.804L224.886,209.47z"/>
	<path fill="#BCA168" d="M254.943,210.072l1.201,0.601L254.943,210.072z"/>
	<path fill="#A39671" d="M206.25,219.089l1.203,0.601L206.25,219.089z"/>
	<path fill="#E7B45B" d="M197.834,222.094c10.328,4.638,22.321,4.059,29.57,14.596c14.499,21.076-15.504,48.81-33.177,53.935
		c48.2,20.226,77.834-67.139,28.855-71.948L197.834,222.094z"/>
	<path fill="#979076" d="M232.099,220.291l1.804,1.803L232.099,220.291z"/>
	<path fill="#6C7F83" d="M268.769,221.493l0.603,1.203L268.769,221.493z"/>
	<path fill="#979076" d="M247.127,223.296l0.602,1.203L247.127,223.296z"/>
	<path fill="#9A9173" d="M257.348,222.094l10.82,1.804L257.348,222.094z"/>
	<path fill="#979076" d="M239.313,225.701l1.803,1.804L239.313,225.701z"/>
	<path fill="#9A9173" d="M248.33,229.308l1.804,1.804L248.33,229.308 M247.127,237.724l0.602,1.203L247.127,237.724z"/>
	<path fill="#6C7F83" d="M254.943,240.73l1.201,0.601L254.943,240.73z"/>
	<path fill="#E7B45B" d="M253.741,241.932v10.821l10.821,1.803l3.606-9.017l-5.41-5.41L253.741,241.932z"/>
	<path fill="#7B857F" d="M228.492,243.736v12.624C230.403,251.79,230.403,248.306,228.492,243.736z"/>
	<path fill="#6C7F83" d="M248.33,245.539v5.41V245.539z"/>
	<path fill="#BCA168" d="M225.487,264.774l0.601,1.205L225.487,264.774z"/>
	<path fill="#908E78" d="M239.313,274.395l1.803,1.803L239.313,274.395 M214.065,279.805l1.803,1.803L214.065,279.805z"/>
	<path fill="#E7B45B" d="M345.716,279.805c-18.49,47.811-89.007,50.438-131.651,44.314c-19.356-2.781-44.293-9.016-50.497-29.887
		c-12.761,12.497,0.792,22.682,10.821,30.658c-18.093,5.322-46.217,25.477-56.372,41.507c-7.636,12.052-4.154,28.334,9.482,32.434
		c0-31.137,20.851-56.864,52.299-66.044l27.052,1.12c7.74,22.519-31.125,80.229,5.41,86.565c-2.155-27.315,7.571-62.754,0-88.368
		c35.301,0,68.351-0.662,102.796-9.252c19.757-4.93,36.68-22.087,34.266-43.048H345.716z"/>
	<path fill="#979076" d="M233.903,281.607l1.803,1.804L233.903,281.607z"/>
	<path fill="#AB996D" d="M349.923,284.614l0.603,1.201L349.923,284.614z"/>
	<path fill="#A39671" d="M191.822,291.226l1.203,0.603L191.822,291.226z"/>
	<path fill="#758380" d="M163.568,292.429v7.214V292.429z"/>
	<path fill="#A39671" d="M196.03,292.429l12.624,1.804L196.03,292.429z"/>
	<path fill="#758380" d="M208.654,292.429l5.411,1.804L208.654,292.429z"/>
	<path fill="#979076" d="M333.092,297.839l1.804,1.804L333.092,297.839z"/>
	<path fill="#AB996D" d="M156.355,299.643v9.017V299.643z"/>
	<path fill="#908E78" d="M331.288,299.643l1.804,1.803L331.288,299.643z"/>
	<path fill="#979076" d="M338.502,306.856l1.804,1.803L338.502,306.856z"/>
	<path fill="#908E78" d="M315.058,312.267l1.804,1.803L315.058,312.267z"/>
	<path fill="#AB996D" d="M307.243,316.474l1.201,0.603L307.243,316.474z"/>
	<path fill="#888B79" d="M297.023,317.677l5.41,1.804L297.023,317.677z"/>
	<path fill="#BCA168" d="M168.377,320.081l1.203,0.602L168.377,320.081z"/>
	<path fill="#7B857F" d="M195.429,320.081l1.203,0.602L195.429,320.081z"/>
	<path fill="#B39D6A" d="M288.006,319.48l7.214,1.803L288.006,319.48z"/>
	<path fill="#BCA168" d="M201.441,321.283l7.213,1.804L201.441,321.283z"/>
	<path fill="#6C7F83" d="M275.382,321.283l5.41,1.804L275.382,321.283z"/>
	<path fill="#B39D6A" d="M281.995,321.884l1.201,0.603L281.995,321.884z"/>
	<path fill="#888B79" d="M318.063,321.884l1.201,0.603L318.063,321.884z"/>
	<path fill="#637B87" d="M212.261,323.087l7.214,1.804L212.261,323.087 M259.15,323.087l10.821,1.804L259.15,323.087z"/>
	<path fill="#979076" d="M310.85,323.688l1.201,0.603L310.85,323.688z"/>
	<path fill="#BCA168" d="M230.296,324.891l16.231,1.804L230.296,324.891z"/>
	<path fill="#A39671" d="M246.527,324.891l7.214,1.804L246.527,324.891z"/>
	<path fill="#888B79" d="M301.833,325.491l1.201,0.603L301.833,325.491z"/>
	<path fill="#AB996D" d="M284.399,328.497l5.41,1.804L284.399,328.497z"/>
	<path fill="#3E6A92" d="M196.03,395.225c5.501-17.319,16.052-43.451,10.821-61.317l-27.052-2.007
		c-11.032,2.377-23.115,14.434-32.462,20.683c-5.492,3.67-18.363,10.553-16.534,18.825c1.255,5.68,9.956,9.132,14.73,10.979
		L196.03,395.225z"/>
	<path fill="#B39D6A" d="M268.168,330.301l5.41,1.804L268.168,330.301z"/>
	<path fill="#7B857F" d="M273.578,330.301l5.41,1.804L273.578,330.301z"/>
	<path fill="#BCA168" d="M190.019,332.705l1.203,0.602L190.019,332.705z"/>
	<path fill="#AB996D" d="M215.868,332.104l25.248,1.803L215.868,332.104z"/>
	<path fill="#637B87" d="M241.116,332.104l21.642,1.803L241.116,332.104z"/>
	<path fill="#979076" d="M214.065,337.515v5.41V337.515z"/>
	<path fill="#BCA168" d="M208.654,339.318v7.213V339.318z"/>
	<path fill="#979076" d="M143.731,342.925l1.803,1.804L143.731,342.925 M158.158,344.729l1.804,1.803L158.158,344.729z"/>
	<path fill="#888B79" d="M206.851,348.335v5.41V348.335z"/>
	<path fill="#A39671" d="M212.261,351.942v14.427C214.356,361.375,214.356,356.937,212.261,351.942z"/>
	<path fill="#908E78" d="M143.731,353.745l1.803,1.804L143.731,353.745z"/>
	<path fill="#979076" d="M136.517,359.156l1.803,1.803L136.517,359.156z"/>
	<path fill="#BCA168" d="M203.846,363.966l0.601,1.201L203.846,363.966z"/>
	<path fill="#A39671" d="M202.042,371.18l0.601,1.201L202.042,371.18 M211.06,376.59l0.601,1.201L211.06,376.59z"/>
	<path fill="#908E78" d="M199.637,377.19v5.41V377.19z"/>
	<path fill="#A39671" d="M208.654,391.618v5.41V391.618z"/>
</g>
</svg>
