<?xml version="1.0" encoding="utf-8"?>
<!-- Generator: Adobe Illustrator 16.0.0, SVG Export Plug-In . SVG Version: 6.00 Build 0)  -->
<!DOCTYPE svg PUBLIC "-//W3C//DTD SVG 1.1//EN" "http://www.w3.org/Graphics/SVG/1.1/DTD/svg11.dtd">
<svg version="1.1" id="Layer_1" xmlns="http://www.w3.org/2000/svg" xmlns:xlink="http://www.w3.org/1999/xlink" x="0px" y="0px"
	 width="512px" height="512px" viewBox="0 0 512 512" enable-background="new 0 0 512 512" xml:space="preserve">
<g id="Layer_1_1_">
</g>
<g id="Isolation_Mode">
	<path fill="#A3BECC" d="M418.324,367.79c-2.593,3.843-6.904,6.217-11.621,6.217H106.3c-4.717,0-9.028-2.374-11.59-6.217
		c-19.712-30.864-30.209-66.636-30.209-103.497c0-105.872,86.128-192.016,192-192.016c105.871,0,192,86.144,192,192.016
		C448.502,301.154,438.005,336.738,418.324,367.79 M119.359,236.864c-15.214,0-27.429,12.215-27.429,27.429
		s12.215,27.43,27.429,27.43c15.214,0,27.428-12.216,27.428-27.43S134.573,236.864,119.359,236.864 M160.501,140.864
		c-15.214,0-27.459,12.215-27.459,27.413c0,15.229,12.246,27.444,27.459,27.444c15.245,0,27.429-12.215,27.429-27.444
		C187.93,153.079,175.747,140.864,160.501,140.864 M301.3,189.52c1.687-7.294-2.593-14.776-9.872-16.729
		c-7.279-1.921-14.775,2.593-16.713,9.856l-21.649,81.864c-16.932,1.28-31.708,13.089-36.426,30.396
		c-5.779,22.086,7.498,44.579,29.365,50.421c22.056,5.748,44.579-7.529,50.358-29.365c4.498-17.37-2.78-34.958-16.682-44.58
		L301.3,189.52z M256.502,99.721c-15.214,0-27.429,12.23-27.429,27.429c0,15.214,12.214,27.444,27.429,27.444
		c15.214,0,27.43-12.229,27.43-27.444C283.932,111.952,271.716,99.721,256.502,99.721 M352.502,140.864
		c-15.214,0-27.429,12.215-27.429,27.413c0,15.229,12.215,27.444,27.429,27.444s27.429-12.215,27.429-27.444
		C379.931,153.079,367.716,140.864,352.502,140.864 M393.645,236.864c-15.214,0-27.429,12.215-27.429,27.429
		s12.215,27.43,27.429,27.43c15.216,0,27.431-12.216,27.431-27.43S408.858,236.864,393.645,236.864"/>
</g>
</svg>
