<?xml version="1.0" encoding="utf-8"?>
<!-- Generator: Adobe Illustrator 16.0.0, SVG Export Plug-In . SVG Version: 6.00 Build 0)  -->
<!DOCTYPE svg PUBLIC "-//W3C//DTD SVG 1.1//EN" "http://www.w3.org/Graphics/SVG/1.1/DTD/svg11.dtd">
<svg version="1.1" xmlns="http://www.w3.org/2000/svg" xmlns:xlink="http://www.w3.org/1999/xlink" x="0px" y="0px" width="512px"
	 height="512px" viewBox="0 0 512 512" enable-background="new 0 0 512 512" xml:space="preserve">
<g id="Layer_1">
</g>
<g id="Isolation_Mode">
	<path fill="#A4BECC" d="M173.603,358.762c-2.723,2.724-6.915,2.724-9.638,0l-97.824-97.793c-2.723-2.724-2.723-6.916,0-9.669
		l97.824-97.793c2.723-2.724,6.915-2.724,9.638,0l10.496,10.495c2.723,2.723,2.723,6.915,0,9.638l-82.463,82.51l82.463,82.448
		c2.723,2.753,2.723,6.946,0,9.7L173.603,358.762z M229.875,395.298c-1.071,3.579-4.834,5.661-8.201,4.62l-13.004-3.58
		c-3.58-1.04-5.66-4.835-4.651-8.415l78.271-270.952c1.102-3.58,4.865-5.646,8.23-4.605l13.005,3.565
		c3.611,1.041,5.661,4.834,4.621,8.399L229.875,395.298z M348.23,358.762c-2.723,2.724-6.915,2.724-9.639,0l-10.525-10.464
		c-2.692-2.754-2.692-6.947,0-9.7l82.494-82.448l-82.494-82.51c-2.692-2.723-2.692-6.915,0-9.638l10.525-10.495
		c2.724-2.724,6.916-2.724,9.639,0l97.824,97.793c2.725,2.754,2.725,6.946,0,9.669L348.23,358.762z"/>
</g>
</svg>
