<?xml version="1.0" encoding="utf-8"?>
<!-- Generator: Adobe Illustrator 16.0.0, SVG Export Plug-In . SVG Version: 6.00 Build 0)  -->
<!DOCTYPE svg PUBLIC "-//W3C//DTD SVG 1.1//EN" "http://www.w3.org/Graphics/SVG/1.1/DTD/svg11.dtd">
<svg version="1.1" id="Isolation_Mode" xmlns="http://www.w3.org/2000/svg" xmlns:xlink="http://www.w3.org/1999/xlink" x="0px"
	 y="0px" width="512px" height="512px" viewBox="0 0 512 512" enable-background="new 0 0 512 512" xml:space="preserve">
<g>
	<path fill-rule="evenodd" clip-rule="evenodd" fill="#C52126" d="M129.418,267.288c-1.592,16.333,1.286,32.076,7.738,46.938
		c17.484,40.274,48.072,64.812,91.712,69.799c45.982,5.258,83.441-11.924,108.979-50.881c12.431-18.964,19.303-40.865,24.548-63.026
		c6.27-20.477,9.988-41.442,13.709-62.528c4.244-24.023,6.664-48.105,8.798-72.318c0.526-5.956-1.336-6.298-6.278-5.877
		c-21.785,1.854-43.462,4.237-65.127,7.413c-30.644,4.492-60.578,11.408-90.034,20.73c-29.222,9.251-56.486,21.583-74.321,48.293
		C136.736,224.408,129.131,244.602,129.418,267.288z"/>
	<g>
		<path fill-rule="evenodd" clip-rule="evenodd" fill="#FFFFFF" d="M309.598,270.173c-1.799,4.678-6.272,3.605-9.756,4.297
			c-4.928,0.979-9.972,1.377-14.967,2.025c-8.964,0.438-17.928,0.877-27.7,1.354c5.56,6.247,10.353,11.651,15.179,17.027
			c0.627,0.699,1.432,1.242,2.153,1.857c3.255,4.502,6.535,8.983,9.739,13.52c0.679,0.961,1.319,2.224,0.264,3.271
			c-1.033,1.025-2.264,0.49-3.285-0.219c-3.76-2.622-7.493-5.284-11.236-7.933c-6.877-6.164-13.754-12.328-21.342-19.13
			c-0.512,10.86-0.947,20.095-1.383,29.329c-1.521,7.645-0.732,15.816-5.153,23.832c-4.245-7.547-3.225-15.292-5.08-22.357
			c-0.458-9.945-0.915-19.889-1.42-30.894c-7.6,6.694-13.975,12.303-20.331,17.933c-0.343,0.303-0.531,0.783-0.791,1.183
			c-5.563,3.144-9.926,8.304-17.089,10.458c2.455-8.287,9.18-12.742,12.714-19.27c5.481-5.905,10.961-11.81,17.313-18.651
			c-9.807-0.447-17.968-0.817-26.128-1.189c-7.777-1.123-15.701-1.25-23.318-3.454c-2.236-0.647-4.886-1.162-1.261-3.771
			c16.161-3.735,32.76-3.366,50.063-4.81c-9.837-12.59-21.658-22.532-28.006-36.807c13.905,6.63,24.202,17.915,36.61,28.17
			c2.274-17.821,0.038-35.368,6.617-51.756c6.215,16.42,5.36,33.63,6.656,51.853c12.579-10.076,22.878-21.714,37.016-28.314
			c-6.731,13.935-17.867,24.367-28.384,36.715C275.539,266.353,292.938,265.23,309.598,270.173z"/>
	</g>
	<path fill-rule="evenodd" clip-rule="evenodd" fill="#EF403B" d="M139.793,239.379c-4.699,6.715-6.442,14.801-10.186,21.959
		c2.952-38.512,21.181-67.929,54.209-87.41c21.937-12.939,46.62-19.4,71.134-25.777c36.546-9.505,73.788-14.833,111.346-18.16
		c2.637-0.234,5.32,0.047,7.982,0.089c-4.159,4.314-10.045,3.902-15.169,5.074c-49.216,11.249-98.065,23.769-144.822,43.123
		c-16.333,6.76-32.142,14.92-45.231,27.307C156.144,214.115,147.421,226.273,139.793,239.379z"/>
</g>
<g id="Layer_1">
</g>
</svg>
