<?xml version="1.0" encoding="utf-8"?>
<!-- Generator: Adobe Illustrator 16.0.0, SVG Export Plug-In . SVG Version: 6.00 Build 0)  -->
<!DOCTYPE svg PUBLIC "-//W3C//DTD SVG 1.1//EN" "http://www.w3.org/Graphics/SVG/1.1/DTD/svg11.dtd">
<svg version="1.1" xmlns="http://www.w3.org/2000/svg" xmlns:xlink="http://www.w3.org/1999/xlink" x="0px" y="0px" width="512px"
	 height="512px" viewBox="0 0 512 512" enable-background="new 0 0 512 512" xml:space="preserve">
<g id="Layer_1">
</g>
<g id="Isolation_Mode">
	<g>
		<path fill-rule="evenodd" clip-rule="evenodd" fill="#53311B" d="M203.743,380.93c-7.991-7.023-15.982-14.045-23.973-21.068
			c-1.229-0.85-2.459-1.699-3.689-2.549c-1.446-0.908-2.892-1.82-4.34-2.73c0.031-5.26-3.078-9.094-5.771-13.201
			c-8.569-13.066-14.872-27.191-20.145-41.91c-11.203-31.275-9.605-63.634-9.019-95.952c5.714-21.462,11.013-42.912,20.611-63.289
			c5.19-11.021-1.978-23.575-2.383-35.555c-0.24-7.097-1.894-14.14-2.695-21.229c-1.338-11.823,1.84-14.365,13.559-11.07
			c0.857,0.241,1.786,0.388,2.534,0.828c24.021,14.187,47.69,13.088,70.969-3.101c-1.253-4.5-6.889-7.071-10.399-11.361
			c-1.966-2.403-4.695-4.393-2.254-8.03c2.87-4.28,5.912-0.899,7.915,0.417c7.48,4.909,12.294,2.484,14.408-5.208
			c1.81-6.586,9.004-8.083,11.36-13.815c2.685,0,5.368,0,8.052,0c-1.96,8.772-12.475,15.461-5.871,27.097
			c4.979-3.454,9.792-7.063,14.887-10.221c2.773-1.719,6.361-2.112,8.651,0.603c2.445,2.896-0.967,4.555-2.445,6.557
			c-10.426,14.113-9.341,12.551,4.946,20.915c16.729,9.797,30.566,2.757,45.391-2.443c19.832-6.956,22.329-4.777,19.216,15.647
			c-2.699,17.699-8.67,35.575,1.693,53.728c-13.933-17.159-29.909-28.358-52.258-26.064c-22.338,2.291-35.604,16.676-45.726,36.949
			c-6.788-13.744-14.799-24.94-27.734-31.61c-13.045-6.728-26.486-7.611-40.149-2.561c-25.222,9.323-40.261,37.371-36.583,67.692
			c3.723,30.708,23.586,49.951,56.951,53.809c-21.28,17.954-32.629,39.561-29.823,67.141c1.957,19.209,11.013,34.635,25.248,47.191
			c33.137,29.229,87.718,26.672,117.878-5.404c30.059-31.967,26.586-72.166-9.391-108.745c36.588-9.436,57.74-41.431,45.937-89.563
			c10.776,10.966,9.576,27.265,16.727,39.848c0.157,4.888-0.082,9.828,0.539,14.656c6.558,50.921-3.118,97.955-32.886,140.388
			c-3.198,4.559-8.183,8.471-7.716,15.018c0,0,0.086-0.092,0.083-0.092c-2.623-0.494-4.723,0.025-5.619,2.893
			c-6.075,4.348-12.15,8.695-21.582,15.449c28.37,0,53.054-0.154,77.731,0.109c6.044,0.064,16.066-2.887,17.403,1.754
			c2.726,9.473,1.538,20.236,0.959,30.41c-0.233,4.088-5.021,2.576-7.837,2.578c-94.691,0.074-189.378,0.012-284.067,0.182
			c-6.205,0.01-8.218-1.492-8.475-8.08c-1.05-26.963-1.328-26.928,25.675-26.961c24.561-0.029,49.124-0.123,73.687-0.189
			c-1.042,5.457-5.685,7.547-9.656,10.201c-5.902,3.941-4.634,9.691-1.996,13.967c2.763,4.477,6.418,9.852,13.938,5.74
			c6.844-3.746,15.896-1.799,21.778-0.572c7.857,1.639,11.132,1.057,14.741-5.1c4.408-7.525,0.043-11.939-5.003-16.84
			C227.774,378.516,215.451,381.494,203.743,380.93z M323.479,398.451c-1.158-2.051-2.322-5.018-4.243-7.359
			c-11.733-14.287-38.517-13.598-49.052,1.482c-2.907,4.162-2.813,9.467,0.814,13.615c3.13,3.584,6.023,7.307,12.318,5.24
			c8.13-2.674,16.811-2.648,25.152-0.58C315.058,412.484,323.782,406.137,323.479,398.451z"/>
		<path fill-rule="evenodd" clip-rule="evenodd" fill="#7B4826" d="M335.965,362.732c-0.467-6.547,4.518-10.459,7.716-15.018
			c29.768-42.434,39.443-89.467,32.886-140.388c-0.621-4.828-0.382-9.768-0.539-14.656c32.378,31.021,38.883,81.646,14.951,121.411
			C377.841,335.916,359.851,352.793,335.965,362.732z"/>
		<path fill-rule="evenodd" clip-rule="evenodd" fill="#7B4826" d="M136.806,203.519c-0.587,32.318-2.185,64.677,9.019,95.952
			c5.273,14.719,11.576,28.844,20.145,41.91c2.693,4.107,5.803,7.941,5.771,13.201C116.246,325.088,99.295,251.794,136.806,203.519z
			"/>
		<path fill-rule="evenodd" clip-rule="evenodd" fill="#B3DCE5" d="M229.442,214.534c-22.107,6.812-36.845,0.309-43.961-19.397
			c-7.46-20.663,1.325-45.058,18.973-52.682c17.202-7.43,38.214,7.821,39.86,29.055c0.827,10.686-0.033,21.258-2.993,31.603
			C237.368,206.915,233.405,210.726,229.442,214.534z M217.318,158.366c-12.898-2.636-18.937,4.343-21.693,15.654
			c-3.161,12.981,2.241,26.547,12.078,31.073c5.922,2.726,11.304,1.525,16.264-2.115c12.029-8.827,12.785-27.972,1.653-39.3
			C223.772,160.471,221.39,158.099,217.318,158.366z"/>
		<path fill-rule="evenodd" clip-rule="evenodd" fill="#B3DCE5" d="M271.454,202.156c-2.222-8.961-6.426-17.195-6.022-27.079
			c0.85-20.862,13.453-37.994,29.684-38.259c17.198-0.28,32.415,18.076,32.337,39.006c-0.105,27.147-18.132,42.301-43.035,36.187
			C280.098,208.724,275.776,205.439,271.454,202.156z M289.977,158.327c-1.822,1.785-3.646,3.567-5.468,5.352
			c-9.238,9.404-10.625,22.306-3.593,33.382c8.03,12.646,22.486,12.779,30.219-0.063c5.943-9.875,5.637-20.125,0.592-30.543
			C306.936,156.558,298.345,158.013,289.977,158.327z"/>
		<path fill-rule="evenodd" clip-rule="evenodd" fill="#F47C2A" d="M271.454,202.156c4.322,3.284,8.644,6.568,12.963,9.854
			c-0.44,9.052-16.859,30.918-24.897,32.923c-1.625,0.406-4.131,0.761-5.085-0.112c-9.722-8.919-23.168-14.85-24.995-30.284
			c3.965-3.811,7.928-7.622,11.882-11.424C251.174,196.985,261.235,197.082,271.454,202.156z"/>
		<path fill-rule="evenodd" clip-rule="evenodd" fill="#7B4826" d="M330.429,365.533c0.896-2.867,2.996-3.387,5.619-2.893
			C334.937,365.086,332.636,365.215,330.429,365.533z"/>
		<path fill-rule="evenodd" clip-rule="evenodd" fill="#7B4826" d="M176.081,357.313c1.229,0.85,2.46,1.699,3.689,2.549
			C178.541,359.012,177.311,358.162,176.081,357.313z"/>
		<path fill-rule="evenodd" clip-rule="evenodd" fill="#F47C2A" d="M323.479,398.451c0.304,7.686-8.421,14.033-15.01,12.398
			c-8.342-2.068-17.022-2.094-25.152,0.58c-6.295,2.066-9.188-1.656-12.318-5.24c-3.627-4.148-3.722-9.453-0.814-13.615
			c10.535-15.08,37.318-15.77,49.052-1.482C321.156,393.434,322.32,396.4,323.479,398.451z"/>
		<path fill-rule="evenodd" clip-rule="evenodd" fill="#F47C2A" d="M203.743,380.93c11.708,0.564,24.031-2.414,33.982,7.252
			c5.047,4.9,9.412,9.314,5.003,16.84c-3.609,6.156-6.884,6.738-14.741,5.1c-5.882-1.227-14.934-3.174-21.778,0.572
			c-7.52,4.111-11.175-1.264-13.938-5.74c-2.638-4.275-3.906-10.025,1.996-13.967c3.972-2.654,8.615-4.744,9.656-10.201
			C203.923,380.785,203.743,380.93,203.743,380.93z"/>
		<path fill-rule="evenodd" clip-rule="evenodd" fill="#090A0A" d="M225.62,163.679c11.132,11.328,10.376,30.473-1.653,39.3
			c-4.96,3.641-10.342,4.841-16.264,2.115c-9.837-4.526-15.239-18.092-12.078-31.073c2.756-11.312,8.794-18.291,21.693-15.654
			c-2.287,3.965-9.307,5.478-6.37,12.148c1.633,3.706,4.678,5.016,8.493,4.319C225.923,173.646,225.538,168.499,225.62,163.679z"/>
		<path fill-rule="evenodd" clip-rule="evenodd" fill="#FFFFFF" d="M225.62,163.679c-0.082,4.82,0.304,9.967-6.179,11.154
			c-3.815,0.697-6.86-0.613-8.493-4.319c-2.937-6.67,4.083-8.183,6.37-12.148C221.39,158.099,223.772,160.471,225.62,163.679z"/>
		<path fill-rule="evenodd" clip-rule="evenodd" fill="#090A0A" d="M289.977,158.327c8.368-0.314,16.959-1.769,21.75,8.127
			c5.045,10.418,5.352,20.668-0.592,30.543c-7.732,12.842-22.188,12.709-30.219,0.063c-7.032-11.076-5.646-23.978,3.593-33.382
			c-0.047,5.452,0.087,10.843,7.482,11.286c4.047,0.244,6.786-1.929,7.559-5.722c1.51-7.388-5.021-7.509-9.241-9.687
			C290.055,159.425,290.081,158.749,289.977,158.327z"/>
		<path fill-rule="evenodd" clip-rule="evenodd" fill="#FFFFFF" d="M289.977,158.327c0.104,0.422,0.078,1.098,0.332,1.229
			c4.22,2.178,10.751,2.298,9.241,9.687c-0.772,3.792-3.512,5.965-7.559,5.722c-7.396-0.443-7.529-5.834-7.482-11.286
			C286.33,161.894,288.154,160.112,289.977,158.327z"/>
	</g>
</g>
</svg>
