<?xml version="1.0" encoding="utf-8"?>
<!-- Generator: Adobe Illustrator 16.0.0, SVG Export Plug-In . SVG Version: 6.00 Build 0)  -->
<!DOCTYPE svg PUBLIC "-//W3C//DTD SVG 1.1//EN" "http://www.w3.org/Graphics/SVG/1.1/DTD/svg11.dtd">
<svg version="1.1" id="Layer_1" xmlns="http://www.w3.org/2000/svg" xmlns:xlink="http://www.w3.org/1999/xlink" x="0px" y="0px"
	 width="512px" height="512px" viewBox="0 0 512 512" enable-background="new 0 0 512 512" xml:space="preserve">
<g>
	<path fill-rule="evenodd" clip-rule="evenodd" fill="#6D7EB6" d="M64.92,247.887c0.2-2.632,0.918-5.154,1.652-7.668
		c2.223-7.609,5.882-14.498,10.549-20.872c4.194-5.728,9.034-10.859,14.364-15.541c6.502-5.71,13.549-10.66,20.975-15.084
		c0.235,0.381,0.469,0.763,0.707,1.142c0.821,1.317,1.637,2.637,2.469,3.946c0.352,0.554,0.743,0.792,1.438,0.381
		c7.494-4.416,15.3-8.21,23.338-11.519c11.516-4.739,23.361-8.491,35.432-11.529c7.429-1.87,14.929-3.414,22.48-4.698
		c3.56-0.605,7.141-1.086,10.715-1.602c2.265-0.327,4.534-0.644,6.808-0.9c0.72-0.081,0.954-0.359,0.864-1.041
		c-0.046-0.35-0.057-0.7-0.123-1.054c-0.307-1.644-0.565-3.297-0.841-4.947c5.081-0.618,10.179-1.045,15.284-1.409
		c10.062-0.716,20.136-1.035,30.22-0.896c8.107,0.112,16.205,0.497,24.289,1.124c1.547,0.12,3.087,0.316,4.629,0.478
		c-0.032,1.973,0.271,3.929,0.334,5.891c0.035,1.087,0.487,1.286,1.346,1.371c2.57,0.253,5.145,0.486,7.707,0.813
		c5.699,0.728,11.39,1.547,17.044,2.568c6.584,1.188,13.135,2.558,19.626,4.189c12.261,3.081,24.28,6.89,35.971,11.723
		c6.958,2.877,13.729,6.133,20.295,9.812c2.599,1.455,5.153,2.987,7.729,4.485c0.511,0.343,1.016,0.695,1.532,1.03
		c7.128,4.619,13.75,9.868,19.736,15.903c6.494,6.547,11.885,13.872,15.517,22.396c4.956,11.631,5.575,23.494,1.606,35.522
		c-3.106,9.415-8.518,17.447-15.231,24.639c-7.679,8.224-16.571,14.928-26.185,20.715c-14.266,8.589-29.523,14.909-45.379,19.867
		c-12.264,3.836-24.748,6.759-37.409,8.916c-6.358,1.084-12.749,1.959-19.164,2.667c-6.869,0.759-13.755,1.292-20.652,1.693
		c-0.389-0.012-0.777-0.047-1.165-0.032c-2.883,0.112-5.764,0.314-8.647,0.336c-6.587,0.049-13.174,0.149-19.762-0.104
		c-4.988-0.19-9.97-0.421-14.95-0.779c-5.976-0.43-11.93-1.033-17.876-1.763c-6.522-0.801-13.013-1.793-19.466-3.012
		c-13.091-2.474-25.97-5.771-38.586-10.077c-7.521-2.567-14.918-5.448-22.111-8.827c-8.524-4.003-16.759-8.529-24.508-13.906
		c-7.785-5.402-14.953-11.498-21.103-18.74c-4.775-5.623-8.742-11.744-11.457-18.633c-1.861-4.721-3.085-9.589-3.501-14.667
		c-0.165-2.013-0.102-4.016-0.153-6.023c-0.009-0.345,0.085-0.707-0.261-0.984c-1.972-1.579-3.804-3.313-5.608-5.078
		C65.292,247.964,65.13,247.874,64.92,247.887z M215.26,264.566c0.057,0.048,0.114,0.096,0.171,0.144
		c-0.019,0.16-0.028,0.323-0.06,0.481c-1.386,7.094-2.775,14.186-4.164,21.279c-0.29,1.48,0.181,2.08,1.675,2.081
		c7.826,0.005,15.653,0.005,23.479,0.001c1.268-0.001,1.672-0.337,1.922-1.588c1.384-6.928,2.757-13.856,4.142-20.783
		c2.331-11.662,4.673-23.321,6.988-34.985c0.116-0.583,0.366-0.729,0.908-0.728c6.365,0.022,12.73,0.025,19.094,0.041
		c1.146,0.002,2.26,0.214,3.335,0.609c1.159,0.426,1.841,1.225,2.08,2.469c0.233,1.216,0.092,2.414-0.122,3.581
		c-1.21,6.632-2.478,13.252-3.731,19.876c-1.851,9.775-3.708,19.551-5.553,29.327c-0.315,1.674,0.134,2.181,1.863,2.182
		c8.118,0.002,16.237,0.001,24.355,0c1.553,0,1.906-0.272,2.162-1.752c0.547-3.162,1.071-6.327,1.612-9.49
		c1.469-8.594,2.974-17.182,4.403-25.782c1.078-6.49,2.453-12.937,3.211-19.472c0.93-8.026-2.139-14.298-9.018-18.553
		c-5.763-3.563-12.221-4.822-18.881-4.973c-6.718-0.154-13.443-0.047-20.165-0.018c-0.81,0.004-1.007-0.232-0.847-0.997
		c0.385-1.84,0.722-3.689,1.075-5.536c1.188-6.208,2.379-12.415,3.554-18.625c0.255-1.35-0.225-1.955-1.531-1.956
		c-7.957-0.007-15.912,0.001-23.868-0.011c-0.969-0.001-1.491,0.394-1.673,1.368c-0.521,2.771-1.095,5.532-1.642,8.299
		c-2.237,11.318-4.471,22.638-6.708,33.957c-0.665,3.364-1.333,6.728-2.051,10.351c-0.122-0.747-0.204-1.223-0.278-1.702
		c-0.075-0.48-0.13-0.963-0.216-1.441c-1.518-8.496-5.838-15.028-13.531-19.147c-5.723-3.065-11.931-4.473-18.347-4.53
		c-15.684-0.141-31.37-0.046-47.055-0.044c-1.288,0-1.634,0.297-1.889,1.588c-0.251,1.272-0.495,2.545-0.746,3.818
		c-2.168,11.001-4.333,22.004-6.506,33.005c-2.368,11.986-4.743,23.972-7.114,35.957c-2.032,10.27-4.066,20.538-6.09,30.809
		c-0.267,1.353,0.259,1.98,1.636,1.98c7.891,0.007,15.783,0.006,23.674,0c1.151,0,1.54-0.338,1.762-1.5
		c1.558-8.149,3.119-16.298,4.648-24.453c0.152-0.814,0.38-1.181,1.329-1.174c6.722,0.049,13.444,0.015,20.166,0.032
		c2.759,0.008,5.507,0.051,8.258-0.318c9.818-1.318,18.227-5.521,25.423-12.258C209.964,272.65,212.844,268.789,215.26,264.566z
		 M339.066,208.497c-8.086,0-16.173-0.001-24.259,0.002c-1.243,0-1.604,0.315-1.839,1.527c-0.546,2.8-1.092,5.599-1.646,8.397
		c-2.697,13.639-5.4,27.277-8.096,40.917c-2.436,12.337-4.861,24.677-7.298,37.014c-1.129,5.723-2.275,11.443-3.404,17.166
		c-0.293,1.487,0.166,2.133,1.534,2.135c7.924,0.01,15.849,0.008,23.771,0.001c1.107,0,1.539-0.372,1.74-1.429
		c1.564-8.213,3.134-16.426,4.676-24.643c0.141-0.754,0.376-1.06,1.231-1.054c7.663,0.055,15.327,0.039,22.991,0.07
		c2.083,0.009,4.157-0.116,6.207-0.44c11.551-1.824,21.151-7.244,28.499-16.277c9.621-11.824,12.876-25.49,10.4-40.444
		c-1.223-7.381-5.094-13.267-11.514-17.297c-6.256-3.927-13.228-5.451-20.49-5.608C354.073,208.371,346.568,208.497,339.066,208.497
		z"/>
	<path fill-rule="evenodd" clip-rule="evenodd" fill="#020202" d="M274.592,350.396c6.897-0.401,13.783-0.935,20.652-1.693
		c6.415-0.708,12.806-1.583,19.164-2.667c12.661-2.157,25.146-5.08,37.409-8.916c15.855-4.958,31.113-11.278,45.379-19.867
		c9.613-5.787,18.506-12.491,26.185-20.715c6.714-7.191,12.125-15.224,15.231-24.639c3.969-12.028,3.35-23.891-1.606-35.522
		c-3.632-8.524-9.022-15.849-15.517-22.396c-5.986-6.035-12.608-11.284-19.736-15.903c-0.517-0.334-1.021-0.687-1.532-1.03
		c0.602-2.458,0.674-5.001,1.208-7.469c4.611,2.741,8.995,5.806,13.254,9.07c3.905,2.993,7.64,6.167,11.122,9.637
		c3.477,3.464,6.728,7.128,9.601,11.114c5.489,7.618,9.654,15.857,11.613,25.105c2.335,11.025,1.4,21.795-2.637,32.301
		c-3.344,8.704-8.42,16.319-14.615,23.239c-7.772,8.68-16.876,15.731-26.69,21.916c-8.623,5.434-17.706,9.981-27.105,13.894
		c-15.822,6.587-32.16,11.503-48.949,14.945c-5.505,1.129-11.023,2.186-16.573,3.039c-7.863,1.208-15.763,2.144-23.696,2.777
		c-4.175,0.333-8.351,0.607-12.532,0.824c-4.956,0.257-9.914,0.39-14.875,0.392c0.149-0.669,0.784-0.748,1.258-0.938
		c4.598-1.83,9.056-3.973,13.553-6.027C274.367,350.773,274.563,350.661,274.592,350.396z"/>
	<path fill-rule="evenodd" clip-rule="evenodd" fill="#2F3657" d="M274.592,350.396c-0.029,0.265-0.225,0.377-0.437,0.473
		c-4.497,2.055-8.955,4.197-13.553,6.027c-0.474,0.189-1.108,0.269-1.258,0.938c-2.979,0.232-5.96,0.074-8.939,0.043
		c-6.071-0.063-12.136-0.333-18.193-0.705c-5.876-0.36-11.74-0.925-17.586-1.636c-3.392-0.412-6.793-0.763-10.167-1.285
		c-6.794-1.052-13.562-2.266-20.288-3.701c-15.453-3.297-30.573-7.699-45.214-13.672c-13.731-5.601-26.838-12.374-38.801-21.198
		c-11.349-8.372-21.223-18.138-28.153-30.593c-5.592-10.049-8.288-20.786-7.627-32.306c0.093-1.636,0.152-3.287,0.545-4.894
		c0.21-0.013,0.372,0.078,0.518,0.221c1.804,1.765,3.637,3.499,5.608,5.078c0.346,0.277,0.252,0.639,0.261,0.984
		c0.051,2.008-0.012,4.011,0.153,6.023c0.416,5.078,1.64,9.946,3.501,14.667c2.715,6.889,6.681,13.01,11.457,18.633
		c6.15,7.242,13.318,13.338,21.103,18.74c7.749,5.377,15.984,9.903,24.508,13.906c7.193,3.379,14.589,6.26,22.111,8.827
		c12.616,4.306,25.495,7.604,38.586,10.077c6.453,1.219,12.944,2.211,19.466,3.012c5.946,0.729,11.9,1.333,17.876,1.763
		c4.979,0.358,9.962,0.589,14.95,0.779c6.588,0.253,13.175,0.152,19.762,0.104c2.884-0.021,5.765-0.224,8.647-0.336
		C273.814,350.35,274.203,350.385,274.592,350.396z"/>
	<path fill-rule="evenodd" clip-rule="evenodd" fill="#2F3657" d="M401.429,189.579c-0.534,2.468-0.606,5.012-1.208,7.469
		c-2.575-1.497-5.13-3.029-7.729-4.484c-6.566-3.679-13.337-6.935-20.295-9.812c-11.69-4.833-23.71-8.643-35.971-11.723
		c-6.491-1.631-13.042-3.001-19.626-4.189c-5.654-1.021-11.345-1.84-17.044-2.568c-2.563-0.327-5.137-0.56-7.707-0.813
		c-0.858-0.084-1.311-0.284-1.346-1.371c-0.063-1.961-0.366-3.917-0.334-5.891c6.203,0.582,12.386,1.324,18.548,2.235
		c7.22,1.068,14.394,2.382,21.52,3.949c5.175,1.137,10.329,2.367,15.429,3.814c3.726,1.057,7.445,2.132,11.13,3.328
		c11.593,3.765,22.87,8.293,33.719,13.866c3.44,1.767,6.832,3.626,10.141,5.632C400.926,189.186,401.171,189.392,401.429,189.579z"
		/>
	<path fill-rule="evenodd" clip-rule="evenodd" fill="#BABCD5" d="M215.748,156.902c0.276,1.65,0.534,3.303,0.841,4.947
		c0.066,0.354,0.077,0.704,0.123,1.054c0.09,0.681-0.145,0.96-0.864,1.041c-2.274,0.256-4.542,0.573-6.808,0.9
		c-3.575,0.516-7.156,0.997-10.715,1.602c-7.551,1.284-15.052,2.828-22.48,4.698c-12.071,3.038-23.916,6.79-35.432,11.529
		c-8.038,3.308-15.844,7.103-23.338,11.519c-0.696,0.411-1.087,0.173-1.438-0.381c-0.833-1.31-1.648-2.629-2.469-3.946
		c-0.237-0.379-0.471-0.761-0.707-1.142c1.926-1.325,4.001-2.396,6.052-3.5c9.264-4.982,18.877-9.173,28.755-12.785
		c8.185-2.992,16.525-5.463,24.942-7.676c6.781-1.782,13.639-3.247,20.533-4.516c6.067-1.116,12.155-2.135,18.291-2.824
		C212.606,157.246,214.158,156.903,215.748,156.902z"/>
	<path fill-rule="evenodd" clip-rule="evenodd" fill="#FAFAFB" d="M215.26,264.566c-2.416,4.223-5.296,8.084-8.857,11.418
		c-7.196,6.736-15.604,10.939-25.423,12.258c-2.75,0.369-5.499,0.326-8.258,0.318c-6.722-0.018-13.444,0.017-20.166-0.032
		c-0.949-0.007-1.177,0.359-1.329,1.174c-1.529,8.155-3.091,16.304-4.648,24.453c-0.222,1.162-0.611,1.5-1.762,1.5
		c-7.891,0.006-15.783,0.007-23.674,0c-1.376,0-1.902-0.628-1.636-1.98c2.023-10.271,4.058-20.539,6.09-30.809
		c2.371-11.985,4.746-23.971,7.114-35.957c2.173-11.001,4.338-22.003,6.506-33.005c0.25-1.272,0.495-2.546,0.746-3.818
		c0.255-1.291,0.601-1.588,1.889-1.588c15.686-0.002,31.372-0.096,47.055,0.044c6.416,0.057,12.624,1.465,18.347,4.53
		c7.693,4.12,12.013,10.651,13.531,19.147c0.086,0.478,0.141,0.961,0.216,1.441c0.074,0.479,0.156,0.956,0.278,1.702
		c0.718-3.623,1.387-6.986,2.051-10.351c2.236-11.318,4.47-22.638,6.708-33.957c0.547-2.767,1.12-5.528,1.642-8.299
		c0.183-0.974,0.704-1.37,1.673-1.368c7.956,0.012,15.912,0.003,23.868,0.011c1.307,0.001,1.786,0.606,1.531,1.956
		c-1.175,6.21-2.366,12.417-3.554,18.625c-0.353,1.846-0.689,3.696-1.075,5.536c-0.16,0.764,0.038,1,0.847,0.997
		c6.722-0.03,13.447-0.136,20.165,0.018c6.66,0.151,13.118,1.41,18.881,4.973c6.879,4.255,9.947,10.527,9.018,18.553
		c-0.758,6.535-2.133,12.982-3.211,19.472c-1.43,8.6-2.935,17.188-4.403,25.782c-0.541,3.163-1.065,6.328-1.612,9.49
		c-0.256,1.479-0.609,1.752-2.162,1.752c-8.118,0.001-16.237,0.002-24.355,0c-1.729-0.001-2.179-0.508-1.863-2.182
		c1.845-9.776,3.702-19.552,5.553-29.327c1.254-6.624,2.521-13.245,3.731-19.876c0.214-1.167,0.355-2.365,0.122-3.581
		c-0.239-1.244-0.921-2.043-2.08-2.469c-1.075-0.395-2.188-0.606-3.335-0.609c-6.364-0.015-12.729-0.018-19.094-0.041
		c-0.542-0.002-0.792,0.144-0.908,0.728c-2.315,11.665-4.657,23.324-6.988,34.985c-1.385,6.927-2.758,13.855-4.142,20.783
		c-0.25,1.251-0.654,1.587-1.922,1.588c-7.826,0.004-15.653,0.004-23.479-0.001c-1.495-0.001-1.965-0.601-1.675-2.081
		c1.388-7.094,2.777-14.186,4.164-21.279c0.031-0.158,0.041-0.321,0.059-0.481c0.08-0.137,0.145-0.272,0.024-0.42
		C215.389,264.383,215.325,264.475,215.26,264.566z M165.017,285.934c2.89,0,5.782-0.061,8.669,0.021
		c2.017,0.058,4.033,0.079,6.031-0.146c8.756-0.984,16.563-4.31,23.141-10.14c13.002-11.527,17.658-26.206,15.311-43.145
		c-1.127-8.134-5.709-14.141-13.192-17.731c-5.167-2.479-10.701-3.649-16.382-3.692c-15.099-0.114-30.198-0.033-45.297-0.056
		c-0.701-0.001-0.929,0.206-1.054,0.879c-0.632,3.409-1.319,6.808-1.992,10.21c-2.83,14.304-5.665,28.608-8.493,42.913
		c-3.098,15.673-6.184,31.347-9.304,47.015c-0.174,0.871,0.044,1.022,0.869,1.019c6.526-0.031,13.053-0.044,19.579,0.01
		c1.024,0.009,1.346-0.286,1.529-1.277c1.491-8.063,3.044-16.113,4.59-24.165c0.291-1.514,0.556-1.713,2.066-1.713
		C155.73,285.933,160.374,285.934,165.017,285.934z M255.973,183.962c-0.408,0-0.729,0-1.051,0c-6.592,0-13.185,0.018-19.777-0.022
		c-0.834-0.005-1.135,0.23-1.292,1.042c-2.14,11.007-4.309,22.009-6.48,33.011c-4.418,22.384-8.838,44.767-13.284,67.146
		c-0.137,0.692-0.007,0.81,0.652,0.809c6.754-0.021,13.51-0.021,20.264,0.001c0.634,0.001,0.877-0.165,1.008-0.824
		c3.686-18.564,7.4-37.124,11.109-55.684c0.261-1.303,0.625-1.601,1.995-1.601c6.203-0.002,12.405-0.006,18.608,0.002
		c1.69,0.002,3.374,0.121,5.018,0.551c2.84,0.742,4.443,2.559,4.722,5.366c0.094,0.938,0.081,1.882-0.062,2.818
		c-0.704,4.648-1.685,9.246-2.551,13.865c-2.167,11.564-4.348,23.126-6.563,34.682c-0.152,0.793,0.093,0.823,0.731,0.821
		c7.144-0.018,14.289-0.024,21.433,0.011c0.733,0.004,0.926-0.259,1.033-0.897c1.301-7.737,2.618-15.472,3.938-23.206
		c1.526-8.948,3.045-17.898,4.597-26.842c0.479-2.762,0.857-5.518,0.369-8.316c-0.868-4.963-3.649-8.593-7.91-11.116
		c-5.422-3.211-11.433-4.349-17.615-4.479c-7.337-0.154-14.679-0.035-22.019-0.038c-1.359,0-1.912-0.599-1.68-1.818
		c1.087-5.699,2.184-11.396,3.27-17.096C254.951,189.445,255.452,186.741,255.973,183.962z"/>
	<path fill-rule="evenodd" clip-rule="evenodd" fill="#FAFAFB" d="M339.066,208.497c7.502,0,15.007-0.126,22.505,0.037
		c7.263,0.157,14.234,1.682,20.49,5.608c6.42,4.03,10.291,9.917,11.514,17.297c2.476,14.954-0.779,28.62-10.4,40.444
		c-7.348,9.033-16.948,14.453-28.499,16.277c-2.05,0.324-4.124,0.449-6.207,0.44c-7.664-0.031-15.328-0.016-22.991-0.07
		c-0.855-0.006-1.091,0.3-1.231,1.054c-1.542,8.217-3.111,16.43-4.676,24.643c-0.201,1.057-0.633,1.429-1.74,1.429
		c-7.923,0.007-15.848,0.009-23.771-0.001c-1.368-0.002-1.827-0.647-1.534-2.135c1.129-5.723,2.275-11.443,3.404-17.166
		c2.437-12.337,4.862-24.677,7.298-37.014c2.695-13.64,5.398-27.278,8.096-40.917c0.555-2.798,1.101-5.598,1.646-8.397
		c0.235-1.212,0.596-1.527,1.839-1.527C322.894,208.495,330.98,208.497,339.066,208.497z M337.953,285.934c0,0.004,0,0.007,0,0.011
		c3.02,0,6.042-0.08,9.059,0.014c11.893,0.369,22.135-3.725,30.587-11.896c11.643-11.255,15.693-25.278,13.638-41.108
		c-0.925-7.119-4.468-12.859-10.691-16.723c-5.7-3.539-12.061-5.024-18.63-5.106c-15.26-0.19-30.522-0.059-45.784-0.074
		c-0.567,0-0.757,0.167-0.868,0.735c-2.508,12.783-5.041,25.562-7.567,38.341c-2.563,12.97-5.119,25.941-7.682,38.912
		c-1.521,7.693-3.045,15.386-4.579,23.076c-0.13,0.645-0.143,0.973,0.723,0.969c6.722-0.038,13.442-0.029,20.164-0.01
		c0.64,0.003,0.868-0.18,0.991-0.835c1.514-8.091,3.074-16.173,4.607-24.26c0.35-1.846,0.554-2.046,2.396-2.046
		C328.861,285.934,333.407,285.934,337.953,285.934z"/>
	<path fill-rule="evenodd" clip-rule="evenodd" fill="#020202" d="M165.017,285.934c-4.643,0-9.287-0.001-13.93,0.001
		c-1.51,0-1.775,0.199-2.066,1.713c-1.545,8.052-3.099,16.103-4.59,24.165c-0.184,0.991-0.505,1.286-1.529,1.277
		c-6.526-0.054-13.053-0.041-19.579-0.01c-0.825,0.004-1.043-0.147-0.869-1.019c3.12-15.668,6.207-31.342,9.304-47.015
		c2.829-14.305,5.663-28.609,8.493-42.913c0.673-3.402,1.36-6.801,1.992-10.21c0.125-0.673,0.354-0.88,1.054-0.879
		c15.099,0.023,30.198-0.058,45.297,0.056c5.682,0.043,11.216,1.214,16.382,3.692c7.483,3.591,12.065,9.597,13.192,17.731
		c2.347,16.939-2.309,31.618-15.311,43.145c-6.578,5.83-14.385,9.155-23.141,10.14c-1.998,0.225-4.014,0.203-6.031,0.146
		C170.798,285.873,167.907,285.934,165.017,285.934z M171.878,227.837c-3.385,0-6.176,0-8.967,0c-1.791,0-2.044,0.24-2.327,1.99
		c-0.543,3.359-1.113,6.713-1.673,10.07c-1.515,9.078-3.035,18.154-4.541,27.234c-0.253,1.527,0.191,2.016,1.76,2.017
		c4.025,0.004,8.05-0.049,12.074,0.02c2.776,0.047,5.495-0.28,8.203-0.836c8.423-1.727,14.125-6.564,16.896-14.754
		c1.339-3.957,1.979-8.045,2.226-12.201c0.198-3.357-0.706-6.363-3.063-8.821c-2.954-3.08-6.783-4.153-10.867-4.556
		C178.167,227.662,174.722,227.918,171.878,227.837z"/>
	<path fill-rule="evenodd" clip-rule="evenodd" fill="#020202" d="M255.973,183.962c-0.521,2.779-1.022,5.483-1.537,8.185
		c-1.086,5.699-2.183,11.396-3.27,17.096c-0.232,1.219,0.32,1.817,1.68,1.818c7.34,0.003,14.682-0.116,22.019,0.038
		c6.183,0.129,12.193,1.267,17.615,4.479c4.261,2.523,7.042,6.153,7.91,11.116c0.488,2.798,0.109,5.554-0.369,8.316
		c-1.552,8.944-3.07,17.894-4.597,26.842c-1.32,7.734-2.638,15.469-3.938,23.206c-0.107,0.639-0.3,0.901-1.033,0.897
		c-7.144-0.035-14.289-0.028-21.433-0.011c-0.639,0.002-0.884-0.028-0.731-0.821c2.215-11.556,4.396-23.117,6.563-34.682
		c0.866-4.619,1.847-9.217,2.551-13.865c0.143-0.936,0.155-1.88,0.062-2.818c-0.278-2.807-1.882-4.624-4.722-5.366
		c-1.644-0.43-3.327-0.549-5.018-0.551c-6.203-0.009-12.405-0.004-18.608-0.002c-1.369,0-1.734,0.298-1.995,1.601
		c-3.709,18.56-7.423,37.119-11.109,55.684c-0.131,0.659-0.374,0.825-1.008,0.824c-6.754-0.021-13.51-0.021-20.264-0.001
		c-0.659,0.001-0.789-0.116-0.652-0.809c4.445-22.379,8.865-44.762,13.284-67.146c2.171-11.001,4.34-22.003,6.48-33.011
		c0.158-0.811,0.458-1.046,1.292-1.042c6.593,0.041,13.185,0.022,19.777,0.022C255.244,183.962,255.565,183.962,255.973,183.962z"/>
	<path fill-rule="evenodd" clip-rule="evenodd" fill="#6D7EB6" d="M215.26,264.566c0.065-0.092,0.129-0.184,0.194-0.276
		c0.121,0.147,0.056,0.283-0.024,0.42C215.374,264.662,215.317,264.614,215.26,264.566z"/>
	<path fill-rule="evenodd" clip-rule="evenodd" fill="#020202" d="M337.953,285.934c-4.546,0-9.092,0-13.638,0
		c-1.842,0-2.046,0.2-2.396,2.046c-1.533,8.087-3.094,16.169-4.607,24.26c-0.123,0.655-0.352,0.838-0.991,0.835
		c-6.722-0.02-13.442-0.028-20.164,0.01c-0.865,0.004-0.853-0.324-0.723-0.969c1.534-7.69,3.058-15.383,4.579-23.076
		c2.563-12.971,5.119-25.942,7.682-38.912c2.526-12.78,5.06-25.558,7.567-38.341c0.111-0.568,0.301-0.735,0.868-0.735
		c15.262,0.015,30.524-0.116,45.784,0.074c6.569,0.082,12.93,1.567,18.63,5.106c6.224,3.864,9.767,9.604,10.691,16.723
		c2.056,15.831-1.995,29.854-13.638,41.108c-8.452,8.171-18.694,12.265-30.587,11.896c-3.017-0.094-6.039-0.014-9.059-0.014
		C337.953,285.94,337.953,285.938,337.953,285.934z M344.92,227.837c-3.479,0-6.367-0.002-9.257,0
		c-1.483,0.001-1.815,0.308-2.051,1.738c-0.739,4.508-1.498,9.014-2.249,13.521c-1.327,7.958-2.66,15.916-3.974,23.875
		c-0.29,1.747,0.102,2.177,1.846,2.178c4.058,0.002,8.116-0.055,12.171,0.02c3.012,0.054,5.949-0.354,8.859-1.044
		c6.454-1.527,11.492-4.95,14.509-11.006c2.655-5.331,3.689-11.059,3.718-16.938c0.022-4.532-2.268-7.867-6.235-10.039
		c-2.402-1.316-5.013-1.893-7.71-2.146C351.146,227.676,347.735,227.919,344.92,227.837z"/>
	<path fill-rule="evenodd" clip-rule="evenodd" fill="#FAFAFB" d="M171.878,227.837c2.844,0.081,6.289-0.175,9.721,0.163
		c4.083,0.403,7.913,1.476,10.867,4.556c2.357,2.458,3.261,5.464,3.063,8.821c-0.247,4.156-0.886,8.244-2.226,12.201
		c-2.771,8.189-8.473,13.027-16.896,14.754c-2.708,0.556-5.426,0.883-8.203,0.836c-4.024-0.068-8.049-0.016-12.074-0.02
		c-1.568-0.001-2.013-0.489-1.76-2.017c1.506-9.08,3.026-18.157,4.541-27.234c0.56-3.356,1.13-6.711,1.673-10.07
		c0.283-1.75,0.537-1.99,2.327-1.99C165.702,227.837,168.493,227.837,171.878,227.837z M173.151,230.477
		c-3.38,0-6.172,0.039-8.962-0.023c-0.875-0.02-1.153,0.268-1.282,1.103c-0.578,3.744-1.225,7.478-1.846,11.216
		c-1.273,7.667-2.531,15.337-3.839,22.998c-0.135,0.79,0.126,0.822,0.755,0.817c3.505-0.023,7.011-0.059,10.515,0.004
		c2.813,0.051,5.558-0.354,8.273-1.006c4.801-1.154,8.908-3.418,11.597-7.714c3.546-5.664,4.604-11.994,4.508-18.532
		c-0.034-2.381-1.306-4.378-3.218-5.882c-2.052-1.615-4.453-2.357-6.981-2.73C179.316,230.234,175.932,230.588,173.151,230.477z"/>
	<path fill-rule="evenodd" clip-rule="evenodd" fill="#FAFAFB" d="M344.92,227.837c2.815,0.082,6.226-0.161,9.627,0.158
		c2.697,0.253,5.308,0.83,7.71,2.146c3.968,2.172,6.258,5.507,6.235,10.039c-0.028,5.879-1.063,11.608-3.718,16.938
		c-3.017,6.056-8.055,9.479-14.509,11.006c-2.91,0.689-5.848,1.098-8.859,1.044c-4.055-0.074-8.113-0.018-12.171-0.02
		c-1.744-0.001-2.136-0.431-1.846-2.178c1.313-7.96,2.646-15.917,3.974-23.875c0.751-4.507,1.51-9.012,2.249-13.521
		c0.235-1.43,0.567-1.736,2.051-1.738C338.553,227.835,341.44,227.837,344.92,227.837z M346.157,230.477
		c-3.482,0-6.372,0.015-9.262-0.012c-0.612-0.005-0.849,0.206-0.947,0.804c-1.896,11.512-3.803,23.021-5.744,34.524
		c-0.124,0.736,0.1,0.797,0.702,0.793c3.377-0.019,6.755-0.06,10.13,0.008c2.646,0.052,5.237-0.268,7.818-0.79
		c7.508-1.521,12.581-5.789,15-13.138c1.278-3.884,1.946-7.872,2.081-11.935c0.122-3.66-1.534-6.423-4.733-8.229
		c-1.717-0.968-3.585-1.498-5.522-1.775C352.318,230.246,348.936,230.589,346.157,230.477z"/>
	<path fill-rule="evenodd" clip-rule="evenodd" fill="#6D7EB6" d="M173.151,230.477c2.78,0.111,6.165-0.243,9.521,0.251
		c2.528,0.373,4.929,1.115,6.981,2.73c1.912,1.504,3.184,3.501,3.218,5.882c0.095,6.538-0.962,12.868-4.508,18.532
		c-2.689,4.296-6.796,6.56-11.597,7.714c-2.715,0.651-5.46,1.057-8.273,1.006c-3.504-0.063-7.01-0.027-10.515-0.004
		c-0.629,0.005-0.89-0.027-0.755-0.817c1.308-7.661,2.566-15.331,3.839-22.998c0.621-3.738,1.268-7.472,1.846-11.216
		c0.128-0.835,0.406-1.123,1.282-1.103C166.979,230.515,169.771,230.477,173.151,230.477z"/>
	<path fill-rule="evenodd" clip-rule="evenodd" fill="#6D7EB6" d="M346.157,230.477c2.778,0.112,6.161-0.231,9.522,0.25
		c1.938,0.277,3.806,0.808,5.522,1.775c3.199,1.806,4.855,4.569,4.733,8.229c-0.135,4.063-0.803,8.051-2.081,11.935
		c-2.419,7.349-7.492,11.618-15,13.138c-2.581,0.522-5.172,0.842-7.818,0.79c-3.375-0.067-6.753-0.026-10.13-0.008
		c-0.603,0.004-0.826-0.057-0.702-0.793c1.941-11.503,3.848-23.013,5.744-34.524c0.099-0.599,0.335-0.81,0.947-0.804
		C339.785,230.491,342.675,230.477,346.157,230.477z"/>
</g>
</svg>
