<?xml version="1.0" encoding="utf-8"?>
<!-- Generator: Adobe Illustrator 16.0.0, SVG Export Plug-In . SVG Version: 6.00 Build 0)  -->
<!DOCTYPE svg PUBLIC "-//W3C//DTD SVG 1.1//EN" "http://www.w3.org/Graphics/SVG/1.1/DTD/svg11.dtd">
<svg version="1.1" id="Layer_1" xmlns="http://www.w3.org/2000/svg" xmlns:xlink="http://www.w3.org/1999/xlink" x="0px" y="0px"
	 width="512px" height="512px" viewBox="0 0 512 512" enable-background="new 0 0 512 512" xml:space="preserve">
<g>
	<g>
		<circle fill="#50A3DA" cx="256.158" cy="260.78" r="136.431"/>
		<circle fill="#F04D43" cx="256.637" cy="261.115" r="90.938"/>
		<circle fill="#F7EC32" cx="256.637" cy="261.111" r="46.092"/>
	</g>
	<g>
		<path fill="none" d="M409.162,324.165c-34.488,84.646-131.068,125.306-215.715,90.815
			c-84.642-34.487-125.305-131.07-90.809-215.716c34.486-84.647,131.067-125.302,215.713-90.812
			C402.987,142.945,443.651,239.521,409.162,324.165z"/>
		<path fill="#4D4D4D" d="M82.085,166.025l5.066-8.201c2.019-3.268,4.202-5.171,6.55-5.714c2.345-0.542,4.708-0.078,7.084,1.392
			c0.802,0.495,1.515,1.119,2.136,1.874c0.623,0.754,1.122,1.587,1.505,2.5c0.381,0.912,0.605,1.874,0.68,2.884
			c0.075,1.011-0.052,2.012-0.375,3.001L121.087,165l-2.149,3.476l-16.056-1.422l-3.304,5.348l12.255,7.573l-1.983,3.209
			L82.085,166.025z M87.01,164.634l9.804,6.058l3.319-5.371c1.224-1.982,1.674-3.688,1.345-5.118
			c-0.326-1.427-1.22-2.594-2.675-3.493c-0.713-0.441-1.438-0.725-2.181-0.858c-0.74-0.129-1.464-0.118-2.174,0.036
			c-0.71,0.153-1.42,0.502-2.126,1.047c-0.707,0.546-1.371,1.322-1.994,2.327L87.01,164.634z M111.517,125.513l14.456-13.841
			l2.246,2.346l-11.958,11.449l7.427,7.758l9.876-9.456l2.392,2.496l-9.876,9.456l8.297,8.666l11.843-11.339l2.248,2.347
			l-14.344,13.733L111.517,125.513z M176.367,97.835c2.372,4.195,3.541,7.909,3.504,11.139c-0.037,3.231-1.271,5.934-3.692,8.106
			c0.629,0.969,1.352,1.644,2.167,2.024c0.817,0.381,1.864,0.209,3.141-0.512c0.152-0.085,0.387-0.239,0.704-0.458
			c0.316-0.22,0.668-0.449,1.055-0.688c0.388-0.237,0.747-0.472,1.079-0.7c0.333-0.229,0.574-0.386,0.727-0.471l1.664,3.152
			l-1.779,1.006c-1.49,0.842-2.787,1.476-3.892,1.9c-1.104,0.423-2.124,0.538-3.055,0.343c-0.932-0.195-1.764-0.618-2.493-1.268
			c-0.729-0.652-1.43-1.571-2.101-2.754c-1.242,0.5-2.578,0.727-4.013,0.675s-2.912-0.431-4.433-1.134
			c-1.523-0.705-3.021-1.774-4.493-3.207c-1.473-1.434-2.864-3.306-4.171-5.617c-1.615-2.856-2.629-5.412-3.043-7.667
			c-0.413-2.254-0.426-4.213-0.041-5.875c0.383-1.66,1.03-3.07,1.94-4.229c0.912-1.156,1.897-2.036,2.961-2.638
			c1.309-0.74,2.717-1.175,4.229-1.308c1.509-0.13,3.098,0.124,4.766,0.765c1.667,0.644,3.259,1.718,4.776,3.228
			C173.391,93.158,174.889,95.22,176.367,97.835z M156.448,96.882c-0.567,2.689,0.286,6.041,2.556,10.051
			c1.032,1.824,2.129,3.391,3.292,4.698c1.161,1.31,2.355,2.32,3.58,3.032c1.222,0.711,2.473,1.109,3.743,1.192
			c1.272,0.084,2.456-0.185,3.548-0.804c0.76-0.429,1.435-1.062,2.027-1.897c0.592-0.834,0.975-1.875,1.153-3.121
			c0.18-1.246,0.076-2.671-0.312-4.278c-0.387-1.606-1.148-3.414-2.283-5.418c-1.443-2.555-2.835-4.516-4.173-5.888
			c-1.338-1.37-2.635-2.3-3.897-2.79c-1.26-0.491-2.386-0.688-3.374-0.591c-0.987,0.099-1.845,0.353-2.575,0.765
			c-0.913,0.517-1.636,1.227-2.167,2.129C157.035,94.864,156.663,95.841,156.448,96.882z M194.167,73.147l3.995-1.081l0.079,0.088
			c0.036,0.135,0.012,0.352-0.071,0.645c-0.083,0.294-0.107,0.636-0.075,1.025l5.165,19.1c0.475,1.755,1.013,3.069,1.608,3.942
			c0.598,0.871,1.286,1.536,2.062,1.998c0.775,0.459,1.617,0.731,2.525,0.811c0.908,0.082,1.842,0.026,2.805-0.161
			c0.926-0.322,1.764-0.731,2.518-1.226c0.752-0.493,1.353-1.152,1.797-1.98c0.445-0.827,0.714-1.777,0.804-2.853
			c0.09-1.076-0.112-2.524-0.605-4.349l-5.564-20.568l3.39-0.916l5.54,20.482c0.555,2.057,0.798,3.854,0.726,5.394
			c-0.075,1.539-0.454,2.909-1.142,4.107c-0.689,1.199-1.593,2.206-2.713,3.013c-1.119,0.809-2.456,1.425-4.006,1.843
			c-1.518,0.411-2.962,0.547-4.336,0.415c-1.375-0.135-2.635-0.538-3.773-1.206c-1.14-0.667-2.131-1.593-2.975-2.776
			c-0.846-1.183-1.57-2.887-2.17-5.113L194.167,73.147z M245.697,63.619l16.293-0.145l0.025,3.037l-6.441,0.058l0.238,26.666
			l6.76-0.06l0.026,2.984l-16.975,0.152l-0.026-3.036l6.443-0.059l-0.239-26.611l-6.076,0.053L245.697,63.619L245.697,63.619z
			 M292.59,66.709l9.368,2.275c3.732,0.905,6.219,2.39,7.462,4.453c1.242,2.063,1.534,4.451,0.875,7.167
			c-0.224,0.916-0.598,1.788-1.12,2.612c-0.523,0.826-1.161,1.561-1.909,2.206c-0.749,0.646-1.594,1.159-2.53,1.542
			c-0.939,0.383-1.93,0.574-2.971,0.573l3.896,15.933l-3.973-0.965l-3.625-15.706l-6.11-1.484l-3.399,14l-3.665-0.89L292.59,66.709
			L292.59,66.709z M295.438,70.958l-2.719,11.198l6.135,1.492c2.263,0.55,4.023,0.448,5.281-0.308
			c1.259-0.754,2.089-1.963,2.492-3.627c0.197-0.813,0.243-1.592,0.139-2.338c-0.106-0.744-0.342-1.431-0.709-2.057
			c-0.365-0.627-0.916-1.193-1.654-1.697c-0.737-0.501-1.68-0.892-2.828-1.172L295.438,70.958z M340.688,82.299l17.649,9.434
			l-1.531,2.865l-14.6-7.805l-5.064,9.471l12.06,6.447l-1.63,3.048l-12.059-6.446l-5.657,10.58l14.46,7.731l-1.53,2.864
			l-17.509-9.359L340.688,82.299L340.688,82.299z M370.131,112.182c0.448,0.344,0.815,0.771,1.105,1.28
			c0.287,0.508,0.483,1.034,0.585,1.573c0.104,0.54,0.109,1.073,0.016,1.6c-0.095,0.525-0.297,0.991-0.608,1.396
			c-0.334,0.434-0.737,0.774-1.214,1.017c-0.477,0.245-0.98,0.386-1.516,0.422c-0.535,0.038-1.081-0.025-1.636-0.186
			c-0.555-0.162-1.076-0.433-1.569-0.81c-0.478-0.366-0.861-0.789-1.151-1.264c-0.289-0.477-0.482-0.976-0.577-1.498
			c-0.091-0.521-0.079-1.04,0.042-1.557c0.121-0.516,0.354-0.999,0.699-1.448c0.333-0.433,0.742-0.77,1.224-1.008
			c0.483-0.238,0.991-0.378,1.528-0.415c0.535-0.038,1.071,0.02,1.613,0.169C369.21,111.605,369.698,111.848,370.131,112.182
			L370.131,112.182z M398.576,124.121l10.138,10.965l-2.232,2.063l-3.414-3.693L389.387,146.1c-1.567,1.449-3.015,2.514-4.34,3.191
			c-1.324,0.679-2.632,1.017-3.918,1.017c-1.287,0-2.421-0.234-3.404-0.704c-0.982-0.471-1.878-1.143-2.682-2.014
			c-2.111-2.283-2.969-4.986-2.573-8.109l3.864-0.219c-0.006,0.148-0.086,0.305-0.239,0.473c-0.155,0.167-0.248,0.336-0.281,0.509
			l-0.032,0.887c-0.037,0.221-0.017,0.513,0.058,0.872c0.072,0.361,0.186,0.744,0.344,1.146c0.156,0.4,0.333,0.797,0.527,1.188
			c0.193,0.392,0.434,0.741,0.72,1.05c1.184,1.281,2.5,1.802,3.943,1.561c1.444-0.242,3.286-1.396,5.522-3.462l13.722-12.684
			l-4.268-4.617L398.576,124.121z M429.141,173.298l-3.874-0.434c-0.027-0.187,0.054-0.343,0.241-0.471
			c0.188-0.13,0.312-0.249,0.367-0.361c0.516-1.063,0.751-2.233,0.701-3.514c-0.053-1.28-0.494-2.647-1.326-4.101
			c-0.802-1.394-1.876-2.317-3.224-2.772c-1.348-0.454-2.584-0.359-3.703,0.283c-0.668,0.383-1.178,0.828-1.53,1.333
			c-0.355,0.506-0.623,1.124-0.809,1.855c-0.185,0.729-0.25,1.684-0.199,2.862c0.053,1.179,0.208,2.66,0.469,4.443
			c0.223,1.725,0.316,3.202,0.278,4.433c-0.039,1.23-0.22,2.3-0.544,3.21c-0.322,0.909-0.774,1.684-1.356,2.319
			c-0.581,0.637-1.312,1.207-2.189,1.71c-0.97,0.557-2.051,0.936-3.244,1.137c-1.192,0.202-2.398,0.139-3.612-0.189
			c-1.217-0.33-2.407-0.947-3.568-1.848c-1.164-0.903-2.223-2.188-3.179-3.854c-2.104-3.664-2.589-7.313-1.452-10.945l4.339-0.014
			c-0.003,0.203-0.11,0.365-0.323,0.488c-0.212,0.12-0.353,0.263-0.421,0.422c-0.479,1.202-0.674,2.563-0.588,4.083
			c0.088,1.519,0.611,3.113,1.567,4.778c0.486,0.847,1.077,1.546,1.774,2.092c0.697,0.547,1.427,0.943,2.192,1.188
			c0.767,0.246,1.561,0.333,2.386,0.262c0.825-0.071,1.601-0.314,2.328-0.732c0.575-0.33,1.042-0.729,1.398-1.195
			c0.354-0.467,0.606-1.044,0.755-1.733c0.148-0.69,0.188-1.569,0.121-2.635c-0.072-1.068-0.226-2.439-0.462-4.115
			c-0.277-1.815-0.402-3.386-0.377-4.708c0.024-1.324,0.167-2.462,0.426-3.416c0.258-0.953,0.659-1.759,1.211-2.416
			c0.549-0.657,1.23-1.22,2.05-1.69c1.029-0.59,2.126-0.928,3.287-1.011c1.16-0.083,2.304,0.068,3.428,0.448
			c1.124,0.38,2.181,0.993,3.168,1.834c0.988,0.844,1.83,1.87,2.525,3.083c0.886,1.545,1.41,3.176,1.572,4.896
			C429.905,170.021,429.702,171.685,429.141,173.298L429.141,173.298z"/>
	</g>
	<g>
		<path fill="none" stroke="#4D4D4D" stroke-width="2" stroke-miterlimit="10" d="M160.393,435.638h178.14"/>
		<path fill="#4D4D4D" d="M353.519,434.377c1.235,0.594,1.243,1.58,0.018,2.193l-16.557,8.307c-1.227,0.611-2.185-0.009-2.185-1.377
			v-15.657c0-1.37,0.967-2.005,2.201-1.413L353.519,434.377L353.519,434.377z"/>
		<path fill="none" stroke="#4D4D4D" stroke-width="2" stroke-miterlimit="10" d="M176.06,423.803l11.938,11.835"/>
		<path fill="none" stroke="#4D4D4D" stroke-width="2" stroke-miterlimit="10" d="M167.339,423.803l11.938,11.835"/>
		<path fill="none" stroke="#4D4D4D" stroke-width="2" stroke-miterlimit="10" d="M158.619,423.803l11.938,11.835"/>
		<path fill="none" stroke="#4D4D4D" stroke-width="2" stroke-miterlimit="10" d="M170.557,435.64l-11.939,11.835"/>
		<path fill="none" stroke="#4D4D4D" stroke-width="2" stroke-miterlimit="10" d="M179.277,435.64l-11.939,11.835"/>
		<path fill="none" stroke="#4D4D4D" stroke-width="2" stroke-miterlimit="10" d="M187.998,435.64l-11.939,11.835"/>
		<path fill="none" stroke="#4D4D4D" stroke-width="2" stroke-miterlimit="10" d="M184.78,423.803l11.939,11.835"/>
		<path fill="none" stroke="#4D4D4D" stroke-width="2" stroke-miterlimit="10" d="M196.717,435.64l-11.939,11.835"/>
	</g>
</g>
</svg>
